<?xml version="1.0" encoding="UTF-8"?>
<svg width="15px" height="14px" viewBox="0 0 15 14" version="1.1" xmlns="http://www.w3.org/2000/svg" xmlns:xlink="http://www.w3.org/1999/xlink">
    <title>Icon/Panels/LtT/Group/All</title>
    <g id="Icon/Panels/LtT/Group/All" stroke="none" stroke-width="1" fill="none" fill-rule="evenodd">
        <path d="M0,14 L15,14 L15,13 L0,13 L0,14 Z M7,11 L8,11 L8,6 L7,6 L7,11 Z M6.81818182,5 C6.36640909,5 6,5.32417241 6,5.72413793 L6,11.2758621 C6,11.6757069 6.36640909,12 6.81818182,12 L8.18181818,12 C8.63359091,12 9,11.6757069 9,11.2758621 L9,5.72413793 C9,5.32417241 8.63359091,5 8.18181818,5 L6.81818182,5 Z M11,11 L13,11 L13,3 L11,3 L11,11 Z M13.25,2 L10.75,2 C10.335875,2 10,2.33575 10,2.75 L10,11.25 C10,11.664125 10.335875,12 10.75,12 L13.25,12 C13.664125,12 14,11.664125 14,11.25 L14,2.75 C14,2.33575 13.664125,2 13.25,2 L13.25,2 Z M2,11 L4,11 L4,1 L2,1 L2,11 Z M4.25,0 L1.75,0 C1.335875,0 1,0.33575 1,0.75 L1,11.25 C1,11.664125 1.335875,12 1.75,12 L4.25,12 C4.664125,12 5,11.664125 5,11.25 L5,0.75 C5,0.33575 4.664125,0 4.25,0 L4.25,0 Z" id="library_all-copy" fill="#29313B"></path>
    </g>
</svg>