<?xml version="1.0" standalone="no"?>
<!DOCTYPE svg PUBLIC "-//W3C//DTD SVG 1.1//EN" "http://www.w3.org/Graphics/SVG/1.1/DTD/svg11.dtd">
<svg xmlns="http://www.w3.org/2000/svg">
<metadata>Copyright (C) 2023 by original authors @ fontello.com</metadata>
<defs>
<font id="mobile_dossier_ios" horiz-adv-x="1000" >
<font-face font-family="mobile_dossier_ios" font-weight="400" font-stretch="normal" units-per-em="1000" ascent="850" descent="-150" />
<missing-glyph horiz-adv-x="1000" />
<glyph glyph-name="filter" unicode="&#xe800;" d="M909 830h-817c-23 0-42-18-42-42v-112l0-2c1-10 5-20 13-27l295-277v-456c0-35 38-54 66-34l202 144 2 1c9 8 15 19 15 31l0 313 295 277c8 8 13 18 13 29v113c0 23-19 42-42 42z m-38-80v-56l-295-278-2-2c-7-7-11-17-11-27l0-310-125-90v400l0 2c-1 10-5 20-13 27l-295 278v56h741z" horiz-adv-x="1000" />

<glyph glyph-name="list" unicode="&#xe801;" d="M20 690h960v60h-960v-60z m0-247h480v60h-480v-60z m0-246h960v60h-960v-60z m0-247h480v60h-480v-60z" horiz-adv-x="1000" />

<glyph glyph-name="search" unicode="&#xe802;" d="M20 442c0-54 10-104 30-151 20-47 48-88 84-124 36-36 77-64 124-84 47-20 97-30 151-30 42 0 82 6 121 19s73 31 105 54l239-240c6-6 12-10 19-12 7-3 15-4 22-4 11 0 21 3 29 8 8 5 15 12 19 20 5 9 7 18 7 29 0 8-1 15-4 22-3 7-6 13-12 18l-237 240c25 32 44 69 58 109 14 40 21 82 21 127 0 54-10 104-30 150-20 47-48 88-84 124-35 35-76 63-123 83-47 20-97 30-150 30-54 0-104-10-151-30-47-20-88-48-124-84-36-36-64-77-84-124-20-47-30-97-30-150z m83 0c0 42 8 82 23 118 16 37 38 69 66 97 28 28 61 50 97 66 37 16 77 24 119 24 42 0 82-8 118-24 37-16 69-37 97-66 28-28 50-60 66-97 16-37 24-76 24-118s-8-82-23-119c-16-37-38-69-66-97-28-28-60-50-97-66-37-16-76-24-118-24-42 0-82 8-119 24-37 16-69 38-97 66-28 28-50 60-66 97-16 37-24 77-24 119z" horiz-adv-x="1000" />

<glyph glyph-name="share1" unicode="&#xe803;" d="M399 679v-80l-280 0c-11 0-19-8-20-18l0-1v-540c0-11 8-19 18-20l1 0h639c11 0 19 8 20 18l0 1 0 130h80l0-130c0-55-45-100-100-100h-637c-55 1-100 45-100 101v539c0 55 45 100 100 100h279z m310 83l265-237c8-7 8-19 0-27l-265-238c-16-15-30-9-30 13v123c-194 0-360-172-360-172-16-15-27-9-23 12 0 0 29 359 383 393v120c0 22 13 28 30 13z" horiz-adv-x="1000" />

<glyph glyph-name="sort" unicode="&#xe804;" d="M275 830l-43-42-212-213 43-42 182 182v-845h60v845l182-182 43 42-212 213-43 42z m450-960l-43 42-212 213 43 42 182-182v845h60v-845l182 182 43-42-212-213-43-42z" horiz-adv-x="1000" />

<glyph glyph-name="styles" unicode="&#xe805;" d="M911 767l-48 35-40 28-30-38-373-473-21-27 17-30 2-4-14-23c-10 2-21 3-32 3-67 0-126-39-152-99l0 0c-1-3-2-5-3-8-20-54-42-77-81-93-13-4-25-7-36-8-54-5-66-71-27-99 42-29 87-48 133-55l0 0c0 0 1 0 1 0 0 0 0 0 1 0l0 0c95-18 187 4 262 63l0 0c43 31 69 80 69 134 0 23-5 45-14 65l20 24 36-13 22 35 322 515 25 40-39 28z m-351-556l-31 11-66-78c15-20 25-44 25-71 0-39-19-73-49-94-64-50-141-69-223-53-38 6-77 21-113 47-3 2-2 7 1 7 16 1 33 5 50 11 44 18 82 46 111 123 0 1 1 2 1 3 17 41 58 70 106 70 20 0 38-5 55-14l49 85-16 30 373 473 48-35-321-515z" horiz-adv-x="1000" />

<glyph glyph-name="thumbnails" unicode="&#xe806;" d="M20 730v-320h420v320h-420z m360-260h-300v200h300v-200z m180 260v-320h420v320h-420z m360-260h-300v200h300v-200z m-360-182v-320h420v320h-420z m360-260h-300v200h300v-200z m-900 260v-320h420v320h-420z m360-260h-300v200h300v-200z" horiz-adv-x="1000" />

<glyph glyph-name="toc" unicode="&#xe807;" d="M830 830c66 0 120-54 120-120v-720c0-66-54-120-120-120h-660c-66 0-120 54-120 120v720c0 66 54 120 120 120h660z m0-80h-660c-21 0-39-17-40-38l0-2v-720c0-21 17-39 38-40l2 0h660c21 0 39 17 40 38l0 2v720c0 21-17 39-38 40l-2 0z m-528-558c29 0 52-23 52-52s-23-52-52-52-52 23-52 52 23 52 52 52z m408-12c22 0 40-18 40-40s-18-40-40-40h-240c-22 0-40 18-40 40s18 40 40 40h240z m-408 222c29 0 52-23 52-52s-23-52-52-52-52 23-52 52 23 52 52 52z m408-12c22 0 40-18 40-40s-18-40-40-40h-240c-22 0-40 18-40 40s18 40 40 40h240z m-408 222c29 0 52-23 52-52s-23-52-52-52-52 23-52 52 23 52 52 52z m408-12c22 0 40-18 40-40s-18-40-40-40h-240c-22 0-40 18-40 40s18 40 40 40h240z" horiz-adv-x="1000" />

<glyph glyph-name="dossier" unicode="&#xe808;" d="M607-41l-86 88-1-2-347 353c-11 12-26 17-41 17-15 0-30-6-42-18-23-24-23-62 0-85l277-281-27-28-290 295c-31 31-31 82-1 114l293 305c15 16 35 24 56 24 20 0 40-8 55-23l75-76 76 79c29 30 76 30 106 1l266-270-317-330-252 257c-22 22-58 22-79 0-22-23-22-59 0-82l279-284 342 356 27-27-369-383z" horiz-adv-x="1000" />

<glyph glyph-name="dossier_round_fill" unicode="&#xe809;" d="M20 350c0 265 215 480 480 480 265 0 480-215 480-480 0-265-215-480-480-480-265 0-480 215-480 480z m245 24l314-319 253 257c9 10 9 25 0 35-10 10-26 10-35 0l-218-226-196 196c-4 7-7 14-7 22 0 8 2 15 7 22l11 7c3 1 7 2 11 2 2 0 5 0 9-1 4-1 7-1 9-4l157-157 240 244-166 166c-18 15-35 18-44 18-18 1-34-5-48-18l-44-48-44 52c-14 12-30 18-48 18-18-1-34-8-48-22l-208-209c-13-14-20-30-20-48 0-18 7-34 20-48l198-198c11-11 28-10 38 1 9 10 9 26-1 36l-183 182c-5 5-8 12-9 22 0 2 1 5 3 9 2 4 5 7 9 9 4 5 9 8 18 9h4c2 0 5-1 9-3 1 0 1-1 2-1 3-2 5-3 7-5z" horiz-adv-x="1000" />

<glyph glyph-name="share_ios" unicode="&#xe80a;" d="M500 830l-166-166 42-42 94 94v-456h60v455l94-94 42 42-166 167z m140-280v-60h150v-560h-580v560h150v60h-210v-680h700v680h-210z" horiz-adv-x="1000" />

<glyph glyph-name="page" unicode="&#xe80b;" d="M250 290h500v-60h-500v60z m0-240h500v60h-500v-60z m660 400l0 0v-580h-820v960h440l380-380 0 0z m-380 295v-295h295l-295 295z m320-355h-380v380h-320v-840h700v460z" horiz-adv-x="1000" />

<glyph glyph-name="link" unicode="&#xe80c;" d="M912 762c-90 90-236 90-326 0l-185-185c0 0-1-1-1-1 10 1 20 2 31 2 17 0 34-2 51-6l146 147c67 67 175 67 241 0 67-67 67-175 0-242l-184-184c-67-67-175-67-241 0-22 22-36 48-44 76-20-9-37-23-49-42 11-28 28-54 50-77 90-90 236-90 326 0l184 185c92 90 92 237 1 327m-307-632c-2-2-4-5-6-7l-185-185c-90-90-236-90-326 0-90 90-90 237 0 327l184 185c90 90 236 90 326 0 23-23 40-50 51-79-12-18-29-33-50-41-7 28-22 55-44 77-67 67-175 67-241 0l-184-185c-67-67-67-175 0-242 67-67 175-67 241 0l149 149c14-3 28-4 42-4 15 0 29 2 43 5" horiz-adv-x="1000" />

<glyph glyph-name="collaboration" unicode="&#xe80d;" d="M880 810c54 0 99-43 100-97l0-3v-554c0-54-43-98-97-100l-3 0h-397l-72-120c-28-47-73-47-101-2l-1 2-72 120h-117c-54 0-98 43-100 97l0 3v554c0 54 43 98 97 100l3 0h760z m0-80h-760c-11 0-19-8-20-18l0-1v-554c0-11 8-19 18-20l1 0h163l78-130 78 130h442c11 0 19 8 20 18l0 1v554c0 11-8 19-19 20l-1 0z" horiz-adv-x="1000" />

<glyph glyph-name="user_profile" unicode="&#xe80e;" d="M500 830c265 0 480-215 480-480s-215-480-480-480-480 215-480 480 215 480 480 480z m0-80c-221 0-400-179-400-400 0-81 24-156 65-218 23 58 61 110 110 150 17 14 42 11 56-6 14-17 11-42-6-56-50-40-85-97-99-160 72-69 168-110 274-110 106 0 202 41 274 108-13 63-49 120-99 160-17 14-20 39-6 56s39 20 56 6c49-40 87-91 110-150 41 64 65 139 65 220 0 221-179 400-400 400z m0-40c116 0 210-94 210-210s-94-210-210-210-210 94-210 210 94 210 210 210z m0-80c-72 0-130-58-130-130s58-130 130-130 130 58 130 130-58 130-130 130z" horiz-adv-x="1000" />

<glyph glyph-name="selector" unicode="&#xe80f;" d="M598 730l-313-670-226 190-39-46 287-241 346 741-55 26z m122-80h260v60h-260v-60z m-120-330h380v60h-380v-60z m-120-330h500v60h-500v-60z" horiz-adv-x="1000" />

<glyph glyph-name="calendar" unicode="&#xe810;" d="M780 770v60h-60v-60h-430v60h-60v-60h-210v-900h960v900h-200z m-700-840v560h840v-560h-840z m840 620h-840v160h150v-80h60v80h430v-80h60v80h140v-160z" horiz-adv-x="1000" />

<glyph glyph-name="download" unicode="&#xe811;" d="M60-130c-22 0-40 18-40 40v220c0 22 18 40 40 40s40-18 40-40v-180h800v180c0 22 18 40 40 40s40-18 40-40v-220l0 0c0-21-17-39-38-40l-2 0 0 0h-880l0 0z m440 960c22 0 40-18 40-40v-573l148 148c16 16 41 16 57 0 16-16 16-41 0-57l-213-212c-9-9-21-13-32-12-12-1-23 3-32 12l0 0-212 212c-16 16-16 41 0 57 16 16 41 16 57 0l0 0 147-148v573c0 22 18 40 40 40z" horiz-adv-x="1000" />

<glyph glyph-name="sort_z_a" unicode="&#xe812;" d="M851-130h64l-120 338h-68l-121-338h62l29 87h124l30-87z m-92 278h2l47-144h-96l47 144z m-137 342h257v51h-183v2l178 245v40h-248v-51h175v-2l-179-245v-40z m-338 340v-875l-162 161-42-42 204-204h60v960h-60z" horiz-adv-x="1000" />

<glyph glyph-name="connection_error" unicode="&#xe813;" d="M491 731c-48 0-69-11-69-35l23-434c0-36 21-65 47-65s47 29 47 64v1l21 435c0 23-21 34-69 34l0 0z m0-553c-36 0-66 37-66 83l-23 434c0 54 67 54 88 54 22 0 88 0 88-54l-23-435c2-45-28-82-64-82l0 0z m116 26c34-13 64-32 90-57l83 83c-44 42-98 74-157 93l-8-87c0-11-2-22-8-32l0 0z m91-80l0 0c-3 0-5 1-7 3-28 28-62 50-101 63-3 1-5 3-6 6-1 3 0 6 1 8 7 10 11 21 11 31l9 100c0 3 2 5 4 7 2 2 5 2 8 1 69-20 132-57 183-108 2-2 3-4 3-7 0-3-1-5-3-7l-96-96c-1 0-4-1-6-1l0 0z m-478 106l83-82c22 21 48 38 76 51-7 12-11 25-11 37l-8 80c-53-19-100-48-140-86l0 0z m82-106c-3 0-5 1-7 3l-96 96c-4 4-4 10 0 14 46 46 102 81 165 102 3 1 6 1 8-1 2-2 4-4 4-7l9-93c0 0 0-1 0-1 0-12 5-24 14-36 2-2 3-6 2-8-1-3-3-5-6-7-33-14-62-33-87-58-1-3-3-4-6-4l0 0z m334 332c90-23 172-69 238-133l83 82c-87 84-193 142-310 169l-11-118z m238-156c-2 0-5 1-7 3-67 67-151 114-244 136-5 1-8 6-7 10l13 137c0 3 2 5 4 7 2 2 5 2 8 2 128-27 244-90 337-182 2-2 3-4 3-7 0-3-1-5-3-7l-96-96c-3-2-5-3-8-3l0 0z m-831 106l83-82c62 60 138 104 221 128l-11 118c-111-29-211-86-293-164l0 0z m83-106l0 0c-3 0-5 1-7 3l-96 96c-4 4-4 10 0 14 87 87 198 148 319 177 3 1 6 0 8-2 2-2 4-4 4-7l13-137c0-5-3-9-7-10-86-24-164-70-227-132-2-1-5-2-7-2l0 0z m370-170c-20 0-39-8-54-22-14-14-22-33-22-53 0-20 8-39 22-53 14-14 33-22 54-22 20 0 39 8 54 22 14 14 22 33 22 53 0 20-8 39-22 53-14 14-33 22-54 22l0 0z m0-171c-25 0-49 10-67 28-18 18-28 42-28 67 0 25 10 49 28 67s42 28 67 28c25 0 49-10 67-28l0 0c18-18 28-42 28-67 0-25-10-49-28-67-17-18-41-28-67-28l0 0z" horiz-adv-x="1000" />

<glyph glyph-name="down_arrow" unicode="&#xe814;" d="M937 610l-437-437-437 437-43-43 480-480 0 0 0 0 480 480-43 43z" horiz-adv-x="1000" />

<glyph glyph-name="check" unicode="&#xe815;" d="M937 670l-559-559-315 315-43-43 358-358 602 602-43 43z" horiz-adv-x="1000" />

<glyph glyph-name="close" unicode="&#xe816;" d="M543 350l437-437-43-43-437 437-437-437-43 43 437 437-437 437 43 43 437-437 437 437 43-43-437-437z" horiz-adv-x="1000" />

<glyph glyph-name="communication" unicode="&#xe817;" d="M815 56c4-24 20-51 41-67 21-17 8-48-16-49-70-3-130 28-164 83-5 0-10 0-15 0-115 0-217 50-273 126 21 1 41 3 61 6 49-50 126-82 212-82 9 0 18 0 27 1l17 1 8-15c16-31 41-53 73-63-14 25-22 52-20 77l1 16 15 6c92 36 150 110 150 191 0 89-70 167-170 199-1 19-4 37-9 54 130-32 227-133 227-253 0-98-65-185-165-231m-445 177c-10 0-20 0-30 1l-17 1-8-15c-19-37-50-62-88-73 17 28 28 60 25 89l-1 16-15 6c-101 41-166 123-166 214 0 130 133 238 300 238s300-108 300-238-133-239-300-239m0 527c-192 0-350-128-350-288 0-107 72-203 182-253-4-27-22-59-46-78-22-17-8-49 16-49 77-3 142 31 180 92 6 0 12 0 18 0 192 0 350 128 350 288s-157 288-350 288" horiz-adv-x="1000" />

<glyph glyph-name="sort_a_z" unicode="&#xe818;" d="M851 490h64l-120 338h-68l-121-338h62l29 87h124l30-87z m-92 278h2l47-144h-96l47 144z m-137-898h257v51h-183v2l179 245v40h-249v-51h175v-2l-179-245v-40z m-338 960v-875l-162 161-42-42 204-204h60v960h-60z" horiz-adv-x="1000" />

<glyph glyph-name="grid_users_view" unicode="&#xe819;" d="M20 390h440v440h-440v-440z m60 380h320v-320h-320v320z m-60-900h440v440h-440v-440z m60 380h320v-320h-320v320z m460 580v-440h440v440h-440z m380-380h-320v320h320v-320z m-380-580h440v440h-440v-440z m60 380h320v-320h-320v320z" horiz-adv-x="1000" />

<glyph glyph-name="downloaded_and_up-to-date" unicode="&#xe81a;" d="M980 170v-270-30h-930-30v300h60v-240h840v240h60z m-590-33l21 22 450 460-43 42-428-438-189 193-43-42 210-215 22-22z" horiz-adv-x="1000" />

<glyph glyph-name="information_old" unicode="&#xe81b;" d="M500 550c28 0 50 22 50 50s-22 50-50 50-50-22-50-50 22-50 50-50l0 0z m-30-500h60v400h-60v-400z m30-180l0 0c-265 0-480 215-480 480s215 480 480 480 480-215 480-480-215-480-480-480l0 0z m0 60l0 0c232 0 420 188 420 420s-188 420-420 420-420-188-420-420 188-420 420-420l0 0z" horiz-adv-x="1000" />

<glyph glyph-name="left_arrow" unicode="&#xe81c;" d="M324 349l437-437-43-43-480 480 480 480 43-43-437-437z" horiz-adv-x="1000" />

<glyph glyph-name="map_user_view" unicode="&#xe81d;" d="M500 830c-210 0-380-170-380-380 0-89 58-206 153-336 72-98 163-197 209-231l18-13 18 13c46 34 137 132 209 230 95 130 153 247 153 337 0 210-170 380-380 380z m0-884c-42 37-110 112-167 189-2 10-3 20-3 30 0 66 37 124 91 153-20 10-37 23-52 38-47-33-81-83-93-141-61 94-96 176-96 235 0 176 144 320 320 320s320-143 320-320c0-57-32-135-88-224-15 56-50 103-97 135-14-16-31-30-51-40 57-29 96-88 96-156 0-5 0-10-1-15 0 0 0-1-1-1-59-82-133-164-178-203z m140 544c0 77-63 140-140 140s-140-63-140-140 63-140 140-140 140 63 140 140z m-140-80c-44 0-80 36-80 80s36 80 80 80 80-36 80-80-36-80-80-80z" horiz-adv-x="1000" />

<glyph glyph-name="new_group" unicode="&#xe81e;" d="M251 583c1-18 4-36 9-52-3 0-7 0-10 0-83 0-150 67-150 150s67 149 150 149c36 0 69-13 95-34-14-11-27-24-38-37-16 11-36 18-57 18-54 0-97-43-97-97 0-54 43-97 98-97-1 0-1 0 0 0m649 97c0-83-67-150-150-150-3 0-7 0-10 0 5 17 8 34 9 52 0 0 0 0 1 0 54 0 97 43 97 97 0 54-43 97-97 97-21 0-41-7-57-18-11 14-24 26-38 37 26 22 59 35 95 35 83 0 150-67 150-150m-551-279c20-15 41-27 65-36-90-33-153-119-153-220 0-15 2-30 4-45h-61c-2 15-3 30-3 45-1 110 59 205 148 256m-198 94c22-12 46-19 72-23-81-44-143-165-143-312 0-21 1-41 4-60h-60c-3 20-4 40-4 60 0 142 53 266 131 335m829-335c0-20-1-40-3-60h-60c2 19 4 39 4 60 0 147-62 268-143 312 26 3 50 11 72 23 77-69 130-193 130-335m-670 440c0 105 85 190 190 190 105 0 190-85 190-190 0-105-85-190-190-190-105 0-190 85-190 190m320 0c0 72-58 130-130 130s-130-58-130-130c0-72 58-130 130-130s130 58 130 130m210-480h-190v190h-60v-190h-190v-60h190v-190h60v190h190v60z" horiz-adv-x="1000" />

<glyph glyph-name="right_arrow" unicode="&#xe81f;" d="M761 349l0 0-480-480-43 43 437 437-436 437 43 43 479-480 0 0z" horiz-adv-x="1000" />

<glyph glyph-name="triangle_toggle_off" unicode="&#xe820;" d="M20 530h960v60h-960v-60z m483-425l-283 283 42 42 240-240 240 240 42-42-281-283 0 0z" horiz-adv-x="1000" />

<glyph glyph-name="triangle_toggle_on" unicode="&#xe821;" d="M20 530h960v60h-960v-60z m483-100l-283-283 42-42 240 240 240-240 42 42-281 283 0 0z" horiz-adv-x="1000" />

<glyph glyph-name="up_arrow" unicode="&#xe822;" d="M980 130l-43-43-437 438-437-438-43 43 480 480 0 0 0 0 480-480z" horiz-adv-x="1000" />

<glyph glyph-name="zoom_in" unicode="&#xe823;" d="M450 460h150v-60h-150v-150h-60v150h-150v60h150v150h60v-150z m-370-30c0 188 152 340 340 340 188 0 340-152 340-340 0-188-152-340-340-340-188 0-340 152-340 340l0 0z m900-518l-257 257c60 70 97 161 97 261 0 221-179 400-400 400-221 0-400-179-400-400s179-400 400-400c100 0 191 37 261 97l257-257 42 42z" horiz-adv-x="1000" />

<glyph glyph-name="zoom_out" unicode="&#xe824;" d="M240 400h360v60h-360v-60z m-160 30c0 188 152 340 340 340 188 0 340-152 340-340 0-188-152-340-340-340-188 0-340 152-340 340l0 0z m900-518l-257 257c60 70 97 161 97 261 0 221-179 400-400 400-221 0-400-179-400-400s179-400 400-400c100 0 191 37 261 97l257-257 42 42z" horiz-adv-x="1000" />

<glyph glyph-name="message" unicode="&#xe825;" d="M500 770c-263 0-480-157-480-358 0-126 87-239 225-304-8-16-22-33-37-43-54-37-23-113 38-115 102-3 191 34 247 104 2 0 5 0 7 0 263 0 480 157 480 358 0 201-217 358-480 358z m0-656c-7 0-14 0-21 0l-16 1-9-13c-43-61-117-94-206-91-4 0-7 2-8 4 37 25 65 67 72 105l4 24-23 9c-132 53-213 152-213 259 0 163 187 298 420 298 233 0 420-135 420-298 0-163-187-298-420-298z" horiz-adv-x="1000" />

<glyph glyph-name="trash" unicode="&#xe826;" d="M640 830c44 0 80-36 80-80v-60h170c21 0 39-17 40-38l0-2c0-22-18-40-40-40h-33l-25-660c-2-44-39-80-83-80h-498c-44 0-81 36-83 80l-25 660h-33c-22 0-40 18-40 40 0 22 18 40 40 40h170v60c0 44 36 80 80 80h280z m137-220h-554l25-657c0-1 1-2 3-3l1 0h498c1 0 3 1 3 2l0 1 24 657z m-404-90l17-480h-80l-17 480h80z m334 0l-17-480h-80l17 480h80z m-167 0v-480h-80v480h80z m100 230l-280 0 0-60h280l0 60z" horiz-adv-x="1000" />

<glyph glyph-name="email" unicode="&#xe827;" d="M20 720v-740h960v740h-960z m900-638l-265 265 265 266v-531z m-531 222l111-111 113 113 265-266h-753l264 264z m494 356l-383-383-383 383h766z m-537-314l-266-266v533l266-267z" horiz-adv-x="1000" />

<glyph glyph-name="log_out" unicode="&#xe828;" d="M700 190v-320h-680v960h680v-320h-60v260h-560v-840h560v260h60z m118-1l-43 42 89 89h-463v60h464l-89 89 43 42 161-161-162-161z" horiz-adv-x="1000" />

<glyph glyph-name="round_lasso" unicode="&#xe829;" d="M470-70c-37 3-73 10-106 22l-24-56c41-14 85-24 130-26v60z m-288 144c-22 25-41 54-57 84l-55-23c19-37 42-72 70-103l42 42z m126-99c-30 16-58 35-84 57l-43-43c31-27 66-51 103-69l24 55z m328-23c-33-12-69-19-106-22v-60c45 3 89 12 130 26l-24 56z m262 534c12-33 19-69 22-106h60c-3 45-12 89-26 130l-56-24z m-122-454c-25-22-54-41-84-57l24-55c37 19 72 42 103 69l-43 43z m99 126c-16-30-35-58-57-84l43-43c27 31 51 66 70 103l-56 24z m45 162c-3-37-10-73-22-106l55-24c14 41 24 85 26 130h-59z m-840 60c3 37 10 73 22 106l-56 24c-14-41-23-85-26-130h60z m450 390c37-3 73-10 106-22l24 56c-41 14-85 23-130 26v-60z m-166-22c33 12 69 19 106 22v60c-45-3-89-12-130-26l24-56z m328-23c30-16 58-35 84-57l43 43c-31 27-66 51-103 69l-24-55z m-468-57c25 22 54 41 84 57l-23 55c-37-19-72-42-103-69l42-43z m-122-454c-12 33-19 69-22 106h-60c3-45 12-89 26-130l56 24z m23 328c16 30 35 58 57 84l-43 43c-27-31-51-66-70-103l56-24z m805 23l-55-24c-16 30-35 58-57 84l43 43c27-31 50-65 69-103l0 0z" horiz-adv-x="1000" />

<glyph glyph-name="square_lasso" unicode="&#xe82a;" d="M740 830v-30-30h180v-60h60v120h-240z m-240 0v-30-30h180v60h-180z m-240 0v-30-30h180v60h-180z m-240 0v-30-30h180v60h-180z m0-300h60v180h-60v-180z m900-60h60v180h-60v-180z m-900-180h60v180h-60v-180z m900-60h60v180h-60v-180z m-900-180h60v180h-60v-180z m900-60h60v180h-60v-180z m-900 0v-120h240v60h-180v60h-60z m780-120h180v60h-180v-60z m-240 60v-30-30h180v60h-180z m-240 0v-30-30h180v60h-180z" horiz-adv-x="1000" />

<glyph glyph-name="free_lasso" unicode="&#xe82b;" d="M374-70c14-14 29-28 45-42l40 44c-15 14-29 27-43 41l-42-43z m-64 157c35 6 75 11 124 16l-6 60c-65-6-114-13-159-22-2 3-4 6-6 9l-49-34c32-47 71-94 117-142l43 41c-23 24-44 48-64 72l0 0z m-203 256c13-56 37-114 72-174l51 31c-33 55-54 107-65 157l-58-14z m50 68c-4 58 7 111 32 158l-53 28c-31-57-44-121-39-191l60 5z m193 303l-25 54c-62-28-114-68-153-116l47-38c33 41 78 75 131 100l0 0z m220 46l2 60c-63 2-127-8-187-27l19-57c52 17 110 25 166 24l0 0z m244-12c-52 34-113 56-180 66l-9-59c58-8 111-28 156-57l33 50z m150-207c-18 66-52 123-99 167l-41-44c39-37 67-84 82-140l58 17z m13-64l-60-7c2-17 3-34 3-52 0-43-8-78-23-107l53-28c20 38 30 82 30 135 0 21-1 40-3 59l0 0z m-256-277l14-58c75 18 133 45 174 86l-42 43c-32-32-80-55-146-71l0 0z m-229-31c-2 0-2 0-3 0l5-60c2 0 2 0 3 0 89 8 130 13 177 21l-10 59c-45-8-85-12-172-20l0 0z m-305-49l18-57c-61-19-108-46-141-82l-44 41c41 45 97 76 167 98l0 0z" horiz-adv-x="1000" />

<glyph glyph-name="call" unicode="&#xe82c;" d="M967 46c-8 52-55 106-132 158-53 36-87 51-117 51-24 0-42-9-61-26-3-2-5-4-10-9l-11-10c-2-2-3-3-5-5-3-2-6-5-9-7-8-5-16-8-22-8-5 0-9 2-13 6-17 17-47 45-93 91l-29 28c0 0-2 3-2 3-34 38-87 96-110 119-4 4-6 8-6 12 0 5 3 11 8 17 4 5 8 9 12 11l2 2c3 2 6 5 11 9 57 49 57 90-9 194-61 96-100 139-143 147-4 1-9 1-14 1-22 0-44-10-68-28-73-52-107-90-114-152-12-106 76-258 277-485 193-198 341-295 457-295l10 0c71 4 121 39 172 105 16 21 23 45 19 71z m-66-33c-42-54-79-80-128-83l-9 0c-93 0-230 90-412 276-188 214-271 356-261 438 5 39 29 67 90 110 15 11 26 16 33 16 23-4 55-39 107-120 29-46 41-74 41-89 0-8-4-13-21-27-5-5-9-7-12-10-7-5-14-12-21-20-12-15-20-31-22-50-2-22 6-43 22-59 22-23 75-80 108-117 2-2 3-4 5-6l28-28c47-46 76-74 93-91 16-15 34-22 56-22 21 1 39 8 56 20 6 4 11 8 15 12 3 2 4 4 5 5l11 10c5 4 6 6 9 8 10 9 15 11 22 11 15 0 41-12 84-41 64-43 102-86 106-117 3-11 1-19-5-26z" horiz-adv-x="1000" />

<glyph glyph-name="facetime" unicode="&#xe82d;" d="M920 680l0 0-200-200v200h-700v-660h700v200l200-200v0h60v660h-60z m-260-600h-580v540h580v-540z m260 25l-200 200v90l200 200v-490z" horiz-adv-x="1000" />

<glyph glyph-name="group" unicode="&#xe82e;" d="M630 490c0 72-58 130-130 130s-130-58-130-130 58-130 130-130 130 58 130 130z m-320 0c0 105 85 190 190 190s190-85 190-190-85-190-190-190-190 85-190 190z m670-440c0-20-1-40-3-60h-60c2 19 4 39 4 60 0 147-62 268-143 312 26 3 50 11 72 23 77-69 130-193 130-335z m-829 335c22-12 46-19 72-23-81-44-143-165-143-312 0-21 1-41 4-60h-60c-3 20-4 40-4 60 0 142 53 266 131 335z m198-94c20-15 41-27 65-36-90-33-153-119-153-220 0-15 2-30 4-45h-61c-2 15-3 30-3 45-1 110 59 205 148 256z m441-256c0-15-1-30-3-45h-61c3 15 4 30 4 45 0 99-62 184-149 219 24 8 46 20 66 34 86-52 143-146 143-253z m110 535c0-83-67-150-150-150-3 0-7 0-10 0 5 17 8 34 9 52 0 0 0 0 1 0 54 0 97 43 97 97s-43 97-97 97c-21 0-41-7-57-18-11 14-24 26-38 37 26 21 59 34 95 34 83 1 150-66 150-149z m-649-97c1-18 4-36 9-52-3 0-7 0-10 0-83 0-150 67-150 150s67 150 150 150c36 0 69-13 95-34-14-11-27-24-38-37-16 12-36 18-57 18-54 0-97-43-97-97s43-98 98-98c-1 0-1 0 0 0z" horiz-adv-x="1000" />

<glyph glyph-name="refresh" unicode="&#xe82f;" d="M240 750c22 0 40-18 40-40v-160c0-22-18-40-40-40s-40 18-40 40l0 65c-64-73-100-166-100-265 0-221 179-400 400-400 22 0 40-18 40-40s-18-40-40-40c-265 0-480 215-480 480 0 120 44 233 122 320l-62 0c-22 0-40 18-40 40s18 40 40 40h160z m260 80c265 0 480-215 480-480 0-120-44-233-122-320l62 0c22 0 40-18 40-40s-18-40-40-40h-160c-22 0-40 18-40 40v160c0 22 18 40 40 40s40-18 40-40l0-65c64 72 100 165 100 265 0 221-179 400-400 400-22 0-40 18-40 40s18 40 40 40z" horiz-adv-x="1000" />

<glyph glyph-name="fr_expand" unicode="&#xe830;" d="M500 830c-33 0-60-27-60-60v-360h-360c-33 0-60-27-60-60s27-60 60-60h360v-360c0-33 27-60 60-60s60 27 60 60v360h360c33 0 60 27 60 60s-27 60-60 60h-360v360c0 33-27 60-60 60z" horiz-adv-x="1000" />

<glyph glyph-name="fr_collapse" unicode="&#xe831;" d="M80 410h840c33 0 60-27 60-60l0 0c0-33-27-60-60-60h-840c-33 0-60 27-60 60l0 0c0 33 27 60 60 60z" horiz-adv-x="1000" />

<glyph glyph-name="ra_filter_expand" unicode="&#xe832;" d="M780 830h-560c-110 0-200-90-200-200v-560c0-110 90-200 200-200h560c110 0 200 90 200 200v560c0 110-90 200-200 200z m120-760c0-66-54-120-120-120h-560c-66 0-120 54-120 120v560c0 66 54 120 120 120h560c66 0 120-54 120-120v-560z m-110 280c0-28-22-50-50-50h-190v-190c0-28-22-50-50-50s-50 22-50 50v190h-190c-28 0-50 22-50 50s22 50 50 50h190v190c0 28 22 50 50 50s50-22 50-50v-190h190c28 0 50-22 50-50z" horiz-adv-x="1000" />

<glyph glyph-name="ra_filter_collapse" unicode="&#xe833;" d="M780 830h-560c-110 0-200-90-200-200v-560c0-110 90-200 200-200h560c110 0 200 90 200 200v560c0 110-90 200-200 200z m120-760c0-66-54-120-120-120h-560c-66 0-120 54-120 120v560c0 66 54 120 120 120h560c66 0 120-54 120-120v-560z m-640 330c-28 0-50-22-50-50s22-50 50-50h480c28 0 50 22 50 50s-22 50-50 50h-480z" horiz-adv-x="1000" />

<glyph glyph-name="sort_indicator_left" unicode="&#xe834;" d="M977 391h-805l184 181-56 55-283-277 283-277 57 56-188 183h808v79z" horiz-adv-x="1000" />

<glyph glyph-name="current_location_off" unicode="&#xe835;" d="M101 393l330-121c19-7 35-22 45-40l138-283 290 803-803-359z m801 424c18 8 39 5 54-9 14-14 19-34 13-53l-309-851c-7-19-24-31-44-32-20-1-38 10-47 28l-148 306c-2 5-6 8-11 10l-357 130c-19 7-31 24-32 44-1 20 11 38 29 46l852 381z" horiz-adv-x="1000" />

<glyph glyph-name="current_location_off_fill" unicode="&#xe836;" d="M902 817l-852-381 0 0c-18-8-30-27-29-46l0 0 0 0c1-20 13-37 32-44l357-130 0 0c5-2 9-5 11-10l149-307 0 0c9-18 27-29 47-28l0 0 0 0c20 1 37 14 44 32l308 852 0 0c7 19 2 39-13 53l0 0 0 0c-14 13-35 17-54 9z" horiz-adv-x="1000" />

<glyph glyph-name="check_overstriking" unicode="&#xe837;" d="M960 705c25-22 27-60 5-85l-546-620c-11-12-26-20-43-20-17-1-33 6-44 17l-294 290c-24 23-24 61 0 85s61 24 85 0l248-246 504 574c22 25 60 27 85 5z" horiz-adv-x="1000" />

<glyph glyph-name="sort_indicator_right" unicode="&#xe838;" d="M17 391h805l-184 181 57 56 282-278-282-277-57 56 187 184h-808v78z" horiz-adv-x="1000" />

<glyph glyph-name="sort_indicator_up" unicode="&#xe839;" d="M456-130v805l-180-184-56 57 277 282 277-282-56-57-183 187v-808h-79z" horiz-adv-x="1000" />

<glyph glyph-name="list_view" unicode="&#xe83a;" d="M80 670c-33 0-60 27-60 60s27 60 60 60 60-27 60-60-27-60-60-60z m180 90h720v-60h-720v60z m-180-470c-33 0-60 27-60 60s27 60 60 60 60-27 60-60-27-60-60-60z m180 90h720v-60h-720v60z m-180-470c-33 0-60 27-60 60s27 60 60 60 60-27 60-60-27-60-60-60z m180 90h720v-60h-720v60z" horiz-adv-x="1000" />

<glyph glyph-name="more_inside" unicode="&#xe83b;" d="M100 270c-44 0-80 36-80 80s36 80 80 80 80-36 80-80-36-80-80-80z m400 0c-44 0-80 36-80 80s36 80 80 80 80-36 80-80-36-80-80-80z m400 0c-44 0-80 36-80 80s36 80 80 80 80-36 80-80-36-80-80-80z" horiz-adv-x="1000" />

<glyph glyph-name="rsd" unicode="&#xe83c;" d="M20 240h140v-300h-140v300z m200 160h140v-460h-140v460z m280-460v60h480v-60h-480z m0 160v60h480v-60h-480z m0 160v60h480v-60h-480z m480 160h-480v60h480v-60z m-960 340h960v-140h-960v140z" horiz-adv-x="1000" />

<glyph glyph-name="loading" unicode="&#xe83d;" d="M500 800l0 0c0-16 12-29 28-30 224-15 400-206 392-436-9-218-186-395-404-404-230-8-421 168-436 392-1 16-14 28-30 28-17 0-31-14-30-32 17-256 235-458 498-448 249 10 452 213 462 462 10 263-192 481-449 498-17 1-31-13-31-30" horiz-adv-x="1000" />

<glyph glyph-name="share_link" unicode="&#xe83e;" d="M809 280l-42-42 97-97-324 0v-59l328 0-101-100 42-42 171 170-171 170z m-35 422c-77 78-203 78-280 0 0 0-107-107-143-144 26 3 53 0 78-7l108 108c54 54 141 54 195 0 54-54 54-141 0-195l-154-155c-54-54-141-54-195 0-17 17-29 38-35 61l0 2c-12-6-22-14-32-24l-17-17c10-24 24-46 43-64 77-78 203-78 280 0l154 155c76 77 76 202-2 280l0 0z m-431-626l43-43-28-28c-77-78-203-78-280 0-77 78-77 203 0 281l154 155c77 78 203 78 280 0 19-19 33-40 43-64l-18-17c-10-10-21-18-32-24l0 1c-6 23-18 45-36 62-54 54-141 54-195 0l-153-155c-54-54-54-141 0-195 54-54 141-54 195 0l27 27z" horiz-adv-x="1000" />

<glyph glyph-name="list_view_ios" unicode="&#xe83f;" d="M90 130c39 0 70-31 70-70s-31-70-70-70-70 31-70 70 31 70 70 70z m850-30c22 0 40-18 40-40s-18-40-40-40h-620c-22 0-40 18-40 40s18 40 40 40h620z m-850 320c39 0 70-31 70-70s-31-70-70-70-70 31-70 70 31 70 70 70z m850-30c22 0 40-18 40-40s-18-40-40-40h-620c-22 0-40 18-40 40s18 40 40 40h620z m-850 320c39 0 70-31 70-70s-31-70-70-70-70 31-70 70 31 70 70 70z m850-30c22 0 40-18 40-40s-18-40-40-40h-620c-22 0-40 18-40 40s18 40 40 40h620z" horiz-adv-x="1000" />

<glyph glyph-name="unauthorized_network" unicode="&#xe840;" d="M500 210c-61 0-110-49-110-110s49-110 110-110 110 49 110 110-49 110-110 110z m0-202c-51 0-92 41-92 92s41 92 92 92 92-41 92-92-41-92-92-92z m427 226c-6 59-56 106-117 106-6 0-11-1-17-1-1 3-3 6-5 8-75 77-178 122-288 122-110 0-213-45-288-122-10-10-10-26 0-36l70-70c10-10 27-10 37 0 47 49 112 78 181 78 69 0 134-28 181-77 3-3 7-6 12-7 0 0 0 0 0-1-19-6-33-24-33-46v-153c0-26 21-47 47-47h205c26 0 47 21 47 47v153c1 22-13 40-32 46z m-231 21c-49 52-119 84-196 84-77 0-146-32-196-84-2-2-6-2-8 0l-70 70c-2 2-2 6 0 8 69 72 166 116 274 116 107 0 204-44 273-115-37-12-65-42-76-80 0 0-1 1-1 1z m244-220c0-15-12-27-27-27h-206c-15 0-27 12-27 27v153c0 15 12 27 27 27h5v7c0 5 1 10 1 15l0 0c2 13 6 25 13 36 0 0 0 0 0 0 6 11 15 20 25 27 0 0 0 0 1 0 10 7 21 13 33 16 0 0 1 0 1 0 2 1 5 1 7 2l0 0c5 1 11 2 17 2 54 0 98-44 98-98v-7h5c15 0 27-12 27-27v-153z m33 496c-124 127-293 199-473 199-180 0-349-72-473-199-10-10-10-26 0-36l70-70c10-10 27-10 36 0 97 98 227 155 367 155 140 0 270-56 366-154 10-10 26-10 36 0l70 70c10 9 11 25 1 35z m-15-22l-70-70c-2-2-6-2-8 0-97 99-231 160-380 160-149 0-284-61-380-160-2-2-6-2-8 0l-70 70c-2 2-2 6 0 8 116 119 278 193 458 193 180 0 342-74 458-193 3-2 3-5 0-8z m-148-228c-32 0-59-26-59-59v-7h117v7c1 33-26 59-58 59z m-36-45c5 15 20 25 36 25 17 0 31-10 36-25h-72z" horiz-adv-x="1000" />

<glyph glyph-name="photo_uploader_retake" unicode="&#xe841;" d="M881 504c-23 0-40 18-40 40 0 23 18 40 40 40 23 0 40-18 40-40s-19-40-40-40m-354-401v68c72 0 131 59 131 131 0 72-59 131-131 131-67 0-122-50-130-115h71l-106-142-92 141h59c8 102 94 183 198 183 109 0 198-89 198-198 0-109-89-199-198-199m425 537h-222v102c0 15-13 28-28 28h-404c-15 0-28-13-28-28v-102h-222c-15 0-28-13-28-28v-663c0-16 13-29 28-29h903c16 0 28 13 28 28v664c1 15-12 28-27 28" horiz-adv-x="1000" />

<glyph glyph-name="add_photo" unicode="&#xe842;" d="M920 490h-223l-17 33-28 57h-209v-120h-103v-110h-150v-340h730v480z m60 32v-543c0-16-13-28-28-28h-794c-16 0-28 13-28 28v431h150v110h103v120h288c11 0 21-6 25-16l37-74h218c16 0 29-13 29-28z m-425-132c-68 0-125-56-125-125 0-68 56-125 125-125s125 57 125 125-56 125-125 125z m0 60c102 0 185-83 185-185s-83-185-185-185c-102 0-185 83-185 185 0 102 83 185 185 185z m-425 130h-110v60h110v110h60v-110h110v-60h-110v-110h-60v110z" horiz-adv-x="1000" />

<glyph glyph-name="label_xyz_fill" unicode="&#xe843;" d="M968 486l-333 332c-16 16-41 16-57 0l-546-545c-8-8-12-18-12-29v-334c0-22 18-40 40-40h330c11 0 21 4 28 12l550 548c16 15 16 41 0 56z m-778-496c-28 0-50 22-50 50 0 28 22 50 50 50s50-22 50-50c0-28-22-50-50-50z m281 171l-85 19 19-86-37-37-27 132-121 24 39 39 78-19-18 79 36 36 24-121 132-26-40-40z m100 100l-59 59-148 37 37 37 95-24-25 95 37 37 37-150 58-58-32-33z m99 99l-26 26-16 178-75-74-28 28 119 119 26-26 16-178 83 83 28-28-127-128z" horiz-adv-x="1000" />

<glyph glyph-name="label_xyz" unicode="&#xe844;" d="M883 458l-276 276-507-506v-278h274l509 508z m-304 360c16 16 41 16 56 0l333-332c16-16 16-41 0-57l-550-548c-7-7-17-11-28-11h-330c-22 0-40 18-40 40v334c0 11 4 21 12 28l547 546z m49-253l-75-75-28 28 119 119 26-26 16-178 83 83 28-28-127-128-26 26-16 179z m-156-101l37 37 37-150 58-58-33-33-59 60-148 37 37 37 95-24-24 94z m-153-152l36 36 24-121 132-26-40-40-85 19 19-86-37-37-27 132-121 24 39 39 78-19-18 79z m-129-322c28 0 50 22 50 50 0 28-22 50-50 50s-50-22-50-50c0-28 22-50 50-50z" horiz-adv-x="1000" />

<glyph glyph-name="square_lasso_fill" unicode="&#xe845;" d="M80 770v-840h840v840h-840z" horiz-adv-x="1000" />

<glyph glyph-name="free_lasso_fill" unicode="&#xe846;" d="M269 140c-149 215-149 393-13 512 223 195 602 114 653-135 29-142 0-211-64-269-98-68-280-66-576-108z" horiz-adv-x="1000" />

<glyph glyph-name="recently_searched" unicode="&#xe847;" d="M530 710h-60v-355l-166-166 42-43 184 184v380z m-30-780c-232 0-420 188-420 420s188 420 420 420 420-188 420-420-188-420-420-420l0 0z m0 900c-265 0-480-215-480-480s215-480 480-480 480 215 480 480-215 480-480 480l0 0z" horiz-adv-x="1000" />

<glyph glyph-name="search_empty" unicode="&#xe848;" d="M206 300c14 0 26 12 26 26v163c0 14-12 26-26 26h-76v-20h76c3 0 6-3 6-6v-163c0-3-3-6-6-6h-20v-20h20z m329-37c5 0 10 4 10 10 0 5-4 10-10 10h-316c-5 0-10-4-10-10 0-5 4-10 10-10h316z m-143 63v314c0 14-12 26-26 26h-86c-14 0-26-12-26-26v-314c0-14 12-26 26-26h86c15 0 26 12 26 26l0 0z m-112-6c-3 0-6 3-6 6v314c0 3 3 6 6 6h86c3 0 6-3 6-6v-314c0-3-3-6-6-6h-86z m273 6v238c0 14-12 26-26 26h-86c-14 0-26-12-26-26v-238c0-14 12-26 26-26h86c15 0 26 12 26 26l0 0z m412-348c20-20 20-53 0-73-20-20-53-20-73 0l-182 182c-10 10-15 23-15 36l-76 76c-17-14-30-25-41-32-4-3-8-6-13-8-1-1-2-1-3-2-4-2-7-4-11-7-1-1-3-2-4-2-3-2-7-4-10-5-2-1-4-2-5-3-3-2-7-3-10-5-2-1-4-2-6-2-3-1-7-3-10-4-2-1-4-2-6-2-3-1-7-2-10-3-2-1-4-1-7-2-3-1-7-2-10-3-2-1-5-1-7-2-3-1-7-2-10-2-2-1-5-1-7-2-3-1-7-1-10-2-2 0-5-1-7-1-4-1-7-1-11-1-2 0-5-1-7-1-4 0-8-1-12-1-2 0-4 0-6 0-6 0-12 0-18 0-198-1-358 159-358 356s160 357 357 357c197 0 357-160 357-357 0-5 0-10 0-15 0-2 0-3 0-5 0-3 0-7-1-10 0-2 0-4-1-6 0-3-1-6-1-9 0-2-1-4-1-7 0-3-1-5-1-8 0-2-1-5-1-7 0-3-1-5-1-8-1-2-1-5-2-7-1-2-1-5-2-7-1-2-1-5-2-7-1-2-1-4-2-7-1-2-1-5-2-7-1-2-1-4-2-6-1-3-2-5-3-8-1-2-1-4-2-6-1-3-2-5-3-8-1-2-1-3-2-5-1-3-2-6-4-8 0-1-1-2-1-3-5-11-11-22-19-34-2-3-4-6-5-8-1-1-2-2-2-4-2-3-7-10-7-11l78-78c14 0 27-5 37-15l183-181z m-12-61c13 13 13 35 0 48l-6 6-142 142-48-48 144-144 4-4c13-13 34-13 48 0z m-398 258c23 14 45 32 64 51l81-81c2 5 6 11 10 15 4 4 9 7 14 10l-69 68-14 14c5 6 9 12 14 18 1 2 3 4 4 6 1 2 2 3 3 5 1 2 3 4 4 7 1 1 2 3 3 4 1 2 3 5 4 7 1 1 1 2 2 3 5 9 9 18 13 27 1 2 1 3 2 5 1 2 2 5 3 7 1 2 1 4 2 6 1 2 2 5 2 7 1 2 1 4 2 6 1 2 1 4 2 7 1 2 1 4 2 6 1 2 1 4 2 7 1 2 1 5 2 7 1 2 1 4 1 6 1 2 1 5 1 7 0 2 1 4 1 6 0 3 1 5 1 8 0 2 1 4 1 6 0 3 1 5 1 8 0 2 0 4 1 6 0 3 0 6 1 9 0 2 0 3 0 5 0 5 0 9 0 14 0 186-152 338-338 338-186 1-338-151-338-337s152-338 338-338c6 0 11 0 17 0 2 0 4 0 5 0 4 0 8 1 11 1 2 0 4 1 6 1 3 0 7 1 10 1 2 0 4 1 6 1 3 1 7 1 10 2 2 0 4 1 6 1 3 1 7 1 10 2 2 1 4 1 6 2 3 1 7 2 10 3 2 1 4 1 6 2 3 1 7 2 10 3 2 1 4 1 5 2 3 1 7 3 10 4 2 1 3 1 5 2 4 2 7 3 11 5 1 1 3 1 4 2 4 2 8 4 12 6 1 0 2 1 2 1 6 3 11 6 16 9z m-178 588c166 0 300-135 300-300 0-166-135-300-300-300-166 0-301 135-301 300 1 165 136 300 301 300z m0-582c155 0 281 126 281 281 0 155-126 281-281 281-155 0-282-126-282-281 1-154 127-281 282-281z m64 139c-3 0-6 3-6 6v238c0 3 3 6 6 6h86c3 0 6-3 6-6v-238c0-3-3-6-6-6h-86z m276-214c1-2 3-5 5-7l22-22 48 48-22 23c-2 2-4 4-7 5-1 0-1 1-2 1-2 1-4 2-6 3 0 0-1 0-1 0-6 1-12 1-17 0-6-2-11-4-15-9-5-5-8-10-9-16-1-5-1-11 0-16 0-1 0-1 0-2 1-2 1-4 2-6 1-1 2-2 2-2z" horiz-adv-x="1000" />

<glyph glyph-name="round_lasso_fill" unicode="&#xe849;" d="M500 770c232 0 420-188 420-420s-188-420-420-420-420 188-420 420 188 420 420 420z" horiz-adv-x="1000" />

<glyph glyph-name="show_data" unicode="&#xe84a;" d="M900 830h-800c-44 0-80-36-80-80v-800c0-44 36-80 80-80h800c44 0 80 36 80 80v800c0 44-36 80-80 80z m-600-880h-180c-11 0-20 9-20 20v560h200v-580z m600 20c0-11-9-20-20-20h-500v580h520v-560z m0 630h-800v130c0 11 9 20 20 20h760c11 0 20-9 20-20v-130z m-440-310h360v80h-360v-80z m0-200h360v80h-360v-80z" horiz-adv-x="1000" />

<glyph glyph-name="switch_server" unicode="&#xe84b;" d="M80 270h360v-60h-380c-22 0-40 18-40 40v200c0 22 18 40 40 40h820c22 0 40-18 40-40v-40h-60v20h-780v-160z m60 390h120v60h-120v-60z m300-510v-60h-360v-160h360v-60h-380c-22 0-40 18-40 40v200c0 22 18 40 40 40h380z m-360 460h780v160h-780v-160z m800-60h-820c-22 0-40 18-40 40v200c0 22 18 40 40 40h820c22 0 40-18 40-40v-200c0-22-18-40-40-40z m-30-427l130-127-130-126-39 39 62 59h-293v55h295l-64 62 39 38z m130 129v-55h-295l64-62-39-38-130 126 130 127 39-39-62-59h293z" horiz-adv-x="1000" />

<glyph glyph-name="map_styles_fill" unicode="&#xe84c;" d="M864 201c-7-9-13-15-19-19 0 0-1-1-1-1-3 6-6 15-7 29-9 71-40 108-95 134-3 2-7 3-11 5-2 1-9 4-10 5-33 15-40 22-42 44-3 45 17 76 55 98 14 8 28 14 47 20 2 1 8 3 9 3 4 1 6 2 8 3 2 1 4 2 5 3 5 3 8 6 12 12 8 13 5 29-6 38-4 4-8 6-13 7-13 4-25 8-35 12-41 15-65 30-76 44-5 7-6 10-6 20 0 1 0 2 0 3 0 16 16 31 51 43 110-72 185-195 190-335 0 0 0 1 0 1 0-6 0-12 0-18 0 6 0 11-1 16-3-64-25-128-55-167m-476-215c-26-1-53 34-71 124-3 17-13 30-29 43-5 4-26 19-30 22-33 26-44 50-34 100 2 5 2 7 3 10 1 8 1 15-4 23-20 37-44 64-78 92-6 4-11 9-18 14-1 1-14 10-17 13-7 6-14 11-19 16 17 74 53 141 103 194 48-1 69-11 77-35 9-29 4-42-21-66 0 0-7-7-10-10-25-26-36-47-31-78 3-18 17-47 32-63 5-5 10-7 16-8 2-1 5-1 7-1 3 0 5 0 10 0 26 0 42-2 60-10 9-4 18-10 25-17 27-26 49-34 92-42 28-5 38-9 50-23 29-34 28-56 2-95-3-5-6-9-11-15-2-2-3-5-6-8 0 0-5-6-6-8-38-52-54-84-54-128 2-20-19-43-38-44m112 844c-265 0-480-215-480-480 0-265 215-480 480-480 265 0 480 215 480 480 0 265-215 480-480 480" horiz-adv-x="1000" />

<glyph glyph-name="audio" unicode="&#xe84d;" d="M273 481l298 172v-624l-298 172v0h-253v280l253 0 0 0z m582 198c166-185 166-465 0-650l-38 38c144 164 144 410-1 573l39 39z m-82-82c121-139 121-347 0-486l-39 39c99 118 99 290-1 407l40 40z m-91-91c71-88 71-215 0-303l-39 39c50 67 50 159-1 225l40 39z" horiz-adv-x="1000" />

<glyph glyph-name="video" unicode="&#xe84e;" d="M500 830c-265 0-480-215-480-480s215-480 480-480 480 215 480 480-215 480-480 480l0 0z m0-900c-232 0-420 188-420 420s188 420 420 420 420-188 420-420-188-420-420-420l0 0z m-120 229l332 191-332 192v-383z" horiz-adv-x="1000" />

<glyph glyph-name="doc" unicode="&#xe84f;" d="M530 665l-65-231-65 231h-53l-65-231-65 231h-52l89-318h56l63 226 63-226h56l89 318h-51z m-340-555h620v60h-620v-60z m472 720l268-268v-692h-860v960h592z m208-900v569h-261l1 271h-480v-840h740z m-680 80v60h620v-60h-620z" horiz-adv-x="1000" />

<glyph glyph-name="ebook" unicode="&#xe850;" d="M330 3h587v827h-827v-827-133h827v53h-774v81h187z m0 773h533v-720h-533v720z" horiz-adv-x="1000" />

<glyph glyph-name="excel" unicode="&#xe851;" d="M447 665l-86-108-86 108h-73l122-154-130-163h73l93 117 93-117h73l-130 163 124 154h-73z m183-555h180v60h-180v-60z m-220 0h180v60h-180v-60z m-220 0h180v60h-180v-60z m440-100h180v60h-180v-60z m-220 0h180v60h-180v-60z m252 820l268-268v-692h-860v960h592z m208-900v569h-261l1 271h-480v-840h740z m-680 80v60h180v-60h-180z" horiz-adv-x="1000" />

<glyph glyph-name="html" unicode="&#xe852;" d="M774 252c6 32 9 65 9 99 0 34-3 66-9 98h140c8-32 12-65 12-99 0-34-4-66-12-98l-140 0 0 0z m-198-322c87 64 153 158 185 268h137c-52-138-174-241-322-268l0 0z m-49 268h178c-33-98-96-180-178-234v234z m0 250h192c7-32 10-65 10-98 0-34-4-67-10-98h-192v196z m0 288c82-54 145-136 178-234h-178v234z m371-234h-137c-32 109-97 203-182 267 147-28 267-131 319-267l0 0z m-425 0h-177c33 98 96 180 177 234v-234z m0-250h-191c-7 32-10 64-10 98 0 34 4 67 10 98h192l-1-196 0 0z m0-288c-82 54-145 136-177 234h177v-234z m-372 234h139c32-110 98-204 186-269-150 27-272 131-325 269l0 0z m-28 152c0 34 4 67 12 99h143c-6-32-9-64-9-98 0-34 3-67 9-99h-143c-8 31-12 64-12 98l0 0z m350 419c-86-64-151-158-183-267h-139c53 137 174 240 322 267l0 0z m77 61c-265 0-480-215-480-480 0-265 215-480 480-480s480 215 480 480c0 265-215 480-480 480l0 0z" horiz-adv-x="1000" />

<glyph glyph-name="image" unicode="&#xe853;" d="M919 157v613h-839v-532l191 261c19 28 53 45 90 41 31-4 57-23 71-48l125-185c3-5 9-8 15-9h3c5 0 9 2 12 4l60 64c26 26 67 36 104 19 17-8 30-19 39-33l129-195z m61 673v-960h-960v1 959h959 1z m-159-239c-4-36-35-64-72-64h-1c-3 1-5 1-8 1-30 4-54 25-62 52-3 9-3 19-2 28 5 40 40 69 81 64 40-5 69-41 64-81l0 0z" horiz-adv-x="1000" />

<glyph glyph-name="offline" unicode="&#xe854;" d="M444 262l-23 434c0 24 21 35 69 35 48 0 69-11 69-34l-23-435v-1c0-35-21-64-47-64-24 0-45 29-45 65z m-85 54c-53-19-99-48-140-86l83-82c22 21 48 38 76 51-7 12-11 25-11 37l-8 80z m-24 253c-110-28-211-85-292-163l83-82c62 60 138 104 221 128l-12 117z m312 5l-11-118c90-23 172-69 238-133l83 82c-87 84-193 142-310 169z m-151-444c-20 0-39-8-54-22-14-14-22-33-22-53s8-39 22-53c14-14 33-22 54-22 20 0 39 8 54 22 14 14 22 33 22 53s-8 39-22 53c-14 14-33 22-54 22z m119 105c0-10-3-21-8-31 34-13 64-32 90-57l83 83c-44 42-98 74-157 93l-8-88z" horiz-adv-x="1000" />

<glyph glyph-name="gloomy_face" unicode="&#xe855;" d="M246 661c-11 11-30 11-42 0l-62-62-62 62c-11 11-30 11-42 0-11-11-11-30 0-42l62-62-62-62c-11-11-11-30 0-42 11-11 30-11 42 0l62 62 62-62c11-11 30-11 42 0 11 11 11 30 0 42l-62 62 62 62c12 12 12 31 0 42z m653-103l62 62c11 11 11 30 0 42-11 11-30 11-42 0l-62-62-62 62c-11 11-30 11-42 0-11-11-11-30 0-42l62-62-62-62c-11-11-11-30 0-42 11-11 30-11 42 0l62 62 62-62c11-11 30-11 42 0 11 11 11 30 0 42l-62 62z m-181-478c-67 28-140 44-218 44-77 0-151-16-218-44-11-5-17-15-17-27 0-21 22-35 41-27 59 25 125 39 194 39 69 0 135-14 194-39 19-8 41 6 41 27 0 11-7 22-17 27z" horiz-adv-x="1000" />

<glyph glyph-name="undefined_visualization" unicode="&#xe856;" d="M748 335c-35 0-63-28-63-63 0-35 28-63 63-63 35 0 63 28 63 63 0 35-28 63-63 63z m0-105c-24 0-43 19-43 43 0 24 19 43 43 43 24 0 43-19 43-43 0-24-19-43-43-43z m-5 600c-95 0-173-78-173-173 0-5 0-11 1-17l1-9h9 64 12l-2 12c-1 5-1 10-1 14 0 50 40 90 90 90 50 0 90-40 90-90 0-30-14-56-53-89-11-9-21-19-33-33-11-12-20-26-27-42-8-16-12-35-13-58l0-36v-10h10 66 10v10 29c0 12 2 22 5 32 4 9 8 18 14 26 6 8 13 16 21 24 8 8 16 15 24 23 39 37 59 87 59 124-1 95-78 173-174 173z m100-282c-8-7-16-15-24-23-8-8-16-17-23-26-7-10-13-20-17-31-4-12-6-24-6-39v-19h-46v26c1 19 5 36 11 50 7 14 15 26 24 37 12 13 21 23 31 31 44 37 60 68 60 104 0 61-49 110-110 110-61 0-110-49-110-110 0-2 0-4 0-6h-43c0 2 0 4 0 6 0 83 69 152 153 152 85 0 153-69 153-153 0-32-18-76-53-109z m-163-548c0-22 18-40 40-40h160c22 0 40 18 40 40v440c0 22-18 40-40 40h-7c-2-2-4-4-6-6-5-5-9-9-13-14h26c11 0 20-9 20-20v-440c0-11-9-20-20-20h-160c-11 0-20 9-20 20v171c-7 3-14 8-20 12v-183z m-260-40h160c22 0 40 19 40 41v580h-20v-580c0-12-9-21-20-21h-160c-11 0-20 10-20 21v618c0 12 9 21 20 21h101c0 6-1 11-1 17 0 1 0 2 0 3h-100c-22 0-40-19-40-41v-617c0-23 18-42 40-42l0 0z m-150 460h-140c-28 0-50-22-50-50v-360c0-28 22-50 50-50h140c28 0 50 22 50 50v360c0 28-22 50-50 50z m30-410c0-17-13-30-30-30h-140c-17 0-30 13-30 30v360c0 17 13 30 30 30h140c17 0 30-13 30-30v-360z m660-130c0-6-4-10-10-10h-900c-6 0-10 4-10 10s4 10 10 10h900c6 0 10-4 10-10l0 0z" horiz-adv-x="1000" />

<glyph glyph-name="fail_to_render_image" unicode="&#xe857;" d="M900 790h-677l7-20 81-222 7-19 196-539 7-20h379 9c39 0 71 32 71 71v9 104 3 553c0 44-36 80-80 80z m60-740c0-33-27-60-60-60h-365l-196 540c1 0 2 0 4 0 31-3 58-20 73-44l140-186c5-7 14-12 24-13l3 0c7 0 13 2 19 5l69 65c28 25 70 32 107 17 16-7 29-17 40-31l142-192v-101z m0 135l-126 171c-13 17-29 29-48 37-44 18-94 9-128-21l-67-63c-2-1-5-2-7-2-6 1-10 3-12 6l-141 184c-18 28-50 48-87 52-4 1-8 1-13 1l-80 220h649c33 0 60-27 60-60v-525z m-203 528c-46 6-87-27-92-72-1-11-1-21 2-32 9-33 36-57 70-61l0 0c3 0 5-1 9-1h2c42 0 77 31 82 73 5 46-27 88-73 93z m53-90c-4-32-31-55-62-55h-1c-2 0-4 0-6 0l-1-10 1 10c-26 3-46 21-53 46-2 8-3 16-2 24 4 35 35 59 70 55 33-4 58-35 54-70z m-644 77l-7 20h-59c-44 0-80-36-80-80v-470-4-186-9c0-39 32-71 71-71h9 357l-7 20-284 780z m-126-60c0 33 27 60 60 60h45l95-260c-2-2-3-4-5-6l-195-239v445z m60-720c-33 0-60 27-60 60v183l208 255 181-498h-329z" horiz-adv-x="1000" />

<glyph glyph-name="device" unicode="&#xe858;" d="M470-30c0 17 13 30 30 30s30-13 30-30c0-17-13-30-30-30s-30 13-30 30z m80 0c0 28-22 50-50 50s-50-22-50-50c0-28 22-50 50-50s50 22 50 50z m-360-50c0-17 13-30 30-30h560c17 0 30 13 30 30v860c0 17-13 30-30 30h-560c-17 0-30-13-30-30v-860z m30 910h560c28 0 50-22 50-50v-860c0-28-22-50-50-50h-560c-28 0-50 22-50 50v860c0 28 22 50 50 50z m50-760c0 0 460 0 460 0 0 0 0 660 0 660 0 0-460 0-460 0 0 0 0-660 0-660z m0 680h460c11 0 20-9 20-20v-660c0-11-9-20-20-20h-460c-11 0-20 9-20 20v660c0 11 9 20 20 20z" horiz-adv-x="1000" />

<glyph glyph-name="collaboration_empty" unicode="&#xe859;" d="M980 440v-386h-108l-41-73-3-5-9-16-5 10-6 11-41 73h-287v46h20v-26h267 12l6-10 35-62 35 62 6 10h12 87v346h-100v20h120z m-880 140v20c0 17 13 30 30 30h580c17 0 30-13 30-30v-20c0-17-13-30-30-30h-580c-17 0-30 13-30 30z m20 0c0-6 4-10 10-10h580c6 0 10 4 10 10v20c0 6-4 10-10 10h-580c-6 0-10-4-10-10v-20z m-20-160v20c0 17 13 30 30 30h580c17 0 30-13 30-30v-20c0-17-13-30-30-30h-580c-17 0-30 13-30 30z m20 0c0-6 4-10 10-10h580c6 0 10 4 10 10v20c0 6-4 10-10 10h-580c-6 0-10-4-10-10v-20z m700-281h-459l-72-129 0 0-11-20-5 10-7 10-72 129h-174v591h800v-591z m-20 571h-760v-551h154 12l6-10 66-118 66 118 6 10h12 438v551z m-700-440v20c0 17 13 30 30 30h580c17 0 30-13 30-30v-20c0-17-13-30-30-30h-580c-17 0-30 13-30 30z m20 0c0-6 4-10 10-10h580c6 0 10 4 10 10v20c0 6-4 10-10 10h-580c-6 0-10-4-10-10v-20z" horiz-adv-x="1000" />

<glyph glyph-name="fail_to_render_html" unicode="&#xe85a;" d="M350 560l-41 113 19 7 41-113-19-7z m-30-31l-177 31-3-20 177-31 3 20z m-24-317l146 146 11 11 5-15 27-75 2-6-5-5-120-122-7-7-7 7-51 51-7 7 6 8z m149 120l-128-127 37-37 110 110-19 54z m255-117l177-31 3 20-177 31-3-20z m235 316l-189-188c-40-40-97-54-150-40l-16 4 12 12 89 89 77 77 111 111c24 24 24 64 0 88l-34 34c-24 24-64 24-88 0l-112-110-77-77-48-49-11-11-5 15-26 70-2 4 2 4c7 12 15 22 25 32l188 189c61 60 159 60 219 0l34-34 0 0c61-61 61-159 1-220z m-15 205l7 7-7-7-34 34c-53 53-138 53-191 0l-188-188c-7-7-14-15-19-24l18-51 38 38 77 77 111 111c32 32 84 32 117 0l34-34c32-32 32-84 0-117l-111-111-77-77-75-75c41-5 83 8 113 38l187 188c53 53 53 138 0 191z m-216-248l-144-144-11-11-5 15-27 75-2 6 5 5 120 120 7 7 7-7 51-51 7-7-8-8z m-147-118l126 126-37 37-109-109 20-54z m83-177l41-113 19 7-41 113-19-7z m-106-47l2-4-2-4c-7-13-16-24-26-35l-189-188c-61-61-159-61-219 0l-35 35c-61 61-61 159 0 219l188 188c40 40 97 54 150 40l17-4-12-13-89-89-51-51-137-136c-24-24-24-64 0-88l34-34c24-24 64-24 88 0l185 185v0l3 3 50 50 11 11 5-15 27-70z m-21-2l-18 50-36-36v0l-3-3-188-188c-32-32-84-32-117 0l-34 34c-32 32-32 84 0 117l137 137 51 51 76 76c-41 5-83-8-113-38l-188-189c-53-53-53-138 0-191l34-34c53-53 138-53 191 0l188 188c8 8 15 17 20 26z" horiz-adv-x="1000" />

<glyph glyph-name="fail_to_render_viz" unicode="&#xe85b;" d="M210 350c0-22-18-40-40-40s-40 18-40 40 18 40 40 40 40-18 40-40l0 0z m-140-430c-17 0-30 13-30 30v720c0 17 13 30 30 30h75l97-267-37-35c-10 7-22 11-35 11-33 0-60-27-60-60s27-60 60-60 60 27 60 60c0 13-4 25-11 34l30 28 61-165v-246c0-22 18-40 40-40h64l15-40h-359z m260 271l77-211h-57c-11 0-20 9-20 20v191z m105-230l0 0 0 1-172 472-5 14-92 252-7 20h-21-68c-28 0-50-22-50-50v-720c0-28 22-50 50-50h366 21l-7 20-15 41z m355 719c0 22 18 40 40 40s40-18 40-40-18-40-40-40-40 18-40 40l0 0z m-220-160c0 22 18 40 40 40s40-18 40-40-18-40-40-40-40 18-40 40l0 0z m-220 120c0 22 18 40 40 40s40-18 40-40-18-40-40-40-40 18-40 40l0 0z m610-610c0-17-13-30-30-30h-395l-65 179v221c0 22-18 40-40 40h-55l-46 127 26 24c10-7 22-11 35-11 19 0 37 9 48 24l114-70c-1-5-2-9-2-14 0-33 27-60 60-60 33 0 60 27 60 60 0 8-2 16-4 23l123 94c11-10 26-17 42-17 33 0 60 27 60 60 0 33-27 60-60 60s-60-27-60-60c0-10 2-19 6-27l-122-93c-11 12-27 20-45 20-21 0-40-11-51-28l-112 69c2 6 3 12 3 19 0 33-27 60-60 60s-60-27-60-60c0-13 4-25 11-34l-19-18-71 192h679c17 0 30-13 30-30v-720z m-510 204l-68 186h48c11 0 20-9 20-20v-166z m480 566h-686-21l7-20 81-221 2-7 41-112 0-1 160-439 7-20h21 388c28 0 50 22 50 50v720c0 28-22 50-50 50l0 0z m-40-720c0-11-9-20-20-20h-80c-11 0-20 9-20 20v420c0 11 9 20 20 20h80c11 0 20-9 20-20v-420z m-20 460h-80c-22 0-40-18-40-40v-420c0-22 18-40 40-40h80c22 0 40 18 40 40v420c0 22-18 40-40 40l0 0z m-200-460c0-11-9-20-20-20h-80c-11 0-20 9-20 20v240c0 11 9 20 20 20h80c11 0 20-9 20-20v-240z m-20 280h-80c-22 0-40-18-40-40v-240c0-22 18-40 40-40h80c22 0 40 18 40 40v240c0 22-18 40-40 40l0 0z m-420-360c0-11-9-20-20-20h-80c-11 0-20 9-20 20v140c0 11 9 20 20 20h80c11 0 20-9 20-20v-140z m-20 180h-80c-22 0-40-18-40-40v-140c0-22 18-40 40-40h80c22 0 40 18 40 40v140c0 22-18 40-40 40l0 0z" horiz-adv-x="1000" />

<glyph glyph-name="empty_library" unicode="&#xe85c;" d="M160 180v-260h680v260h-680z m660-240h-640v220h640v-220z m-660 540v-260h680v260h-680z m660-240h-640v220h640v-220z m-660 540v-260h680v260h-680z m240-150c6 0 10-3 10-5s-4-5-10-5-10 3-10 5 4 5 10 5l0 0z m-132 130h92c-20-7-39-17-57-28-13 4-24 7-41 12 3 5 5 10 6 16z m15-43c-10-8-19-16-28-25-4 4-9 8-13 12 5 7 9 14 13 21 11-3 20-6 28-8z m-35 43c-1-4-3-8-4-11-1 0-3 1-4 1-15 4-26 7-35 10h43z m-7-83c-10-11-19-24-28-37-2 7-4 15-7 24 6 6 12 12 18 18 2 2 3 4 5 6 5-4 8-8 12-11z m-7 54c0 0 0 0 0 0-2-5-4-9-7-14-2 2-4 4-7 6-7 6-13 12-18 16 9-2 19-5 32-8z m-28-22c3-3 6-5 8-8-2-2-3-4-5-6-3-3-6-6-8-9 0 1 0 1 0 2-4 15-7 25-9 35 4-4 9-9 14-14z m-26-22c0-2 1-3 1-5 1-5 2-9 3-13-2-1-3-3-4-4v22z m0-46c3 2 7 5 10 8 3-11 6-21 10-32-7-14-14-28-20-43v67z m640-101h-631c38 112 109 184 201 208l1-99c-1 0-2-1-3-1l-8 11-12 17-6-20-13-47 19-5 4 14c4-11 15-18 29-18 13 0 25 7 29 18l5-16 19 6-14 45-10 27-10-26-3-8c-2 1-4 2-6 2l-1 112h410v-220z m90 220c11 0 20 9 20 20v30c0 11-9 20-20 20h-820c-11 0-20-9-20-20v-30c0-11 9-20 20-20h20v-820h-20c-11 0-20-9-20-20v-30c0-11 9-20 20-20h820c11 0 20 9 20 20v30c0 11-9 20-20 20h-20v820h20z m-39-839c25 0 40 0 40 0 0 0 0-30 0-30l-780-2v0c-25 0-40 0-40 0 0 0 0 30 0 30 0 0 15 0 40 0l-2 860c-25 0-40 0-40 0 0 0 0 30 0 30l780 2c25 0 40 0 40 0 0 0 0-30 0-30 0 0-15 0-40 0l2-860z" horiz-adv-x="1000" />

<glyph glyph-name="unviewable" unicode="&#xe85d;" d="M814 391c-32-23-67-42-103-56l65-179-56-20-65 180c-40-11-81-18-125-20v-196h-60v195c-44 2-85 9-125 20l-65-180-56 20 65 179c-36 15-70 33-103 56l-124-123-42 43 119 119c-36 32-70 69-101 112l-18 24 48 35 17-24c108-148 245-222 415-222s307 73 414 221l17 24 48-35-17-24c-31-43-65-80-101-112l119-118-42-42-124 123z" horiz-adv-x="1000" />

<glyph glyph-name="metric" unicode="&#xe85e;" d="M820 380v210h-220v240h-580v-960h520 60 160 60 160v510h-160z m-280 210h-290v-60h290v-150h-230v-60h230v-150h-290v-60h290v-180h-460v840h460v-180z m220-210v-450h-160v600h160v-150z m160-450h-100v390h100v-390z" horiz-adv-x="1000" />

<glyph glyph-name="metric_fill" unicode="&#xe85f;" d="M540 110v-240h-520v960h520v-240h-290v-60h290v-150h-230v-60h230v-150h-290v-60h290z m280 270v-510h160v510h-160z m-220 210v-720h160v720h-160z" horiz-adv-x="1000" />

<glyph glyph-name="attribute" unicode="&#xe860;" d="M500 830l-480-480 480-480 480 480-480 480z m-390-480l390 390 390-390-390-390-390 390z" horiz-adv-x="1000" />

<glyph glyph-name="attribute_fill" unicode="&#xe861;" d="M500 830l-480-480 480-480 480 480-480 480z" horiz-adv-x="1000" />

<glyph glyph-name="microphone" unicode="&#xe862;" d="M820 350v-10c0-167-127-303-290-319v-91h120v-60h-300v60h120v91c-163 16-290 152-290 319v10h60v-10c0-144 116-260 260-260 144 0 260 116 260 260v10h60z m-520 0v280c0 110 90 200 200 200s200-90 200-200v-280c0-110-90-200-200-200s-200 90-200 200z m60 0c0-77 63-140 140-140s140 63 140 140v280c0 77-63 140-140 140s-140-63-140-140v-280z" horiz-adv-x="1000" />

<glyph glyph-name="microphone_fill" unicode="&#xe863;" d="M820 350v-10c0-167-127-303-290-319v-91h120v-60h-300v60h120v91c-163 16-290 152-290 319v10h60v-10c0-144 116-260 260-260 144 0 260 116 260 260v10h60z m-320-200c110 0 200 90 200 200v280c0 110-90 200-200 200s-200-90-200-200v-280c0-110 90-200 200-200z" horiz-adv-x="1000" />

<glyph glyph-name="edit" unicode="&#xe864;" d="M731 830l-625-628-85-297c-6-20 12-39 33-34l293 73 633 636-249 250z m-571-873l-49 50 40 141c0 0 1-1 1-1l0 0 45-14 10-87 83-16 6-39-136-34z m182 65l0 2-8 53-81 15-10 83-61 19c0 0-1 0-2 1l421 423 167-168-426-428z m300 636l89 90 167-168-89-90-167 168z" horiz-adv-x="1000" />

<glyph glyph-name="no_location_user" unicode="&#xe865;" d="M500 830c-210 0-380-170-380-380 0-89 58-206 153-336 72-98 163-197 209-231l18-13 18 13c46 34 137 132 209 230 95 130 153 247 153 337 0 210-170 380-380 380z m162-490c-14-15-30-28-47-39 40-32 65-81 65-136 0-5 0-10-1-15 0 0 0-1-1-1-60-81-134-163-178-203-42 37-110 112-167 189-2 10-3 20-3 30 0 55 25 104 65 136-17 11-33 24-47 39-36-32-62-75-72-124-61 93-96 176-96 234 0 177 143 320 320 320s320-143 320-320c0-57-32-135-88-224-13 45-37 84-70 114z m-12 195c0-24-12-72-53-111-8-7-16-14-23-22-8-7-14-15-21-24-6-8-11-17-15-27-4-10-6-21-6-33v-28h-62v34c1 20 5 37 11 51 7 14 15 27 24 38 10 11 19 21 30 31 45 37 54 66 54 92 0 52-43 95-95 95s-94-44-94-96c0-5 1-10 1-15h-61c0 5-1 10-1 15 1 86 70 155 156 155 86 0 155-69 155-155z m-100-365c0-28-22-50-50-50-28 0-50 22-50 50 0 28 22 50 50 50 28 0 50-22 50-50z" horiz-adv-x="1000" />

<glyph glyph-name="notification" unicode="&#xe866;" d="M520 830c53 0 96-41 100-93 93-41 161-129 174-236l1-5c5-50 14-98 26-146 17-67 56-140 117-218 8-11 13-24 13-37v-75l0 0c0-33-27-60-60-60l-259 0c-20-53-71-90-131-90s-111 37-131 90l-260 0c-33 0-60 27-60 60l0 75c0 13 5 26 13 36 59 77 98 150 117 219 12 46 21 92 27 138l1 12c12 107 80 195 172 236 3 53 47 94 100 94h40z m0-80h-40c-10 0-18-7-20-17l0-2-3-48-44-20c-69-31-117-96-125-172-6-54-16-108-30-162-28-106-69-188-124-246l-4-3 0-2v-38l294 0 20-51c9-23 31-39 56-39 24 0 46 15 55 36l1 2 20 51 294 1v38l-1 4-4 4c-55 58-95 138-121 238l-2 6c-12 48-21 96-27 146l-1 12c-8 76-55 142-123 174l-4 2-44 20-3 47c-1 10-9 18-18 19l-2 0z" horiz-adv-x="1000" />

<glyph glyph-name="push_notification" unicode="&#xe867;" d="M940 720l-912-262-8-64 216-125v-248l38-46 143 120-55 32-66-56v164l325-188 359 622-40 51z m-840-303l797 229-298-517-265 153 257 148-30 52-287-166-174 101z" horiz-adv-x="1000" />

<glyph glyph-name="triangle_drop-down" unicode="&#xe868;" d="M980 630l-480-560-480 560h960z" horiz-adv-x="1000" />

<glyph glyph-name="triangle_drop-up" unicode="&#xe869;" d="M980 70l-480 560-480-560h960z" horiz-adv-x="1000" />

<glyph glyph-name="txt" unicode="&#xe86a;" d="M230 400h180v-41h-66v-179h-48v179h-66v41z m460-220h48v179h66v41h-180v-41h66v-179z m-500 0h50v50h-50v-50z m328 150l-43 70h-56l71-105-77-115h54l49 76 48-76h58l-77 115 70 105h-53l-44-70z m412 232v-692h-860v960h592l268-268z m-60-63h-261l1 60v211h-480v-310-20-510h740v569z" horiz-adv-x="1000" />

<glyph glyph-name="radio_button" unicode="&#xe86b;" d="M500 210c77 0 140 63 140 140s-63 140-140 140-140-63-140-140 63-140 140-140z m0-280c-232 0-420 188-420 420s188 420 420 420 420-188 420-420-188-420-420-420m0 900c-265 0-480-215-480-480s215-480 480-480 480 215 480 480-215 480-480 480" horiz-adv-x="1000" />

<glyph glyph-name="history_viewed-" unicode="&#xe86c;" d="M500-70l0 0c232 0 420 188 420 420s-188 420-420 420-420-188-420-420 188-420 420-420l0 0z m30 460v320h-60v-350-30h340v60h-280z m-30-520c-265 0-480 215-480 480s215 480 480 480 480-215 480-480-215-480-480-480z" horiz-adv-x="1000" />

<glyph glyph-name="no_notification" unicode="&#xe86d;" d="M960-70c0-22-18-40-38-40h-844c-21 0-38 18-38 40v491c0 0 0 1 0 1l430-264c19-11 43-11 61 0l429 264v-492z m-914 512c2 3 4 6 7 8 0 0 0 0 0 0 1 1 3 2 4 3 0 0 0 0 1 0 2 1 3 2 5 3l107 47v-137l-124 76z m154 190l168 168c2 2 4 4 6 5l-1-140c0-19-14-33-33-33l-140 0c0 0 0 0 0 0l0 0z m193 32l1 146h379c21 0 42-16 42-33v-265l0-1 0 0v-154l-294-182c-12-7-28-7-41 0l-290 179v254c0 1 0 2 0 4h150c30-1 53 23 53 52l0 0z m442-162l113-49c1-1 3-2 4-3 0 0 1-1 1-1 1-1 2-2 2-3 1-1 1-2 2-3l-122-75v134z m121-30l-121 52v253c0 29-30 53-62 53h-381c-14 0-28-6-39-16l-167-168c-10-10-16-24-16-39v-83l-115-49c-22-9-35-30-35-54v-491c0-32 26-60 58-60h843c32 0 58 27 58 60v503c1 17-9 33-23 39z m-266-62h-380c-6 0-10-4-10-10 0-6 4-10 10-10h380c6 0 10 4 10 10 0 6-4 10-10 10z m-390 90c0-6 4-10 10-10h380c6 0 10 4 10 10 0 6-4 10-10 10h-380c-6 0-10-4-10-10z m210 90h180c6 0 10 4 10 10s-4 10-10 10h-180c-6 0-10-4-10-10s4-10 10-10z" horiz-adv-x="1000" />

<glyph glyph-name="mapbox_pin" unicode="&#xe86e;" d="M130 454c0-193 292-525 370-584 78 58 370 389 370 584 0 207-166 376-370 376-204 0-370-169-370-376z" horiz-adv-x="1000" />

<glyph glyph-name="chapter" unicode="&#xe86f;" d="M230 830v-140h-140v-820h680v140h140v820h-680z m60-60h560v-700h-80v342l-278 278h-202v80z m-140-140h80 60 140v-220-60h60 220v-280-60-80h-560v700z" horiz-adv-x="1000" />

<glyph glyph-name="view_fill" unicode="&#xe870;" d="M676 348c0 97-79 176-176 176-97 0-176-79-176-176s79-176 176-176c97 0 176 79 176 176m304 0c-11-27-24-53-39-77-92-147-255-244-441-244-186 0-349 98-441 245-15 24-28 50-39 77 11 27 24 53 39 77 92 146 255 244 441 244 186 0 349-98 441-245 15-24 28-50 39-77m-370 2c0-61-49-110-110-110-61 0-110 49-110 110s49 110 110 110c61 0 110-49 110-110" horiz-adv-x="1000" />

<glyph glyph-name="invisible" unicode="&#xe871;" d="M608 251c42 32 69 83 69 139 0 97-79 176-176 176-57 0-107-27-139-69l47-47c20 31 54 51 93 51 61 0 110-49 110-110 0-39-20-73-51-93l47-47z m372 140c-11-27-24-53-39-77-50-80-122-146-206-189l84-84-57-57-680 679 57 57 87-87c80 50 174 79 275 79 186 0 349-98 441-245 14-24 27-50 38-76l0 0z m-875 139l458-458c-21-3-42-4-63-4-186 0-349 98-441 245-15 24-28 50-39 77 11 27 24 53 39 77 14 23 30 44 46 63l0 0z" horiz-adv-x="1000" />

<glyph glyph-name="security_locked" unicode="&#xe872;" d="M680 510h-360v20c0 99 81 180 180 180s180-81 180-180v-20z m-140-349v-91h-80v91c-24 14-40 39-40 69 0 44 36 80 80 80s80-36 80-80c0-30-16-55-40-69l0 0z m276 349h-16v20c0 166-134 300-300 300s-300-134-300-300v-20h-16c-47 0-84-38-84-84v-471c0-47 38-84 84-84h631c47 0 84 38 84 84v471c1 46-37 84-83 84l0 0z" horiz-adv-x="1000" />

<glyph glyph-name="mapbox_diamond" unicode="&#xe873;" d="M497 820l467-467-467-466-467 466 467 467z" horiz-adv-x="1000" />

<glyph glyph-name="expand" unicode="&#xe874;" d="M20-70v340h60v-340h340v-60h-400v60z m960 840v-340h-60v340h-340v60h400v-60z" horiz-adv-x="1000" />

<glyph glyph-name="annotation" unicode="&#xe875;" d="M20 740h600v-60h-540v-563h138 85l60-60 101-101 101 101 60 60h85 130v382h60v-442h-60-192l-185-187-185 186h-198-60v60 564 20 40z m885 90l75-75-68-68-75 75 68 68z m-368-368l271 271 75-75-271-271-75 75z m-37-112l15 90 75-75-90-15z" horiz-adv-x="1000" />

<glyph glyph-name="more" unicode="&#xe876;" d="M840 280h140v140h-140v-140z m-400 0h140v140h-140v-140z m-420 0h140v140h-140v-140z" horiz-adv-x="1000" />

<glyph glyph-name="pdf" unicode="&#xe877;" d="M752 243c2-16-22-25-68-14-20 5-41 13-61 24 80 11 127 6 129-10l0 0z m-247 27c-6-1-26-6-28-6-18-4-34-8-50-13 6 11 11 21 14 27 13 24 24 47 34 69 6-9 11-18 18-28 11-16 23-31 36-44-8-1-16-3-24-5l0 0z m-210-177c-19-24-31-29-45-21-2 1-4 5-2 12 2 12 11 27 26 42 17 18 40 34 69 49-20-39-34-64-48-82l0 0z m155 422c-3 21-3 38 0 50 2 9 5 13 8 14 13 4 26-4 29-30 3-25-2-60-17-105-10 25-16 49-20 71l0 0z m126-230c-19 16-36 35-51 57-12 17-22 34-31 51 28 69 38 122 33 161-7 51-44 75-81 63-54-18-49-116 5-225-12-28-27-60-45-94-7-13-21-40-33-65-54-22-97-48-126-78-44-45-54-95-17-117 34-20 67-7 96 31 16 21 32 48 55 92-2-4 7 15 20 40 25 9 54 18 84 24 2 0 22 5 28 6 12 3 22 5 32 7 7 1 13 3 20 4 34-26 72-44 109-53 69-16 125 5 117 59-4 31-32 46-74 49-30 2-69-1-116-8-7-1-16-3-25-4l0 0z m294-355h-740v840h480l-1-271h261v-569z m-208 900h-592v-960h860v692l-268 268z" horiz-adv-x="1000" />

<glyph glyph-name="print" unicode="&#xe878;" d="M160 770v-60-60h60v60h560v-60h60v60 60h-680z m760-160h-840-60v-60-400-40-20h150v-160h660v160h150v520h-60z m-150-620h-540v320h540v-320z m150 160h-90v220h-660v-220h-90v400h840v-400z m-620 0h400v60h-400v-60z" horiz-adv-x="1000" />

<glyph glyph-name="transaction" unicode="&#xe879;" d="M279 830v-60h381l-580-581 50-50 629 631v60h-480z m-31-900v-60h480v60h-381l581 581-50 50-630-631z" horiz-adv-x="1000" />

<glyph glyph-name="prompt-fill" unicode="&#xe87a;" d="M732 830c5 0 10-2 14-6l228-228c4-4 6-9 6-14v-652c0-33-27-60-60-60h-470v80h450v560h-200c-22 0-40 18-40 40v200h-460v-240h-80v260c0 33 27 60 60 60h552z m-228-420c13 0 24-11 24-24l0 0v-63c0-6-3-12-7-16l0 0-167-156 0-177c0-7-3-13-8-18l0 0-1-1-114-81c-16-11-37 0-37 19l0 0v258l-167 156c-4 4-7 9-7 15l0 0 0 1v63c0 14 11 24 24 24l0 0h460z m236 307v-127h127l-127 127z" horiz-adv-x="1000" />

<glyph glyph-name="reduce" unicode="&#xe87b;" d="M420 210v-340h-60v340h-340v60h400v-60z m160 280v340h60v-340h340v-60h-400v60z" horiz-adv-x="1000" />

<glyph glyph-name="clear2_line" unicode="&#xe87c;" d="M500 830c265 0 480-215 480-480s-215-480-480-480-480 215-480 480 215 480 480 480z m0-900c232 0 420 188 420 420s-188 420-420 420-420-188-420-420 188-420 420-420z m0 462l141 141 42-42-141-141 141-141-42-42-141 141-141-142-42 42 141 142-142 141 42 42 142-141z" horiz-adv-x="1000" />

<glyph glyph-name="clear2_fill" unicode="&#xe87d;" d="M500 830c265 0 480-215 480-480s-215-480-480-480-480 215-480 480 215 480 480 480z m0-438l-141 142-42-42 141-142-142-141 42-42 142 141 141-141 42 42-141 141 141 141-42 42-141-141z" horiz-adv-x="1000" />

<glyph glyph-name="oidc" unicode="&#xe87e;" d="M700 335l77 43c-6 5-66 43-149 51l0 93c105-9 206-51 253-84l79 42 20-203-280 58z m-98 455c0 0-118-57-145-70l0-724h0c-1 0-21 3-29 4-44 8-86 21-126 40-25 12-48 27-69 45-24 21-44 45-56 75-10 26-14 52-9 80 6 32 21 59 43 83 22 24 48 44 77 59 43 23 93 38 142 47l0 93c-8-1-20-2-28-4-38-6-75-15-112-27-38-12-75-28-110-48-35-21-68-45-95-75-20-22-37-47-49-75-15-34-19-70-14-107 4-33 17-64 36-92 23-35 54-63 88-87 54-37 114-62 178-79 31-9 63-15 95-19 13-2 25-4 38-4l145 65c0 269 0 818 0 820z" horiz-adv-x="1000" />

<glyph glyph-name="collaboration2" unicode="&#xe87f;" d="M500 780c-247 0-450-165-450-372 0-139 93-263 235-327-5-36-29-79-61-104-26-20-10-59 20-60 100-4 183 40 231 120 8 0 16-1 24-1 247 0 450 165 450 372s-202 372-449 372z" horiz-adv-x="1000" />

<glyph glyph-name="certified2" unicode="&#xe880;" d="M624 543l-167-160 0 0-64 61c-16 15-42 15-58 0-15-15-16-39-1-54 0 0 1-1 1-1l108-103c8-7 20-7 28 0l211 202c15 15 16 39 1 54 0 0-1 1-1 1-16 15-41 15-58 0z m-366-661c-14-17-34-15-45 5l-58 107-115 37c-21 7-26 26-12 43l127 151c-35 60-56 130-56 204 0 221 179 400 400 400s400-179 400-400c0-75-20-144-56-204l127-151c14-17 9-36-12-43l-116-38-57-107c-10-19-30-21-45-5l-135 162c-34-9-69-14-105-14s-72 5-105 14l-137-161z" horiz-adv-x="1000" />

<glyph glyph-name="caching" unicode="&#xe881;" d="M500-130c-265 0-480 215-480 480s215 480 480 480 480-215 480-480-215-480-480-480z m207 311h-414v129h-68v-196h550v196h-68v-129z m-178 190v303h-65v-304l-90 90-46-46 168-168 168 168-46 46-89-89z" horiz-adv-x="1000" />

<glyph glyph-name="link_1" unicode="&#xe882;" d="M618 419c12-16 9-40-7-52-16-12-40-9-52 7-61 82-177 98-259 37-7-5-14-11-20-17l-133-132c-71-74-68-191 6-261 71-68 184-68 255 0l76 76c14 14 38 14 52 0 14-14 14-38 0-52l-76-78c-102-100-266-98-366 4-99 101-98 262 0 362l133 133c101 101 265 101 366 0 9-8 17-17 25-27l0 0z m-237-133c-12 16-9 40 7 52 16 12 40 9 52-7 0 0 0 0 0 0 61-82 177-98 259-37 7 5 14 11 20 17l133 133c71 73 69 190-4 261-72 69-185 69-257 0l-76-76c-15-14-38-14-52 0-14 14-14 38 0 52l77 76c103 99 267 96 366-7 97-100 97-259 0-360l-135-132c-101-101-265-101-366 0-8 9-17 18-24 28l0 0z" horiz-adv-x="1000" />

<glyph glyph-name="pdf_fill" unicode="&#xe883;" d="M617 830l0-177 0-3c1-57 47-102 104-104l3 0 177 0-1-596c0-44-36-80-80-80h-640c-44 0-80 36-80 80v800c0 44 36 80 80 80l437 0z m-176-153c-59-20-53-126 5-244-13-31-29-65-49-102-7-14-22-43-36-70-59-23-105-52-136-85-46-47-57-102-17-126 37-22 72-8 104 33 17 22 34 50 57 95l2 4c0 0 9 19 22 43 28 10 58 19 91 26 2 0 24 5 31 7 13 3 24 5 35 8 7 2 15 3 22 4 37-28 78-48 118-57 74-17 135 5 127 64-5 34-35 49-80 53-33 3-75-1-126-9-9-1-18-3-28-5-21 18-39 38-55 62-13 19-24 37-33 55 30 75 41 132 35 174-8 57-48 83-89 70z m-110-478c-22-43-38-70-53-89-20-26-34-31-48-23-3 2-4 5-2 13 2 13 12 29 29 46 18 19 43 37 74 53z m442 73c2-17-24-27-74-16-22 5-44 14-66 26 86 12 138 7 140-10z m-300 113c6-10 12-20 19-30 12-17 25-33 39-48-8-2-16-3-25-5-7-2-28-6-31-7-19-4-37-9-54-14 6 12 12 23 15 30 14 26 26 51 37 74z m13 218c4-27-2-65-18-113-11 27-18 53-22 77-4 22-3 41 0 55 2 10 6 14 9 15 14 3 28-6 31-34z m184 210c2-2 5-4 7-6l199-194c4-4 8-9 11-14l-164 0-2 0c-28 1-50 23-51 51l0 2 0 161z" horiz-adv-x="1000" />

<glyph glyph-name="page2_fill" unicode="&#xe884;" d="M607 830v-187l0-3c1-57 47-102 104-104l3 0 187 0-1-586c0-44-36-80-80-80h-640c-44 0-80 36-80 80v800c0 44 36 80 80 80l427 0z m-40-640h-294c-22 0-40-18-40-40s18-40 40-40l0 0h293c22 0 40 18 40 40s-17 40-39 40l0 0z m160 160h-454c-22 0-40-18-40-40s18-40 40-40l0 0h453c22 0 40 18 40 40s-17 40-39 40l0 0z m-267 160h-187c-22 0-40-18-40-40s18-40 40-40l0 0h187c22 0 40 18 40 40s-18 40-40 40l0 0z m202 317c1 0 1 0 1-1l233-233 0 0 4-3h-190c-28 0-50 22-50 50v185c0 1 1 2 2 2z" horiz-adv-x="1000" />

<glyph glyph-name="server-1" unicode="&#xe885;" d="M880 430c55 0 100-48 100-106v-128c0-58-45-106-100-106h-340v-140h270c22 0 40-18 40-40s-18-40-40-40h-620c-22 0-40 18-40 40s18 40 40 40h270v140h-340c-55 0-100 48-100 106v128c0 58 45 106 100 106h760z m0-80h-760c-10 0-19-10-20-24l0-2v-128c0-15 9-25 19-26l1 0h760c10 0 19 10 20 24l0 2v128c0 15-9 25-19 26l-1 0z m-140-30c33 0 60-27 60-60s-27-60-60-60-60 27-60 60 27 60 60 60z m140 510c55 0 100-48 100-106v-128c0-58-45-106-100-106h-760c-55 0-100 48-100 106v128c0 58 45 106 100 106h760z m0-80h-760c-10 0-19-10-20-24l0-2v-128c0-15 9-25 19-26l1 0h760c10 0 19 10 20 24l0 2v128c0 15-9 25-19 26l-1 0z m-140-30c33 0 60-27 60-60s-27-60-60-60-60 27-60 60 27 60 60 60z" horiz-adv-x="1000" />

<glyph glyph-name="export" unicode="&#xe886;" d="M810 830l2 0c43-1 78-37 78-80l0 0v-340h-80v340h-470l0-150c0-27-21-49-48-50l-2 0-140 0v-600h200v-80h-200l-2 0c-44 1-78 37-78 80l0 0v604l0 3c1 20 9 38 22 52l0 0 188 196 2 2c15 15 35 23 56 23l0 0h472z m-115-529c1 10 7 13 15 6l0 0 224-184 1-1c7-7 7-18-1-24l0 0-224-185-1-1c-8-6-14-2-14 8l0 0 0 127-235 0c-11 0-20 9-20 20l0 0v86c0 11 9 20 20 20l0 0 235 0 0 127 0 1z" horiz-adv-x="1000" />

<glyph glyph-name="add-discussion" unicode="&#xe887;" d="M790 250c28 0 50-22 50-50v-90h90c28 0 50-22 50-50s-22-50-50-50h-90v-90c0-28-22-50-50-50s-50 22-50 50v90h-90c-28 0-50 22-50 50s22 50 50 50h90v90c0 28 22 50 50 50z m-410 580c117 0 222-47 288-121 167-40 292-180 292-348 0-21-2-42-6-62-4-22-25-36-47-32-22 4-36 25-32 47 3 15 4 31 4 47 1 154-137 279-309 279s-310-125-310-279c0-102 62-195 161-244 15-7 24-24 22-40-2-16-7-33-14-50l-1-3 2 0c26 5 51 16 73 30l4 3c18 13 43 9 56-9s9-43-9-56c-42-30-94-48-144-52-21-2-40-1-54 3-12 3-22 7-30 17-17 20-13 45 4 61l2 1c10 9 20 23 26 38l0 1-1 0c-48 29-88 67-117 111-20-2-37-3-50-1-11 1-20 4-29 10-26 18-23 50-2 68l2 1 2 2c5 4 10 10 14 16l2 3 1 2-5 3c-93 53-152 142-155 240l0 5 0 4c0 171 163 305 360 305z m200-430c28 0 50-22 50-50s-22-50-50-50-50 22-50 50 22 50 50 50z m-180 0c28 0 50-22 50-50s-22-50-50-50-50 22-50 50 22 50 50 50z m360 0c28 0 50-22 50-50s-22-50-50-50-50 22-50 50 22 50 50 50z m-380 350c-156 0-280-102-280-225 0-59 29-116 80-157 3 182 154 330 345 350-42 20-92 32-145 32z" horiz-adv-x="1000" />

<glyph glyph-name="pdf_font" unicode="&#xe888;" d="M617 830l0-177 0-3c1-57 47-102 104-104l3 0 177 0-1-596c0-44-36-80-80-80h-640c-44 0-80 36-80 80v800c0 44 36 80 80 80l437 0z m-340-426h-106v-254h53v80h50c53 0 91 35 91 86-1 53-36 88-88 88z m236 0h-100v-254h100c76 0 119 46 119 128 0 80-43 126-119 126z m336 0h-167v-254h53v100h103v42h-102v68h113v44z m-344-44c46 0 73-30 73-82 0-54-26-84-73-84h-38v166h38z m-242 1c31 0 48-16 48-45 0-29-18-45-48-45h-38v90h38z m407 452c2-2 5-4 7-6l199-194c4-4 8-9 11-14l-164 0-2 0c-28 1-50 23-51 51l0 2 0 161z" horiz-adv-x="1000" />

<glyph glyph-name="send" unicode="&#xe889;" d="M941 417l0 0-854 409c-15 7-32 5-45-5-14-11-22-29-22-48v-261c0-27 16-49 39-54l402-99c5-1 9-7 7-12-1-4-4-6-7-7l-402-99 0 0c-23-5-39-28-39-55v-261c0-18 8-35 21-45 8-7 17-10 27-10 7 0 13 2 19 4l854 406c24 12 39 39 39 68 0 30-15 57-39 69z" horiz-adv-x="1000" />

<glyph glyph-name="save_with_bookmark" unicode="&#xe88a;" d="M761 830c60 0 109-50 109-110l0 0v-802c0-44-30-61-67-37l0 0-303 204-303-204c-37-24-67-8-67 37l0 0v802c0 60 49 110 109 110l0 0h522z m-24-190c-16 15-42 14-56-3l0 0-243-268-119 126-2 2c-15 15-39 15-55 0-16-15-17-40-2-57l0 0 148-158 2-2c16-15 42-15 57 2l0 0 272 300 1 2c14 17 13 41-3 56z" horiz-adv-x="1000" />

<glyph glyph-name="x_sort_a_z" unicode="&#xe88b;" d="M174 230l-134-360h81l30 86h136l29-86h88l-134 360h-96z m-5-216l49 141h5l47-141h-101z m570-80h200v-64h-299v51l195 240v4h-190v65h289v-51l-194-240v-5z m234 646l-1-1-184-184c-12-12-31-12-42 0-11 11-12 29-1 41l1 1 132 133h-828c-17 0-30 13-30 30 0 17 13 30 30 30h828l-133 133c-11 11-12 29-1 41l1 1c11 11 29 12 41 1l1-1 184-184c12-11 12-29 2-41z" horiz-adv-x="1000" />

<glyph glyph-name="x_sort_z_a" unicode="&#xe88c;" d="M734 230l-134-360h81l30 86h136l29-86h88l-134 360h-96z m-5-216l49 141h5l47-141h-101z m-590-80h200v-64h-299v51l195 240v4h-190v65h289v-51l-194-240v-5z m834 646l-1-1-184-184c-12-12-31-12-42 0-11 11-12 29-1 41l1 1 132 133h-828c-17 0-30 13-30 30 0 17 13 30 30 30h828l-133 133c-11 11-12 29-1 41l1 1c11 11 29 12 41 1l1-1 184-184c12-11 12-29 2-41z" horiz-adv-x="1000" />

<glyph glyph-name="y_sort_a_z" unicode="&#xe88d;" d="M174 830l-134-360h81l30 86h136l29-86h88l-134 360h-96z m-5-216l49 141h5l47-141h-101z m0-680h200v-64h-299v51l195 240v4h-190v65h289v-51l-194-240v-5z m787 130l-1-1-184-184c-11-11-29-12-41-1l-1 1-184 183c-12 12-12 31 0 42 11 11 29 12 41 1l1-1 133-132v828c0 17 13 30 30 30s30-13 30-30v-828l133 133c11 11 29 12 41 1l1-1c11-12 12-30 1-41z" horiz-adv-x="1000" />

<glyph glyph-name="y_sort_z_a" unicode="&#xe88e;" d="M174 230l-134-360h81l30 86h136l29-86h88l-134 360h-96z m-5-216l49 141h5l47-141h-101z m200 456h-299v51l195 240v5h-190v64h289v-51l-194-240v-4h200v-65z m587-406l-1-1-184-184c-11-11-29-12-41-1l-1 1-184 183c-12 12-12 31 0 42 11 11 29 12 41 1l1-1 133-132v828c0 17 13 30 30 30s30-13 30-30v-828l133 133c11 11 29 12 41 1l1-1c11-12 12-30 1-41z" horiz-adv-x="1000" />

<glyph glyph-name="y_sort_area_ascending" unicode="&#xe88f;" d="M40-110h940v-20h-960v960h20v-940z m871 267l-294 166-130 307-387 200v-880h880l-69 207z" horiz-adv-x="1000" />

<glyph glyph-name="x_sort_bar_ascending" unicode="&#xe890;" d="M980-110v-20h-960v960h20v-940h940z m-730 380h-120v-320h120v320z m220 160h-120v-480h120v480z m220 180h-120v-660h120v660z m220 220h-120v-880h120v880z" horiz-adv-x="1000" />

<glyph glyph-name="error_indicator" unicode="&#xe891;" d="M500 50c-28 0-50 22-50 50s22 50 50 50 50-22 50-50-22-50-50-50l0 0z m-30 200h60v400h-60v-400z m30 520c-232 0-420-188-420-420s188-420 420-420 420 188 420 420-188 420-420 420z m0 60c265 0 480-215 480-480s-215-480-480-480-480 215-480 480 215 480 480 480z" horiz-adv-x="1000" />

<glyph glyph-name="error_indicator_fill" unicode="&#xe892;" d="M500 830c-265 0-480-215-480-480s215-480 480-480 480 215 480 480-215 480-480 480z m-30-180h60v-400h-60v400z m30-600c-28 0-50 22-50 50s22 50 50 50 50-22 50-50-22-50-50-50z" horiz-adv-x="1000" />

<glyph glyph-name="filter_panal_ra_more_level" unicode="&#xe893;" d="M660 390h80v-80h-80v80z m320-40c0-265-215-480-480-480s-480 215-480 480c0 265 215 480 480 480s480-215 480-480z m-60 0c0 232-188 420-420 420s-420-188-420-420c0-232 188-420 420-420s420 188 420 420z m-460-40h80v80h-80v-80z m-200 0h80v80h-80v-80z" horiz-adv-x="1000" />

<glyph glyph-name="filter_panal_ra" unicode="&#xe894;" d="M280 210h440v-60h-440v60z m70 180h300v-60h-300v60z m70 180h160v-60h-160v60z m80-640c232 0 420 188 420 420s-188 420-420 420-420-188-420-420 188-420 420-420z m0-60c-265 0-480 215-480 480s215 480 480 480 480-215 480-480-215-480-480-480z" horiz-adv-x="1000" />

<glyph glyph-name="transaction_half" unicode="&#xe895;" d="M64 249l516 0c22 0 40-18 40-40 0-22-18-40-40-40l-423 0 172-172c16-16 16-41 0-57-16-16-41-16-57 0 0 0 0 0 0 0l-238 239c-8 7-14 18-14 30 0 1 0 1 0 2 0 10 4 19 12 26 9 10 21 14 32 12z m664 509l0 0 240-240 0 0c0 0 1-1 1-1l-1 1c1-1 1-1 2-2 6-7 10-16 10-27 0-22-18-40-40-40h-880c-22 0-40 18-40 40 0 22 18 40 40 40l783 0-172 173c-16 16-16 41 0 57 16 15 41 15 57-1z" horiz-adv-x="1000" />

<glyph glyph-name="up" unicode="&#xe896;" d="M532 714v-845h-60v848l-409-409-43 43 480 480 0 0 0 0 480-480-43-43-405 406z" horiz-adv-x="1000" />

<glyph glyph-name="down" unicode="&#xe897;" d="M532-14v845h-60v-847l-409 408-43-43 480-480 0 0 0 0 480 480-43 43-405-406z" horiz-adv-x="1000" />

<glyph glyph-name="next" unicode="&#xe898;" d="M865 319h-845v60h847l-408 408 42 43 480-480 0 0 0 0-480-480-43 43 407 406z" horiz-adv-x="1000" />

<glyph glyph-name="delete_edit_mode" unicode="&#xe899;" d="M500 830c265 0 480-215 480-480s-215-480-480-480-480 215-480 480 215 480 480 480z m-250-440v-80h500v80h-500z" horiz-adv-x="1000" />

<glyph glyph-name="y_sort_line_descending" unicode="&#xe89a;" d="M980-110v-20h-960v960h20v-940h940z m-797 67l337 234 2 1c7 5 12 13 14 21l48 173 259 134 2 1c6 4 11 9 15 15l115 215 1 2c9 19 2 42-17 52-19 10-44 3-54-16l-110-204-263-135-2-1c-9-5-15-14-18-24l-49-176-326-226-2-1c-17-13-21-37-8-54 13-19 38-23 56-11z" horiz-adv-x="1000" />

<glyph glyph-name="y_sort_10_1" unicode="&#xe89b;" d="M290 230v-360h-75v291h-1l-92-63v68l93 65h75z m476 600c17 0 30-13 30-30l0-828 133 133c11 11 29 12 41 1l1-1c11-11 12-29 1-41l-1-1-184-184c-11-11-29-12-41-1l-1 1-184 184c-12 12-12 31 0 42 11 11 29 12 41 1l1-1 133-133 0 828c0 17 14 30 30 30z m-400 0c84 0 135-66 135-174s-51-176-135-176-136 67-136 175c0 109 52 175 136 175z m-189-8v-337h-70v273h-1l-86-60v64l87 60h70z m189-48c-39 0-64-43-64-118 0-76 24-119 64-119s64 42 64 118c0 76-25 119-64 119z" horiz-adv-x="1000" />

<glyph glyph-name="timestamp" unicode="&#xe89c;" d="M814 290l-16-58-328 88 0 0h0v340h60v-294l284-76z m166 60c0-265-215-480-480-480s-480 215-480 480c0 265 215 480 480 480s480-215 480-480z m-60 0c0 232-188 420-420 420s-420-188-420-420c0-232 188-420 420-420s420 188 420 420z" horiz-adv-x="1000" />

<glyph glyph-name="y_sort_1_10" unicode="&#xe89d;" d="M366 220c84 0 135-66 135-174s-51-176-135-176-136 67-136 175c0 109 52 175 136 175z m400 610c17 0 30-13 30-30l0-828 133 133c11 11 29 12 41 1l1-1c11-11 12-29 1-41l-1-1-184-184c-11-11-29-12-41-1l-1 1-184 184c-12 12-12 31 0 42 11 11 29 12 41 1l1-1 133-133 0 828c0 17 14 30 30 30z m-589-618v-337h-70v273h-1l-86-60v63l87 60h70z m189-48c-39 0-64-43-64-118 0-76 24-119 64-119s64 42 64 118c0 76-25 119-64 119z m-78 666v-360h-75v291h-1l-92-63v67l93 65h75z" horiz-adv-x="1000" />

<glyph glyph-name="y_sort_pie_ascending" unicode="&#xe89e;" d="M40 830v-940h940v-20h-960v960h20z m850-720c49 0 89-39 90-87l0-3c0-50-40-90-90-90h0l-3 0c-48 1-87 41-87 90 0 50 40 90 90 90z m49-90h-49l0-49h0c27 0 49 22 49 49z m-299 380c77 0 140-63 140-140s-63-140-140-140-140 63-140 140 63 140 140 140z m0-60v-80h80l0 2c-2 43-37 78-80 78z m-360 470l0 0c110 0 200-90 200-200 0-86-54-159-130-187l0 0-1 0c-3-1-5-2-8-3 0 0-1 0-1 0-1 0-3-1-4-1l0 0-1 0 0 0c-3-1-6-2-8-2l-1 0 0 0c-1 0-3-1-4-1 0 0 0 0 0 0-2 0-3-1-5-1 0 0 0 0 0 0-1 0-3 0-4-1 0 0-1 0-1 0-1 0-3 0-4-1-1 0-1 0-2 0-1 0-2 0-3 0-1 0-1 0-2 0-1 0-3 0-4 0l-2 0 0 0c-1 0-2 0-4 0 0 0-1 0-1 0-1 0-3 0-5 0l-1 0 0 0-1 0c-2 0-3 0-5 0l0 0c-8 0-16 0-24 1l0 0c-10 1-20 3-29 6 0 0-1 0-1 0-1 0-1 0-2 1 0 0-1 0-1 0-1 0-2 0-2 1 0 0-1 0-1 0-5 2-10 3-14 5 0 0-1 0-1 1-1 0-1 0-2 1 0 0 0 0-1 0-2 1-4 2-5 2 0 0 0 0-1 0-3 1-5 3-8 4 0 0-1 0-1 1-2 1-3 2-5 2 0 0-1 1-1 1-1 1-3 2-4 3 0 0-1 1-1 1-1 1-3 2-4 3 0 0-1 1-1 1-2 2-5 3-7 5 0 0-1 0-1 1l-1-3 0 0c0 0-1 0-1 1-1 1-3 2-4 3-1 1-2 2-4 3-1 1-3 2-4 3 0 0-1 1-1 1-1 1-2 2-4 3 0 0 0 0-1 1-1 1-3 2-4 4 0 0-1 1-1 1 0 0-1 1-1 1 0 0-1 1-1 1 0 0-1 1-1 1 0 0 0 1-1 1 0 1-1 1-1 2l-1 1 0 0c0 0-1 1-1 1 0 0-1 1-1 1 0 0-1 1-1 1-2 2-4 4-5 6-1 1-2 2-3 4 0 0-1 1-1 1 0 0 0 0 0 0l-1 2c0 0 0 1-1 1 0 0 0 1-1 1l-1 1 0 0c0 1-1 1-1 2-1 1-2 2-2 4l-1 3 0 0c-1 1-2 3-2 4 0 1-1 1-1 2-1 1-2 3-2 4 0 1-1 1-1 2-1 1-2 3-2 4 0 1-1 1-1 2-1 2-2 3-2 5-1 1-1 3-2 4 0 0 0 1-1 1-1 2-1 3-2 5-1 1-1 3-1 4-1 2-1 3-2 5-1 3-2 5-2 8 0 1 0 1-1 2-2 7-3 14-5 21l0 0c0 1 0 3-1 4-1 4-1 8-1 12l0 3 0 0c0 4 0 8-1 12l0 1c0 110 90 200 200 200z m0-80l0-125-20-113c6-1 13-2 20-2 66 0 120 54 120 120 0 66-54 120-120 120z" horiz-adv-x="1000" />

<glyph glyph-name="x_sort_pie_descending" unicode="&#xe89f;" d="M40 830v-940h940v-20h-960v960h20z m740-500l2 0 0 0 2 0 1 0 1 0c2 0 3 0 5 0 0 0 1 0 1 0l2 0 0 0 2 0 2 0c1 0 3 0 4 0 1 0 1 0 2 0 1 0 2 0 3 0 1 0 1 0 2 0 1 0 3 0 4-1 0 0 1 0 1 0 1 0 3 0 4-1 0 0 0 0 0 0 2 0 3-1 5-1 0 0 0 0 0 0l2 0 0 0 2 0 1 0 4-1 0 0 4-1 1 0 0 0c1 0 3-1 4-1 0 0 1 0 1 0l4-1 0 0 4-1 1 0c76-28 130-102 130-187 0-110-90-200-200-200-109 0-198 88-200 197l0 3 0 3c0 3 0 5 0 8l0 4 0 3c0 4 1 8 1 12l0 2 0 0 0 2 0 0c1 7 3 14 5 21 0 1 0 1 1 2 1 3 2 5 2 8 1 2 1 3 2 5 0 1 1 3 1 4 1 2 1 3 2 5 0 0 0 1 1 1 1 1 1 3 2 4 1 2 1 3 2 5 0 1 1 1 1 2 1 1 1 3 2 4 0 1 1 1 1 2 1 1 1 3 2 4 0 1 1 1 1 2l1 2 0 0 1 2 1 2c1 1 2 2 2 4l1 1 0 0 1 1 1 1c0 0 0 1 1 1l0 0 0 0 0 0 1 2c0 0 0 0 0 0 0 0 1 1 1 1 1 1 2 2 3 4 2 2 3 4 5 6 0 0 1 1 1 1 0 0 1 1 1 1l1 1 0 0 1 1 1 1c0 1 1 1 1 2 0 0 0 1 1 1 0 0 1 1 1 1 0 0 1 1 1 1 0 0 1 1 1 1 0 0 1 1 1 1 1 1 3 2 4 4 0 0 0 0 1 1 1 1 2 2 4 3 0 0 1 1 1 1 1 1 3 2 4 3 1 1 2 2 4 3 1 1 3 2 4 3l0 0 0 0 0 0 2 1c0 0 1 0 1 1 2 2 5 3 7 5 0 0 1 1 1 1 1 1 3 2 4 3 0 0 1 1 1 1 1 1 3 2 4 3 0 0 1 1 1 1 2 1 3 2 5 2 0 0 1 0 1 1 3 1 5 3 8 4 0 0 0 0 1 0 2 1 4 2 5 2 0 0 0 0 1 0 1 0 1 1 2 1 0 0 1 0 1 1 5 2 10 4 14 5 0 0 1 0 1 0 1 0 2 0 2 1 0 0 1 0 1 0 1 0 1 0 2 1 0 0 1 0 1 0 8 2 15 4 23 5l6 1c6 1 12 1 18 1l8-6 0 0z m0-80c-5 0-11 0-16-1l-4-1 20-113 0-125c66 0 120 54 120 120 0 66-54 120-120 120z m-360 370c77 0 140-63 140-140s-63-140-140-140-140 63-140 140 63 140 140 140z m80-140h-80v-80c42 0 77 33 79 75l0 3 1 2z m-330 330c49 0 89-39 90-87l0-3 0-3c-1-48-41-87-90-87-50 0-90 40-90 90 0 48 37 87 85 90l3 0 2 0z m0-41l0 0v-49h49c0 27-21 48-47 49l-2 0z" horiz-adv-x="1000" />

<glyph glyph-name="y_sort_pie_descending" unicode="&#xe8a0;" d="M40 830v-940h940v-20h-960v960h20z m130-720c50 0 90-40 90-90 0-49-39-89-87-90l0 0-3 0c-50 0-90 40-90 90l0 0 0 3c1 48 41 87 90 87z m0-90h-49c0-27 22-49 49-49l0 0h0l0 49z m250 380c77 0 140-63 140-140s-63-140-140-140-140 63-140 140 63 140 140 140z m0-60c-43 0-78-34-80-77l0 0 0-2h80v79z m360 470c110 0 200-90 200-200l0 0 0-3c0-4 0-8-1-12l0 0 0-3c0-4-1-8-1-12 0-1 0-3-1-4l0 0 0 0c-1-7-3-14-5-21 0-1 0-1-1-2-1-3-2-5-2-8-1-2-1-3-2-5 0-1-1-3-1-4-1-2-1-3-2-5 0 0 0-1-1-1-1-1-1-3-2-4-1-2-1-3-2-5 0-1-1-1-1-2-1-1-1-3-2-4 0-1-1-1-1-2-1-1-1-3-2-4 0-1-1-1-1-2-1-1-2-3-2-4l0 0-1-2c-1-1-2-2-2-4 0-1-1-1-1-2l0 0-1-1c0 0 0-1-1-1 0 0 0-1-1-1l0 0-1-2c0 0 0 0 0 0 0 0-1-1-1-1-1-1-2-2-3-4-2-2-3-4-5-6 0 0-1-1-1-1 0 0-1-1-1-1 0 0-1-1-1-1l0 0-1-1c0-1-1-1-1-2 0 0 0-1-1-1 0 0-1-1-1-1 0 0-1-1-1-1 0 0-1-1-1-1 0 0-1-1-1-1-1-1-3-2-4-4 0 0 0 0-1-1-1-1-2-2-4-3 0 0-1-1-1-1-1-1-3-2-4-3-1-1-2-2-4-3-1-1-3-2-4-3 0 0-1 0-1-1l0 0-2-1c0 0-1 0-1-1-2-2-5-3-7-5 0 0-1-1-1-1-1-1-3-2-4-3 0 0-1-1-1-1-1-1-3-2-4-3 0 0-1-1-1-1-2-1-3-2-5-2 0 0-1 0-1-1-3-1-5-3-8-4 0 0 0 0-1 0-2-1-4-2-5-2 0 0 0 0-1 0-1 0-1-1-2-1 0 0-1 0-1-1-5-2-10-4-14-5 0 0-1 0-1 0-1 0-2 0-2-1 0 0-1 0-1 0-1 0-1 0-2-1 0 0-1 0-1 0-9-3-19-5-29-6l0 0c-9 1-17 1-25 1l0 0 0 0c-2 0-3 0-5 0l0 0-1 0-1 0c-2 0-3 0-5 0 0 0-1 0-1 0-1 0-2 0-4 0l0 0-2 0c-1 0-3 0-4 0-1 0-1 0-2 0-1 0-2 0-3 0-1 0-1 0-2 0-1 0-3 0-4 1 0 0-1 0-1 0-1 0-3 0-4 1 0 0 0 0 0 0-2 0-3 1-5 1 0 0 0 0 0 0-1 0-3 1-4 1l0 0-1 0c-3 1-6 1-8 2l0 0-1 0 0 0c-1 0-3 1-4 1 0 0-1 0-1 0-3 1-5 2-8 3l0 0-1 0c-74 31-128 104-128 190 0 110 90 200 200 200l0 0z m0-80c-66 0-120-54-120-120 0-66 54-120 120-120 7 0 13 1 20 2l0 0-20 113 0 125z" horiz-adv-x="1000" />

<glyph glyph-name="clear_view_filter" unicode="&#xe8a1;" d="M684 250l2-1 114-115 115 115c15 15 39 15 54 0 15-15 15-39 0-54l-115-115 115-115c14-14 15-37 1-52l-1-2c-14-14-37-15-52-1l-2 1-115 115-115-115c-15-15-39-15-54 0-15 15-15 39 0 54l115 115-115 115c-14 14-15 37-1 52l1 2c15 14 38 15 53 1z m156 550c11 0 20-9 20-20v-76c0-11-7-26-15-34l-300-282v-318c0-11-7-25-16-32l-161-115c-18-13-33-5-33 17v448l-300 282c-8 8-15 23-15 34v76c0 11 9 20 20 20h800z" horiz-adv-x="1000" />

<glyph glyph-name="x_sort_pie_ascending" unicode="&#xe8a2;" d="M40 830v-940h940v-20h-960v960h20z m130-720c49 0 89-39 90-87l0 0 0-3 0-3c-1-48-41-87-90-87l0 0-3 0-3 0c-47 3-84 42-84 90 0 50 40 90 90 90z m49-90h-49l0-49h0l2 0c26 1 47 22 47 49l0 0z m201 380c77 0 140-63 140-140s-63-140-140-140-140 63-140 140 63 140 140 140z m0-60v-80h80l0 2 0 3c-3 42-38 75-80 75l0 0z m360 470l0 0 3 0c109-2 197-91 197-200 0-86-54-159-130-187l0 0-1 0-4-1 0 0-4-2c0 0-1 0-1 0-1 0-3-1-4-1l0 0 0 0-1 0-4-1 0 0-4-1-1 0-2 0 0 0-2 0c0 0 0 0 0 0-2 0-3-1-5-1 0 0 0 0 0 0-1 0-3 0-4-1 0 0-1 0-1 0-1 0-3 0-4-1-1 0-1 0-2 0-1 0-2 0-3 0-1 0-1 0-2 0-1 0-3 0-4 0l0 0-2 0-2 0 0 0-2 0c0 0-1 0-1 0-1 0-3 0-5 0l0 0-1 0-1 0-2 0 0 0-1-4 0 0-6 0c-6 0-12 1-18 1l0 0-6 1c-8 1-16 3-23 5 0 0-1 0-1 0-1 0-1 0-2 1 0 0-1 0-1 0-1 0-2 0-2 1 0 0-1 0-1 0-5 2-10 3-14 5 0 0-1 0-1 1-1 0-1 0-2 1 0 0 0 0-1 0-2 1-4 2-5 2 0 0 0 0-1 0-3 1-5 3-8 4 0 0-1 0-1 1-2 1-3 2-5 2 0 0-1 1-1 1-1 1-3 2-4 3 0 0-1 1-1 1-1 1-3 2-4 3 0 0-1 1-1 1-2 2-5 3-7 5 0 0-1 0-1 1l0 0-3 0 0 0 0 0 0 0c-1 1-3 2-4 3-1 1-2 2-4 3-1 1-3 2-4 3 0 0-1 1-1 1-1 1-2 2-4 3 0 0 0 0-1 1-1 1-3 2-4 4 0 0-1 1-1 1 0 0-1 1-1 1 0 0-1 1-1 1 0 0-1 1-1 1 0 0 0 1-1 1 0 1-1 1-1 2l0 0-2 2 0 1 0 0-1 1c0 0-1 1-1 1 0 0-1 1-1 1-2 2-4 4-5 6-1 1-2 2-3 4 0 0-1 1-1 1 0 0 0 0 0 0l0 0-1 2 0 0 0 0 0 0c0 0 0 1-1 1l0 0-1 1-1 1 0 0-1 1c-1 1-2 2-2 4l0 0-1 3-1 2 0 0-1 2c0 1-1 1-1 2-1 1-2 3-2 4 0 1-1 1-1 2-1 1-2 3-2 4 0 1-1 1-1 2-1 2-2 3-2 5-1 1-1 3-2 4 0 0 0 1-1 1-1 2-1 3-2 5-1 1-1 3-1 4-1 2-1 3-2 5-1 3-2 5-2 8 0 1 0 1-1 2-2 7-3 14-5 21l0 0 0 0 0 2 0 0 0 2c-1 4-1 8-1 12l0 0 0 3 0 4c0 3 0 5 0 8l0 0 0 3 0 3c0 107 89 195 198 195l0 0z m0-80l0-125-20-113 4-1c5-1 11-1 16-1 66 0 120 54 120 120 0 66-54 120-120 120l0 0z" horiz-adv-x="1000" />

<glyph glyph-name="y_sort_waterfall_ascending" unicode="&#xe8a3;" d="M40 830v-940h940v-20h-960v960h20z m930-750v-100h-180v100h180z m-180 180v-100h-80v100h80z m-80 180v-100h-140v100h140z m-140 180v-100h-100v100h100z m-100 180v-100h-380v100h380z" horiz-adv-x="1000" />

<glyph glyph-name="legend_arrow_right" unicode="&#xe8a4;" d="M80-130l840 480-840 480v-960z" horiz-adv-x="1000" />

<glyph glyph-name="legend_arrow_left" unicode="&#xe8a5;" d="M920-130l-840 480 840 480v-960z" horiz-adv-x="1000" />

<glyph glyph-name="disclosure_open" unicode="&#xe8a6;" d="M980 558c0-20-7-36-21-50l-401-412c-9-9-18-15-27-19-9-4-19-6-30-6-21 0-40 9-58 26l-403 411c-7 7-12 15-15 23-3 8-5 17-5 27 0 13 3 25 10 36 6 11 15 20 26 26 11 6 23 10 36 10 20 0 37-7 52-22l357-366 356 366c15 15 32 22 52 22 13 0 25-3 36-10 11-6 20-15 26-26 6-11 9-23 9-36z" horiz-adv-x="1000" />

<glyph glyph-name="delete_cache" unicode="&#xe8a7;" d="M610 90h240v60h-240v-60z m-430 260h300v60h-300v-60z m550-480c-138 0-250 112-250 250s112 250 250 250 250-112 250-250-112-250-250-250l0 0z m0 60c105 0 190 85 190 190s-85 190-190 190-190-85-190-190 85-190 190-190l0 0z m-310 60h-340v780h700v-340h60v400h-820v-900h400v60z m-240 560h500v60h-500v-60z" horiz-adv-x="1000" />

<glyph glyph-name="error_fill" unicode="&#xe8a8;" d="M500-130c-265 0-480 215-480 480s215 480 480 480 480-215 480-480-215-480-480-480z m177 586c20 20 20 51 0 71-20 20-51 20-71 0l-106-106-106 106c-20 20-51 20-71 0-20-20-20-51 0-71l106-106-106-106c-20-20-20-51 0-71 20-20 51-20 71 0l106 106 106-106c20-20 51-20 71 0 20 20 20 51 0 71l-106 106 106 106z" horiz-adv-x="1000" />

<glyph glyph-name="bookmark_fill" unicode="&#xe8a9;" d="M187-119l313 204 313-204c37-24 67-8 67 37v802c0 60-49 110-109 110h-542c-60 0-109-50-109-110v-802c0-45 30-61 67-37z" horiz-adv-x="1000" />

<glyph glyph-name="label_123" unicode="&#xe8aa;" d="M607 734l276-275-509-509h-274v278l507 506z m28 84c-16 16-41 16-56 0l-547-545c-8-8-12-18-12-29v-334c0-22 18-40 40-40h330c11 0 21 4 28 12l550 548c16 16 16 41 0 57l-333 331z m-191-672l-149 149-24-24c5-7 8-13 9-20 1-7 1-13-1-19-2-6-4-12-8-18-4-6-9-11-14-16l23-23 37 37 97-97 30 31z m11 193l-29-29c-9 8-16 17-21 27-5 10-8 19-9 29-1 10 1 20 4 30 4 10 10 19 19 28 7 7 14 12 23 16 8 4 17 6 25 7 9 1 17 0 26-4 9-3 16-8 24-15 8-8 13-15 16-23 3-8 5-16 5-24 0-8 0-16-2-25-2-8-3-17-5-25-2-8-3-17-4-26-1-9-1-17 1-26l70 70 26-26-110-108c-9 9-15 17-19 26-4 9-6 18-7 27-1 9 0 19 1 29 1 10 3 20 5 31 1 6 2 11 4 17 1 6 2 12 2 18 0 6 0 12-2 17-1 6-5 11-9 15-7 7-15 11-23 11-8 0-16-3-22-10-4-4-7-9-8-14-1-5-1-10 1-15 1-5 4-10 7-15 3-4 7-9 11-13z m163 158l21-21c4 4 8 7 12 11 4 4 9 7 14 9 5 2 10 3 15 2 5-1 11-4 16-10 7-7 11-15 10-24 0-9-4-17-11-24-4-4-9-7-14-9-5-2-10-2-14-2-5 0-10 2-14 4-5 2-9 6-13 9l-29-29c9-9 17-15 27-19 9-4 19-6 28-6 9 0 19 3 28 7 9 4 18 11 26 19 7 7 13 15 18 24 5 9 7 18 8 27 1 9 0 18-3 28-3 9-8 18-16 25-9 9-18 13-29 15-11 1-21-1-31-7l0 0c5 9 6 18 4 27-2 9-7 17-14 24-7 7-14 11-22 13-8 2-16 3-25 1-8-1-16-4-24-8-8-4-15-9-21-15-8-8-13-16-17-25-4-9-6-18-6-27 0-9 2-18 6-27 4-9 9-17 17-25l29 29c-8 8-12 16-13 25-1 9 2 17 10 25 6 6 12 9 20 10 8 1 15-2 21-8 4-4 7-9 7-13 0-5 0-9-2-14-2-5-4-9-8-13-4-2-8-5-11-8z m-428-507c28 0 50 22 50 50 0 28-22 50-50 50s-50-22-50-50c0-28 22-50 50-50z" horiz-adv-x="1000" />

<glyph glyph-name="drill_across" unicode="&#xe8ab;" d="M980 430v136c0 13-11 24-24 24h-536v201c0 15-17 22-27 12l-332-332c-15-15-4-41 17-41h902z m-960-160v-136c0-13 11-24 24-24h536v-201c0-15 17-22 27-12l332 332c15 15 4 41-17 41h-902z" horiz-adv-x="1000" />

<glyph glyph-name="drill_out" unicode="&#xe8ac;" d="M553 777c0 29 24 53 54 53h309c44 0 64-20 64-64v-309c0-30-24-54-53-54-30 0-54 24-54 54v191l-389-389c-20-21-54-21-75 0-21 21-21 55 0 75l389 389h-191c-30 0-54 24-54 54z m-533-214c0 89 72 160 160 160h213c30 0 54-24 54-53s-24-53-54-53h-213c-29 0-53-24-53-54v-533c0-29 24-53 53-53h533c30 0 54 24 54 53v213c0 30 24 54 53 54s53-24 53-54v-213c0-88-71-160-160-160h-533c-88 0-160 72-160 160v533z" horiz-adv-x="1000" />

<glyph glyph-name="check_unset" unicode="&#xe8ad;" d="M500 830c-265 0-480-215-480-480s215-480 480-480 480 215 480 480-215 480-480 480z m0-880c-221 0-400 179-400 400 0 221 179 400 400 400s400-179 400-400c0-221-179-400-400-400z m0 160c133 0 240 107 240 240s-107 240-240 240-240-107-240-240 107-240 240-240z" horiz-adv-x="1000" />

<glyph glyph-name="label_123_fill" unicode="&#xe8ae;" d="M579 818c16 16 41 16 56 0l333-332c16-16 16-41 0-57l-550-548c-7-7-17-11-28-11h-330c-22 0-40 18-40 40v334c0 11 4 21 12 28l547 546z m-135-672l-149 149-24-24c5-7 8-13 9-20 1-7 1-13-1-19-2-6-4-12-8-18s-9-11-14-16l23-23 37 37 97-97 30 31z m-18 165l29 29c-4 4-8 8-11 13-3 5-6 10-7 15-1 5-2 10-1 15 1 5 4 10 8 14 7 7 14 10 22 10s16-3 23-11c5-5 8-10 9-15 2-5 2-11 2-17 0-6-1-12-2-18s-3-12-4-17c-2-11-4-21-5-31s-2-20-1-29c1-9 3-18 7-27 4-9 10-18 19-26l109 109-26 26-70-70c-1 9-2 18-1 26 1 9 2 17 4 26 2 8 3 17 5 25s2 17 2 25c0 8-2 16-5 24-3 8-8 15-16 23-7 7-15 12-24 15-9 3-17 4-26 4-9-1-17-3-25-7-8-4-16-9-23-16-9-9-15-18-19-28-4-10-5-20-4-30 1-10 4-20 9-29s13-20 22-28z m192 186l21-21c4 4 8 7 12 11 4 4 9 7 14 9 5 2 10 3 15 2s11-4 16-10c7-7 11-15 10-24 0-9-4-17-11-24-4-4-9-7-14-9-5-2-10-2-14-2-5 0-10 2-14 4-5 2-9 6-13 9l-29-29c9-9 17-15 27-19s19-6 28-6c9 0 19 3 28 7 9 4 18 11 26 19 7 7 13 15 18 24 5 9 7 18 8 27s0 18-3 28c-3 9-8 18-16 25-9 9-18 13-29 15s-21-1-31-7l0 0c5 9 6 18 4 27-2 9-7 17-14 24-7 7-14 11-22 13-8 2-16 3-25 1s-16-4-24-8-15-9-21-15c-8-8-13-16-17-25-4-9-6-18-6-27 0-9 2-18 6-27s9-17 17-25l29 29c-8 8-12 16-13 25-1 9 2 17 10 25 6 6 12 9 20 10 8 1 15-2 21-8 4-4 7-9 7-13 0-5 0-9-2-14s-4-9-8-13c-4-2-8-5-11-8z m-428-507c28 0 50 22 50 50s-22 50-50 50-50-22-50-50 22-50 50-50z" horiz-adv-x="1000" />

<glyph glyph-name="compare_data" unicode="&#xe8af;" d="M60 830c-22 0-40-18-40-40v-880c0-22 18-40 40-40h880c22 0 40 18 40 40s-18 40-40 40h-840v840c0 22-18 40-40 40z m880-80h-567c-9 0-17-3-24-8l-147-110c-21-16-21-48 0-64l147-110c7-5 15-8 24-8h567c22 0 40 18 40 40v220c0 22-18 40-40 40z m-40-220h-513l-93 70 93 70h513v-140z m40-180h-567c-9 0-17-3-24-8l-147-110c-21-16-21-48 0-64l147-110c7-5 15-8 24-8h567c22 0 40 18 40 40v220c0 22-18 40-40 40z m-40-220h-513l-94 70 93 70h514v-140z" horiz-adv-x="1000" />

<glyph glyph-name="control_center_fill" unicode="&#xe8b0;" d="M416 720l0 0c-13 57-65 100-126 100s-113-43-126-100l0 0h-144v-60h144c14-57 65-100 126-100s113 43 126 100h564v60h-564z m210-680l0 0c-14 57-65 100-126 100s-113-43-126-100h-354v-60h354l0 0c14-57 65-100 126-100s113 43 126 100l0 0h354v60h-354z m270 340l0 0c-14 57-65 100-126 100s-113-43-126-100l0 0h-624v-60h624l0 0c14-57 65-100 126-100s113 43 126 100l0 0h84v60h-84z" horiz-adv-x="1000" />

<glyph glyph-name="multi_layer_fill" unicode="&#xe8b1;" d="M959 221l-157 94-281-169c-13-8-30-8-43 0l-281 169-156-94c-6-4-11-9-15-15-12-20-5-46 15-58l438-262c13-8 30-8 43 0l438 262c6 4 11 9 15 15 11 20 4 46-16 58m-438 593l438-262c20-12 27-38 15-58-4-6-9-11-15-15l-438-262c-13-8-30-8-43 0l-437 262c-20 12-27 38-15 58 4 6 9 11 15 15l438 262c13 8 29 8 42 0" horiz-adv-x="1000" />

<glyph glyph-name="home" unicode="&#xe8b2;" d="M452 809c26 28 68 28 94 2l2-2 412-446c39-42 18-91-38-92l-2 0h-54v-332c0-37-29-67-66-68l-2 0h-221v266h-150v-267h-221c-37 0-67 29-68 66l0 2v333h-58c-57 0-79 49-42 91l2 1 412 446z m48-66l-363-392 81 0 0-401h129l0 267h310l0-267h129l0 401 77 0-363 392z" horiz-adv-x="1000" />

<glyph glyph-name="label_a_1_fill" unicode="&#xe8b3;" d="M389 203l-36 75 0 0 75-36-39-39z m579 227l-550-548c-7-8-17-12-28-12h-330c-22 0-40 18-40 40v334c0 11 4 21 12 28l547 546c16 16 41 16 56 0l333-332c16-15 16-41 0-56z m-728-390c0 28-22 50-50 50-28 0-50-22-50-50 0-28 22-50 50-50 28 0 50 22 50 50z m302 198l-208 95-34-34 93-209 34 34-22 46 57 57 45-22 35 33z m52 45l-99 218-25-24 100-218 24 24z m164 172l-148 148-24-23c5-7 8-13 9-20 1-6 1-13-1-19-2-6-4-12-8-18-4-6-9-11-14-16l23-23 37 37 96-96 30 30z" horiz-adv-x="1000" />

<glyph glyph-name="label_a-1" unicode="&#xe8b4;" d="M883 458l-276 276-507-506v-278h274l509 508z m-304 360c16 16 41 16 56 0l333-332c16-16 16-41 0-57l-550-548c-7-7-17-11-28-11h-330c-22 0-40 18-40 40v334c0 11 4 21 12 28l547 546z m31-215l149-148-30-30-96 96-37-37-23 23c5 5 10 11 14 16 4 6 7 12 8 18 2 6 2 13 1 19-1 7-4 13-9 20l23 23z m-40-344l-100 218 24 24 99-218-23-24z m-237 74l-34-34 94-209 34 34-22 46 57 57 45-22 35 35-209 93z m95-91l-39-39-36 75 0 0 75-36z m-188-202c0-28-22-50-50-50-28 0-50 22-50 50 0 28 22 50 50 50 28 0 50-22 50-50z" horiz-adv-x="1000" />

<glyph glyph-name="label_abc_fill" unicode="&#xe8b5;" d="M338 156l-36 75 0 0 75-36-39-39z m221 195c-8 8-16 11-23 10-8-1-15-5-22-12l-36-36 42-42 36 36c3 3 6 7 8 10 2 4 4 7 5 11 1 4 1 8-1 11-2 4-5 8-9 12z m409 79l-550-548c-7-8-17-12-28-12h-330c-22 0-40 18-40 40v334c0 11 4 21 12 28l547 546c16 16 41 16 56 0l333-332c16-15 16-41 0-56z m-728-390c0 28-22 50-50 50-28 0-50-22-50-50 0-28 22-50 50-50 28 0 50 22 50 50z m251 151l-208 95-34-34 94-209 34 34-22 46 57 57 45-22 34 33z m119 167c-3 9-8 17-15 24-9 9-20 15-31 17-11 2-23 0-35-7 4 10 4 19 3 28-2 9-6 17-14 24-7 7-14 12-21 14-7 2-14 3-21 2-7-1-14-4-22-9-7-5-14-11-22-18l-72-70 151-151 73 73c7 7 13 14 17 22 5 8 8 16 9 25 3 9 2 17 0 26z m158 137c0 11-1 22-6 34-4 11-10 22-19 32l-32-32c9-11 14-23 14-35 0-12-4-23-15-33-7-7-15-12-23-15-8-2-16-3-24-1-8 2-16 5-23 9-7 5-14 10-21 16-7 7-12 14-17 22-5 8-8 16-10 24-2 8-1 16 1 24 2 8 7 16 15 23 4 4 9 7 14 10 5 2 10 4 16 4 5 1 11 0 16-1 5-1 10-3 14-7l32 32c-10 8-20 13-31 16-11 3-21 4-32 3-10-1-21-4-30-9-10-5-19-12-27-20-12-12-20-24-25-37-5-13-7-27-6-40 1-14 4-27 11-40 6-13 15-25 26-37 11-11 23-20 36-26 13-6 26-10 40-10 13-1 27 2 40 7 13 5 26 14 37 25 9 9 16 19 21 30 5 10 8 21 8 32z m-269-108c1 7-2 13-8 20-4 4-7 6-11 7-4 1-7 1-10 0-3-1-7-2-10-5-3-2-6-5-9-8l-32-31 35-35 34 34c6 5 10 12 11 18z" horiz-adv-x="1000" />

<glyph glyph-name="label_abc" unicode="&#xe8b6;" d="M883 458l-276 276-507-506v-278h274l509 508z m-304 360c16 16 41 16 56 0l333-332c16-16 16-41 0-57l-550-548c-7-7-17-11-28-11h-330c-22 0-40 18-40 40v334c0 11 4 21 12 28l547 546z m-241-662l-36 75 0 0 75-36-39-39z m153 35l-208 95-34-34 94-209 34 34-22 46 57 57 45-22 34 33z m68 160c4-4 7-8 8-12 1-4 1-8 1-11-1-4-2-7-5-11-2-4-5-7-8-10l-36-37-42 42 36 36c7 7 15 11 22 12 8 2 16-2 24-9z m-71 17l-34-34-35 36 31 31c3 3 6 6 9 8 3 2 7 4 10 5 3 1 7 1 10 0 4-1 7-3 11-7 6-6 9-13 8-20 0-6-4-13-10-19z m123-36c1 9 1 17-2 26-3 9-8 17-15 24-9 9-20 15-31 17-11 2-23 0-35-7 4 10 4 19 3 28-2 9-6 17-14 24-7 7-14 12-21 14-7 2-14 3-21 2-7-1-14-4-22-9-7-5-14-11-22-18l-71-70 151-151 73 73c7 7 13 14 17 22 6 8 9 16 10 25z m-62 181c-1 14 1 27 6 40 5 13 14 26 25 37 8 8 17 15 27 20 10 5 20 8 30 9 10 1 21 0 32-3 11-3 21-8 31-16l-32-32c-4 3-9 5-14 7-5 1-10 2-16 1-5-1-11-2-16-4-5-2-10-6-14-10-8-7-12-15-15-23-2-8-3-16-1-24 2-8 5-16 10-24 5-8 10-15 17-22 6-6 13-12 21-16 8-5 15-8 23-9 8-2 16-1 24 1 8 2 16 7 23 15 10 10 15 21 15 33 0 12-5 24-14 35l32 32c9-10 15-21 19-32 4-11 6-22 6-34 0-11-3-22-8-33-5-11-12-21-21-30-12-12-24-20-37-25-13-5-27-7-40-7-13 1-27 4-40 10-13 6-25 15-36 26-11 11-20 24-26 37-7 14-10 27-11 41z m-359-523c28 0 50 22 50 50 0 28-22 50-50 50-28 0-50-22-50-50 0-28 22-50 50-50z" horiz-adv-x="1000" />

<glyph glyph-name="checkmark" unicode="&#xe8b7;" d="M500 830c265 0 480-215 480-480s-215-480-480-480-480 215-480 480 215 480 480 480l0 0z m0-900c232 0 420 188 420 420s-188 420-420 420-420-188-420-420 188-420 420-420l0 0z m-78 203l0 0 0 0-212 212 42 42 170-170 325 325 43-42-368-367z" horiz-adv-x="1000" />

<glyph glyph-name="checkmark_fill" unicode="&#xe8b8;" d="M422 133l-212 212 42 42 170-170 325 325 43-42-368-367z m78 697c-265 0-480-215-480-480s215-480 480-480 480 215 480 480-215 480-480 480l0 0z" horiz-adv-x="1000" />

<glyph glyph-name="checkmark_empty" unicode="&#xe8b9;" d="M500-70c-232 0-420 188-420 420s188 420 420 420 420-188 420-420-188-420-420-420m0 900c-265 0-480-215-480-480s215-480 480-480 480 215 480 480-215 480-480 480" horiz-adv-x="1000" />

<glyph glyph-name="left_arrow_bold" unicode="&#xe8ba;" d="M736 793c-20 20-52 20-72 0l-407-415c-15-16-15-40 0-56l406-415c20-20 52-20 72 0l0 0c19 20 19 51 0 70l-364 373 365 373c19 19 19 51 0 70l0 0z" horiz-adv-x="1000" />

<glyph glyph-name="sort_descending" unicode="&#xe8bb;" d="M440 750c-22 0-40 18-40 40s18 40 40 40h500c22 0 40-18 40-40s-18-40-40-40h-500z m0-290c-22 0-40 18-40 40 0 22 18 40 40 40h400c22 0 40-18 40-40 0-22-18-40-40-40h-400z m0-300c-22 0-40 18-40 40 0 22 18 40 40 40h300c22 0 40-18 40-40 0-22-18-40-40-40h-300z m0-290c-22 0-40 18-40 40s18 40 40 40h200c22 0 40-18 40-40s-18-40-40-40h-200z m-190 960c22 0 40-18 40-40v-878c0-8-2-16-6-23-7-12-20-19-34-19-12 0-23 5-30 14l-188 188c-16 16-16 41 0 57s41 16 57 0l121-122v783c0 22 18 40 40 40z" horiz-adv-x="1000" />

<glyph glyph-name="sort_ascending" unicode="&#xe8bc;" d="M440-50c-22 0-40-18-40-40s18-40 40-40h500c22 0 40 18 40 40s-18 40-40 40h-500z m0 290c-22 0-40-18-40-40s18-40 40-40h400c22 0 40 18 40 40s-18 40-40 40h-400z m0 300c-22 0-40-18-40-40s18-40 40-40h300c22 0 40 18 40 40s-18 40-40 40h-300z m0 290c-22 0-40-18-40-40s18-40 40-40h200c22 0 40 18 40 40s-18 40-40 40h-200z m-190 0c22 0 40-18 40-40v-878c0-8-2-16-6-23-7-12-20-19-34-19-12 0-23 5-30 14l-188 188c-16 16-16 41 0 57s41 16 57 0l121-122v783c0 22 18 40 40 40z" horiz-adv-x="1000" />

<glyph glyph-name="clear" unicode="&#xe8bd;" d="M572 350l408-408-72-72-408 408-408-408-72 72 408 408-408 408 72 72 408-408 408 408 72-72-408-408z" horiz-adv-x="1000" />

<glyph glyph-name="revert" unicode="&#xe8be;" d="M280 360h-220v220h60v-121c87 86 207 141 340 141 265 0 480-215 480-480v0h-60c0 232-188 420-420 420-114 0-218-46-294-120h114v-60z" horiz-adv-x="1000" />

<glyph glyph-name="sort_indicator_down" unicode="&#xe8bf;" d="M456 830v-805l-180 184-56-57 277-282 277 282-56 57-183-187v808h-79z" horiz-adv-x="1000" />

<glyph glyph-name="personal" unicode="&#xe8c0;" d="M163-130c0 3 0 19 3 41 17 35 25 63 97 95 9 4 19 8 36 15 2 1 2 1 4 2 36 14 53 21 69 31 28 17 45 36 45 63v113 15l-11 9c-25 21-44 50-48 85l-1 11-9 8c-20 19-33 40-33 61 0 13 4 25 12 36l7 11-1 14c-1 6-3 12-5 22-1 3-5 19-7 24-3 11-5 20-7 28-3 14-5 26-5 35 0 110 74 179 195 179 38 0 74-11 91-29l7-8 10-2c46-8 87-69 87-140 0-24-4-48-12-75-2-6-11-34-13-40l-3-14 7-11c6-10 9-20 9-30 0-27-11-47-29-60l-11-9-1-14c-4-35-21-63-44-83l-11-9v-14-113c0-27 17-46 46-62 18-10 37-18 71-31-1 0 20-7 26-9 66-24 92-66 105-104 0 1 5-39 5-41h63c0 5-7 56-9 62-21 59-60 111-142 142-6 2-27 10-26 10-31 11-48 18-62 26-7 4-12 7-14 10 0 0 0 97 0 97 26 26 45 59 52 100 27 24 44 59 44 102 0 18-4 34-11 49 3 9 7 22 9 27 10 33 15 62 15 93 0 95-54 180-129 200-32 28-80 42-130 42-154 0-258-96-258-242 0-14 2-30 6-48 2-10 5-19 8-31 1-5 6-22 7-24 1-2 1-4 2-6-9-18-15-37-15-59 0-38 18-71 45-99 7-43 28-78 57-105v-99c-3-2-8-6-14-10-13-8-27-14-60-27-2-1-2-1-4-2-18-7-28-11-39-16-86-39-104-74-129-129-4-9-8-60-8-64h61z" horiz-adv-x="1000" />

<glyph glyph-name="toggle_total" unicode="&#xe8c1;" d="M230 830c-22 0-40-18-40-40v-130h-130c-22 0-40-18-40-40s18-40 40-40h130v-130c0-22 18-40 40-40s40 18 40 40v130h130c22 0 40 18 40 40s-18 40-40 40h-130v130c0 22-18 40-40 40z m330-210c0-22 18-40 40-40h340c22 0 40 18 40 40s-18 40-40 40h-340c-22 0-40-18-40-40z m-330-499l-124 124c-15 16-41 16-56 0l-2-1c-15-16-15-41 0-57l124-124-124-123c-15-16-15-41 0-57l2-1c15-16 41-16 56 0l124 123 124-123c15-16 41-16 56 0l2 1c15 16 15 41 0 57l-124 123 124 124c15 16 15 41 0 57l-2 1c-15 16-40 16-56 0l-124-124z m370-1c-22 0-40 18-40 40s18 40 40 40h340c22 0 40-18 40-40s-18-40-40-40h-340z m0-190c-22 0-40 18-40 40s18 40 40 40h340c22 0 40-18 40-40s-18-40-40-40h-340z" horiz-adv-x="1000" />

<glyph glyph-name="keep-only" unicode="&#xe8c2;" d="M320 650c27 0 53-4 78-10l-10-39-10-39c-19 5-38 8-58 8s-39-3-57-7l-10 39-10 39c24 5 50 9 77 9z m-130-75l-20 35c-46-26-83-64-110-110l35-20 35-20c19 33 47 61 81 81l-21 34z m-170-225c0 27 4 53 10 78l39-10 39-10c-5-19-8-38-8-58s3-39 7-57l-39-10-39-10c-5 24-9 50-9 77z m75-130l-35-20c26-46 64-83 110-110l20 35 20 35c-33 19-61 47-81 81l-34-21z m158-121l-10-39c25-7 51-10 78-10s53 4 78 10l-10 39-10 39c-20-5-39-8-59-8s-39 3-57 7l-10-38z m586 304c15 16 14 41-2 57-16 15-41 14-57-2l-138-150-63 66c-15 16-41 17-57 1-16-15-17-41-1-57l92-97c8-8 18-12 29-12s22 5 29 13l168 181z m-159 247c-166 0-300-134-300-300s134-300 300-300 300 134 300 300-134 300-300 300z m0-520c-122 0-220 98-220 220s98 220 220 220 220-98 220-220-98-220-220-220z" horiz-adv-x="1000" />

<glyph glyph-name="exclude" unicode="&#xe8c3;" d="M360 830h-260c-44 0-80-36-80-80v-260c0-44 36-80 80-80h260c44 0 80 36 80 80v260c0 44-36 80-80 80z m0-340h-260v260h260v-260z m500 340h-260c-44 0-80-36-80-80v-260c0-44 36-80 80-80h260c44 0 80 36 80 80v260c0 44-36 80-80 80z m0-340h-260v260h260v-260z m-500-160h-260c-44 0-80-36-80-80v-260c0-44 36-80 80-80h260c44 0 80 36 80 80v260c0 44-36 80-80 80z m0-340h-260v260h260v-260z m200 220c0 3 0 5 0 8 4 40 38 72 80 72h100v-80h-100v-100h-80v100z m340 80h-100v-80h100v-100h80v100c0 44-36 80-80 80z m-160-340h-100v100h-80v-100c0-44 36-80 80-80h100v80z m160-80c44 0 80 36 80 80v100h-80v-100h-100v-80h100z" horiz-adv-x="1000" />

<glyph glyph-name="muti_select" unicode="&#xe8c4;" d="M588 534l1-2 1-2 1-3 1-4 1-5 1-6 1-9 1-10 1-8 1-9 1-13 2-18 2-20 2-26 2-29 2-38 1-21 1 0c29-5 65-14 99-26l5-2c80-30 144-75 181-139 17-29 19-70 7-125l-3-8c-1-3-1-5-2-8l-2-8-2-8c0-1-1-3-1-4l-3-9c0-1-1-3-1-4l-3-9-3-9-3-9-3-9-4-10-4-10-4-10-4-10-4-10-4-11-1-3h-87l3 7 4 10 4 10 4 10 4 10c1 2 1 3 2 5l4 8 3 9 3 9 3 9 3 8 3 8c0 1 1 3 1 4l3 8 2 8 2 7c0 1 1 2 1 4l2 7 2 7c0 1 1 2 1 3l2 6 1 6 1 6 1 6 1 6 1 5c0 1 0 2 0 3l1 5 1 5 0 5c1 15 0 25-4 32-26 45-76 80-140 104-22 8-45 15-67 20l-6 1 3-64c2-52-75-57-80-6l0 2-4 110c0 1 0 1 0 2l0 1-2 43-2 35-1 20-2 24-1 20-2 21-2 19-2 16-1 11-1 9-1 7-1 3 0 2 0 1c-10 29-46 27-51 4l0-2 0-2-1-3 0-5 0-4-1-8-1-12-1-11 0-14-1-21 0-20-1-30 0-29 0-36 0-37 0-54 1-130 0-20 0-19 0-6 0-4 0-3c0-3-1-5-1-8l-1-2 0-1-1-3-1-3c0 0 0 0 0-1l-1-1c0 0 0 0 0-1l-4-1-1-1-1-1c0 0-1 0-1-1l-3-3-6-5-5-2-3-1c-3-1-5-2-10-2l-4 0-4 0-7 2-2 1c-2 1-4 1-5 2l-2 1-3 2-5 5-2 2-1 1c0 0 0 0 0 1l-2 2 0 1-1 3c-14 29-29 59-43 85l-7 13-9 12-4 7-5 8-4 6-3 4-1 2-1 2-1 1c0 0 0 0 0 0-22 23-59 2-49-31l16-51 24-76 44-139h-84l-32 99-28 89-12 41-4 14c-35 114 104 194 184 109 2-2 5-6 8-10l3-5 3-5 0 50 0 35 0 48 0 43 0 24 0 18 1 21 1 15 1 14 1 16 1 9 1 8 0 5 0 5 0 4 1 4 1 4 1 3 1 3c0 0 0 1 0 1 22 98 168 109 204 2z m-476 1c5 21 27 34 49 29 21-5 34-27 29-49-6-25-9-50-9-76 0-10 0-20 1-29 2-22-14-41-36-44s-41 14-44 36c-1 13-2 26-2 38 0 32 4 64 12 95z m706 34c21 6 43-7 49-28 9-33 13-67 13-101 0-11 0-22-1-32-2-22-21-38-43-37s-38 21-37 43c1 9 1 17 1 26 0 27-4 54-10 80-6 21 7 43 28 49z m-542 197c18 12 43 7 55-12 12-18 7-43-12-55-30-19-56-44-77-72-13-18-38-21-56-8-18 13-21 38-8 56 28 36 61 67 98 91z m368-9c12 19 37 24 55 12 38-24 71-54 99-90 14-17 10-43-7-56s-43-10-56 7c-22 28-48 52-78 71-19 13-25 37-13 56z m-154 73c22 0 43-2 64-5 22-4 37-24 33-46s-24-37-46-33c-16 3-34 4-51 4-19 0-37-2-55-5l0 0-2 0c-21-3-41 12-44 33-4 22 11 43 32 46 23 4 46 6 69 6z" horiz-adv-x="1000" />

<glyph glyph-name="drill" unicode="&#xe8c5;" d="M900 760h-480c-40 0-74-31-79-70h-1-20c-55 0-100-45-100-100v-30h-160c-22 0-40-18-40-40s18-40 40-40h160v-30c0-55 45-100 100-100h20 1c5-39 38-70 79-70h300v-280c0-44 36-80 80-80h100c44 0 80 36 80 80v280 80 320c0 44-36 80-80 80z m-560-330h-20c-11 0-20 9-20 20v70 70c0 11 9 20 20 20h20v-180z m560-430h-100v280h100v-280z m0 360h-100-80-300v70 180 70h480v-320z" horiz-adv-x="1000" />

<glyph glyph-name="ppt" unicode="&#xe8c6;" d="M432 545h138v-335h-138v335z m-221-336h138v238h-138v-238z m328-142v-44l184-106-26-45-158 91v-92h-52v92l-157-91-26 45 183 106v45h-467v752h960v-753h-441z m389 51v649h-856v-649h856z m-275 92h138v427h-138v-427z" horiz-adv-x="1000" />

<glyph glyph-name="unknown" unicode="&#xe8c7;" d="M662 830l268-268v-692h-860v960h592z m208-900v569h-261l1 271h-480v-840h740z m-383 208c20 0 36-16 36-36 0-20-16-36-36-36-20 0-36 16-36 36 0 19 16 36 36 36z m-48 387c17 6 35 9 55 9 39 0 71-11 97-34 26-23 39-53 39-91 0-17-3-33-10-46-7-14-21-31-42-52-22-21-36-35-43-44-7-9-12-19-16-31-4-12-5-28-5-49h-56c0 24 2 43 6 57 4 14 10 27 17 37 8 11 22 26 42 47 20 21 33 36 39 45 6 9 9 23 9 42 0 19-7 35-20 49-13 14-32 21-58 21-57 0-85-34-85-101 0-15-13-28-28-28-15 0-28 12-28 28 1 30 4 54 11 69 6 16 17 30 31 43 12 14 28 23 45 29z" horiz-adv-x="1000" />

<glyph glyph-name="result_from_apple_map" unicode="&#xe8c8;" d="M500 830c-204 0-370-169-370-376 0-193 292-525 370-584 78 58 370 389 370 584 0 207-166 376-370 376z m0-490c-77 0-140 63-140 140 0 77 63 140 140 140 77 0 140-63 140-140 0-77-63-140-140-140z" horiz-adv-x="1000" />

<glyph glyph-name="result_from_dataset" unicode="&#xe8c9;" d="M550 134v-264h-100v264c-170 24-300 170-300 346 0 193 157 350 350 350s350-157 350-350c0-176-130-322-300-346z m-133 509c28 0 50 22 50 50s-22 50-50 50c-28 0-50-22-50-50s23-50 50-50z" horiz-adv-x="1000" />

<glyph glyph-name="clear_sort_horizontal" unicode="&#xe8ca;" d="M530 230h-60v400h60v-400z m-350 0h-60v500h60v-500z m700 0h-60v600h60v-600z m-85-185l-72 72 42 42 145-144-145-145-42 42 72 72h-590l72-72-42-42-145 145 145 145 42-42-72-72h590z" horiz-adv-x="1000" />

<glyph glyph-name="clear_sort_vertical" unicode="&#xe8cb;" d="M380 320v60h400v-60h-400z m0 350v60h500v-60h-500z m0-700v60h600v-60h-600z m-185 85l72 72 42-42-144-145-145 145 42 42 72-72v590l-72-72-42 42 145 145 145-145-42-42-72 72v-590z" horiz-adv-x="1000" />

</font>
</defs>
</svg>
