<?xml version="1.0" encoding="UTF-8"?>
<svg width="80px" height="110px" viewBox="0 0 80 110" version="1.1" xmlns="http://www.w3.org/2000/svg" xmlns:xlink="http://www.w3.org/1999/xlink">
    <!-- Generator: Sketch 53.2 (72643) - https://sketchapp.com -->
    <title>ring  thumbnail</title>
    <desc>Created with Sketch.</desc>
    <g id="ring--thumbnail" stroke="none" stroke-width="1" fill="none" fill-rule="evenodd">
        <g id="donut_thumbnail" transform="translate(0.000000, 6.000000)">
            <path d="M17,91 L63,91 C64.1045695,91 65,91.8954305 65,93 L65,93 C65,94.1045695 64.1045695,95 63,95 L17,95 C15.8954305,95 15,94.1045695 15,93 L15,93 C15,91.8954305 15.8954305,91 17,91 Z" id="Rectangle-4" fill="#E2E3E6"></path>
            <path d="M40,80 C17.90861,80 0,62.09139 0,40 C0,17.90861 17.90861,0 40,0 C62.09139,0 80,17.90861 80,40 C80,62.09139 62.09139,80 40,80 Z M40,69.4339623 C56.2559285,69.4339623 69.4339623,56.2559285 69.4339623,40 C69.4339623,23.7440715 56.2559285,10.5660377 40,10.5660377 C23.7440715,10.5660377 10.5660377,23.7440715 10.5660377,40 C10.5660377,56.2559285 23.7440715,69.4339623 40,69.4339623 Z" id="Combined-Shape" fill="#F0EEEE" fill-rule="nonzero"></path>
            <path d="M13.2424169,10.2668679 L20.1299882,18.2847674 C14.2520657,23.6661714 10.5660377,31.4026267 10.5660377,40 C10.5660377,56.2559285 23.7440715,69.4339623 40,69.4339623 C56.2559285,69.4339623 69.4339623,56.2559285 69.4339623,40 C69.4339623,23.8897664 56.4910881,10.8025031 40.4363358,10.5692061 L40.4363358,0.00233075592 C62.3267219,0.23629195 80,18.0542383 80,40 C80,62.09139 62.09139,80 40,80 C17.90861,80 0,62.09139 0,40 C0,28.1972683 5.11188253,17.5884807 13.2424169,10.2668679 Z" id="Combined-Shape" fill="#D7D8DB" fill-rule="nonzero"></path>
            <path d="M34.7885742,37.2382812 C34.7885742,36.5244105 35.0196103,35.9295271 35.4816895,35.4536133 C35.9437686,34.9776994 36.5870727,34.7397461 37.4116211,34.7397461 C38.2472373,34.7397461 38.8946917,34.976316 39.3540039,35.4494629 C39.8133161,35.9226098 40.0429688,36.5188766 40.0429688,37.2382812 L40.0429688,37.8774414 C40.0429688,38.5913122 39.8133161,39.1834286 39.3540039,39.6538086 C38.8946917,40.1241885 38.252771,40.359375 37.4282227,40.359375 C36.5981404,40.359375 35.9506859,40.1241885 35.4858398,39.6538086 C35.0209938,39.1834286 34.7885742,38.5913122 34.7885742,37.8774414 L34.7885742,37.2382812 Z M36.3989258,37.8774414 C36.3989258,38.1984066 36.4874666,38.4681792 36.6645508,38.6867676 C36.841635,38.9053559 37.0961897,39.0146484 37.4282227,39.0146484 C37.7491878,39.0146484 37.9968253,38.9053559 38.1711426,38.6867676 C38.3454599,38.4681792 38.4326172,38.1984066 38.4326172,37.8774414 L38.4326172,37.2382812 C38.4326172,36.9173161 38.3440764,36.6447765 38.1669922,36.4206543 C37.989908,36.1965321 37.7381201,36.0844727 37.4116211,36.0844727 C37.0851221,36.0844727 36.8347177,36.1965321 36.6604004,36.4206543 C36.4860831,36.6447765 36.3989258,36.9173161 36.3989258,37.2382812 L36.3989258,37.8774414 Z M40.565918,44.0366211 C40.565918,43.3282842 40.7983375,42.7361677 41.2631836,42.2602539 C41.7280297,41.7843401 42.3727172,41.5463867 43.1972656,41.5463867 C44.0273479,41.5463867 44.6734189,41.7829566 45.135498,42.2561035 C45.5975772,42.7292504 45.8286133,43.3227503 45.8286133,44.0366211 L45.8286133,44.6757812 C45.8286133,45.3951859 45.5989606,45.9900693 45.1396484,46.4604492 C44.6803362,46.9308292 44.0384156,47.1660156 43.2138672,47.1660156 C42.3837849,47.1660156 41.734947,46.9294457 41.267334,46.4562988 C40.799721,45.9831519 40.565918,45.389652 40.565918,44.6757812 L40.565918,44.0366211 Z M42.1762695,44.6757812 C42.1762695,44.9912125 42.2717276,45.2609852 42.4626465,45.4851074 C42.6535654,45.7092296 42.9039698,45.8212891 43.2138672,45.8212891 C43.5735695,45.8212891 43.8308912,45.7175303 43.9858398,45.5100098 C44.1407885,45.3024892 44.2182617,45.0244158 44.2182617,44.6757812 L44.2182617,44.0366211 C44.2182617,43.7211898 44.1297209,43.4514171 43.9526367,43.2272949 C43.7755525,43.0031727 43.5237647,42.8911133 43.1972656,42.8911133 C42.8652327,42.8911133 42.6120614,43.0031727 42.4377441,43.2272949 C42.2634269,43.4514171 42.1762695,43.7211898 42.1762695,44.0366211 L42.1762695,44.6757812 Z M37.8266602,46.0952148 L36.6479492,45.4726562 L42.5498047,36.0263672 L43.7285156,36.6489258 L37.8266602,46.0952148 Z" id="%" fill="#99A0A5"></path>
        </g>
    </g>
</svg>