<?xml version="1.0" encoding="UTF-8"?>
<svg width="109px" height="341px" viewBox="0 0 109 341" version="1.1" xmlns="http://www.w3.org/2000/svg" xmlns:xlink="http://www.w3.org/1999/xlink">
    <!-- Generator: Sketch 53.2 (72643) - https://sketchapp.com -->
    <title>svg</title>
    <desc>Created with Sketch.</desc>
    <defs>
        <polyline id="path-1" points="3 6 5.5 8 9 4"></polyline>
        <polygon id="path-2" points="15 168.5 8.5 175 2 168.5 8.5 162"></polygon>
        <filter x="-30.1%" y="-30.1%" width="175.6%" height="175.6%" filterUnits="objectBoundingBox" id="filter-3">
            <feMorphology radius="1" operator="dilate" in="SourceAlpha" result="shadowSpreadOuter1"></feMorphology>
            <feOffset dx="1" dy="1" in="shadowSpreadOuter1" result="shadowOffsetOuter1"></feOffset>
            <feGaussianBlur stdDeviation="1" in="shadowOffsetOuter1" result="shadowBlurOuter1"></feGaussianBlur>
            <feComposite in="shadowBlurOuter1" in2="SourceAlpha" operator="out" result="shadowBlurOuter1"></feComposite>
            <feColorMatrix values="0 0 0 0 0.590986395   0 0 0 0 0.590986395   0 0 0 0 0.590986395  0 0 0 0.5 0" type="matrix" in="shadowBlurOuter1"></feColorMatrix>
        </filter>
    </defs>
    <g id="svg" stroke="none" stroke-width="1" fill="none" fill-rule="evenodd">
        <g id="add-link_display-name" transform="translate(0.000000, 220.000000)">
            <rect id="Rectangle-Copy-5" fill-opacity="0.334352355" fill="#6EAE55" fill-rule="nonzero" opacity="0" x="0" y="0" width="18" height="18"></rect>
            <path d="M5.20068359,12 C5.16813135,11.840494 5.14290374,11.6997076 5.125,11.5776367 C5.10709626,11.4555658 5.09651694,11.3326829 5.09326172,11.2089844 C4.91422437,11.4628919 4.6806655,11.6752921 4.39257813,11.8461914 C4.10449075,12.0170907 3.79443525,12.1025391 3.46240234,12.1025391 C2.91226938,12.1025391 2.4931655,11.9617527 2.20507813,11.6801758 C1.91699075,11.3985989 1.77294922,11.0104191 1.77294922,10.515625 C1.77294922,10.0110652 1.9772115,9.61637512 2.38574219,9.33154297 C2.79427288,9.04671082 3.34846655,8.90429688 4.04833984,8.90429688 L5.09326172,8.90429688 L5.09326172,8.38183594 C5.09326172,8.0725896 4.99886162,7.82763762 4.81005859,7.64697266 C4.62125557,7.46630769 4.35433115,7.37597656 4.00927734,7.37597656 C3.70003101,7.37597656 3.44856868,7.45491458 3.25488281,7.61279297 C3.06119695,7.77067136 2.96435547,7.96028535 2.96435547,8.18164062 L2.04638672,8.18164062 L2.03662109,8.15234375 C2.01708975,7.76822725 2.1985658,7.41666826 2.58105469,7.09765625 C2.96354358,6.77864424 3.4575165,6.61914062 4.06298828,6.61914062 C4.66194961,6.61914062 5.14371563,6.77132009 5.50830078,7.07568359 C5.87288594,7.38004709 6.05517578,7.81868203 6.05517578,8.39160156 L6.05517578,10.9355469 C6.05517578,11.1243499 6.06494131,11.3066397 6.08447266,11.4824219 C6.104004,11.658204 6.13981094,11.8307283 6.19189453,12 L5.20068359,12 Z M3.60400391,11.296875 C3.95231294,11.296875 4.2664374,11.2073577 4.54638672,11.0283203 C4.82633604,10.849283 5.00862588,10.6442069 5.09326172,10.4130859 L5.09326172,9.55371094 L4.01416016,9.55371094 C3.62678843,9.55371094 3.31673293,9.65136621 3.08398438,9.84667969 C2.85123582,10.0419932 2.73486328,10.2714831 2.73486328,10.5351562 C2.73486328,10.7695324 2.80810474,10.9550774 2.95458984,11.0917969 C3.10107495,11.2285163 3.31754414,11.296875 3.60400391,11.296875 Z M11.9633789,9.55859375 C11.9633789,10.3203163 11.7802753,10.9347307 11.4140625,11.4018555 C11.0478497,11.8689802 10.5441113,12.1025391 9.90283203,12.1025391 C9.554523,12.1025391 9.25179165,12.0349942 8.99462891,11.8999023 C8.73746616,11.7648105 8.52425215,11.565431 8.35498047,11.3017578 L8.23779297,12 L7.45166016,12 L7.45166016,4.3828125 L8.41357422,4.3828125 L8.41357422,7.34179688 C8.57959067,7.1074207 8.78548054,6.92838604 9.03125,6.8046875 C9.27701946,6.68098896 9.56428872,6.61914062 9.89306641,6.61914062 C10.5441113,6.61914062 11.0519188,6.87955469 11.4165039,7.40039062 C11.7810891,7.92122656 11.9633789,8.60644106 11.9633789,9.45605469 L11.9633789,9.55859375 Z M11.0014648,9.45605469 C11.0014648,8.85058291 10.8899751,8.35660999 10.6669922,7.97412109 C10.4440093,7.5916322 10.1046572,7.40039062 9.64892578,7.40039062 C9.35270034,7.40039062 9.1028656,7.47281829 8.89941406,7.61767578 C8.69596252,7.76253328 8.53401753,7.95703003 8.41357422,8.20117188 L8.41357422,10.4912109 C8.53727275,10.7516289 8.69921775,10.9550774 8.89941406,11.1015625 C9.09961038,11.2480476 9.35270029,11.3212891 9.65869141,11.3212891 C10.1111676,11.3212891 10.4480783,11.1601579 10.6694336,10.8378906 C10.8907889,10.5156234 11.0014648,10.0891954 11.0014648,9.55859375 L11.0014648,9.45605469 Z M15.2836914,11.3505859 C15.6027034,11.3505859 15.8834623,11.2521169 16.1259766,11.0551758 C16.3684908,10.8582347 16.4897461,10.6165379 16.4897461,10.3300781 L17.3540039,10.3300781 L17.3637695,10.359375 C17.3800457,10.8151064 17.177411,11.219562 16.7558594,11.5727539 C16.3343078,11.9259458 15.84359,12.1025391 15.2836914,12.1025391 C14.5154584,12.1025391 13.9278992,11.8518905 13.5209961,11.3505859 C13.114093,10.8492813 12.9106445,10.2194048 12.9106445,9.4609375 L12.9106445,9.25585938 C12.9106445,8.50390249 13.1149068,7.87646736 13.5234375,7.37353516 C13.9319682,6.87060295 14.5187136,6.61914062 15.2836914,6.61914062 C15.9021841,6.61914062 16.4075501,6.80143047 16.7998047,7.16601562 C17.1920593,7.53060078 17.3816732,7.97818745 17.3686523,8.50878906 L17.3588867,8.53808594 L16.4897461,8.53808594 C16.4897461,8.2158187 16.3758149,7.94157014 16.1479492,7.71533203 C15.9200835,7.48909392 15.6320004,7.37597656 15.2836914,7.37597656 C14.7791316,7.37597656 14.4186209,7.55745261 14.2021484,7.92041016 C13.985676,8.2833677 13.8774414,8.72851299 13.8774414,9.25585938 L13.8774414,9.4609375 C13.8774414,10.0013048 13.9848622,10.4513328 14.199707,10.8110352 C14.4145519,11.1707375 14.7758764,11.3505859 15.2836914,11.3505859 Z" id="abc" fill="#444649" opacity="0.543387277"></path>
        </g>
        <g id="Group-28-Copy-4" opacity="0.65" transform="translate(2.000000, 1.000000)" fill="#000000" fill-rule="nonzero">
            <rect id="Rectangle-path" x="4" y="0" width="2" height="4"></rect>
            <path d="M9,0 L9,3 L9,5 L2,5 L2,0 L0,0 L0,14 L14,14 L14,3 L11,0 L9,0 Z M12,12 L2,12 L2,7 L12,7 L12,12 Z" id="Shape"></path>
        </g>
        <g id="3*3-matrix" transform="translate(2.000000, 21.000000)" fill="#444649" fill-rule="nonzero">
            <rect id="Rectangle-10" x="0" y="0" width="4" height="4"></rect>
            <rect id="Rectangle-10-Copy-3" x="0" y="5" width="4" height="4"></rect>
            <rect id="Rectangle-10-Copy-6" x="0" y="10" width="4" height="4"></rect>
            <rect id="Rectangle-10-Copy" x="5" y="0" width="4" height="4"></rect>
            <rect id="Rectangle-10-Copy-4" x="5" y="5" width="4" height="4"></rect>
            <rect id="Rectangle-10-Copy-7" x="5" y="10" width="4" height="4"></rect>
            <rect id="Rectangle-10-Copy-2" x="10" y="0" width="4" height="4"></rect>
            <rect id="Rectangle-10-Copy-5" x="10" y="5" width="4" height="4"></rect>
            <rect id="Rectangle-10-Copy-8" x="10" y="10" width="4" height="4"></rect>
        </g>
        <g id="3*4-matrix" transform="translate(81.000000, 22.000000)" fill="#444649" fill-rule="nonzero">
            <rect id="Rectangle-10" x="0" y="0" width="4" height="2"></rect>
            <rect id="Rectangle-10-Copy-3" x="0" y="3" width="4" height="2"></rect>
            <rect id="Rectangle-10-Copy-6" x="0" y="6" width="4" height="2"></rect>
            <rect id="Rectangle-10-Copy-9" x="0" y="9" width="4" height="2"></rect>
            <rect id="Rectangle-10-Copy" x="5" y="0" width="4" height="2"></rect>
            <rect id="Rectangle-10-Copy-4" x="5" y="3" width="4" height="2"></rect>
            <rect id="Rectangle-10-Copy-7" x="5" y="6" width="4" height="2"></rect>
            <rect id="Rectangle-10-Copy-10" x="5" y="9" width="4" height="2"></rect>
            <rect id="Rectangle-10-Copy-2" x="10" y="0" width="4" height="2"></rect>
            <rect id="Rectangle-10-Copy-5" x="10" y="3" width="4" height="2"></rect>
            <rect id="Rectangle-10-Copy-8" x="10" y="6" width="4" height="2"></rect>
            <rect id="Rectangle-10-Copy-11" x="10" y="9" width="4" height="2"></rect>
        </g>
        <g id="3*5-matrix" transform="translate(42.000000, 41.000000)" fill="#444649" fill-rule="nonzero">
            <rect id="Rectangle-10" x="0" y="0" width="4" height="2"></rect>
            <rect id="Rectangle-10-Copy-3" x="0" y="3" width="4" height="2"></rect>
            <rect id="Rectangle-10-Copy-6" x="0" y="6" width="4" height="2"></rect>
            <rect id="Rectangle-10-Copy-9" x="0" y="9" width="4" height="2"></rect>
            <rect id="Rectangle-10-Copy" x="5" y="0" width="4" height="2"></rect>
            <rect id="Rectangle-10-Copy-4" x="5" y="3" width="4" height="2"></rect>
            <rect id="Rectangle-10-Copy-7" x="5" y="6" width="4" height="2"></rect>
            <rect id="Rectangle-10-Copy-10" x="5" y="9" width="4" height="2"></rect>
            <rect id="Rectangle-10-Copy-2" x="10" y="0" width="4" height="2"></rect>
            <rect id="Rectangle-10-Copy-5" x="10" y="3" width="4" height="2"></rect>
            <rect id="Rectangle-10-Copy-8" x="10" y="6" width="4" height="2"></rect>
            <rect id="Rectangle-10-Copy-11" x="10" y="9" width="4" height="2"></rect>
            <rect id="Rectangle-10-Copy-9" x="0" y="12" width="4" height="2"></rect>
            <rect id="Rectangle-10-Copy-10" x="5" y="12" width="4" height="2"></rect>
            <rect id="Rectangle-10-Copy-11" x="10" y="12" width="4" height="2"></rect>
        </g>
        <g id="fill-color" transform="translate(0.000000, 41.000000)" fill="#000000">
            <path d="M13.2775977,8.840964 L14,8.1124306 L5.91013748,-1.77635684e-15 L5.18773518,0.722275417 L5.92526359,1.45967429 L0,7.36564475 L6.63879885,14.0032776 L12.5400693,8.10304363 L13.2775977,8.840964 L13.2775977,8.840964 Z M1.47557841,7.36564475 L6.65392497,2.18768619 L11.817667,7.3505213 L1.47557841,7.36564475 L1.47557841,7.36564475 Z" id="Shape"></path>
            <path d="M15.9888818,10.4677976 L15.9888818,10.4677976 L14.7500175,9 L13.5157788,10.461412 C13.1973899,10.8354312 12.9969514,11.3535848 13.0000351,11.9292096 C12.9977223,13.0731613 13.7817453,14.0009116 14.7492466,13.9999993 C15.7167479,13.9999993 16.5,13.0731613 16.5,11.9273851 C16.5,11.3572338 16.3057288,10.8418169 15.9888818,10.4677976 L15.9888818,10.4677976 Z" id="Shape"></path>
        </g>
        <path d="M30.3203125,54 L29.4609375,51.265625 L25.5,51.265625 L24.640625,54 L22.21875,54 L26.1328125,42.7265625 L28.90625,42.7265625 L32.828125,54 L30.3203125,54 Z M27.453125,44.8828125 L26.0078125,49.5 L28.953125,49.5 L27.5078125,44.8828125 L27.453125,44.8828125 Z" id="font-color" fill="#35383A"></path>
        <g id="clear-A" transform="translate(0.000000, 60.000000)">
            <g id="Group-23">
                <rect id="Rectangle-7-Copy-2" fill="#9F795C" opacity="0" x="0" y="0" width="18" height="18"></rect>
                <g id="Group-24-Copy" transform="translate(3.000000, 2.000000)">
                    <g id="Group-21" transform="translate(6.717514, 6.717514) rotate(45.000000) translate(-6.717514, -6.717514) translate(3.217514, 0.717514)">
                        <path d="M7,10 L5,12 L0,12 L0,0 L7,0 L7,10 Z" id="Combined-Shape" fill="#2F3133"></path>
                        <path d="M6,9.74264069 L4.74264069,11 L1,11 L1,6 L6,6 L6,9.74264069 Z" id="Combined-Shape" fill="#FFFFFF"></path>
                    </g>
                    <rect id="Rectangle-2" fill="#2F3133" x="0" y="13" width="7" height="1"></rect>
                </g>
            </g>
        </g>
        <g id="Checkbox-select" transform="translate(3.000000, 83.000000)">
            <rect id="Rectangle-370" fill="#3B92ED" x="0" y="0" width="12" height="12" rx="2"></rect>
            <g id="Path-390" stroke-linecap="square" stroke="#FFFFFF">
                <use xlink:href="#path-1"></use>
                <use xlink:href="#path-1"></use>
            </g>
        </g>
        <g id="Checkbox-unselect" transform="translate(23.000000, 83.000000)" fill="#FFFFFF" stroke="#444649" stroke-opacity="0.45">
            <rect id="Rectangle-3087" x="0.5" y="0.5" width="11" height="11" rx="2"></rect>
        </g>
        <g id="cm-dropdown" transform="translate(5.000000, 107.000000)" fill="#333333" fill-opacity="0.9" fill-rule="nonzero">
            <polygon id="Path-2507" points="0 0.710694891 3.67447016 4.65162534 3.99928998 5 4.32371782 4.6512032 8 0.69878205 7.35035922 0 3.67407705 3.95242115 4.3233247 3.95199901 0.64885454 0.0110685668"></polygon>
        </g>
        <g id="2*2-matrix" transform="translate(22.000000, 21.000000)" fill="#444649" fill-rule="nonzero">
            <rect id="Rectangle-10" x="0" y="0" width="6.5" height="6"></rect>
            <rect id="Rectangle-10-Copy-6" x="0" y="7" width="6.5" height="6"></rect>
            <rect id="Rectangle-10-Copy-2" x="7.5" y="0" width="6.5" height="6"></rect>
            <rect id="Rectangle-10-Copy-8" x="7.5" y="7" width="6.5" height="6"></rect>
        </g>
        <g id="3*2-matrix" transform="translate(49.000000, 28.000000) rotate(90.000000) translate(-49.000000, -28.000000) translate(42.000000, 21.000000)" fill="#444649" fill-rule="nonzero">
            <rect id="Rectangle-10" x="0" y="0" width="6.5" height="4"></rect>
            <rect id="Rectangle-10-Copy-3" x="0" y="5" width="6.5" height="4"></rect>
            <rect id="Rectangle-10-Copy-6" x="0" y="10" width="6.5" height="4"></rect>
            <rect id="Rectangle-10-Copy-2" x="7.5" y="0" width="6.5" height="4"></rect>
            <rect id="Rectangle-10-Copy-5" x="7.5" y="5" width="6.5" height="4"></rect>
            <rect id="Rectangle-10-Copy-8" x="7.5" y="10" width="6.5" height="4"></rect>
        </g>
        <g id="2*3-matrix" transform="translate(62.000000, 21.000000)" fill="#444649" fill-rule="nonzero">
            <rect id="Rectangle-10" x="0" y="0" width="6.5" height="4"></rect>
            <rect id="Rectangle-10-Copy-3" x="0" y="5" width="6.5" height="4"></rect>
            <rect id="Rectangle-10-Copy-6" x="0" y="10" width="6.5" height="4"></rect>
            <rect id="Rectangle-10-Copy-2" x="7.5" y="0" width="6.5" height="4"></rect>
            <rect id="Rectangle-10-Copy-5" x="7.5" y="5" width="6.5" height="4"></rect>
            <rect id="Rectangle-10-Copy-8" x="7.5" y="10" width="6.5" height="4"></rect>
        </g>
        <g id="time-attribute" transform="translate(40.000000, 118.000000)">
            <g id="Group-3-Copy-4" fill="#9F795C" opacity="0">
                <rect id="Rectangle-2961-Copy-12" x="0" y="0" width="18" height="18"></rect>
            </g>
            <g id="Group-10" transform="translate(3.000000, 3.000000)">
                <circle id="Oval-93" stroke="#3FB582" fill="#74CEA7" cx="6" cy="6" r="5.5"></circle>
                <polyline id="Path-4" stroke="#FFFFFF" points="5.5 2.5 5.5 6.5 9.5 6.5"></polyline>
            </g>
        </g>
        <g id="metric" transform="translate(60.000000, 118.000000)">
            <rect id="Rectangle-2961-Copy-12" fill="#9F795C" opacity="0" x="0" y="0" width="18" height="18"></rect>
            <g id="Group-3-Copy-3" transform="translate(5.000000, 4.000000)" stroke="#E99D41">
                <g id="metric-copy">
                    <rect id="Rectangle-433" fill="#F7ECDE" x="-0.5" y="-0.5" width="6" height="12"></rect>
                    <path d="M1,2.5 L5,2.5" id="Line"></path>
                    <path d="M1,8.5 L5,8.5" id="Line-Copy-18"></path>
                    <path d="M2,5.5 L5,5.5" id="Line-Copy-17"></path>
                    <rect id="Rectangle-433-Copy" fill="#F7ECDE" x="5.5" y="2.5" width="3" height="9"></rect>
                    <rect id="Rectangle-433-Copy-2" fill="#F7ECDE" x="8.5" y="5.5" width="2" height="6"></rect>
                </g>
            </g>
        </g>
        <g id="attribute" transform="translate(0.000000, 118.000000)">
            <rect id="Rectangle-2961-Copy-12" fill="#9F795C" opacity="0" x="0" y="0" width="18" height="18"></rect>
            <path d="M9.5,2.70710678 L3.70710678,8.5 L9.5,14.2928932 L15.2928932,8.5 L9.5,2.70710678 Z" id="attr" stroke="#3FB582" fill-opacity="0.800158514" fill="#52C191"></path>
        </g>
        <g id="geo-location" transform="translate(23.000000, 119.000000)" fill-rule="nonzero">
            <path d="M6.30193319,15.5473106 C6.29954712,15.5492089 6.29713229,15.5511636 6.29467102,15.5531745 C6.30188225,15.5472827 6.31006978,15.5402631 6.3191783,15.5321553 Z M6.51177184,15.3405437 C6.63659775,15.2085855 6.7951259,15.0309417 6.98354697,14.8120205 C7.40317902,14.3244616 7.96083573,13.6442493 8.60799928,12.833719 C9.69112473,11.4771748 11.0023628,9.77959535 11.4876232,9.11518468 C12.2372013,8.10703641 12.5894309,6.87524297 12.480604,5.57980901 L12.4805379,5.57901465 C12.2591183,2.89197469 9.87793051,0.704031579 6.93176416,0.513778143 C3.43396909,0.289431591 0.5,2.84279282 0.5,6.04346096 C0.5,7.16638085 0.854468297,8.22727251 1.51394631,9.11862577 C1.97584477,9.75107905 3.28863902,11.43949 4.40188993,12.8253857 C5.04963991,13.6317752 5.61119844,14.3137257 6.03333694,14.803776 C6.22485686,15.0261068 6.38564614,15.2065517 6.51177184,15.3405437 Z" id="Shape" stroke="#3FB582" fill="#75CFA8"></path>
            <path d="M6.5,9.5 C4.84547925,9.5 3.5,8.15452075 3.5,6.5 C3.5,4.84547925 4.84547925,3.5 6.5,3.5 C8.15452075,3.5 9.5,4.84547925 9.5,6.5 C9.5,8.15452075 8.15452075,9.5 6.5,9.5 Z" id="Path" stroke="#42B684" fill="#FFFFFF"></path>
        </g>
        <path d="M11.7678574,150.136613 L14.9873845,153.35614 L14.2830752,154.060449 L11.0650548,150.842429 C10.2139191,151.54135 9.1273853,151.960438 7.94368637,151.960438 C5.21336378,151.960438 3,149.730718 3,146.980219 C3,144.22972 5.21336378,142 7.94368637,142 C10.674009,142 12.8873727,144.22972 12.8873727,146.980219 C12.8873727,148.178216 12.4674768,149.277417 11.7678574,150.136613 Z M7.94368637,150.964394 C10.1279444,150.964394 11.8986355,149.180618 11.8986355,146.980219 C11.8986355,144.77982 10.1279444,142.996044 7.94368637,142.996044 C5.7594283,142.996044 3.98873727,144.77982 3.98873727,146.980219 C3.98873727,149.180618 5.7594283,150.964394 7.94368637,150.964394 Z" id="Search" fill="#35383A"></path>
        <path d="M29.5155123,148.626623 L25.6266234,148.626623 L25.0710678,148.626623 L25.0710678,147.515512 L25.6266234,147.515512 L29.5155123,147.515512 L29.5155123,143.626623 L29.5155123,143.071068 L30.6266234,143.071068 L30.6266234,143.626623 L30.6266234,147.515512 L34.5155123,147.515512 L35.0710678,147.515512 L35.0710678,148.626623 L34.5155123,148.626623 L30.6266234,148.626623 L30.6266234,152.515512 L30.6266234,153.071068 L29.5155123,153.071068 L29.5155123,152.515512 L29.5155123,148.626623 Z" id="delete" fill="#444649" fill-rule="nonzero" transform="translate(30.071068, 148.071068) rotate(45.000000) translate(-30.071068, -148.071068) "></path>
        <path d="M48.5155123,149.626623 L44.6266234,149.626623 L44.0710678,149.626623 L44.0710678,148.515512 L44.6266234,148.515512 L48.5155123,148.515512 L48.5155123,144.626623 L48.5155123,144.071068 L49.6266234,144.071068 L49.6266234,144.626623 L49.6266234,148.515512 L53.5155123,148.515512 L54.0710678,148.515512 L54.0710678,149.626623 L53.5155123,149.626623 L49.6266234,149.626623 L49.6266234,153.515512 L49.6266234,154.071068 L48.5155123,154.071068 L48.5155123,153.515512 L48.5155123,149.626623 Z" id="close_white" fill="#FFFFFF" fill-rule="nonzero" transform="translate(49.071068, 149.071068) rotate(45.000000) translate(-49.071068, -149.071068) "></path>
        <g id="Dataset" transform="translate(83.000000, 121.000000)">
            <g id="Group-42">
                <path d="M11.5000013,3.78466397 C11.5000006,3.78474979 11.5000004,3.78483546 11.5,3.7850068 C11.5000062,3.78540911 11.5000113,3.78573579 11.5000028,3.78571323 Z M12.4998971,3.79901309 L12.5,3.79166667 L12.5,11.5165211 L12.4258292,11.6370487 C12.2492558,11.9239804 11.8305305,12.2951233 11.0855557,12.6410045 C9.92093259,13.1817223 8.25609557,13.5 6,13.5 C3.74390443,13.5 2.07906741,13.1817223 0.914444347,12.6410045 C0.169469539,12.2951233 -0.249255815,11.9239804 -0.425829158,11.6370487 L-0.5,11.5165211 L-0.5,9.20833333 L-0.499998821,3.79058087 L-0.495296566,2.80958739 C-0.499210074,2.76245866 -0.499210074,2.76245866 -0.5,2.7149932 C-0.5,1.36494119 2.37415732,0.583333333 6,0.583333333 C9.62584269,0.583333333 12.5,1.36494119 12.5,2.7149932 C12.4992234,2.76042312 12.4992234,2.76042312 12.4981257,2.76001887 L12.4960635,3.69845457 C12.4993395,3.74159698 12.4993395,3.74159698 12.5,3.7850068 C12.4999828,3.79201143 12.4999828,3.79201143 12.4998971,3.79901309 Z" id="Combined-Shape" stroke-opacity="0.949247056" stroke="#FFFFFF"></path>
                <path d="M12,2.37728402 C12,1.36350055 9.31370852,0.541666667 6,0.541666667 C2.6862915,0.541666667 0,1.36350055 0,2.37728402 C0,2.39422322 0.000749978604,2.41110882 0.00224032948,2.42793791 L0,3.69214616 C0.19853609,4.6541996 2.80822091,5.41666667 6,5.41666667 C9.19177907,5.41666667 11.8014639,4.6541996 11.9891916,3.69214616 L11.9981257,3.62738584 C11.9993727,3.61198665 12,3.59654039 12,3.58104931 C12,3.56555824 11.9993727,3.55011198 11.9981257,3.53471279 L11.9981257,2.42793789 C11.99925,2.41110882 12,2.39422322 12,2.37728402 Z" id="Combined-Shape" fill="#444649"></path>
                <path d="M0,9.20833333 C0,9.20833333 0.949172729,10.8333333 6,10.8333333 C11.0508273,10.8333333 12,9.20833333 12,9.20833333 L12,11.375 C12,11.375 11,13 6,13 C1,13 0,11.375 0,11.375 L0,9.20833333 Z" id="Rectangle-9-Copy-2" fill="#444649"></path>
                <path d="M0,5.41666667 C0,5.41666667 0.949172729,7.04166667 6,7.04166667 C11.0508273,7.04166667 12,5.41666667 12,5.41666667 L12,7.58333333 C12,7.58333333 11,9.20833333 6,9.20833333 C1,9.20833333 0,7.58333333 0,7.58333333 L0,5.41666667 Z" id="Rectangle-9-Copy-3" fill="#444649"></path>
            </g>
        </g>
        <g id="attr--large-footer">
            <use fill="black" fill-opacity="1" filter="url(#filter-3)" xlink:href="#path-2"></use>
            <path stroke="#9AEFCA" stroke-width="1" d="M15.7071068,168.5 L8.5,175.707107 L1.29289322,168.5 L8.5,161.292893 L15.7071068,168.5 Z" fill="#9AEFCA" fill-rule="evenodd"></path>
        </g>
        <polygon id="key-attribute" fill="#3B92ED" fill-rule="nonzero" points="29.5 172.75 25.6793959 174.75861 26.4090663 170.504305 23.3181326 167.49139 27.5896979 166.870695 29.5 163 31.4103021 166.870695 35.6818674 167.49139 32.5909337 170.504305 33.3206041 174.75861"></polygon>
        <g id="!" transform="translate(1.000000, 180.000000)">
            <g id="alert_circle_fill" transform="translate(1.000000, 1.000000)">
                <path d="M14,7 C14,10.8663333 10.8651667,14 7,14 C3.13366667,14 0,10.8663333 0,7 C0,3.13483333 3.13366667,0 7,0 C10.8651667,0 14,3.13483333 14,7 Z" id="Fill-1" fill="#FFFFFF" fill-rule="nonzero"></path>
                <path d="M7.87849353,3.9375 C7.87849353,4.42075 7.48602094,4.8125 7.00187959,4.8125 C6.51773823,4.8125 6.12526565,4.42075 6.12526565,3.9375 C6.12526565,3.45425 6.51773823,3.0625 7.00187959,3.0625 C7.48602094,3.0625 7.87849353,3.45425 7.87849353,3.9375 Z M7.00187959,10.9375 C6.95145693,10.9375 6.90110362,10.9337629 6.8512334,10.9263194 C6.2938088,10.8431198 5.90937348,10.3237913 5.99257307,9.76636671 L6.55783965,5.97916667 L7.44591953,5.97916667 L8.01118611,9.76636671 C8.0186296,9.81623693 8.02236669,9.86659024 8.02236669,9.9170129 C8.02236669,10.4806124 7.56547905,10.9375 7.00187959,10.9375 Z" id="Combined-Shape" fill="#35383A" transform="translate(7.001811, 7.000000) scale(1, -1) translate(-7.001811, -7.000000) "></path>
            </g>
            <rect id="Rectangle-2" x="0" y="0" width="16" height="16"></rect>
        </g>
        <g id="context-menu" transform="translate(40.000000, 160.000000)" fill="#35383A" fill-rule="nonzero">
            <rect id="Path" x="7.5" y="3.5" width="2.5" height="2.5" rx="1.25"></rect>
            <rect id="Path-Copy" x="7.5" y="8" width="2.5" height="2.5" rx="1.25"></rect>
            <rect id="Path-Copy-2" x="7.5" y="12.5" width="2.5" height="2.5" rx="1.25"></rect>
        </g>
        <g id="dnd" transform="translate(64.000000, 166.000000)" fill-rule="nonzero" opacity="0.445301" stroke="#35383A" stroke-linecap="square">
            <path d="M0,1 L10,1" id="Line-4"></path>
            <path d="M0,4.25 L10,4.25" id="Line-4-Copy"></path>
        </g>
        <g id="successful_fill" transform="translate(20.000000, 180.000000)">
            <g transform="translate(1.000000, 1.000000)">
                <circle id="Oval-5" fill="#67C630" cx="7" cy="7" r="7"></circle>
                <polygon id="Fill-4" fill="#FFFFFF" points="11.0835333 5.19819994 10.2590737 4.3748 6.45892927 8.17388468 4.32465966 6.03855536 3.5002 6.8619553 6.45892927 9.82174429"></polygon>
            </g>
            <rect id="Rectangle-2" x="0" y="0" width="16" height="16"></rect>
        </g>
        <g id="cursor_add-" transform="translate(0.000000, 200.000000)">
            <rect id="Rectangle-2" x="0" y="0" width="18" height="18"></rect>
            <path d="M16,9 C16,12.8663333 12.8651667,16 9,16 C5.13366667,16 2,12.8663333 2,9 C2,5.13483333 5.13366667,2 9,2 C12.8651667,2 16,5.13483333 16,9 Z" id="help" fill="#3B92ED" fill-rule="nonzero"></path>
            <path d="M8.41666667,8.41666667 L8.41666667,5.35416667 L9.58333333,5.35416667 L9.58333333,8.41666667 L12.6458333,8.41666667 L12.6458333,9.58333333 L9.58333333,9.58333333 L9.58333333,12.6458333 L8.41666667,12.6458333 L8.41666667,9.58333333 L5.35416667,9.58333333 L5.35416667,8.41666667 L8.41666667,8.41666667 Z" id="Combined-Shape" fill="#FFFFFF"></path>
        </g>
        <g id="cursor_delete/remove" transform="translate(42.000000, 202.000000)">
            <circle id="Combined-Shape" fill="#EF5A39" cx="7" cy="7" r="7"></circle>
            <path d="M7,6.20510184 L9.17223898,4 L10,4.74951246 L7.78305171,7 L10,9.25048754 L9.17223898,10 L7,7.79489816 L4.82776102,10 L4,9.25048754 L6.21694829,7 L4,4.74951246 L4.82776102,4 L7,6.20510184 Z" id="Combined-Shape" fill="#FFFFFF"></path>
        </g>
        <rect id="Rectangle-6" x="60" y="200" width="18" height="18"></rect>
        <g id="cursor_swap" transform="translate(62.000000, 202.000000)" fill-rule="nonzero">
            <path d="M14,7 C14,10.8663333 10.8651667,14 7,14 C3.13366667,14 0,10.8663333 0,7 C0,3.13483333 3.13366667,-5.32907052e-15 7,-5.32907052e-15 C10.8651667,-5.32907052e-15 14,3.13483333 14,7 Z" id="add_transparent" fill="#F09260"></path>
            <path d="M11.748969,7.02071181 C10.9550386,6.47602793 10.3153191,6.03765328 8.89184819,5.06258647 L8.8684235,5.04654074 C8.39777879,4.72415267 8.17589218,4.57215495 7.90800397,4.38862043 C7.87358954,4.36504081 7.86501701,4.36401105 7.84523662,4.37387481 C7.83183364,4.38056022 7.83596682,4.37326951 7.83613302,4.39961163 C7.83687088,4.51582376 7.83709798,4.63324466 7.83703721,4.79477145 C7.83700769,4.85363555 7.83700769,4.85363555 7.83696346,4.91243077 C7.83671264,5.24585539 7.83705185,5.39378993 7.83915887,5.57813617 C7.84180968,5.81004123 7.69616602,5.93638216 7.48119276,5.94766961 C6.6645369,5.99050513 5.94919162,6.15606622 5.31324065,6.46638024 C3.66678897,7.26980023 2.81534233,8.51950516 2.74119921,10.2434134 C2.73964826,10.2796063 2.73239175,10.2683829 2.74781931,10.273601 C2.77720875,10.2835422 2.78575975,10.2811008 2.8229494,10.2446244 C3.1501584,9.92367249 3.31946692,9.76060057 3.5207146,9.57611649 C3.99995867,9.13683053 4.53991016,8.80640304 5.14367268,8.58967062 C5.83011765,8.34325918 6.56110294,8.22902076 7.49194879,8.18956833 C7.60129964,8.18494746 7.70152924,8.21472877 7.77579251,8.31538598 C7.80993407,8.36166182 7.82674864,8.40979228 7.83382142,8.45963879 C7.83723749,8.48371405 7.83789295,8.50209856 7.83771325,8.52752449 C7.83682622,8.64824958 7.8367267,8.74508531 7.83696213,8.96336927 C7.83704676,9.04184462 7.837075,9.07674674 7.837075,9.12042218 C7.837075,9.15396365 7.83715053,9.18880795 7.8373021,9.23259651 C7.83740154,9.26021042 7.83740154,9.26021042 7.837509,9.28790097 C7.83828715,9.48840914 7.83815245,9.57795047 7.83615934,9.69077488 C7.83566136,9.71935071 7.83104566,9.71118098 7.84589579,9.71826507 C7.86440257,9.72709721 7.87313662,9.72580666 7.91215211,9.69906372 C8.28941069,9.44049386 8.60150535,9.22663646 9.26496505,8.77204888 L9.29628049,8.75059225 C10.5136784,7.91645877 11.0640101,7.53928864 11.7447499,7.07239328 C11.7593393,7.06238657 11.7709678,7.05303583 11.7798068,7.04473382 C11.7718675,7.03750981 11.7616399,7.02940451 11.748969,7.02071181 Z" id="Fill-1" fill="#FFFFFF" transform="translate(7.258973, 7.323311) rotate(160.000000) translate(-7.258973, -7.323311) "></path>
        </g>
        <path d="M32.0419676,213.279404 C31.1837511,213.890558 30.1338516,214.25 29,214.25 C26.1005051,214.25 23.75,211.899495 23.75,209 C23.75,207.866148 24.1094421,206.816249 24.7205956,205.958032 L32.0419676,213.279404 L32.0419676,213.279404 Z M33.2794044,212.041968 C33.8905579,211.183751 34.25,210.133852 34.25,209 C34.25,206.100505 31.8994949,203.75 29,203.75 C27.8661484,203.75 26.8162489,204.109442 25.9580324,204.720596 L33.2794044,212.041968 L33.2794044,212.041968 Z M29,216 C32.8659932,216 36,212.865993 36,209 C36,205.134007 32.8659932,202 29,202 C25.1340068,202 22,205.134007 22,209 C22,212.865993 25.1340068,216 29,216 L29,216 Z" id="cursor_not-allowed" fill="#A6A6A6"></path>
        <g id="view" transform="translate(3.000000, 240.000000)" fill="#FFFFFF">
            <path d="M2,4 L2,5 C2,7.2 3.8,8.03540039 6,8.03540039 C8.2,8.03540039 10,7.2 10,5 L10,4 C10,1.8 8.2,0 6,0 C3.8,0 2,1.8 2,4 Z M6,2 C7.103,2 8,2.897 8,4 L8,5 C8,6.103 7.103,7 6,7 C4.897,7 4,6.103 4,5 L4,4 C4,2.897 4.897,2 6,2" id="Fill-1"></path>
            <path d="M1.002,5 L10.998,5 C11.551,5 12,5.445 12,5.996 L12,15.004 C12,15.554 11.544,16 10.998,16 L1.002,16 C0.449,16 0,15.555 0,15.004 L0,5.996 C0,5.446 0.456,5 1.002,5 Z M2.122,10.271 C1.96,10.43 1.96,10.691 2.122,10.851 C2.721,11.441 4.226,12.722 5.988,12.722 C7.751,12.722 9.256,11.441 9.855,10.851 C10.017,10.692 10.017,10.43 9.855,10.271 C9.256,9.681 7.751,8.401 5.988,8.401 C4.226,8.401 2.721,9.681 2.122,10.271 Z M4.455,10.562 C4.455,9.71 5.141,9.02 5.988,9.02 C6.836,9.02 7.523,9.71 7.523,10.562 C7.523,11.412 6.836,12.102 5.988,12.102 C5.141,12.102 4.455,11.412 4.455,10.562 Z M5.169,10.549 C5.169,10.991 5.526,11.349 5.966,11.349 C6.406,11.349 6.762,10.991 6.762,10.549 C6.762,10.107 6.406,9.749 5.966,9.749 C5.526,9.749 5.169,10.107 5.169,10.549 Z" id="Combined-Shape"></path>
        </g>
        <g id="alternate-keyword" transform="translate(84.000000, 165.000000)">
            <path d="M10.166293,5.76745854 L11.3908314,7.0453125 L10.7874858,7.67289244 L9.51822111,6.35985961 C8.94788459,6.76308515 8.25160951,7 7.5,7 C5.56700338,7 4,5.43299662 4,3.5 C4,1.56700338 5.56700338,0 7.5,0 C9.43299662,0 11,1.56700338 11,3.5 C11,4.36497634 10.6862265,5.15666696 10.166293,5.76745854 Z M7.5,6 C8.88071187,6 10,4.88071187 10,3.5 C10,2.11928813 8.88071187,1 7.5,1 C6.11928813,1 5,2.11928813 5,3.5 C5,4.88071187 6.11928813,6 7.5,6 Z" id="Icon---Search-Copy" fill="#35383A" opacity="0.827543713"></path>
            <path d="M3.5,1 C3.77614237,1 4,1.22385763 4,1.5 C4,1.77614237 3.77614237,2 3.5,2 L0.5,2 C0.223857625,2 0,1.77614237 0,1.5 C0,1.22385763 0.223857625,1 0.5,1 L3.5,1 Z" id="Line-8" fill="#7B7E81" fill-rule="nonzero"></path>
            <path d="M3.5,3 C3.77614237,3 4,3.22385763 4,3.5 C4,3.77614237 3.77614237,4 3.5,4 L0.5,4 C0.223857625,4 0,3.77614237 0,3.5 C0,3.22385763 0.223857625,3 0.5,3 L3.5,3 Z" id="Line-8" fill="#7B7E81" fill-rule="nonzero"></path>
            <path d="M3.5,5 C3.77614237,5 4,5.22385763 4,5.5 C4,5.77614237 3.77614237,6 3.5,6 L0.5,6 C0.223857625,6 0,5.77614237 0,5.5 C0,5.22385763 0.223857625,5 0.5,5 L3.5,5 Z" id="Line-8" fill="#7B7E81" fill-rule="nonzero"></path>
        </g>
    </g>
</svg>