<svg xmlns="http://www.w3.org/2000/svg" width="52" height="40"><g fill-rule="evenodd"><g fill="#E2E3E6"><rect x="5" y="32" width="22" height="2" rx="1"/><path d="M6 25h37a1 1 0 1 1 0 2H6a1 1 0 1 1 0-2z"/></g><path d="M9.63 12.34H6.846L6.28 14h-1.2L7.7 6.89h1.123L11.396 14H10.2l-.562-1.66zm-2.44-.99h2.104l-1.03-3.037h-.03L7.188 11.35zM12.222 14V6.89h2.363c.788 0 1.403.162 1.846.486s.664.808.664 1.453c0 .322-.093.6-.278.864s-.443.443-.77.566c.423.094.75.298.977.6s.342.675.342 1.09c0 .667-.218 1.174-.654 1.52s-1.038.52-1.807.52h-2.68zm1.187-3.232v2.285h1.494c.4 0 .726-.094.947-.28s.332-.458.332-.813c0-.378-.093-.67-.278-.88s-.475-.312-.87-.312h-1.626zm0-.884h1.31c.368 0 .658-.087.872-.26s.32-.42.32-.74c0-.352-.112-.613-.337-.784s-.553-.256-.986-.256h-1.177v2.04zm10.405 1.758l.01.03c.013.72-.22 1.305-.7 1.755s-1.13.676-1.95.676c-.83 0-1.505-.28-2.024-.837s-.78-1.272-.78-2.14V9.77c0-.866.256-1.58.77-2.14s1.18-.842 2-.842c.84 0 1.5.22 1.985.662s.72 1.034.706 1.78l-.01.03H22.67c0-.48-.13-.85-.388-1.118s-.64-.4-1.145-.4a1.36 1.36 0 0 0-1.155.576c-.285.384-.427.866-.427 1.445v1.362c0 .586.146 1.07.437 1.455a1.4 1.4 0 0 0 1.179.576c.492 0 .864-.132 1.118-.396s.38-.636.38-1.118h1.143zm1.494 2.97h-1.09l2.798-7.72h1.09l-2.798 7.72zm6.504-.6h-1.187V8.02H29.18v-.874l2.632-.254V14zm7.432 0H34.52v-.815l2.314-2.524c.378-.413.638-.753.78-1.018s.215-.525.215-.78c0-.32-.093-.586-.278-.8s-.436-.322-.752-.322c-.417 0-.726.117-.928.352s-.303.557-.303.967h-1.147l-.01-.03c-.016-.632.2-1.163.62-1.594s1.02-.647 1.768-.647c.684 0 1.224.19 1.62.566s.596.87.596 1.48c0 .407-.115.796-.344 1.167s-.585.822-1.067 1.353l-1.582 1.67.015.03h3.203V14zm2.334-4.092h.825c.384 0 .66-.095.83-.286s.254-.46.254-.808c0-.342-.09-.606-.273-.793s-.45-.28-.806-.28c-.322 0-.585.092-.79.276a.93.93 0 0 0-.305.725h-1.143l-.01-.03c-.02-.544.183-1 .608-1.37s.966-.554 1.624-.554c.693 0 1.247.176 1.66.527s.62.85.62 1.5c0 .303-.093.596-.278.88s-.45.503-.79.66c.404.143.7.36.89.654s.286.627.286 1c0 .65-.224 1.163-.67 1.536s-1.02.56-1.716.56c-.658 0-1.2-.175-1.658-.525s-.662-.834-.642-1.453l.01-.03h1.143c0 .316.106.57.317.767s.493.293.845.293c.368 0 .658-.1.87-.298s.317-.48.317-.845c0-.4-.097-.696-.29-.886s-.494-.286-.9-.286h-.825v-.933z" fill="#99A0A5"/></g></svg>