<?xml version="1.0" encoding="UTF-8"?>
<svg width="18px" height="18px" viewBox="0 0 18 18" version="1.1" xmlns="http://www.w3.org/2000/svg" xmlns:xlink="http://www.w3.org/1999/xlink">
    <!-- Generator: Sketch 52.2 (67145) - http://www.bohemiancoding.com/sketch -->
    <title>Artboard</title>
    <desc>Created with Sketch.</desc>
    <g id="Artboard" stroke="none" stroke-width="1" fill="none" fill-rule="evenodd" opacity="0.577380952">
        <path d="M13.2433763,4.96991378 C12.1753658,3.89891763 10.446206,3.89891763 9.37819556,4.96991378 L7.80160868,6.55090809 C6.78445585,7.57090442 6.78445585,9.30489818 7.80160868,10.3758943 C8.05589688,10.6308934 8.46275801,10.6308934 8.71704622,10.3758943 C8.97133443,10.1208952 8.97133443,9.76389653 8.71704622,9.50889745 C8.15761217,8.89689965 8.15761217,7.97890295 8.71704622,7.41790497 L10.2936331,5.83691066 C10.8530671,5.27591268 11.7685047,5.27591268 12.3279387,5.83691066 C12.8873728,6.44890846 12.8873728,7.36690516 12.3279387,7.92790314 L11.6159318,8.69290039 C11.7685047,9.20289855 11.87022,9.71289672 11.8193623,10.2228949 L13.1925186,8.84589983 C14.2605291,7.77490369 14.2605291,6.04090992 13.2433763,4.96991378 L13.2433763,4.96991378 Z M9.27648027,8.02990277 C9.07304971,8.23390204 9.07304971,8.64190057 9.27648027,8.89689965 C9.88677197,9.45789763 9.88677197,10.4268941 9.27648027,10.9878921 L7.75075104,12.5178866 C7.19131698,13.0788846 6.27587944,13.0788846 5.66558775,12.5178866 C5.1061537,11.9568886 5.1061537,11.0388919 5.66558775,10.477894 L6.42845237,9.71289672 C6.2250218,9.20289855 6.17416416,8.69290039 6.2250218,8.1319024 L4.80100785,9.55989727 C3.73299738,10.6308934 3.73299738,12.3648872 4.80100785,13.4358833 C5.86901831,14.5068795 7.59817811,14.5068795 8.61533094,13.4358833 L10.1919178,11.854889 C11.2599283,10.7838929 11.2599283,9.10089892 10.1919178,8.02990277 C9.93762961,7.77490369 9.53076848,7.77490369 9.27648027,8.02990277 Z" id="Shape-Copy-6" fill="#444649"></path>
    </g>
</svg>