<?xml version="1.0" encoding="UTF-8"?>
<svg width="18px" height="18px" viewBox="0 0 18 18" version="1.1" xmlns="http://www.w3.org/2000/svg" xmlns:xlink="http://www.w3.org/1999/xlink">
    <title>Group</title>
    <g id="Specs-Copy-2" stroke="none" stroke-width="1" fill="none" fill-rule="evenodd">
        <g id="Artboard" transform="translate(-54.000000, 0.000000)">
            <g id="Group" transform="translate(54.000000, 0.000000)">
                <rect id="Rectangle" x="0" y="0" width="18" height="18"></rect>
                <g id="Common/Misc/Close" transform="translate(5.000000, 5.521008)" fill="#3492ED">
                    <path d="M0.146446609,0.155061116 C0.341708755,-0.0516870386 0.658291245,-0.0516870386 0.853553391,0.155061116 L0.853553391,0.155061116 L4.122,3.616 L7.3908292,0.155061116 C7.56439555,-0.0287150215 7.83381995,-0.0491345923 8.02868809,0.0938024034 L8.09793598,0.155061116 C8.29319812,0.36180927 8.29319812,0.697014259 8.09793598,0.903762414 L8.09793598,0.903762414 L4.828,4.364 L8.09793598,7.82558385 C8.27150233,8.00935999 8.29078748,8.29463289 8.15579143,8.50096386 L8.09793598,8.57428515 C7.90267383,8.78103331 7.58609134,8.78103331 7.3908292,8.57428515 L7.3908292,8.57428515 L4.121,5.113 L0.853553391,8.57428515 C0.679987039,8.75806129 0.410562638,8.77848086 0.215694497,8.63554386 L0.146446609,8.57428515 C-0.0488155365,8.367537 -0.0488155365,8.03233201 0.146446609,7.82558385 L0.146446609,7.82558385 L3.415,4.364 L0.146446609,0.903762414 C-0.0271197425,0.719986276 -0.0464048927,0.434713381 0.0885911588,0.228382409 Z" id="rounded-thin-X"></path>
                </g>
            </g>
        </g>
    </g>
</svg>