<?xml version="1.0" encoding="UTF-8"?>
<svg width="9px" height="10px" viewBox="0 0 9 10" version="1.1" xmlns="http://www.w3.org/2000/svg" xmlns:xlink="http://www.w3.org/1999/xlink">
    <title>icon/18*18/dialog/msdl-close-dialog</title>
    <g id="Specs-Copy-2" stroke="none" stroke-width="1" fill="none" fill-rule="evenodd">
        <g id="Artboard" transform="translate(-41.000000, -5.000000)" fill="#35383A" fill-rule="nonzero">
            <g id="Group" transform="translate(36.000000, 0.000000)">
                <g id="Common/Misc/Close" transform="translate(-1.000000, -1.000000)">
                    <g transform="translate(1.000000, 1.000000)">
                        <path d="M5.14644661,5.67606952 C5.34170876,5.46932136 5.65829124,5.46932136 5.85355339,5.67606952 L5.85355339,5.67606952 L9.122,9.1370084 L12.3908292,5.67606952 C12.5643955,5.49229338 12.8338199,5.47187381 13.0286881,5.61481081 L13.097936,5.67606952 C13.2931981,5.88281767 13.2931981,6.21802266 13.097936,6.42477082 L13.097936,6.42477082 L9.828,9.8850084 L13.097936,13.3465923 C13.2715023,13.5303684 13.2907875,13.8156413 13.1557914,14.0219723 L13.097936,14.0952936 C12.9026738,14.3020417 12.5860913,14.3020417 12.3908292,14.0952936 L12.3908292,14.0952936 L9.121,10.6340084 L5.85355339,14.0952936 C5.67998704,14.2790697 5.41056264,14.2994893 5.2156945,14.1565523 L5.14644661,14.0952936 C4.95118446,13.8885454 4.95118446,13.5533404 5.14644661,13.3465923 L5.14644661,13.3465923 L8.415,9.8850084 L5.14644661,6.42477082 C4.97288026,6.24099468 4.95359511,5.95572178 5.08859116,5.74939081 Z" id="rounded-thin-X"></path>
                    </g>
                </g>
            </g>
        </g>
    </g>
</svg>