<?xml version="1.0" encoding="UTF-8"?>
<svg width="11px" height="11px" viewBox="0 0 11 11" version="1.1" xmlns="http://www.w3.org/2000/svg" xmlns:xlink="http://www.w3.org/1999/xlink">
    <title>Shape</title>
    <g id="Specs" stroke="none" stroke-width="1" fill="none" fill-rule="evenodd">
        <g id="Flow-1-12" transform="translate(-309.000000, -188.000000)" fill="#FFFFFF" fill-rule="nonzero">
            <g id="Group" transform="translate(293.000000, 168.000000)">
                <path d="M22.1443093,24.0259289 C22.261357,24.1349951 22.3095379,24.2992529 22.2699508,24.454264 C22.2303637,24.6092752 22.1093223,24.7303166 21.9543112,24.7699037 C21.7993,24.8094908 21.6350422,24.7613099 21.525976,24.6442622 C21.2251148,24.3432597 20.8169746,24.1741464 20.3913927,24.1741464 C19.9658107,24.1741464 19.5576705,24.3432597 19.2568093,24.6442622 L17.3656426,26.5360122 C16.9602951,26.9412556 16.8019332,27.5319663 16.9502105,28.0856293 C17.0984877,28.6392923 17.5308773,29.071793 18.0845022,29.2202126 C18.638127,29.3686323 19.2288784,29.2104223 19.634226,28.8051789 L20.629976,27.8088456 C20.7390422,27.6917979 20.9033001,27.6436168 21.0583112,27.683204 C21.2133223,27.7227911 21.3343638,27.8438325 21.3739509,27.9988437 C21.413538,28.1538548 21.365357,28.3181127 21.2483093,28.4271789 L20.2525593,29.4235122 C19.6287882,30.0619847 18.7099495,30.3158492 17.8468723,30.0881758 C16.983795,29.8605024 16.3097358,29.1864432 16.0820624,28.3233659 C15.854389,27.4602887 16.1082535,26.54145 16.746726,25.9176789 L18.638476,24.0259289 C19.6066236,23.0579126 21.1761617,23.0579126 22.1443093,24.0259289 L22.1443093,24.0259289 Z M25.444226,20.7260122 C26.4122423,21.6941598 26.4122423,23.263698 25.444226,24.2318456 L23.552476,26.1235956 C22.5843284,27.0916119 21.0147902,27.0916119 20.0466426,26.1235956 C19.929595,26.0145294 19.881414,25.8502715 19.9210012,25.6952604 C19.9605883,25.5402493 20.0816297,25.4192079 20.2366408,25.3796207 C20.3916519,25.3400336 20.5559098,25.3882146 20.664976,25.5052622 C20.9658372,25.8062647 21.3739774,25.975378 21.7995593,25.975378 C22.2251412,25.975378 22.6332814,25.8062647 22.9341426,25.5052622 L24.8253093,23.6135122 C25.4519224,22.9870602 25.452053,21.9712503 24.825601,21.3446372 C24.199149,20.7180242 23.1833391,20.7178936 22.556726,21.3443456 L21.7318926,22.1697622 C21.559512,22.3303882 21.290887,22.3256486 21.12428,22.1590416 C20.9576729,21.9924345 20.9529334,21.7238096 21.1135593,21.5514289 L21.9383926,20.7260122 C22.9065402,19.7579959 24.4760784,19.7579959 25.444226,20.7260122 Z" id="Shape"></path>
            </g>
        </g>
    </g>
</svg>