<svg width="28" height="28" viewBox="0 0 28 28" fill="none" xmlns="http://www.w3.org/2000/svg">
<circle opacity="0.9" cx="14" cy="14" r="14" fill="#29313B"/>
<path fill-rule="evenodd" clip-rule="evenodd" d="M16.3981 12L16.1833 17.875H15.16L15.3749 12H16.3981ZM12.8167 17.875L12.5814 12H13.5842L13.84 17.875H12.8167ZM17.6056 18.72C17.6 18.8687 17.4625 19 17.3088 19H11.6605C11.5072 19 11.3692 18.8684 11.3637 18.72L11.0465 11H17.9228L17.6056 18.72ZM12.7085 9.24775C12.7085 9.1105 12.8229 8.99888 12.9636 8.99888H16.0367C16.1776 8.99888 16.2916 9.11025 16.2916 9.24775V10H12.7085V9.24775ZM20 10H18.9767H17.314V8.99888C17.314 8.447 16.8562 8 16.2916 8H12.7085C12.1442 8 11.686 8.44725 11.686 8.99888V10H10.7912H10.7632H10.0233H9V11H10.0514L10.3696 19.0009C10.3902 19.553 10.8657 20 11.4314 20H17.5686C18.1354 20 18.6098 19.5526 18.6304 19.0009L18.9486 11H20V10Z" fill="white"/>
</svg>
