<?xml version="1.0" encoding="UTF-8"?>
<svg width="213px" height="120px" viewBox="0 0 213 120" version="1.1" xmlns="http://www.w3.org/2000/svg" xmlns:xlink="http://www.w3.org/1999/xlink">
    <title>Group 10</title>
    <g id="Symbols" stroke="none" stroke-width="1" fill="none" fill-rule="evenodd">
        <g id="preview---model-1" transform="translate(-14.000000, -314.000000)">
            <g id="Group-21" transform="translate(0.000000, 261.000000)">
                <g id="Group-11" transform="translate(0.000000, 20.000000)">
                    <g id="Group-10" transform="translate(14.400000, 33.990184)">
                        <g id="Group" transform="translate(0.000000, -0.000000)">
                            <g id="ring2" transform="translate(12.480000, 0.000000)">
                                <path d="M21.0841087,5.88616807 C21.1518621,5.88616807 21.2177203,5.89040611 21.2854738,5.8913479 L21.2144037,0.00329625412 C21.1708141,0.00282536067 21.1276983,0 21.0841087,0 C10.2544576,0 1.33611655,8.11679032 0.140718658,18.5621487 L6.0632211,18.9252076 C7.06104431,11.5637303 13.4033337,5.88616807 21.0841087,5.88616807" id="Fill-1" fill="#9F5DD2"></path>
                                <path d="M21.2145933,0.00320207543 L21.2851895,5.89125372 C26.1591721,5.95435344 30.4764395,8.30316995 33.2055286,11.9073884 L38.4793986,9.1187574 C34.703211,3.64791734 28.3846116,0.0465242724 21.2145933,0.00320207543" id="Fill-3" fill="#30C9BA"></path>
                                <path d="M38.4795881,9.11871031 L33.2052443,11.9073413 C35.1132377,14.4266212 36.2456202,17.5580626 36.2456202,20.9546171 C36.2456202,24.5856764 34.9530932,27.9167767 32.800619,30.5184629 L37.8916021,33.6037568 C40.5742588,30.0885372 42.1681226,25.7073446 42.1681226,20.9546171 C42.1681226,16.5611812 40.8045257,12.4865402 38.4795881,9.11871031" id="Fill-5" fill="#F1AB16"></path>
                                <path d="M32.8004768,30.5184159 C30.0197435,33.8796533 25.8038693,36.0231602 21.0838718,36.0231602 C15.4437543,36.0231602 10.526182,32.9599984 7.91506916,28.4182311 L3.48124693,32.4853378 C7.25317029,38.1619583 13.7271762,41.9093283 21.0838718,41.9093283 C27.9468676,41.9093283 34.0413595,38.649333 37.8914599,33.6037097 L32.8004768,30.5184159 Z" id="Fill-7" fill="#FE6214"></path>
                                <path d="M5.92250244,20.9547583 C5.92250244,20.2658412 5.97319906,19.5896382 6.0632211,18.9252076 L0.140718658,18.5621487 C0.0506966209,19.3480699 0,20.1452925 0,20.9547583 C0,25.2158731 1.28305093,29.1774997 3.48148384,32.4850552 L7.91483226,28.4184194 C6.64931194,26.2174635 5.92250244,23.6713426 5.92250244,20.9547583" id="Fill-9" fill="#3FB582"></path>
                            </g>
                            <path d="M1.9671552,4.29349693 L9.5528448,4.29349693 C9.84398458,4.29349693 10.08,4.52951235 10.08,4.82065213 L10.08,6.15161781 C10.08,6.44275758 9.84398458,6.67877301 9.5528448,6.67877301 L1.9671552,6.67877301 C1.67601542,6.67877301 1.44,6.44275758 1.44,6.15161781 L1.44,4.82065213 C1.44,4.52951235 1.67601542,4.29349693 1.9671552,4.29349693 Z" id="Rectangle-7" fill="#D8D8D8"></path>
                            <path d="M0.5271552,26.715092 L8.1128448,26.715092 C8.40398458,26.715092 8.64,26.9511074 8.64,27.2422472 L8.64,28.5732129 C8.64,28.8643527 8.40398458,29.1003681 8.1128448,29.1003681 L0.5271552,29.1003681 C0.236015422,29.1003681 3.56543397e-17,28.8643527 0,28.5732129 L0,27.2422472 C-3.56543397e-17,26.9511074 0.236015422,26.715092 0.5271552,26.715092 Z" id="Rectangle-7" fill="#D8D8D8"></path>
                            <path d="M31.7271552,43.8890798 L39.3128448,43.8890798 C39.6039846,43.8890798 39.84,44.1250952 39.84,44.416235 L39.84,45.7472006 C39.84,46.0383404 39.6039846,46.2743558 39.3128448,46.2743558 L31.7271552,46.2743558 C31.4360154,46.2743558 31.2,46.0383404 31.2,45.7472006 L31.2,44.416235 C31.2,44.1250952 31.4360154,43.8890798 31.7271552,43.8890798 Z" id="Rectangle-7" fill="#D8D8D8"></path>
                            <path d="M59.5671552,22.4215951 L67.1528448,22.4215951 C67.4439846,22.4215951 67.68,22.6576105 67.68,22.9487503 L67.68,24.279716 C67.68,24.5708557 67.4439846,24.8068712 67.1528448,24.8068712 L59.5671552,24.8068712 C59.2760154,24.8068712 59.04,24.5708557 59.04,24.279716 L59.04,22.9487503 C59.04,22.6576105 59.2760154,22.4215951 59.5671552,22.4215951 Z" id="Rectangle-7" fill="#D8D8D8"></path>
                            <path d="M51.8871552,1.43116564 L59.4728448,1.43116564 C59.7639846,1.43116564 60,1.66718107 60,1.95832084 L60,3.28928652 C60,3.5804263 59.7639846,3.81644172 59.4728448,3.81644172 L51.8871552,3.81644172 C51.5960154,3.81644172 51.36,3.5804263 51.36,3.28928652 L51.36,1.95832084 C51.36,1.66718107 51.5960154,1.43116564 51.8871552,1.43116564 Z" id="Rectangle-7" fill="#D8D8D8"></path>
                        </g>
                        <g id="Group-8" transform="translate(0.000000, 51.879755)">
                            <path d="M0.720138002,26.8343558 L15.479862,26.8343558 C15.8775832,26.8343558 16.2,27.1567726 16.2,27.5544938 L16.2,29.0958129 C16.2,29.4935342 15.8775832,29.8159509 15.479862,29.8159509 L0.720138002,29.8159509 C0.322416766,29.8159509 -9.11006035e-14,29.4935342 -9.05941988e-14,29.0958129 L-9.05941988e-14,27.5544938 C-9.06429056e-14,27.1567726 0.322416766,26.8343558 0.720138002,26.8343558 Z" id="Rectangle-7" fill="#D8D8D8"></path>
                            <path d="M6.120138,33.393865 L15.479862,33.393865 C15.8775832,33.393865 16.2,33.7162818 16.2,34.114003 L16.2,35.6553221 C16.2,36.0530434 15.8775832,36.3754601 15.479862,36.3754601 L6.120138,36.3754601 C5.72241677,36.3754601 5.4,36.0530434 5.4,35.6553221 L5.4,34.114003 C5.4,33.7162818 5.72241677,33.393865 6.120138,33.393865 Z" id="Rectangle-7" fill="#D8D8D8"></path>
                            <path d="M6.120138,41.1460123 L15.479862,41.1460123 C15.8775832,41.1460123 16.2,41.468429 16.2,41.8661503 L16.2,43.4074694 C16.2,43.8051906 15.8775832,44.1276074 15.479862,44.1276074 L6.120138,44.1276074 C5.72241677,44.1276074 5.4,43.8051906 5.4,43.4074694 L5.4,41.8661503 C5.4,41.468429 5.72241677,41.1460123 6.120138,41.1460123 Z" id="Rectangle-7" fill="#D8D8D8"></path>
                            <path d="M6.120138,47.7055215 L15.479862,47.7055215 C15.8775832,47.7055215 16.2,48.0279382 16.2,48.4256595 L16.2,49.9669786 C16.2,50.3646998 15.8775832,50.6871166 15.479862,50.6871166 L6.120138,50.6871166 C5.72241677,50.6871166 5.4,50.3646998 5.4,49.9669786 L5.4,48.4256595 C5.4,48.0279382 5.72241677,47.7055215 6.120138,47.7055215 Z" id="Rectangle-7" fill="#D8D8D8"></path>
                            <path d="M46.5672787,60.9092733 L54.1335655,60.8862161 C54.4974885,60.8851071 54.7934054,61.1792259 54.7945144,61.543149 C54.7945185,61.5444853 54.7945185,61.5458217 54.7945145,61.547158 L54.7903945,62.9038881 C54.7892941,63.2662465 54.49582,63.5597238 54.1334616,63.560828 L46.5671748,63.5838853 C46.2032517,63.5849943 45.9073348,63.2908754 45.9062258,62.9269524 C45.9062217,62.925616 45.9062217,62.9242797 45.9062258,62.9229433 L45.9103457,61.5662132 C45.9114461,61.2038548 46.2049203,60.9103775 46.5672787,60.9092733 Z" id="Rectangle-7" fill="#EFEFEF" transform="translate(50.350370, 62.235051) scale(-1, 1) rotate(60.000000) translate(-50.350370, -62.235051) "></path>
                            <path d="M61.7501241,60.9092733 L69.3164109,60.8862161 C69.6803339,60.8851071 69.9762508,61.1792259 69.9773598,61.543149 C69.9773639,61.5444853 69.9773639,61.5458217 69.9773599,61.547158 L69.9732399,62.9038881 C69.9721395,63.2662465 69.6786654,63.5597238 69.316307,63.560828 L61.7500202,63.5838853 C61.3860972,63.5849943 61.0901802,63.2908754 61.0890712,62.9269524 C61.0890671,62.925616 61.0890671,62.9242797 61.0890712,62.9229433 L61.0931911,61.5662132 C61.0942915,61.2038548 61.3877657,60.9103775 61.7501241,60.9092733 Z" id="Rectangle-7" fill="#EFEFEF" transform="translate(65.533216, 62.235051) scale(-1, 1) rotate(60.000000) translate(-65.533216, -62.235051) "></path>
                            <path d="M76.9329695,60.9092733 L84.4992563,60.8862161 C84.8631793,60.8851071 85.1590962,61.1792259 85.1602052,61.543149 C85.1602093,61.5444853 85.1602093,61.5458217 85.1602053,61.547158 L85.1560853,62.9038881 C85.1549849,63.2662465 84.8615108,63.5597238 84.4991524,63.560828 L76.9328656,63.5838853 C76.5689426,63.5849943 76.2730256,63.2908754 76.2719166,62.9269524 C76.2719126,62.925616 76.2719125,62.9242797 76.2719166,62.9229433 L76.2760366,61.5662132 C76.2771369,61.2038548 76.5706111,60.9103775 76.9329695,60.9092733 Z" id="Rectangle-7" fill="#EFEFEF" transform="translate(80.716061, 62.235051) scale(-1, 1) rotate(60.000000) translate(-80.716061, -62.235051) "></path>
                            <path d="M92.1158149,60.9092733 L99.6821017,60.8862161 C100.046025,60.8851071 100.341942,61.1792259 100.343051,61.543149 C100.343055,61.5444853 100.343055,61.5458217 100.343051,61.547158 L100.338931,62.9038881 C100.33783,63.2662465 100.044356,63.5597238 99.6819978,63.560828 L92.115711,63.5838853 C91.751788,63.5849943 91.455871,63.2908754 91.454762,62.9269524 C91.454758,62.925616 91.454758,62.9242797 91.454762,62.9229433 L91.458882,61.5662132 C91.4599823,61.2038548 91.7534565,60.9103775 92.1158149,60.9092733 Z" id="Rectangle-7" fill="#EFEFEF" transform="translate(95.898906, 62.235051) scale(-1, 1) rotate(60.000000) translate(-95.898906, -62.235051) "></path>
                            <path d="M107.29866,60.9092733 L114.864947,60.8862161 C115.22887,60.8851071 115.524787,61.1792259 115.525896,61.543149 C115.5259,61.5444853 115.5259,61.5458217 115.525896,61.547158 L115.521776,62.9038881 C115.520676,63.2662465 115.227202,63.5597238 114.864843,63.560828 L107.298556,63.5838853 C106.934633,63.5849943 106.638716,63.2908754 106.637607,62.9269524 C106.637603,62.925616 106.637603,62.9242797 106.637607,62.9229433 L106.641727,61.5662132 C106.642828,61.2038548 106.936302,60.9103775 107.29866,60.9092733 Z" id="Rectangle-7" fill="#EFEFEF" transform="translate(111.081752, 62.235051) scale(-1, 1) rotate(60.000000) translate(-111.081752, -62.235051) "></path>
                            <path d="M122.481506,60.9092733 L130.047792,60.8862161 C130.411716,60.8851071 130.707632,61.1792259 130.708741,61.543149 C130.708746,61.5444853 130.708746,61.5458217 130.708741,61.547158 L130.704622,62.9038881 C130.703521,63.2662465 130.410047,63.5597238 130.047689,63.560828 L122.481402,63.5838853 C122.117479,63.5849943 121.821562,63.2908754 121.820453,62.9269524 C121.820449,62.925616 121.820449,62.9242797 121.820453,62.9229433 L121.824573,61.5662132 C121.825673,61.2038548 122.119147,60.9103775 122.481506,60.9092733 Z" id="Rectangle-7" fill="#EFEFEF" transform="translate(126.264597, 62.235051) scale(-1, 1) rotate(60.000000) translate(-126.264597, -62.235051) "></path>
                            <path d="M137.664351,60.9092733 L145.230638,60.8862161 C145.594561,60.8851071 145.890478,61.1792259 145.891587,61.543149 C145.891591,61.5444853 145.891591,61.5458217 145.891587,61.547158 L145.887467,62.9038881 C145.886367,63.2662465 145.592892,63.5597238 145.230534,63.560828 L137.664247,63.5838853 C137.300324,63.5849943 137.004407,63.2908754 137.003298,62.9269524 C137.003294,62.925616 137.003294,62.9242797 137.003298,62.9229433 L137.007418,61.5662132 C137.008519,61.2038548 137.301993,60.9103775 137.664351,60.9092733 Z" id="Rectangle-7" fill="#EFEFEF" transform="translate(141.447443, 62.235051) scale(-1, 1) rotate(60.000000) translate(-141.447443, -62.235051) "></path>
                            <path d="M152.847197,60.9092733 L160.413483,60.8862161 C160.777406,60.8851071 161.073323,61.1792259 161.074432,61.543149 C161.074436,61.5444853 161.074436,61.5458217 161.074432,61.547158 L161.070312,62.9038881 C161.069212,63.2662465 160.775738,63.5597238 160.413379,63.560828 L152.847093,63.5838853 C152.48317,63.5849943 152.187253,63.2908754 152.186144,62.9269524 C152.18614,62.925616 152.18614,62.9242797 152.186144,62.9229433 L152.190264,61.5662132 C152.191364,61.2038548 152.484838,60.9103775 152.847197,60.9092733 Z" id="Rectangle-7" fill="#EFEFEF" transform="translate(156.630288, 62.235051) scale(-1, 1) rotate(60.000000) translate(-156.630288, -62.235051) "></path>
                            <path d="M168.030042,60.9092733 L175.596329,60.8862161 C175.960252,60.8851071 176.256169,61.1792259 176.257278,61.543149 C176.257282,61.5444853 176.257282,61.5458217 176.257278,61.547158 L176.253158,62.9038881 C176.252057,63.2662465 175.958583,63.5597238 175.596225,63.560828 L168.029938,63.5838853 C167.666015,63.5849943 167.370098,63.2908754 167.368989,62.9269524 C167.368985,62.925616 167.368985,62.9242797 167.368989,62.9229433 L167.373109,61.5662132 C167.374209,61.2038548 167.667684,60.9103775 168.030042,60.9092733 Z" id="Rectangle-7" fill="#EFEFEF" transform="translate(171.813133, 62.235051) scale(-1, 1) rotate(60.000000) translate(-171.813133, -62.235051) "></path>
                            <path d="M21,32.4727722 C27.7731326,30.5871089 33.121519,20.188053 49.8607595,20.6590521 C66.6,21.1300512 74.6810127,44.3291469 95.4607595,44.3291469 C116.240506,44.3291469 120.149078,15.2818751 137.020253,15.50558 C153.891429,15.729285 161.708571,50.9887699 203.4,26.7418858 L203.4,55.8335745 L21,56.0539877 L21,32.4727722 Z" id="Path-2" fill="#30C9BA"></path>
                            <path d="M21,39.5266302 C45.8202532,42.5219641 54.0132508,21.0554045 68.3216037,21.0554045 C82.6299567,21.0554045 87.3797468,36.758347 95.4607595,36.758347 C103.541772,36.758347 105.273418,28.044517 112.777215,28.044517 C120.281013,28.044517 126.66723,38.3029505 132.979747,38.3029505 C139.292264,38.3029505 163.115559,18.4903229 175.176767,18.4903229 C183.336,18.2701115 191.278481,26.3387067 203.4,23.7346856 L203.4,55.8287527 L21,56.0539877 L21,39.5266302 Z" id="Path-2" fill-opacity="0.58241368" fill="#27A7EE"></path>
                            <rect id="Rectangle-2" fill="#D2D2D2" x="208.8" y="29.8159509" width="3" height="2.98159509"></rect>
                            <rect id="Rectangle-2-Copy" fill="#888888" opacity="0.822884115" x="208.8" y="36.3754601" width="3" height="2.98159509"></rect>
                            <g id="Group-9" transform="translate(141.600000, 0.000000)">
                                <path d="M0.84344832,0 L38.6047799,0 C39.0706036,-8.55704153e-17 39.4482282,0.377624676 39.4482282,0.84344832 L39.4482282,14.636938 C39.4482282,15.1027616 39.0706036,15.4803863 38.6047799,15.4803863 L0.84344832,15.4803863 C0.377624676,15.4803863 2.79091548e-16,15.1027616 0,14.636938 L0,0.84344832 C-5.70469435e-17,0.377624676 0.377624676,3.0761502e-16 0.84344832,0 Z" id="tooltip-box" fill="#B6B6B6"></path>
                                <path d="M4.20346371,2.58006438 L24.4861568,2.58006438 C24.8270607,2.58006438 25.103418,2.85642161 25.103418,3.19732552 L25.103418,3.68284615 C25.103418,4.02375007 24.8270607,4.3001073 24.4861568,4.3001073 L4.20346371,4.3001073 C3.86255979,4.3001073 3.58620257,4.02375007 3.58620257,3.68284615 L3.58620257,3.19732552 C3.58620257,2.85642161 3.86255979,2.58006438 4.20346371,2.58006438 Z" id="text-1" fill-opacity="0.8" fill="#D8D8D8"></path>
                                <path d="M4.20346371,6.88017168 L29.8654607,6.88017168 C30.2063646,6.88017168 30.4827218,7.1565289 30.4827218,7.49743282 L30.4827218,7.98295345 C30.4827218,8.32385737 30.2063646,8.6002146 29.8654607,8.6002146 L4.20346371,8.6002146 C3.86255979,8.6002146 3.58620257,8.32385737 3.58620257,7.98295345 L3.58620257,7.49743282 C3.58620257,7.1565289 3.86255979,6.88017168 4.20346371,6.88017168 Z" id="text-2" fill-opacity="0.8" fill="#D8D8D8"></path>
                                <path d="M4.20346371,11.180279 L35.2447645,11.180279 C35.5856684,11.180279 35.8620257,11.4566362 35.8620257,11.7975401 L35.8620257,12.2830607 C35.8620257,12.6239647 35.5856684,12.9003219 35.2447645,12.9003219 L4.20346371,12.9003219 C3.86255979,12.9003219 3.58620257,12.6239647 3.58620257,12.2830607 L3.58620257,11.7975401 C3.58620257,11.4566362 3.86255979,11.180279 4.20346371,11.180279 Z" id="text-3" fill-opacity="0.8" fill="#D8D8D8"></path>
                            </g>
                            <ellipse id="Oval" stroke="#FFFFFF" stroke-width="0.5" fill="#4D5154" cx="136.2" cy="14.9079755" rx="1.8" ry="1.78895706"></ellipse>
                        </g>
                        <g id="bar-chart-1" transform="translate(105.000000, 2.981595)">
                            <path d="M0.720138002,1.75619998 L13.5884059,1.75619998 C13.9861271,1.75619998 14.3085439,2.07861674 14.3085439,2.47633798 L14.3085439,3.67036194 C14.3085439,4.06808318 13.9861271,4.39049994 13.5884059,4.39049994 L0.720138002,4.39049994 C0.322416766,4.39049994 3.81773711e-16,4.06808318 0,3.67036194 L0,2.47633798 C-4.87068039e-17,2.07861674 0.322416766,1.75619998 0.720138002,1.75619998 Z" id="Rectangle-7" fill="#D8D8D8"></path>
                            <path d="M4.29727398,9.65909988 L13.5884059,9.65909988 C13.9861271,9.65909988 14.3085439,9.98151664 14.3085439,10.3792379 L14.3085439,11.5732618 C14.3085439,11.9709831 13.9861271,12.2933998 13.5884059,12.2933998 L4.29727398,12.2933998 C3.89955274,12.2933998 3.57713597,11.9709831 3.57713597,11.5732618 L3.57713597,10.3792379 C3.57713597,9.98151664 3.89955274,9.65909988 4.29727398,9.65909988 Z" id="Rectangle-7" fill="#D8D8D8"></path>
                            <path d="M4.29727398,17.5619998 L13.5884059,17.5619998 C13.9861271,17.5619998 14.3085439,17.8844165 14.3085439,18.2821378 L14.3085439,19.4761617 C14.3085439,19.873883 13.9861271,20.1962997 13.5884059,20.1962997 L4.29727398,20.1962997 C3.89955274,20.1962997 3.57713597,19.873883 3.57713597,19.4761617 L3.57713597,18.2821378 C3.57713597,17.8844165 3.89955274,17.5619998 4.29727398,17.5619998 Z" id="Rectangle-7" fill="#D8D8D8"></path>
                            <path d="M4.29727398,25.4648997 L13.5884059,25.4648997 C13.9861271,25.4648997 14.3085439,25.7873164 14.3085439,26.1850377 L14.3085439,27.3790616 C14.3085439,27.7767829 13.9861271,28.0991996 13.5884059,28.0991996 L4.29727398,28.0991996 C3.89955274,28.0991996 3.57713597,27.7767829 3.57713597,27.3790616 L3.57713597,26.1850377 C3.57713597,25.7873164 3.89955274,25.4648997 4.29727398,25.4648997 Z" id="Rectangle-7" fill="#D8D8D8"></path>
                            <path d="M14.8317403,35.0983977 L22.7629896,35.0425918 C23.0056001,35.0408848 23.2036586,35.2361756 23.2053656,35.478786 C23.20538,35.4808346 23.2053801,35.4828832 23.2053659,35.4849318 L23.1990785,36.3890619 C23.197408,36.629276 23.0030979,36.823602 22.762884,36.8252922 L14.8316347,36.8810981 C14.5890242,36.8828052 14.3909657,36.6875144 14.3892587,36.4449039 C14.3892443,36.4428553 14.3892442,36.4408067 14.3892584,36.4387582 L14.3955458,35.534628 C14.3972163,35.294414 14.5915264,35.1000879 14.8317403,35.0983977 Z" id="Rectangle-7" fill="#EFEFEF" transform="translate(18.797312, 35.961845) scale(-1, 1) rotate(65.000000) translate(-18.797312, -35.961845) "></path>
                            <path d="M24.6688642,35.0983977 L32.6001135,35.0425918 C32.842724,35.0408848 33.0407825,35.2361756 33.0424896,35.478786 C33.042504,35.4808346 33.0425041,35.4828832 33.0424898,35.4849318 L33.0362024,36.3890619 C33.0345319,36.629276 32.8402219,36.823602 32.6000079,36.8252922 L24.6687586,36.8810981 C24.4261482,36.8828052 24.2280897,36.6875144 24.2263826,36.4449039 C24.2263682,36.4428553 24.2263681,36.4408067 24.2263824,36.4387582 L24.2326698,35.534628 C24.2343402,35.294414 24.4286503,35.1000879 24.6688642,35.0983977 Z" id="Rectangle-7" fill="#EFEFEF" transform="translate(28.634436, 35.961845) scale(-1, 1) rotate(65.000000) translate(-28.634436, -35.961845) "></path>
                            <path d="M34.510813,35.0983977 L42.4420623,35.0425918 C42.6846728,35.0408848 42.8827312,35.2361756 42.8844383,35.478786 C42.8844527,35.4808346 42.8844528,35.4828832 42.8844386,35.4849318 L42.8781511,36.3890619 C42.8764807,36.629276 42.6821706,36.823602 42.4419567,36.8252922 L34.5107074,36.8810981 C34.2680969,36.8828052 34.0700384,36.6875144 34.0683314,36.4449039 C34.0683169,36.4428553 34.0683169,36.4408067 34.0683311,36.4387582 L34.0746185,35.534628 C34.076289,35.294414 34.2705991,35.1000879 34.510813,35.0983977 Z" id="Rectangle-7" fill="#EFEFEF" transform="translate(38.476385, 35.961845) scale(-1, 1) rotate(65.000000) translate(-38.476385, -35.961845) "></path>
                            <path d="M44.3479369,35.0983977 L52.2791862,35.0425918 C52.5217967,35.0408848 52.7198552,35.2361756 52.7215622,35.478786 C52.7215766,35.4808346 52.7215767,35.4828832 52.7215625,35.4849318 L52.7152751,36.3890619 C52.7136046,36.629276 52.5192945,36.823602 52.2790806,36.8252922 L44.3478313,36.8810981 C44.1052208,36.8828052 43.9071623,36.6875144 43.9054553,36.4449039 C43.9054409,36.4428553 43.9054408,36.4408067 43.905455,36.4387582 L43.9117424,35.534628 C43.9134129,35.294414 44.107723,35.1000879 44.3479369,35.0983977 Z" id="Rectangle-7" fill="#EFEFEF" transform="translate(48.313509, 35.961845) scale(-1, 1) rotate(65.000000) translate(-48.313509, -35.961845) "></path>
                            <path d="M54.1850608,35.0983977 L62.1163101,35.0425918 C62.3589206,35.0408848 62.5569791,35.2361756 62.5586862,35.478786 C62.5587006,35.4808346 62.5587007,35.4828832 62.5586864,35.4849318 L62.552399,36.3890619 C62.5507285,36.629276 62.3564184,36.823602 62.1162045,36.8252922 L54.1849552,36.8810981 C53.9423448,36.8828052 53.7442863,36.6875144 53.7425792,36.4449039 C53.7425648,36.4428553 53.7425647,36.4408067 53.742579,36.4387582 L53.7488664,35.534628 C53.7505368,35.294414 53.9448469,35.1000879 54.1850608,35.0983977 Z" id="Rectangle-7" fill="#EFEFEF" transform="translate(58.150633, 35.961845) scale(-1, 1) rotate(65.000000) translate(-58.150633, -35.961845) "></path>
                            <path d="M64.0221848,35.0983977 L71.9534341,35.0425918 C72.1960445,35.0408848 72.394103,35.2361756 72.3958101,35.478786 C72.3958245,35.4808346 72.3958246,35.4828832 72.3958103,35.4849318 L72.3895229,36.3890619 C72.3878525,36.629276 72.1935424,36.823602 71.9533285,36.8252922 L64.0220792,36.8810981 C63.7794687,36.8828052 63.5814102,36.6875144 63.5797031,36.4449039 C63.5796887,36.4428553 63.5796886,36.4408067 63.5797029,36.4387582 L63.5859903,35.534628 C63.5876608,35.294414 63.7819709,35.1000879 64.0221848,35.0983977 Z" id="Rectangle-7" fill="#EFEFEF" transform="translate(67.987757, 35.961845) scale(-1, 1) rotate(65.000000) translate(-67.987757, -35.961845) "></path>
                            <path d="M73.8593087,35.0983977 L81.790558,35.0425918 C82.0331685,35.0408848 82.231227,35.2361756 82.232934,35.478786 C82.2329484,35.4808346 82.2329485,35.4828832 82.2329343,35.4849318 L82.2266469,36.3890619 C82.2249764,36.629276 82.0306663,36.823602 81.7904524,36.8252922 L73.8592031,36.8810981 C73.6165926,36.8828052 73.4185341,36.6875144 73.4168271,36.4449039 C73.4168127,36.4428553 73.4168126,36.4408067 73.4168268,36.4387582 L73.4231142,35.534628 C73.4247847,35.294414 73.6190948,35.1000879 73.8593087,35.0983977 Z" id="Rectangle-7" fill="#EFEFEF" transform="translate(77.824881, 35.961845) scale(-1, 1) rotate(65.000000) translate(-77.824881, -35.961845) "></path>
                            <path d="M83.6953579,35.0983977 L91.6266072,35.0425918 C91.8692176,35.0408848 92.0672761,35.2361756 92.0689832,35.478786 C92.0689976,35.4808346 92.0689977,35.4828832 92.0689834,35.4849318 L92.062696,36.3890619 C92.0610256,36.629276 91.8667155,36.823602 91.6265016,36.8252922 L83.6952523,36.8810981 C83.4526418,36.8828052 83.2545833,36.6875144 83.2528762,36.4449039 C83.2528618,36.4428553 83.2528617,36.4408067 83.252876,36.4387582 L83.2591634,35.534628 C83.2608339,35.294414 83.4551439,35.1000879 83.6953579,35.0983977 Z" id="Rectangle-7" fill="#EFEFEF" transform="translate(87.660930, 35.961845) scale(-1, 1) rotate(65.000000) translate(-87.660930, -35.961845) "></path>
                            <path d="M93.531407,35.0983977 L101.462656,35.0425918 C101.705267,35.0408848 101.903325,35.2361756 101.905032,35.478786 C101.905047,35.4808346 101.905047,35.4828832 101.905033,35.4849318 L101.898745,36.3890619 C101.897075,36.629276 101.702765,36.823602 101.462551,36.8252922 L93.5313014,36.8810981 C93.288691,36.8828052 93.0906325,36.6875144 93.0889254,36.4449039 C93.088911,36.4428553 93.0889109,36.4408067 93.0889252,36.4387582 L93.0952126,35.534628 C93.096883,35.294414 93.2911931,35.1000879 93.531407,35.0983977 Z" id="Rectangle-7" fill="#EFEFEF" transform="translate(97.496979, 35.961845) scale(-1, 1) rotate(65.000000) translate(-97.496979, -35.961845) "></path>
                            <polygon id="Rectangle-7" fill="#F1AB16" transform="translate(20.568532, 24.586800) rotate(-90.000000) translate(-20.568532, -24.586800) " points="15.2999319 21.9039477 25.8371318 21.9039477 25.8371318 27.2696517 15.2999319 27.2696517"></polygon>
                            <polygon id="Rectangle-7" fill="#EF6C00" transform="translate(30.405656, 23.708700) rotate(-90.000000) translate(-30.405656, -23.708700) " points="24.2589559 21.0258477 36.5523557 21.0258477 36.5523557 26.3915517 24.2589559 26.3915517"></polygon>
                            <polygon id="Rectangle-7" fill="#FE6214" transform="translate(40.242780, 20.196300) rotate(-90.000000) translate(-40.242780, -20.196300) " points="30.5836798 17.5134478 49.9018796 17.5134478 49.9018796 22.8791517 30.5836798 22.8791517"></polygon>
                            <polygon id="Rectangle-7" fill="#F1AB16" transform="translate(50.079904, 26.343000) rotate(-90.000000) translate(-50.079904, -26.343000) " points="46.5675037 23.6601477 53.5923036 23.6601477 53.5923036 29.0258516 46.5675037 29.0258516"></polygon>
                            <polygon id="Rectangle-7" fill="#FE6214" transform="translate(59.917028, 19.318200) rotate(-90.000000) translate(-59.917028, -19.318200) " points="49.3798277 16.6353478 70.4542274 16.6353478 70.4542274 22.0010517 49.3798277 22.0010517"></polygon>
                            <polygon id="Rectangle-7" fill="#F1AB16" transform="translate(69.754151, 25.464900) rotate(-90.000000) translate(-69.754151, -25.464900) " points="65.3636515 22.7820477 74.1446514 22.7820477 74.1446514 28.1477517 65.3636515 28.1477517"></polygon>
                            <polygon id="Rectangle-7" fill="#E0312C" transform="translate(79.591275, 14.927700) rotate(-90.000000) translate(-79.591275, -14.927700) " points="64.6635756 12.2448478 94.5189752 12.2448478 94.5189752 17.6105518 64.6635756 17.6105518"></polygon>
                            <polygon id="Rectangle-7" fill="#E0312C" transform="translate(89.428399, 16.683900) rotate(-90.000000) translate(-89.428399, -16.683900) " points="76.2568995 14.0010478 102.599899 14.0010478 102.599899 19.3667518 76.2568995 19.3667518"></polygon>
                            <polygon id="Rectangle-7" fill="#FE6214" transform="translate(99.265523, 21.074400) rotate(-90.000000) translate(-99.265523, -21.074400) " points="90.4845234 18.3915477 108.046523 18.3915477 108.046523 23.7572517 90.4845234 23.7572517"></polygon>
                        </g>
                    </g>
                </g>
            </g>
        </g>
    </g>
</svg>