<svg width="425" height="239" viewBox="0 0 425 239" fill="none" xmlns="http://www.w3.org/2000/svg">
<g id="Group 10">
<g id="Group">
<g id="ring2">
<path id="Fill 1" fill-rule="evenodd" clip-rule="evenodd" d="M67.8488 12.7179C67.9841 12.7179 68.1158 12.7263 68.2511 12.7282L68.1091 0.958768C68.022 0.957826 67.9359 0.952179 67.8488 0.952179C46.2074 0.952179 28.3855 17.1766 25.9967 38.0555L37.8319 38.7812C39.8259 24.0666 52.4999 12.7179 67.8488 12.7179Z" fill="#9F5DD2"/>
<path id="Fill 3" fill-rule="evenodd" clip-rule="evenodd" d="M68.1095 0.958588L68.2506 12.728C77.9905 12.8542 86.6178 17.5492 92.0715 24.7535L102.61 19.1794C95.0644 8.24391 82.4376 1.04518 68.1095 0.958588Z" fill="#30C9BA"/>
<path id="Fill 5" fill-rule="evenodd" clip-rule="evenodd" d="M102.611 19.1793L92.0709 24.7534C95.8837 29.7892 98.1466 36.0485 98.1466 42.8378C98.1466 50.0958 95.5637 56.7542 91.2623 61.9547L101.436 68.1218C106.797 61.0953 109.982 52.3379 109.982 42.8378C109.982 34.0559 107.257 25.9112 102.611 19.1793Z" fill="#F1AB16"/>
<path id="Fill 7" fill-rule="evenodd" clip-rule="evenodd" d="M91.262 61.9546C85.7051 68.6733 77.2803 72.9579 67.8482 72.9579C56.5773 72.9579 46.7503 66.835 41.5324 57.7566L32.6721 65.8862C40.2097 77.2331 53.147 84.7236 67.8482 84.7236C81.5628 84.7236 93.7417 78.2073 101.435 68.1217L91.262 61.9546Z" fill="#FE6214"/>
<path id="Fill 9" fill-rule="evenodd" clip-rule="evenodd" d="M37.5506 42.8381C37.5506 41.461 37.6519 40.1094 37.8318 38.7813L25.9967 38.0555C25.8168 39.6265 25.7155 41.22 25.7155 42.8381C25.7155 51.3555 28.2794 59.2743 32.6726 65.8856L41.532 57.757C39.0031 53.3575 37.5506 48.2682 37.5506 42.8381Z" fill="#3FB582"/>
</g>
<path id="Rectangle 7" fill-rule="evenodd" clip-rule="evenodd" d="M3.65369 10.5886C3.65369 10.0064 4.12572 9.53433 4.708 9.53433H19.865C20.4473 9.53433 20.9194 10.0064 20.9194 10.5886V13.2479C20.9194 13.8302 20.4473 14.3022 19.865 14.3022H4.708C4.12572 14.3022 3.65369 13.8302 3.65369 13.2479V10.5886Z" fill="#D8D8D8"/>
<path id="Rectangle 7_2" fill-rule="evenodd" clip-rule="evenodd" d="M0.776123 55.4065C0.776123 54.8243 1.24815 54.3522 1.83043 54.3522H16.9875C17.5698 54.3522 18.0418 54.8243 18.0418 55.4065V58.0658C18.0418 58.6481 17.5698 59.1201 16.9875 59.1201H1.83043C1.24815 59.1201 0.776123 58.6481 0.776123 58.0658V55.4065Z" fill="#D8D8D8"/>
<path id="Rectangle 7_3" fill-rule="evenodd" clip-rule="evenodd" d="M63.1244 89.7351C63.1244 89.1528 63.5964 88.6808 64.1787 88.6808H79.3358C79.918 88.6808 80.3901 89.1528 80.3901 89.7351V92.3944C80.3901 92.9766 79.918 93.4487 79.3358 93.4487H64.1787C63.5964 93.4487 63.1244 92.9766 63.1244 92.3944V89.7351Z" fill="#D8D8D8"/>
<path id="Rectangle 7_4" fill-rule="evenodd" clip-rule="evenodd" d="M118.758 46.8244C118.758 46.2421 119.23 45.7701 119.812 45.7701H134.97C135.552 45.7701 136.024 46.2421 136.024 46.8244V49.4836C136.024 50.0659 135.552 50.5379 134.97 50.5379H119.812C119.23 50.5379 118.758 50.0659 118.758 49.4836V46.8244Z" fill="#D8D8D8"/>
<path id="Rectangle 7_5" fill-rule="evenodd" clip-rule="evenodd" d="M103.411 4.86721C103.411 4.28493 103.883 3.8129 104.465 3.8129H119.622C120.205 3.8129 120.677 4.28493 120.677 4.86721V7.52645C120.677 8.10873 120.205 8.58076 119.622 8.58076H104.465C103.883 8.58076 103.411 8.10873 103.411 7.52645V4.86721Z" fill="#D8D8D8"/>
</g>
<g id="Group 8">
<path id="Rectangle 7_6" fill-rule="evenodd" clip-rule="evenodd" d="M0.776123 159.732C0.776123 158.936 1.42096 158.292 2.2164 158.292H31.709C32.5044 158.292 33.1493 158.936 33.1493 159.732V162.811C33.1493 163.607 32.5044 164.251 31.709 164.251H2.2164C1.42095 164.251 0.776123 163.607 0.776123 162.811V159.732Z" fill="#D8D8D8"/>
<path id="Rectangle 7_7" fill-rule="evenodd" clip-rule="evenodd" d="M11.5671 172.843C11.5671 172.048 12.212 171.403 13.0074 171.403H31.709C32.5044 171.403 33.1492 172.048 33.1492 172.843V175.923C33.1492 176.718 32.5044 177.363 31.709 177.363H13.0074C12.212 177.363 11.5671 176.718 11.5671 175.923V172.843Z" fill="#D8D8D8"/>
<path id="Rectangle 7_8" fill-rule="evenodd" clip-rule="evenodd" d="M11.5671 188.339C11.5671 187.544 12.212 186.899 13.0074 186.899H31.709C32.5044 186.899 33.1492 187.544 33.1492 188.339V191.418C33.1492 192.214 32.5044 192.859 31.709 192.859H13.0074C12.212 192.859 11.5671 192.214 11.5671 191.418V188.339Z" fill="#D8D8D8"/>
<path id="Rectangle 7_9" fill-rule="evenodd" clip-rule="evenodd" d="M11.5671 201.451C11.5671 200.655 12.212 200.01 13.0074 200.01H31.709C32.5044 200.01 33.1492 200.655 33.1492 201.451V204.53C33.1492 205.325 32.5044 205.97 31.709 205.97H13.0074C12.212 205.97 11.5671 205.325 11.5671 204.53V201.451Z" fill="#D8D8D8"/>
<path id="Rectangle 7_10" fill-rule="evenodd" clip-rule="evenodd" d="M104.673 220.699C104.045 220.339 103.243 220.554 102.878 221.18L95.2793 234.253C94.912 234.885 95.1291 235.695 95.7631 236.059L98.1134 237.407C98.7422 237.767 99.5442 237.553 99.9084 236.926L107.507 223.853C107.875 223.221 107.658 222.411 107.024 222.047L104.673 220.699Z" fill="#EFEFEF"/>
<path id="Rectangle 7_11" fill-rule="evenodd" clip-rule="evenodd" d="M135.014 220.699C134.385 220.339 133.583 220.554 133.219 221.18L125.62 234.253C125.252 234.885 125.47 235.695 126.104 236.059L128.454 237.407C129.083 237.767 129.885 237.553 130.249 236.926L137.848 223.853C138.215 223.221 137.998 222.411 137.364 222.047L135.014 220.699Z" fill="#EFEFEF"/>
<path id="Rectangle 7_12" fill-rule="evenodd" clip-rule="evenodd" d="M165.354 220.699C164.726 220.339 163.924 220.554 163.559 221.18L155.96 234.253C155.593 234.885 155.81 235.695 156.444 236.059L158.794 237.407C159.423 237.767 160.225 237.553 160.589 236.926L168.189 223.853C168.556 223.221 168.339 222.411 167.705 222.047L165.354 220.699Z" fill="#EFEFEF"/>
<path id="Rectangle 7_13" fill-rule="evenodd" clip-rule="evenodd" d="M195.695 220.699C195.066 220.339 194.264 220.554 193.9 221.18L186.301 234.253C185.933 234.885 186.151 235.695 186.785 236.059L189.135 237.407C189.764 237.767 190.566 237.553 190.93 236.926L198.529 223.853C198.896 223.221 198.679 222.411 198.045 222.047L195.695 220.699Z" fill="#EFEFEF"/>
<path id="Rectangle 7_14" fill-rule="evenodd" clip-rule="evenodd" d="M226.035 220.699C225.407 220.339 224.605 220.554 224.24 221.18L216.641 234.253C216.274 234.885 216.491 235.695 217.125 236.059L219.475 237.407C220.104 237.767 220.906 237.553 221.27 236.926L228.87 223.853C229.237 223.221 229.02 222.411 228.386 222.047L226.035 220.699Z" fill="#EFEFEF"/>
<path id="Rectangle 7_15" fill-rule="evenodd" clip-rule="evenodd" d="M256.376 220.699C255.747 220.339 254.945 220.554 254.581 221.18L246.982 234.253C246.615 234.885 246.832 235.695 247.466 236.059L249.816 237.407C250.445 237.767 251.247 237.553 251.611 236.926L259.21 223.853C259.577 223.221 259.36 222.411 258.726 222.047L256.376 220.699Z" fill="#EFEFEF"/>
<path id="Rectangle 7_16" fill-rule="evenodd" clip-rule="evenodd" d="M286.716 220.699C286.088 220.339 285.286 220.554 284.921 221.18L277.322 234.253C276.955 234.885 277.172 235.695 277.806 236.059L280.156 237.407C280.785 237.767 281.587 237.553 281.951 236.926L289.55 223.853C289.918 223.221 289.701 222.411 289.067 222.047L286.716 220.699Z" fill="#EFEFEF"/>
<path id="Rectangle 7_17" fill-rule="evenodd" clip-rule="evenodd" d="M317.057 220.699C316.428 220.339 315.626 220.554 315.262 221.18L307.663 234.253C307.296 234.885 307.513 235.695 308.147 236.059L310.497 237.407C311.126 237.767 311.928 237.553 312.292 236.926L319.891 223.853C320.258 223.221 320.041 222.411 319.407 222.047L317.057 220.699Z" fill="#EFEFEF"/>
<path id="Rectangle 7_18" fill-rule="evenodd" clip-rule="evenodd" d="M347.397 220.699C346.769 220.339 345.967 220.554 345.602 221.18L338.003 234.253C337.636 234.885 337.853 235.695 338.487 236.059L340.838 237.407C341.466 237.767 342.268 237.553 342.633 236.926L350.232 223.853C350.599 223.221 350.382 222.411 349.748 222.047L347.397 220.699Z" fill="#EFEFEF"/>
<path id="Path 2" fill-rule="evenodd" clip-rule="evenodd" d="M42.7413 169.562C56.2764 165.793 66.9643 145.006 100.415 145.948C133.866 146.889 150.014 193.261 191.539 193.261C233.064 193.261 240.875 135.2 274.589 135.647C308.304 136.094 323.925 206.573 407.239 158.107V216.257L42.7413 216.698V169.562Z" fill="#30C9BA"/>
<path id="Path 2_2" fill-rule="evenodd" clip-rule="evenodd" d="M42.7413 183.662C92.3407 189.649 108.713 146.74 137.306 146.74C165.899 146.74 175.391 178.128 191.539 178.128C207.688 178.128 211.148 160.711 226.144 160.711C241.139 160.711 253.901 181.216 266.515 181.216C279.13 181.216 326.737 141.613 350.839 141.613C367.144 141.173 383.016 157.301 407.239 152.096V216.248L42.7413 216.698V183.662Z" fill="#27A7EE" fill-opacity="0.582414"/>
<rect id="Rectangle 2" x="418.03" y="164.251" width="5.99502" height="5.95983" fill="#D2D2D2"/>
<rect id="Rectangle 2 Copy" opacity="0.822884" x="418.03" y="177.363" width="5.99502" height="5.95983" fill="#888888"/>
<g id="Group 9">
<path id="tooltip box" fill-rule="evenodd" clip-rule="evenodd" d="M283.741 106.34C283.741 105.408 284.497 104.653 285.428 104.653H360.885C361.817 104.653 362.572 105.408 362.572 106.34V133.91C362.572 134.841 361.817 135.596 360.885 135.596H285.428C284.497 135.596 283.741 134.841 283.741 133.91V106.34Z" fill="#B6B6B6"/>
<path id="text 1" fill-rule="evenodd" clip-rule="evenodd" d="M290.908 111.045C290.908 110.363 291.461 109.81 292.142 109.81H332.672C333.354 109.81 333.907 110.363 333.907 111.045V112.014C333.907 112.696 333.354 113.249 332.672 113.249H292.142C291.461 113.249 290.908 112.696 290.908 112.014V111.045Z" fill="#D8D8D8" fill-opacity="0.8"/>
<path id="text 2" fill-rule="evenodd" clip-rule="evenodd" d="M290.908 119.64C290.908 118.958 291.461 118.406 292.142 118.406H343.422C344.104 118.406 344.656 118.958 344.656 119.64V120.609C344.656 121.291 344.104 121.844 343.422 121.844H292.142C291.461 121.844 290.908 121.291 290.908 120.609V119.64Z" fill="#D8D8D8" fill-opacity="0.8"/>
<path id="text 3" fill-rule="evenodd" clip-rule="evenodd" d="M290.908 128.236C290.908 127.554 291.461 127.001 292.142 127.001H354.171C354.853 127.001 355.406 127.554 355.406 128.236V129.205C355.406 129.887 354.853 130.439 354.171 130.439H292.142C291.461 130.439 290.908 129.887 290.908 129.205V128.236Z" fill="#D8D8D8" fill-opacity="0.8"/>
</g>
<ellipse id="Oval" cx="272.95" cy="134.452" rx="3.59701" ry="3.5759" fill="#4D5154" stroke="white"/>
</g>
<g id="bar chart 1">
<path id="Rectangle 7_19" fill-rule="evenodd" clip-rule="evenodd" d="M210.602 11.8627C210.602 11.0673 211.247 10.4224 212.042 10.4224H237.755C238.551 10.4224 239.195 11.0673 239.195 11.8627V14.2478C239.195 15.0432 238.551 15.6881 237.755 15.6881H212.042C211.247 15.6881 210.602 15.0432 210.602 14.2478V11.8627Z" fill="#D8D8D8"/>
<path id="Rectangle 7_20" fill-rule="evenodd" clip-rule="evenodd" d="M217.75 27.6596C217.75 26.8642 218.395 26.2193 219.191 26.2193H237.755C238.551 26.2193 239.195 26.8642 239.195 27.6596V30.0447C239.195 30.8401 238.551 31.485 237.755 31.485H219.191C218.395 31.485 217.75 30.8401 217.75 30.0447V27.6596Z" fill="#D8D8D8"/>
<path id="Rectangle 7_21" fill-rule="evenodd" clip-rule="evenodd" d="M217.75 43.4565C217.75 42.661 218.395 42.0162 219.191 42.0162H237.755C238.551 42.0162 239.195 42.661 239.195 43.4565V45.8416C239.195 46.637 238.551 47.2818 237.755 47.2818H219.191C218.395 47.2818 217.75 46.637 217.75 45.8416V43.4565Z" fill="#D8D8D8"/>
<path id="Rectangle 7_22" fill-rule="evenodd" clip-rule="evenodd" d="M217.75 59.2534C217.75 58.4579 218.395 57.8131 219.191 57.8131H237.755C238.551 57.8131 239.195 58.4579 239.195 59.2534V61.6384C239.195 62.4339 238.551 63.0787 237.755 63.0787H219.191C218.395 63.0787 217.75 62.4339 217.75 61.6384V59.2534Z" fill="#D8D8D8"/>
<path id="Rectangle 7_23" fill-rule="evenodd" clip-rule="evenodd" d="M251.11 70.4604C250.673 70.2603 250.157 70.4483 249.95 70.8824L243.152 85.2024C242.941 85.6451 243.134 86.174 243.579 86.3781L245.221 87.1299C245.658 87.33 246.174 87.142 246.381 86.7079L253.179 72.3878C253.39 71.9452 253.197 71.4162 252.752 71.2122L251.11 70.4604Z" fill="#EFEFEF"/>
<path id="Rectangle 7_24" fill-rule="evenodd" clip-rule="evenodd" d="M270.768 70.4604C270.331 70.2603 269.815 70.4483 269.608 70.8824L262.81 85.2024C262.599 85.6451 262.792 86.174 263.237 86.3781L264.879 87.1299C265.316 87.33 265.832 87.142 266.039 86.7079L272.837 72.3878C273.047 71.9452 272.855 71.4162 272.41 71.2122L270.768 70.4604Z" fill="#EFEFEF"/>
<path id="Rectangle 7_25" fill-rule="evenodd" clip-rule="evenodd" d="M290.436 70.4604C289.999 70.2603 289.482 70.4483 289.276 70.8824L282.477 85.2024C282.267 85.6451 282.46 86.174 282.905 86.3781L284.547 87.1299C284.983 87.33 285.5 87.142 285.706 86.7079L292.505 72.3878C292.715 71.9452 292.523 71.4162 292.077 71.2122L290.436 70.4604Z" fill="#EFEFEF"/>
<path id="Rectangle 7_26" fill-rule="evenodd" clip-rule="evenodd" d="M310.093 70.4604C309.657 70.2603 309.14 70.4483 308.934 70.8824L302.135 85.2024C301.925 85.6451 302.117 86.174 302.563 86.3781L304.204 87.1299C304.641 87.33 305.158 87.142 305.364 86.7079L312.163 72.3878C312.373 71.9452 312.18 71.4162 311.735 71.2122L310.093 70.4604Z" fill="#EFEFEF"/>
<path id="Rectangle 7_27" fill-rule="evenodd" clip-rule="evenodd" d="M329.751 70.4604C329.314 70.2603 328.798 70.4483 328.592 70.8824L321.793 85.2024C321.583 85.6451 321.775 86.174 322.221 86.3781L323.862 87.1299C324.299 87.33 324.816 87.142 325.022 86.7079L331.821 72.3878C332.031 71.9452 331.838 71.4162 331.393 71.2122L329.751 70.4604Z" fill="#EFEFEF"/>
<path id="Rectangle 7_28" fill-rule="evenodd" clip-rule="evenodd" d="M349.409 70.4604C348.972 70.2603 348.456 70.4483 348.25 70.8824L341.451 85.2024C341.241 85.6451 341.433 86.174 341.879 86.3781L343.52 87.1299C343.957 87.33 344.474 87.142 344.68 86.7079L351.479 72.3878C351.689 71.9452 351.496 71.4162 351.051 71.2122L349.409 70.4604Z" fill="#EFEFEF"/>
<path id="Rectangle 7_29" fill-rule="evenodd" clip-rule="evenodd" d="M369.067 70.4604C368.63 70.2603 368.114 70.4483 367.908 70.8824L361.109 85.2024C360.899 85.6451 361.091 86.174 361.537 86.3781L363.178 87.1299C363.615 87.33 364.132 87.142 364.338 86.7079L371.137 72.3878C371.347 71.9452 371.154 71.4162 370.709 71.2122L369.067 70.4604Z" fill="#EFEFEF"/>
<path id="Rectangle 7_30" fill-rule="evenodd" clip-rule="evenodd" d="M388.723 70.4604C388.286 70.2603 387.77 70.4483 387.564 70.8824L380.765 85.2024C380.555 85.6451 380.747 86.174 381.193 86.3781L382.834 87.1299C383.271 87.33 383.787 87.142 383.994 86.7079L390.792 72.3878C391.003 71.9452 390.81 71.4162 390.365 71.2122L388.723 70.4604Z" fill="#EFEFEF"/>
<path id="Rectangle 7_31" fill-rule="evenodd" clip-rule="evenodd" d="M408.379 70.4604C407.942 70.2603 407.425 70.4483 407.219 70.8824L400.42 85.2024C400.21 85.6451 400.403 86.174 400.848 86.3781L402.49 87.1299C402.927 87.33 403.443 87.142 403.649 86.7079L410.448 72.3878C410.658 71.9452 410.466 71.4162 410.02 71.2122L408.379 70.4604Z" fill="#EFEFEF"/>
<path id="Rectangle 7_32" fill-rule="evenodd" clip-rule="evenodd" d="M246.344 66.5891V45.5266H257.066V66.5891H246.344Z" fill="#F1AB16"/>
<path id="Rectangle 7_33" fill-rule="evenodd" clip-rule="evenodd" d="M266.002 66.5891V42.0162H276.724V66.5891H266.002Z" fill="#EF6C00"/>
<path id="Rectangle 7_34" fill-rule="evenodd" clip-rule="evenodd" d="M285.66 66.5891V27.9745H296.382V66.5891H285.66Z" fill="#FE6214"/>
<path id="Rectangle 7_35" fill-rule="evenodd" clip-rule="evenodd" d="M305.318 66.5891V52.5475H316.04V66.5891H305.318Z" fill="#F1AB16"/>
<path id="Rectangle 7_36" fill-rule="evenodd" clip-rule="evenodd" d="M324.975 66.5891V24.4641H335.698V66.5891H324.975Z" fill="#FE6214"/>
<path id="Rectangle 7_37" fill-rule="evenodd" clip-rule="evenodd" d="M344.633 66.5891V49.0371H355.356V66.5891H344.633Z" fill="#F1AB16"/>
<path id="Rectangle 7_38" fill-rule="evenodd" clip-rule="evenodd" d="M364.291 66.5891V6.91203H375.014V66.5891H364.291Z" fill="#E0312C"/>
<path id="Rectangle 7_39" fill-rule="evenodd" clip-rule="evenodd" d="M383.949 66.5891V13.9329H394.672V66.5891H383.949Z" fill="#E0312C"/>
<path id="Rectangle 7_40" fill-rule="evenodd" clip-rule="evenodd" d="M403.607 66.5891V31.485H414.33V66.5891H403.607Z" fill="#FE6214"/>
</g>
</g>
</svg>
