<?xml version="1.0" encoding="UTF-8"?>
<svg width="87px" height="90px" viewBox="0 0 87 90" version="1.1" xmlns="http://www.w3.org/2000/svg" xmlns:xlink="http://www.w3.org/1999/xlink">
    <title>Group 10</title>
    <g id="Specs" stroke="none" stroke-width="1" fill="none" fill-rule="evenodd">
        <g id="preview---model-1-copy" transform="translate(-81.000000, -319.000000)">
            <g id="Group-3" transform="translate(71.000000, 287.000000)">
                <g id="Group-10" transform="translate(10.000000, 32.000000)">
                    <g id="Group" transform="translate(16.000000, 0.000000)">
                        <g id="ring2" transform="translate(9.984000, 0.000000)">
                            <path d="M16.867287,4.70893446 C16.9214897,4.70893446 16.9741763,4.71232489 17.028379,4.71307832 L16.971523,0.0026370033 C16.9366513,0.00226028854 16.9021586,0 16.867287,0 C8.2035661,0 1.06889324,6.49343226 0.112574926,14.849719 L4.85057688,15.1401661 C5.64883545,9.25098428 10.722667,4.70893446 16.867287,4.70893446" id="Fill-1" fill="#9F5DD2"></path>
                            <path d="M16.9716746,0.00256166034 L17.0281516,4.71300298 C20.9273377,4.76348275 24.3811516,6.64253596 26.5644229,9.5259107 L30.7835189,7.29500592 C27.7625688,2.91833388 22.7076893,0.0372194179 16.9716746,0.00256166034" id="Fill-3" fill="#30C9BA"></path>
                            <path d="M30.7836705,7.29496825 L26.5641955,9.52587303 C28.0905902,11.541297 28.9964961,14.0464501 28.9964961,16.7636937 C28.9964961,19.6685411 27.9624746,22.3334213 26.2404952,24.4147704 L30.3132816,26.8830054 C32.459407,24.0708298 33.7344981,20.5658757 33.7344981,16.7636937 C33.7344981,13.248945 32.6436205,9.98923218 30.7836705,7.29496825" id="Fill-5" fill="#F1AB16"></path>
                            <path d="M26.2403815,24.4147327 C24.0157948,27.1037226 20.6430955,28.8185282 16.8670974,28.8185282 C12.3550034,28.8185282 8.42094563,26.3679987 6.33205533,22.7345849 L2.78499755,25.9882702 C5.80253623,30.5295666 10.9817409,33.5274626 16.8670974,33.5274626 C22.3574941,33.5274626 27.2330876,30.9194664 30.3131679,26.8829678 L26.2403815,24.4147327 Z" id="Fill-7" fill="#FE6214"></path>
                            <path d="M4.73800195,16.7638067 C4.73800195,16.212673 4.77855925,15.6717106 4.85057688,15.1401661 L0.112574926,14.849719 C0.0405572967,15.4784559 0,16.116234 0,16.7638067 C0,20.1726985 1.02644074,23.3419997 2.78518707,25.9880442 L6.33186581,22.7347356 C5.31944955,20.9739708 4.73800195,18.9370741 4.73800195,16.7638067" id="Fill-9" fill="#3FB582"></path>
                        </g>
                        <path d="M1.57372416,3.43479755 L7.64227584,3.43479755 C7.87518766,3.43479755 8.064,3.62360988 8.064,3.85652171 L8.064,4.92129424 C8.064,5.15420607 7.87518766,5.3430184 7.64227584,5.3430184 L1.57372416,5.3430184 C1.34081234,5.3430184 1.152,5.15420607 1.152,4.92129424 L1.152,3.85652171 C1.152,3.62360988 1.34081234,3.43479755 1.57372416,3.43479755 Z" id="Rectangle-7" fill="#D8D8D8"></path>
                        <path d="M0.42172416,21.3720736 L6.49027584,21.3720736 C6.72318766,21.3720736 6.912,21.560886 6.912,21.7937978 L6.912,22.8585703 C6.912,23.0914821 6.72318766,23.2802945 6.49027584,23.2802945 L0.42172416,23.2802945 C0.188812338,23.2802945 1.39545774e-16,23.0914821 0,22.8585703 L0,21.7937978 C1.30421307e-16,21.560886 0.188812338,21.3720736 0.42172416,21.3720736 Z" id="Rectangle-7" fill="#D8D8D8"></path>
                        <path d="M25.3817242,35.1112638 L31.4502758,35.1112638 C31.6831877,35.1112638 31.872,35.3000761 31.872,35.532988 L31.872,36.5977605 C31.872,36.8306723 31.6831877,37.0194847 31.4502758,37.0194847 L25.3817242,37.0194847 C25.1488123,37.0194847 24.96,36.8306723 24.96,36.5977605 L24.96,35.532988 C24.96,35.3000761 25.1488123,35.1112638 25.3817242,35.1112638 Z" id="Rectangle-7" fill="#D8D8D8"></path>
                        <path d="M47.6537242,17.9372761 L53.7222758,17.9372761 C53.9551877,17.9372761 54.144,18.1260884 54.144,18.3590002 L54.144,19.4237728 C54.144,19.6566846 53.9551877,19.8454969 53.7222758,19.8454969 L47.6537242,19.8454969 C47.4208123,19.8454969 47.232,19.6566846 47.232,19.4237728 L47.232,18.3590002 C47.232,18.1260884 47.4208123,17.9372761 47.6537242,17.9372761 Z" id="Rectangle-7" fill="#D8D8D8"></path>
                        <path d="M41.5097242,1.14493252 L47.5782758,1.14493252 C47.8111877,1.14493252 48,1.33374485 48,1.56665668 L48,2.63142921 C48,2.86434104 47.8111877,3.05315337 47.5782758,3.05315337 L41.5097242,3.05315337 C41.2768123,3.05315337 41.088,2.86434104 41.088,2.63142921 L41.088,1.56665668 C41.088,1.33374485 41.2768123,1.14493252 41.5097242,1.14493252 Z" id="Rectangle-7" fill="#D8D8D8"></path>
                    </g>
                    <g id="bar-chart-1" transform="translate(0.000000, 47.981595)">
                        <path d="M0.720138002,3.01840491 L11.279862,3.01840491 C11.6775832,3.01840491 12,3.34082167 12,3.73854291 L12,5.29826691 C12,5.69598814 11.6775832,6.01840491 11.279862,6.01840491 L0.720138002,6.01840491 C0.322416766,6.01840491 3.81773711e-16,5.69598814 0,5.29826691 L0,3.73854291 C-4.87068039e-17,3.34082167 0.322416766,3.01840491 0.720138002,3.01840491 Z" id="Rectangle-7" fill="#D8D8D8"></path>
                        <path d="M3.720138,10.0184049 L11.279862,10.0184049 C11.6775832,10.0184049 12,10.3408217 12,10.7385429 L12,12.2982669 C12,12.6959881 11.6775832,13.0184049 11.279862,13.0184049 L3.720138,13.0184049 C3.32241677,13.0184049 3,12.6959881 3,12.2982669 L3,10.7385429 C3,10.3408217 3.32241677,10.0184049 3.720138,10.0184049 Z" id="Rectangle-7" fill="#D8D8D8"></path>
                        <path d="M3.720138,18.0184049 L11.279862,18.0184049 C11.6775832,18.0184049 12,18.3408217 12,18.7385429 L12,20.2982669 C12,20.6959881 11.6775832,21.0184049 11.279862,21.0184049 L3.720138,21.0184049 C3.32241677,21.0184049 3,20.6959881 3,20.2982669 L3,18.7385429 C3,18.3408217 3.32241677,18.0184049 3.720138,18.0184049 Z" id="Rectangle-7" fill="#D8D8D8"></path>
                        <path d="M3.720138,26.0184049 L11.279862,26.0184049 C11.6775832,26.0184049 12,26.3408217 12,26.7385429 L12,28.2982669 C12,28.6959881 11.6775832,29.0184049 11.279862,29.0184049 L3.720138,29.0184049 C3.32241677,29.0184049 3,28.6959881 3,28.2982669 L3,26.7385429 C3,26.3408217 3.32241677,26.0184049 3.720138,26.0184049 Z" id="Rectangle-7" fill="#D8D8D8"></path>
                        <path d="M12.0145175,35.975397 L19.690633,36.4016639 C19.9131302,36.4140195 20.0911294,36.5910092 20.1047503,36.8134325 L20.1457427,37.4828211 C20.1605725,37.724984 19.9762825,37.9333176 19.7341197,37.9481473 C19.7170675,37.9491915 19.6999688,37.9492402 19.6829109,37.9482929 L12.0067953,37.5220261 C11.7842981,37.5096705 11.6062989,37.3326808 11.592678,37.1102574 L11.5516856,36.4408688 C11.5368559,36.198706 11.7211458,35.9903724 11.9633086,35.9755427 C11.9803609,35.9744984 11.9974596,35.9744498 12.0145175,35.975397 Z" id="Rectangle-7" fill="#EFEFEF" transform="translate(15.848714, 36.961845) scale(-1, 1) rotate(65.000000) translate(-15.848714, -36.961845) "></path>
                        <path d="M20.3085631,35.975397 L27.9846787,36.4016639 C28.2071759,36.4140195 28.3851751,36.5910092 28.398796,36.8134325 L28.4397884,37.4828211 C28.4546181,37.724984 28.2703282,37.9333176 28.0281654,37.9481473 C28.0111131,37.9491915 27.9940145,37.9492402 27.9769565,37.9482929 L20.300841,37.5220261 C20.0783438,37.5096705 19.9003446,37.3326808 19.8867237,37.1102574 L19.8457313,36.4408688 C19.8309016,36.198706 20.0151915,35.9903724 20.2573543,35.9755427 C20.2744066,35.9744984 20.2915052,35.9744498 20.3085631,35.975397 Z" id="Rectangle-7" fill="#EFEFEF" transform="translate(24.142760, 36.961845) scale(-1, 1) rotate(65.000000) translate(-24.142760, -36.961845) "></path>
                        <path d="M28.6066768,35.975397 L36.2827923,36.4016639 C36.5052895,36.4140195 36.6832887,36.5910092 36.6969096,36.8134325 L36.737902,37.4828211 C36.7527318,37.724984 36.5684419,37.9333176 36.326279,37.9481473 C36.3092268,37.9491915 36.2921281,37.9492402 36.2750702,37.9482929 L28.5989547,37.5220261 C28.3764574,37.5096705 28.1984582,37.3326808 28.1848373,37.1102574 L28.1438449,36.4408688 C28.1290152,36.198706 28.3133051,35.9903724 28.5554679,35.9755427 C28.5725202,35.9744984 28.5896189,35.9744498 28.6066768,35.975397 Z" id="Rectangle-7" fill="#EFEFEF" transform="translate(32.440873, 36.961845) scale(-1, 1) rotate(65.000000) translate(-32.440873, -36.961845) "></path>
                        <path d="M36.9007225,35.975397 L44.576838,36.4016639 C44.7993352,36.4140195 44.9773344,36.5910092 44.9909553,36.8134325 L45.0319477,37.4828211 C45.0467774,37.724984 44.8624875,37.9333176 44.6203247,37.9481473 C44.6032724,37.9491915 44.5861738,37.9492402 44.5691158,37.9482929 L36.8930003,37.5220261 C36.6705031,37.5096705 36.4925039,37.3326808 36.478883,37.1102574 L36.4378906,36.4408688 C36.4230609,36.198706 36.6073508,35.9903724 36.8495136,35.9755427 C36.8665659,35.9744984 36.8836645,35.9744498 36.9007225,35.975397 Z" id="Rectangle-7" fill="#EFEFEF" transform="translate(40.734919, 36.961845) scale(-1, 1) rotate(65.000000) translate(-40.734919, -36.961845) "></path>
                        <path d="M45.1947681,35.975397 L52.8708836,36.4016639 C53.0933809,36.4140195 53.2713801,36.5910092 53.285001,36.8134325 L53.3259934,37.4828211 C53.3408231,37.724984 53.1565332,37.9333176 52.9143704,37.9481473 C52.8973181,37.9491915 52.8802194,37.9492402 52.8631615,37.9482929 L45.187046,37.5220261 C44.9645488,37.5096705 44.7865496,37.3326808 44.7729287,37.1102574 L44.7319362,36.4408688 C44.7171065,36.198706 44.9013964,35.9903724 45.1435593,35.9755427 C45.1606115,35.9744984 45.1777102,35.9744498 45.1947681,35.975397 Z" id="Rectangle-7" fill="#EFEFEF" transform="translate(49.028965, 36.961845) scale(-1, 1) rotate(65.000000) translate(-49.028965, -36.961845) "></path>
                        <path d="M53.4888138,35.975397 L61.1649293,36.4016639 C61.3874265,36.4140195 61.5654257,36.5910092 61.5790466,36.8134325 L61.620039,37.4828211 C61.6348688,37.724984 61.4505788,37.9333176 61.208416,37.9481473 C61.1913638,37.9491915 61.1742651,37.9492402 61.1572072,37.9482929 L53.4810916,37.5220261 C53.2585944,37.5096705 53.0805952,37.3326808 53.0669743,37.1102574 L53.0259819,36.4408688 C53.0111522,36.198706 53.1954421,35.9903724 53.4376049,35.9755427 C53.4546572,35.9744984 53.4717559,35.9744498 53.4888138,35.975397 Z" id="Rectangle-7" fill="#EFEFEF" transform="translate(57.323010, 36.961845) scale(-1, 1) rotate(65.000000) translate(-57.323010, -36.961845) "></path>
                        <path d="M61.7828594,35.975397 L69.458975,36.4016639 C69.6814722,36.4140195 69.8594714,36.5910092 69.8730923,36.8134325 L69.9140847,37.4828211 C69.9289144,37.724984 69.7446245,37.9333176 69.5024617,37.9481473 C69.4854094,37.9491915 69.4683108,37.9492402 69.4512528,37.9482929 L61.7751373,37.5220261 C61.5526401,37.5096705 61.3746409,37.3326808 61.36102,37.1102574 L61.3200276,36.4408688 C61.3051979,36.198706 61.4894878,35.9903724 61.7316506,35.9755427 C61.7487029,35.9744984 61.7658015,35.9744498 61.7828594,35.975397 Z" id="Rectangle-7" fill="#EFEFEF" transform="translate(65.617056, 36.961845) scale(-1, 1) rotate(65.000000) translate(-65.617056, -36.961845) "></path>
                        <path d="M70.0759989,35.975397 L77.7521145,36.4016639 C77.9746117,36.4140195 78.1526109,36.5910092 78.1662318,36.8134325 L78.2072242,37.4828211 C78.2220539,37.724984 78.037764,37.9333176 77.7956012,37.9481473 C77.7785489,37.9491915 77.7614503,37.9492402 77.7443923,37.9482929 L70.0682768,37.5220261 C69.8457796,37.5096705 69.6677804,37.3326808 69.6541595,37.1102574 L69.6131671,36.4408688 C69.5983374,36.198706 69.7826273,35.9903724 70.0247901,35.9755427 C70.0418424,35.9744984 70.058941,35.9744498 70.0759989,35.975397 Z" id="Rectangle-7" fill="#EFEFEF" transform="translate(73.910196, 36.961845) scale(-1, 1) rotate(65.000000) translate(-73.910196, -36.961845) "></path>
                        <path d="M78.3691384,35.975397 L86.045254,36.4016639 C86.2677512,36.4140195 86.4457504,36.5910092 86.4593713,36.8134325 L86.5003637,37.4828211 C86.5151934,37.724984 86.3309035,37.9333176 86.0887407,37.9481473 C86.0716884,37.9491915 86.0545898,37.9492402 86.0375318,37.9482929 L78.3614163,37.5220261 C78.1389191,37.5096705 77.9609199,37.3326808 77.947299,37.1102574 L77.9063066,36.4408688 C77.8914769,36.198706 78.0757668,35.9903724 78.3179296,35.9755427 C78.3349819,35.9744984 78.3520805,35.9744498 78.3691384,35.975397 Z" id="Rectangle-7" fill="#EFEFEF" transform="translate(82.203335, 36.961845) scale(-1, 1) rotate(65.000000) translate(-82.203335, -36.961845) "></path>
                        <polygon id="Rectangle-7" fill="#F1AB16" transform="translate(17.500000, 25.518405) rotate(-90.000000) translate(-17.500000, -25.518405) " points="12 23.0184049 23 23.0184049 23 28.0184049 12 28.0184049"></polygon>
                        <polygon id="Rectangle-7" fill="#EF6C00" transform="translate(26.000000, 24.518405) rotate(-90.000000) translate(-26.000000, -24.518405) " points="20 22.0184049 32 22.0184049 32 27.0184049 20 27.0184049"></polygon>
                        <polygon id="Rectangle-7" fill="#FE6214" transform="translate(33.500000, 21.518405) rotate(-90.000000) translate(-33.500000, -21.518405) " points="24 19.0184049 43 19.0184049 43 24.0184049 24 24.0184049"></polygon>
                        <polygon id="Rectangle-7" fill="#F1AB16" transform="translate(42.500000, 27.518405) rotate(-90.000000) translate(-42.500000, -27.518405) " points="39 25.0184049 46 25.0184049 46 30.0184049 39 30.0184049"></polygon>
                        <polygon id="Rectangle-7" fill="#FE6214" transform="translate(50.500000, 20.518405) rotate(-90.000000) translate(-50.500000, -20.518405) " points="40 18.0184049 61 18.0184049 61 23.0184049 40 23.0184049"></polygon>
                        <polygon id="Rectangle-7" fill="#F1AB16" transform="translate(58.500000, 26.518405) rotate(-90.000000) translate(-58.500000, -26.518405) " points="54 24.0184049 63 24.0184049 63 29.0184049 54 29.0184049"></polygon>
                        <polygon id="Rectangle-7" fill="#E0312C" transform="translate(67.000000, 15.518405) rotate(-90.000000) translate(-67.000000, -15.518405) " points="52 13.0184049 82 13.0184049 82 18.0184049 52 18.0184049"></polygon>
                        <polygon id="Rectangle-7" fill="#E0312C" transform="translate(75.000000, 17.518405) rotate(-90.000000) translate(-75.000000, -17.518405) " points="62 15.0184049 88 15.0184049 88 20.0184049 62 20.0184049"></polygon>
                        <polygon id="Rectangle-7" fill="#FE6214" transform="translate(84.000000, 22.518405) rotate(-90.000000) translate(-84.000000, -22.518405) " points="75 20.0184049 93 20.0184049 93 25.0184049 75 25.0184049"></polygon>
                    </g>
                </g>
            </g>
        </g>
    </g>
</svg>