<svg width="28" height="28" viewBox="0 0 28 28" fill="none" xmlns="http://www.w3.org/2000/svg">
<circle opacity="0.9" cx="14" cy="14" r="14" fill="#29313B"/>
<path fill-rule="evenodd" clip-rule="evenodd" d="M15.88 10.0657L16.5686 9.37597L18.6126 11.453L17.9388 12.1278L15.88 10.0657ZM12.1332 17.9426L12.0248 17.2789L11.0377 17.0929L10.9222 16.0857L10.1306 15.8241L15.196 10.7507L17.2548 12.8129L12.1332 17.9426ZM9.32004 18.1138L9.58668 16.62C9.5902 16.6238 9.59432 16.6271 9.59784 16.631L10.1403 16.7987L10.2615 17.858L11.2688 18.0469L11.3439 18.5248L9.91803 18.7154L9.32004 18.1138ZM16.5673 8L8.81226 15.7674L8.01328 19.573C7.94267 19.8205 8.16493 20.052 8.41315 19.9897L12.1763 19.2742L20 11.4381L16.5673 8Z" fill="white"/>
</svg>
