<?xml version="1.0" encoding="UTF-8"?>
<svg width="261px" height="80px" viewBox="0 0 261 80" version="1.1" xmlns="http://www.w3.org/2000/svg" xmlns:xlink="http://www.w3.org/1999/xlink">
    <title>Artboard</title>
    <defs>
        <path d="M10.8301101,0.831356753 C11.3164851,-0.0561670588 12.1027507,-0.0603903526 12.5914435,0.831356753 L22.611011,19.114733 C23.097386,20.0022577 22.6669124,20.7217393 21.6624281,20.7217393 L1.75912553,20.7217393 C0.748860526,20.7217393 0.321849798,20.0064828 0.810542602,19.114733 L10.8301101,0.831356753 Z" id="path-1"></path>
        <path d="M1.34502287,7.2134563 C1.34502287,6.18675893 1.23168103,5.21776494 1.00499734,4.30643128 C0.778304488,3.39509762 0.541323656,2.44339989 0.294027361,1.45131063 C0.294027361,1.05909398 0.402220636,0.733213269 0.618598023,0.473650183 C0.834984571,0.214096259 1.19046498,0.0843192969 1.68504841,0.0843192969 C2.11782151,0.0843192969 2.44238301,0.211210494 2.65876955,0.46500205 C2.8751561,0.718793606 2.98334022,1.05909398 2.98334022,1.48592148 C2.98334022,1.69356829 2.80817888,2.46645853 2.45784704,3.8046197 C2.10750604,5.14278086 1.9323447,6.27904843 1.9323447,7.2134563 L1.34502287,7.2134563 Z" id="path-3"></path>
        <path d="M1.63868379,2.68479549 C2.38131473,2.68479549 2.98334022,2.09133019 2.98334022,1.35925382 C2.98334022,0.627178363 2.38131473,0.0337130609 1.63868379,0.0337130609 C0.89605285,0.0337130609 0.294027361,0.627178363 0.294027361,1.35925382 C0.294027361,2.09133019 0.89605285,2.68479549 1.63868379,2.68479549 Z" id="path-5"></path>
    </defs>
    <g id="Artboard" stroke="none" stroke-width="1" fill="none" fill-rule="evenodd">
        <g id="Group">
            <rect id="Rectangle" x="0" y="0" width="261" height="80"></rect>
            <g transform="translate(2.000000, 3.000000)" id="Group-5">
                <g id="Group-4">
                    <g id="noun_79292" transform="translate(79.211989, 0.000000)">
                        <g id="icon_Environment" transform="translate(102.036445, 0.000000)">
                            <rect id="outline" x="0" y="0" width="70" height="70"></rect>
                            <g id="Group-4" transform="translate(7.058813, 7.672305)" fill="#E5EFF8" stroke="#D2E4F5">
                                <path d="M54.6634091,0.605472615 L54.6634091,15.1609567 L50.7739646,15.1604012 L50.7739646,20.0494155 L54.6634091,20.0498599 L54.6634091,34.6054726 L7.99596464,34.6054726 L7.99596464,39.4934631 L54.6634091,39.494352 L54.6634091,54.0499171 L1.21896464,54.0499171 L1.21896464,39.4942472 L5.10696464,39.4933583 L5.10696464,34.6054726 L1.21896464,34.6054726 L1.21896464,20.0499123 L47.8849646,20.0494679 L47.8849646,15.1604667 L1.21896464,15.1610222 L1.21896464,0.605472615 L54.6634091,0.605472615 Z M14.0220575,44.3276948 C13.4320997,44.3276948 12.8979931,44.5668225 12.511376,44.9534396 C12.124759,45.3400567 11.8856313,45.8741632 11.8856313,46.464121 C11.8856313,47.0540788 12.124759,47.5881854 12.511376,47.9748024 C12.8979931,48.3614195 13.4320997,48.6005472 14.0220575,48.6005472 C14.6120153,48.6005472 15.1461218,48.3614195 15.5327389,47.9748024 C15.919356,47.5881854 16.1584837,47.0540788 16.1584837,46.464121 C16.1584837,45.8741632 15.919356,45.3400567 15.5327389,44.9534396 C15.1461218,44.5668225 14.6120153,44.3276948 14.0220575,44.3276948 Z M6.24427971,44.3276948 C5.65432191,44.3276948 5.12021537,44.5668225 4.73359827,44.9534396 C4.34698118,45.3400567 4.10785353,45.8741632 4.10785353,46.464121 C4.10785353,47.0540788 4.34698118,47.5881854 4.73359827,47.9748024 C5.12021537,48.3614195 5.65432191,48.6005472 6.24427971,48.6005472 C6.8342375,48.6005472 7.36834405,48.3614195 7.75496114,47.9748024 C8.14157824,47.5881854 8.38070588,47.0540788 8.38070588,46.464121 C8.38070588,45.8741632 8.14157824,45.3400567 7.75496114,44.9534396 C7.36834405,44.5668225 6.8342375,44.3276948 6.24427971,44.3276948 Z M46.3847456,24.8832504 L40.6087393,24.8832504 L40.4600832,24.8903627 C40.1182023,24.9233921 39.8127319,25.0703288 39.5757661,25.3074366 C39.3250496,25.5583034 39.1478249,25.9157787 39.1078535,26.3607689 L39.1078535,26.3607689 L39.1078535,28.2706538 L39.1149593,28.4183715 C39.1479639,28.7584541 39.2948517,29.0647508 39.5327602,29.3028018 C39.7835276,29.5537194 40.140566,29.731822 40.5844929,29.7721393 L40.5844929,29.7721393 L46.3847456,29.7721393 L46.5334016,29.765027 C46.8752826,29.7319976 47.1807529,29.5850609 47.4177187,29.347953 C47.6684353,29.0970862 47.8456599,28.739611 47.8856313,28.2946207 L47.8856313,28.2946207 L47.8856313,26.3847359 L47.8778859,26.2308192 C47.8420363,25.8767426 47.6838176,25.5600996 47.4466954,25.3228353 C47.1750669,25.051044 46.7996273,24.8832504 46.3847456,24.8832504 L46.3847456,24.8832504 Z M45.4411869,5.43880595 C44.7661722,5.43880595 44.1550611,5.71240971 43.7127036,6.15476715 C43.2703462,6.59712459 42.9967424,7.2082357 42.9967424,7.88325039 C42.9967424,8.55826509 43.2703462,9.1693762 43.7127036,9.61173364 C44.1550611,10.0540911 44.7661722,10.3276948 45.4411869,10.3276948 C46.1162016,10.3276948 46.7273127,10.0540911 47.1696701,9.61173364 C47.6120275,9.1693762 47.8856313,8.55826509 47.8856313,7.88325039 C47.8856313,7.2082357 47.6120275,6.59712459 47.1696701,6.15476715 C46.7273127,5.71240971 46.1162016,5.43880595 45.4411869,5.43880595 Z M25.5245202,6.41102807 L7.02452019,6.41102821 L7.02452021,9.35547266 L25.5245202,9.35547252 L25.5245202,6.41102807 Z" id="Combined-Shape"></path>
                            </g>
                        </g>
                        <g id="Shape-Copy-2" transform="translate(0.000000, 20.986779)">
                            <polygon fill="#D2E4F5" points="50.2081093 0.0758194284 56.4654698 0.0758194284 52.9891584 7.72370455 58.5541809 7.72370455 46.0365356 26.4957862 51.0413029 12.5905405 46.0365356 12.5905405"></polygon>
                            <g id="Oval-2-Copy-3" transform="translate(72.863231, 7.328926)" stroke="#E5EEF7" stroke-width="2">
                                <circle fill="#FFFFFF" cx="5.73607457" cy="5.95687655" r="5.56209827"></circle>
                                <g id="Line" transform="translate(10.993389, 5.195200)" stroke-linecap="square">
                                    <line x1="0.461172095" y1="1.06686335" x2="19.2066043" y2="1.06686335"></line>
                                </g>
                            </g>
                            <g id="Oval-2-Copy-4" transform="translate(16.227485, 12.686572) scale(-1, 1) translate(-16.227485, -12.686572) translate(0.727485, 6.686572)" stroke="#E5EEF7" stroke-width="2">
                                <circle id="Oval-2-Copy-3" fill="#FFFFFF" cx="5.73607457" cy="5.95687655" r="5.56209827"></circle>
                                <g id="Line" transform="translate(10.993389, 5.195200)" stroke-linecap="square">
                                    <line x1="0.461172095" y1="1.06686335" x2="19.2066043" y2="1.06686335"></line>
                                </g>
                            </g>
                        </g>
                    </g>
                    <g id="Group-3" transform="translate(0.000000, 4.496695)">
                        <polygon id="Rectangle-5" fill="#D2E4F5" points="28.3995893 58.6314103 52.2185998 58.6314103 52.2185998 63.2119892 28.3995893 63.2119892"></polygon>
                        <rect id="Rectangle-4" stroke="#D2E4F5" fill="#E5EFF8" x="0.5" y="0.5" width="78.7020733" height="50.302484" rx="2"></rect>
                        <path d="M72.7892628,5.99669471 L72.7892628,45.3057893 L6.9128105,45.3057893 L6.9128105,5.99669471 L72.7892628,5.99669471 Z" id="Rectangle-2" stroke="#D2E4F5" fill="#FFFFFF"></path>
                    </g>
                </g>
                <g id="Group-2" transform="translate(234.525641, 49.386368)">
                    <g id="Group-27">
                        <mask id="mask-2" fill="white">
                            <use xlink:href="#path-1"></use>
                        </mask>
                        <g id="Clip-26"></g>
                        <polygon id="Fill-25" fill="#FFB132" mask="url(#mask-2)" points="-3.97247043 -4.41644762 27.3920269 -4.41644762 27.3920269 25.3023182 -3.97247043 25.3023182"></polygon>
                    </g>
                    <g id="Group-30" transform="translate(10.077274, 6.412810)">
                        <mask id="mask-4" fill="white">
                            <use xlink:href="#path-3"></use>
                        </mask>
                        <g id="Clip-29"></g>
                        <polygon id="Fill-28" fill="#FFFFFF" mask="url(#mask-4)" points="-4.28655157 -4.49625963 7.56391914 -4.49625963 7.56391914 11.7940352 -4.28655157 11.7940352"></polygon>
                    </g>
                    <g id="Group-33" transform="translate(10.077274, 14.657853)">
                        <mask id="mask-6" fill="white">
                            <use xlink:href="#path-5"></use>
                        </mask>
                        <g id="Clip-32"></g>
                        <polygon id="Fill-31" fill="#FFFFFF" mask="url(#mask-6)" points="-4.28655157 -4.54686587 7.56391914 -4.54686587 7.56391914 7.26537397 -4.28655157 7.26537397"></polygon>
                    </g>
                </g>
            </g>
        </g>
    </g>
</svg>