<svg width="46" height="33" viewBox="0 0 46 33" fill="none" xmlns="http://www.w3.org/2000/svg">
<path fill-rule="evenodd" clip-rule="evenodd" d="M17 21H29V20H17V21ZM18 19H21V11H18V19ZM22 19H24V14H22V19ZM25 19H28V12.0625H25V19ZM15 16C15 20.418 18.582 24 23 24C27.418 24 31 20.418 31 16C31 11.582 27.418 8 23 8C18.582 8 15 11.582 15 16Z" fill="#0E6FF9"/>
<path d="M0 31.524H4.43456C6.6437 31.524 8.43456 29.7331 8.43456 27.524V6C8.43456 3.23858 10.6731 1 13.4346 1L31.6051 1C34.3406 1 36.5683 3.19825 36.6046 5.9335L36.8925 27.5772C36.9216 29.7654 38.7038 31.524 40.8922 31.524H46" stroke="#B6B7B8"/>
</svg>
