<?xml version="1.0" encoding="UTF-8"?>
<svg width="705px" height="469px" viewBox="0 0 705 469" version="1.1" xmlns="http://www.w3.org/2000/svg" xmlns:xlink="http://www.w3.org/1999/xlink">
    <title>60*60</title>
    <defs>
        <linearGradient x1="50%" y1="0.126649064%" x2="50%" y2="100%" id="linearGradient-1">
            <stop stop-color="#D8D8D8" stop-opacity="0.3" offset="0.0633445946%"></stop>
            <stop stop-color="#FFFFFF" stop-opacity="0.3" offset="100%"></stop>
        </linearGradient>
    </defs>
    <g id="60*60" stroke="none" stroke-width="1" fill="none" fill-rule="evenodd">
        <g id="icon/60*60/msdl-file-json" transform="translate(300.000000, 0.000000)">
            <rect id="Rectangle" x="0" y="0" width="60" height="60"></rect>
            <g id="Library-Viewer/Workstation/File-Type/json" transform="translate(7.000000, 5.000000)">
                <path d="M32.081951,0.5 L43.5,12.2035002 L43.5,46 C43.5,46.9664983 43.1082492,47.8414983 42.4748737,48.4748737 C41.8414983,49.1082492 40.9664983,49.5 40,49.5 L40,49.5 L8,49.5 C7.03350169,49.5 6.15850169,49.1082492 5.52512627,48.4748737 C4.89175084,47.8414983 4.5,46.9664983 4.5,46 L4.5,46 L4.5,4 C4.5,3.03350169 4.89175084,2.15850169 5.52512627,1.52512627 C6.15850169,0.891750844 7.03350169,0.5 8,0.5 L8,0.5 L32.081951,0.5 Z" id="Rectangle" stroke="#D8D8D8" fill="#FFFFFF"></path>
                <path d="M18.156867,26.8 L19.2312987,26.8 L19.2312987,27.7810028 L18.3592962,27.7810028 C17.6741514,27.7810028 17.3315789,28.1547182 17.3315789,28.9332918 L17.3315789,32.1721582 C17.3315789,33.1064466 16.8955777,33.744877 16.0547182,34.0718779 C16.8955777,34.4144503 17.3315789,35.0528807 17.3315789,35.9715976 L17.3315789,39.2260355 C17.3315789,39.9734662 17.6741514,40.362753 18.3592962,40.362753 L19.2312987,40.362753 L19.2312987,41.3437558 L18.156867,41.3437558 C17.5184366,41.3437558 17.0201495,41.1413267 16.6775771,40.7364684 C16.3350047,40.362753 16.1792899,39.8488944 16.1792899,39.1948926 L16.1792899,36.0183121 C16.1792899,35.5511679 16.0702896,35.2085955 15.883432,34.9905948 C15.6654313,34.7414513 15.260573,34.601308 14.7,34.5857365 L14.7,33.5580193 C15.260573,33.5268764 15.6654313,33.4023046 15.883432,33.153161 C16.0702896,32.9351604 16.1792899,32.592588 16.1792899,32.1254438 L16.1792899,28.9644348 C16.1792899,28.3104329 16.3350047,27.7810028 16.6775771,27.4072874 C17.0201495,27.0024291 17.5184366,26.8 18.156867,26.8 Z M24.0467767,32.0943008 C24.3270632,32.0943008 24.5450638,32.1721582 24.7319215,32.3590159 C24.9032077,32.5303021 24.9966366,32.7638742 24.9966366,33.0441607 C24.9966366,33.3244472 24.9032077,33.5580193 24.7319215,33.744877 C24.5450638,33.9005917 24.3270632,33.9940206 24.0467767,33.9940206 C23.7664902,33.9940206 23.5329181,33.9005917 23.3616319,33.744877 C23.1747742,33.5580193 23.0969168,33.3244472 23.0969168,33.0441607 C23.0969168,32.7638742 23.1747742,32.5303021 23.3616319,32.3590159 C23.5329181,32.1721582 23.7664902,32.0943008 24.0467767,32.0943008 Z M24.0467767,37.8246029 C24.3893491,37.8246029 24.6852071,37.9647462 24.9032077,38.2606042 C25.1056369,38.5408907 25.2146372,38.8990346 25.2146372,39.3506073 C25.2146372,40.0357521 25.012208,40.6430396 24.6073497,41.1724696 C24.2024914,41.6707568 23.6574899,42.0133292 22.9879165,42.1846154 L22.9879165,41.4216132 C23.3927748,41.2814699 23.7353472,41.0478979 23.9844908,40.7364684 C24.2180629,40.4094675 24.3270632,40.066895 24.3270632,39.6931797 C24.2492059,39.7243226 24.1402055,39.7554656 23.9844908,39.7554656 C23.7197758,39.7554656 23.5017751,39.6620367 23.3149175,39.4751791 C23.1280598,39.2883214 23.034631,39.0547493 23.034631,38.7900343 C23.034631,38.4941763 23.1280598,38.2606042 23.3304889,38.089318 C23.5017751,37.9024603 23.7353472,37.8246029 24.0467767,37.8246029 Z M28.8622547,26.8 L29.9366864,26.8 C30.5595453,26.8 31.0578325,27.0024291 31.4159763,27.4072874 C31.7429773,27.7810028 31.9142635,28.3104329 31.9142635,28.9644348 L31.9142635,32.1254438 C31.9142635,32.592588 32.0076923,32.9351604 32.2101215,33.1687325 C32.4281221,33.4023046 32.8174089,33.5268764 33.3935534,33.5580193 L33.3935534,34.5857365 C32.8174089,34.601308 32.4281221,34.7414513 32.2101215,34.9905948 C32.0076923,35.2085955 31.9142635,35.5511679 31.9142635,36.0183121 L31.9142635,39.1948926 C31.9142635,39.8488944 31.7429773,40.362753 31.4159763,40.7364684 C31.0578325,41.1413267 30.5595453,41.3437558 29.9366864,41.3437558 L28.8622547,41.3437558 L28.8622547,40.362753 L29.7342572,40.362753 C30.4194021,40.362753 30.7619745,39.9734662 30.7619745,39.2260355 L30.7619745,35.9715976 C30.7619745,35.0528807 31.1824042,34.4144503 32.0388353,34.0718779 C31.1824042,33.744877 30.7619745,33.1064466 30.7619745,32.1721582 L30.7619745,28.9332918 C30.7619745,28.1547182 30.4194021,27.7810028 29.7342572,27.7810028 L28.8622547,27.7810028 L28.8622547,26.8 Z" id="{;}" fill="#515ED4" fill-rule="nonzero" opacity="0.3"></path>
                <rect id="Rectangle" fill="#515ED4" x="0" y="4" width="30" height="15" rx="1"></rect>
                <text id="JSON" font-family="Helvetica" font-size="10" font-weight="normal" fill="#FFFFFF">
                    <tspan x="2.16503906" y="15">JSON</tspan>
                </text>
                <path d="M32.5,1.20710678 L42.7928932,11.5 L34,11.5 C33.5857864,11.5 33.2107864,11.3321068 32.9393398,11.0606602 C32.6678932,10.7892136 32.5,10.4142136 32.5,10 L32.5,10 L32.5,1.20710678 Z" id="Rectangle" stroke="#D8D8D8" fill="#D8D8D8"></path>
                <polygon id="Path" fill="url(#linearGradient-1)" fill-rule="nonzero" points="43 19 36 12 43 12"></polygon>
            </g>
        </g>
        <g id="icon/60*60/msdl-file-pem">
            <rect id="Rectangle" x="0" y="0" width="60" height="60"></rect>
            <g id="Group-Copy-15" transform="translate(7.000000, 5.000000)">
                <path d="M33.0845599,0.5 L44.25,11.6654401 L44.25,46 C44.25,46.9664983 43.8582492,47.8414983 43.2248737,48.4748737 C42.5914983,49.1082492 41.7164983,49.5 40.75,49.5 L40.75,49.5 L8.125,49.5 C7.15850169,49.5 6.28350169,49.1082492 5.65012627,48.4748737 C5.01675084,47.8414983 4.625,46.9664983 4.625,46 L4.625,46 L4.625,4 C4.625,3.03350169 5.01675084,2.15850169 5.65012627,1.52512627 C6.28350169,0.891750844 7.15850169,0.5 8.125,0.5 L8.125,0.5 L33.0845599,0.5 Z" id="Rectangle" stroke="#D8D8D8" fill="#FFFFFF"></path>
                <rect id="Rectangle" fill="#EB6756" x="0" y="4.16666667" width="31.25" height="14.5833333" rx="1"></rect>
                <text id="PEM" font-family="Helvetica" font-size="10" font-weight="normal" fill="#FFFFFF">
                    <tspan x="4.47753906" y="15">PEM</tspan>
                </text>
                <path d="M33.7916667,1.20710678 L43.5428932,10.9583333 L35.2916667,10.9583333 C34.8774531,10.9583333 34.5024531,10.7904401 34.2310065,10.5189935 C33.9595599,10.2475469 33.7916667,9.8725469 33.7916667,9.45833333 L33.7916667,9.45833333 L33.7916667,1.20710678 Z" id="Rectangle" stroke="#D8D8D8" fill="#D8D8D8"></path>
                <polygon id="Path" fill="url(#linearGradient-1)" fill-rule="nonzero" points="43.75 18.45 36.75 11.45 43.75 11.45"></polygon>
                <path d="M29,41.75 L29,43.3125 L11,43.3125 L11,41.75 L29,41.75 Z M27,37.0625 L27,38.625 L11,38.625 L11,37.0625 L27,37.0625 Z M25,32.375 L25,33.9375 L11,33.9375 L11,32.375 L25,32.375 Z M25,27.6875 L25,29.25 L11,29.25 L11,27.6875 L25,27.6875 Z M38,23 L38,24.5625 L11,24.5625 L11,23 L38,23 Z" id="Combined-Shape" fill="#9B9B9B" opacity="0.3"></path>
                <g id="Group-5" transform="translate(28.000000, 26.000000)" fill="#EB6756" fill-opacity="0.3" fill-rule="nonzero">
                    <path d="M6.82927852,-5.32907052e-14 C7.11242467,-5.32907052e-14 7.38712919,0.105235464 7.59912451,0.290449882 L7.69964516,0.389605075 L7.98402238,0.704726826 C8.0948187,0.829957029 8.27314802,0.883627116 8.43580003,0.847696721 L8.51543436,0.822181297 L8.90609398,0.656026192 C9.05259133,0.593001842 9.21057868,0.561489666 9.36856602,0.561489666 C9.84516118,0.561489666 10.2734824,0.852758452 10.4521873,1.28304189 L10.4945849,1.40372417 L10.6181023,1.80765296 C10.664883,1.97217107 10.7981903,2.09459499 10.9619477,2.13162785 L11.0461044,2.14282791 L11.471234,2.16001637 C11.8044436,2.17434009 12.1175458,2.33190096 12.3301106,2.59259259 C12.5098469,2.81604256 12.6009461,3.09631968 12.5889368,3.37930286 L12.5742729,3.52076939 L12.5024604,3.93902189 C12.4753769,4.10845099 12.5411512,4.27577538 12.6726496,4.37965782 L12.7437502,4.42602824 L13.1171748,4.62656026 C13.413042,4.78412114 13.6256068,5.06200123 13.7031643,5.38858195 C13.7696421,5.66850829 13.7284891,5.96106288 13.5941769,6.21032059 L13.5193244,6.33108246 L13.2751622,6.67771639 C13.1742144,6.81767956 13.1619037,6.99973691 13.2346122,7.14992295 L13.2780347,7.2220176 L13.5279419,7.56578678 C13.7261442,7.83507264 13.7979567,8.17884183 13.7261442,8.50542255 C13.6633084,8.79118068 13.4949082,9.04184571 13.2575064,9.20943879 L13.1516448,9.27603847 L12.7810927,9.48229998 C12.6309021,9.56578678 12.5398029,9.72293841 12.5403556,9.89061358 L12.5484204,9.97503581 L12.6259778,10.3904236 C12.6863003,10.719869 12.6029978,11.0579087 12.396178,11.3214651 C12.2189039,11.5473706 11.9656552,11.6975065 11.6852727,11.7484204 L11.5430464,11.7655003 L11.1179168,11.791283 C10.945567,11.801105 10.7943212,11.9035342 10.7220649,12.0534696 L10.6927872,12.1321874 L10.5807598,12.5418457 C10.4943261,12.8597096 10.2792071,13.1167819 10.0012124,13.2643678 L10,17.5225054 C10,17.7986478 9.77614237,18.0225054 9.5,18.0225054 C9.41030542,18.0225054 9.32226229,17.9983777 9.2450988,17.9526511 L7,16.6222222 L4.7549012,17.9526511 C4.51733825,18.0934292 4.21063228,18.0149695 4.06985423,17.7774066 C4.02412772,17.7002431 4,17.6122 4,17.5225054 L4.00088463,13.3755602 C3.68557386,13.267709 3.42477627,13.0287077 3.29527713,12.7166209 L3.25301953,12.5962758 L3.13524715,12.1894823 C3.08846648,12.0249642 2.95515916,11.9025403 2.7914017,11.8655074 L2.70724507,11.8543073 L2.28211549,11.8371189 C1.94890582,11.8227952 1.63580362,11.6652343 1.42323883,11.4045427 C1.24350258,11.1810927 1.15240338,10.9008156 1.1644126,10.6178324 L1.17907657,10.4763659 L1.250889,10.0581134 C1.27797255,9.88868426 1.21219822,9.72135988 1.08069983,9.61747744 L1.00959924,9.57110702 L0.636174607,9.37057499 C0.340307397,9.21301412 0.127742606,8.93513403 0.0501851826,8.6085533 C-0.0162926092,8.32862697 0.0248603096,8.03607238 0.159172583,7.78681466 L0.234025002,7.66605279 L0.478187262,7.31941887 C0.57913502,7.1794557 0.591445722,6.99739835 0.518737207,6.8472123 L0.475314765,6.77511766 L0.22540751,6.43421322 C0.0272052052,6.16492736 -0.0446072242,5.82115817 0.0272052052,5.49457745 C0.0900410809,5.20881932 0.258441228,4.95815429 0.495843021,4.79056121 L0.60170464,4.72396153 L0.972256776,4.51770002 C1.12244734,4.43421322 1.21354654,4.27706159 1.21299381,4.10938642 L1.20492905,4.02496419 L1.12737162,3.60957643 C1.06704918,3.2829957 1.1503516,2.94209126 1.3571714,2.67853489 C1.53813872,2.44792306 1.8004785,2.2940774 2.08646028,2.24770437 L2.21030306,2.23449969 L2.63256014,2.208717 C2.80490997,2.19889503 2.95615574,2.09646584 3.02841203,1.94653036 L3.05768973,1.86781256 L3.16971712,1.45815429 C3.30759698,0.951094741 3.77294152,0.598731328 4.29860851,0.598731328 C4.40010341,0.598731328 4.50032164,0.612736739 4.5984121,0.639049936 L4.74384557,0.687538367 L5.13737768,0.847963986 C5.29495467,0.911806834 5.47785653,0.883042474 5.60829973,0.779711271 L5.66878966,0.721915285 L5.94454939,0.401064047 C6.16860417,0.146101903 6.49032385,-5.32907052e-14 6.82927852,-5.32907052e-14 Z M6.87523847,2.8647432 C4.58873072,2.8647432 2.73022505,4.71823204 2.73022505,6.99856763 C2.73022505,9.27603847 4.58873072,11.1323921 6.87523847,11.1323921 C9.16174623,11.1323921 11.0202519,9.27603847 11.0202519,6.99856763 C11.0202519,4.71823204 9.16174623,2.8647432 6.87523847,2.8647432 Z M8.32151331,5.73040607 C8.5001968,5.55591744 8.79055747,5.55591744 8.96924096,5.73411859 C9.14420188,5.91231975 9.14420188,6.1981841 8.96551839,6.37638525 L8.96551839,6.37638525 L6.64635559,8.67443764 C6.56073642,8.75982569 6.44533667,8.8080885 6.32621434,8.8080885 L6.32621434,8.8080885 L6.23582562,8.79921325 C6.14753085,8.78163677 6.06656489,8.73847867 6.00235052,8.67443764 L6.00235052,8.67443764 L5.03075904,7.70175634 C4.85579812,7.52355518 4.85579812,7.23769083 5.03448161,7.05948968 C5.2131651,6.88128852 5.4998032,6.88128852 5.67848669,7.05948968 L5.67848669,7.05948968 L6.32621434,7.70918138 Z" id="Combined-Shape"></path>
                </g>
            </g>
        </g>
        <g id="icon/60*60/Workstation-logo" transform="translate(60.000000, 0.000000)">
            <g id="Desktop_Icon_Final-Copy-4" transform="translate(0.117188, 0.117188)" fill="#D9232E">
                <circle id="Oval" cx="29.8828125" cy="29.8828125" r="29.8828125"></circle>
            </g>
            <polyline id="Fill-7" fill="#FFFFFF" points="39.7705208 16.2626667 39.7705208 43.7373333 48.1186458 43.7373333 48.1186458 24.6533333 39.7705208 16.2626667"></polyline>
            <polygon id="Fill-10" fill="#FFFFFF" points="13.7299653 43.7373333 22.07875 43.7373333 22.07875 16.2626667 13.7299653 16.2626667"></polygon>
            <polygon id="Fill-11" fill="#FFFFFF" points="26.7634375 43.7373333 35.1122222 43.7373333 35.1122222 16.2626667 26.7634375 16.2626667"></polygon>
        </g>
        <g id="icons/60*60/error" transform="translate(120.000000, 0.000000)">
            <g id="Main-icon">
                <g id="Desktop_Icon_Final-Copy-4" transform="translate(0.106201, 0.106201)" fill="#D9232E">
                    <circle id="Oval" cx="27.0812988" cy="27.0812988" r="27.0812988"></circle>
                </g>
                <polyline id="Fill-7" fill="#FFFFFF" points="36.0420345 14.7380417 36.0420345 39.6369583 43.6075228 39.6369583 43.6075228 22.3420833 36.0420345 14.7380417"></polyline>
                <polygon id="Fill-10" fill="#FFFFFF" points="12.442781 39.6369583 20.0088672 39.6369583 20.0088672 14.7380417 12.442781 14.7380417"></polygon>
                <polygon id="Fill-11" fill="#FFFFFF" points="24.2543652 39.6369583 31.8204514 39.6369583 31.8204514 14.7380417 24.2543652 14.7380417"></polygon>
            </g>
            <g id="icon_offline_fail" transform="translate(30.937500, 29.937500)">
                <g id="icon_offline_conflict" transform="translate(0.104065, 0.665731)">
                    <g id="Group-6" transform="translate(1.453125, 2.906250)">
                        <g id="Group-3" transform="translate(0.000000, 0.000000)">
                            <path d="M13.2353779,-0.022838688 C13.3044917,-0.022838688 13.3703714,0.00930348058 13.4336433,0.0577056214 L13.4336433,0.0577056214 L26.0836821,23.3103924 C26.2259797,23.5737971 26.2829446,23.8260238 26.172053,24.0109905 C26.0603579,24.1972974 25.8088476,24.2673683 25.5077725,24.2673683 L25.5077725,24.2673683 L0.963453705,24.2673683 C0.66154995,24.2673683 0.410442574,24.197589 0.299042174,24.0117737 C0.187866449,23.8263332 0.245415352,23.5734846 0.387544187,23.3103924 L0.387544187,23.3103924 L12.7574572,0.412665241 C12.8411925,0.257664328 12.9339245,0.136847476 13.0375237,0.0575536301 C13.1007094,0.00919183641 13.1664485,-0.022838688 13.2353779,-0.022838688 Z" id="Triangle-6" stroke="#D48D1A" stroke-width="0.9375" fill="#FFB132"></path>
                            <g id="Group" transform="translate(11.625000, 7.265625)" fill="#FFFFFF">
                                <path d="M1.26409748,8.82459207 C1.26409748,7.57355627 1.12795302,6.39282109 0.85566002,5.28235111 C0.583367019,4.17188112 0.298701333,3.0122305 0.00165442309,1.80336444 C0.00165442309,1.32544065 0.131610497,0.928348168 0.391526543,0.612075072 C0.65144259,0.295801976 1.07844112,0.137667799 1.67253494,0.137667799 C2.19236703,0.137667799 2.58223525,0.292287883 2.8421513,0.601532688 C3.10206735,0.910777493 3.23202342,1.32544044 3.23202342,1.84553398 C3.23202342,2.09855246 3.02161835,3.04032933 2.60080189,4.67089284 C2.17998544,6.30145636 1.96958036,7.68600893 1.96958036,8.82459207 L1.26409748,8.82459207 Z" id="!"></path>
                                <circle id="Oval-83" cx="1.61683892" cy="11.7378533" r="1.6151845"></circle>
                            </g>
                        </g>
                    </g>
                </g>
            </g>
        </g>
        <g id="icon/60*60/loading" transform="translate(180.000000, 0.000000)">
            <rect id="Rectangle-Copy-2" x="0" y="0" width="60" height="60"></rect>
            <path d="M29.987836,18.7530826 L29.987836,18.7530826 C29.987836,19.1499802 30.2971458,19.4745553 30.6932926,19.5008316 C36.3026613,19.8724538 40.709075,24.6452345 40.4906062,30.3974963 C40.2838991,35.8449528 35.8447026,40.2838991 30.3974963,40.4908564 C24.6449843,40.7093253 19.8724538,36.3029115 19.5005814,30.6932926 C19.474305,30.2973961 19.1497299,29.9880862 18.7528324,29.9880862 C18.322151,29.9880862 17.9735518,30.350199 18.0015799,30.7801296 C18.4192482,37.1978079 23.876965,42.2408593 30.4558047,41.9911092 C36.6815408,41.7548725 41.7546223,36.681791 41.9911092,30.4558047 C42.2408593,23.8772152 37.1978079,18.4194985 30.7801296,18.0015799 C30.3499487,17.9735518 29.987836,18.322151 29.987836,18.7530826" id="loading-copy" fill="#3492ED"></path>
        </g>
        <g id="icon/60*60/success" transform="translate(240.000000, 0.000000)">
            <rect id="Rectangle-Copy-3" x="0" y="0" width="60" height="60"></rect>
            <path d="M30,14 C38.8365714,14 46,21.1634286 46,30 C46,38.8388571 38.8365714,46 30,46 C21.1634286,46 14,38.8388571 14,30 C14,21.1634286 21.1634286,14 30,14 Z M36.3192698,25.3294443 L28.1247654,33.4647793 L24.3283492,29.6888988 C23.8475231,29.2115445 23.0700171,29.2115445 22.589191,29.6888988 C22.1083649,30.166253 22.1083649,30.938145 22.589191,31.4154992 L27.2654166,36.0445234 C27.5007145,36.2781223 27.8178551,36.4 28.1349958,36.4 C28.4521364,36.4 28.7590467,36.2781223 29.0045749,36.0445234 L38.058428,27.0560447 C38.5392541,26.5786904 38.5392541,25.8067985 38.058428,25.3294443 C37.5776019,24.85209 36.8000959,24.85209 36.3192698,25.3294443 Z" id="successful_fill-copy" fill="#67C630"></path>
        </g>
    </g>
</svg>