<?xml version="1.0" encoding="UTF-8"?>
<svg width="12px" height="9px" viewBox="0 0 12 9" version="1.1" xmlns="http://www.w3.org/2000/svg" xmlns:xlink="http://www.w3.org/1999/xlink">
    <title>Shape</title>
    <g id="Specs" stroke="none" stroke-width="1" fill="none" fill-rule="evenodd">
        <g id="Flow-1-12" transform="translate(-308.000000, -285.000000)" fill="#FFFFFF" fill-rule="nonzero">
            <g id="Group" transform="translate(293.000000, 168.000000)">
                <path d="M17.5,117 L18.5,117 L18.5,118 L17.5,118 L17.5,120.5 C17.5,121.052285 17.0522847,121.5 16.5,121.5 C17.0522847,121.5 17.5,121.947715 17.5,122.5 L17.5,125 L18.5,125 L18.5,126 L17.5,126 C16.965,125.865 16.5,125.55 16.5,125 L16.5,123 C16.5,122.734784 16.3946432,122.48043 16.2071068,122.292893 C16.0195704,122.105357 15.7652165,122 15.5,122 L15,122 L15,121 L15.5,121 C16.0522848,121 16.5,120.552285 16.5,120 L16.5,118 C16.5,117.447715 16.9477152,117 17.5,117 M24.5,117 C25.0522848,117 25.5,117.447715 25.5,118 L25.5,120 C25.5,120.552285 25.9477152,121 26.5,121 L27,121 L27,122 L26.5,122 C26.2347835,122 25.9804296,122.105357 25.7928932,122.292893 C25.6053568,122.48043 25.5,122.734784 25.5,123 L25.5,125 C25.5,125.552285 25.0522848,126 24.5,126 L23.5,126 L23.5,125 L24.5,125 L24.5,122.5 C24.5,122.234784 24.6053568,121.98043 24.7928932,121.792893 C24.9804296,121.605357 25.2347835,121.5 25.5,121.5 C25.2347835,121.5 24.9804296,121.394643 24.7928932,121.207107 C24.6053568,121.01957 24.5,120.765216 24.5,120.5 L24.5,118 L23.5,118 L23.5,117 L24.5,117 M21,123 C21.2761424,123 21.5,123.223858 21.5,123.5 C21.5,123.776142 21.2761424,124 21,124 C20.7238576,124 20.5,123.776142 20.5,123.5 C20.5,123.223858 20.7238576,123 21,123 M19,123 C19.1326082,123 19.2597852,123.052678 19.3535534,123.146447 C19.4473216,123.240215 19.5,123.367392 19.5,123.5 C19.5,123.776142 19.2761424,124 19,124 C18.7238576,124 18.5,123.776142 18.5,123.5 C18.5,123.223858 18.7238576,123 19,123 M23,123 C23.2761424,123 23.5,123.223858 23.5,123.5 C23.5,123.776142 23.2761424,124 23,124 C22.7238576,124 22.5,123.776142 22.5,123.5 C22.5,123.223858 22.7238576,123 23,123 Z" id="Shape"></path>
            </g>
        </g>
    </g>
</svg>