<svg width="275" height="226" viewBox="0 0 275 226" fill="none" xmlns="http://www.w3.org/2000/svg">
<g id="Group 2">
<g id="Group 4">
<g id="Rectangle" filter="url(#filter0_d_1_8738)">
<path fill-rule="evenodd" clip-rule="evenodd" d="M4.43445 3.30362C4.43445 2.69411 4.92856 2.2 5.53807 2.2H117.474C118.083 2.2 118.577 2.6941 118.577 3.30362V95.1043C118.577 95.7138 118.083 96.2079 117.474 96.2079H5.53807C4.92856 96.2079 4.43445 95.7138 4.43445 95.1043V3.30362Z" fill="white"/>
</g>
<g id="Object">
<mask id="mask0_1_8738" style="mask-type:alpha" maskUnits="userSpaceOnUse" x="4" y="2" width="115" height="95">
<path id="Rectangle_2" fill-rule="evenodd" clip-rule="evenodd" d="M4.43445 3.30362C4.43445 2.69411 4.92856 2.2 5.53807 2.2H117.474C118.083 2.2 118.577 2.6941 118.577 3.30362V95.1043C118.577 95.7138 118.083 96.2079 117.474 96.2079H5.53807C4.92856 96.2079 4.43445 95.7138 4.43445 95.1043V3.30362Z" fill="white"/>
</mask>
<g mask="url(#mask0_1_8738)">
<g id="blue page">
<path id="Mask" fill-rule="evenodd" clip-rule="evenodd" d="M4.43445 2.2H118.577V62.3651H4.43445V2.2Z" fill="#0E6FF9"/>
<mask id="mask1_1_8738" style="mask-type:alpha" maskUnits="userSpaceOnUse" x="4" y="2" width="115" height="61">
<path id="Mask_2" fill-rule="evenodd" clip-rule="evenodd" d="M4.43445 2.2H118.577V62.3651H4.43445V2.2Z" fill="white"/>
</mask>
<g mask="url(#mask1_1_8738)">
<path id="Rectangle_3" opacity="0.1" fill-rule="evenodd" clip-rule="evenodd" d="M51.0138 62.982L118.577 32.8538L118.577 62.9363L51.0138 62.982Z" fill="white"/>
<path id="Rectangle_4" opacity="0.06" fill-rule="evenodd" clip-rule="evenodd" d="M44.8937 65.8278L4.43445 -19.7907V65.8278H44.8937Z" fill="white"/>
<path id="Rectangle_5" opacity="0.06" fill-rule="evenodd" clip-rule="evenodd" d="M55.0084 2.53709L4.43439 77.9629V2.53709H55.0084Z" fill="white"/>
</g>
</g>
</g>
</g>
<path id="Rectangle 7" fill-rule="evenodd" clip-rule="evenodd" d="M18.7023 75.8533C18.7023 74.6342 19.6905 73.646 20.9095 73.646H102.102C103.321 73.646 104.309 74.6342 104.309 75.8533V77.0793C104.309 78.2983 103.321 79.2865 102.102 79.2865H20.9095C19.6905 79.2865 18.7023 78.2983 18.7023 77.0793V75.8533Z" fill="#D8D8D8"/>
</g>

<g id="Group 14">
<g id="Rectangle_11" filter="url(#filter2_d_1_8738)">
<path fill-rule="evenodd" clip-rule="evenodd" d="M4.43445 126.904C4.43445 126.294 4.92856 125.8 5.53807 125.8H117.474C118.083 125.8 118.577 126.294 118.577 126.904V218.704C118.577 219.314 118.083 219.808 117.474 219.808H5.53807C4.92856 219.808 4.43445 219.314 4.43445 218.704V126.904Z" fill="white"/>
</g>
<g id="Object_3">
<mask id="mask4_1_8738" style="mask-type:alpha" maskUnits="userSpaceOnUse" x="4" y="125" width="115" height="95">
<path id="Rectangle_12" fill-rule="evenodd" clip-rule="evenodd" d="M4.43445 126.904C4.43445 126.294 4.92856 125.8 5.53807 125.8H117.474C118.083 125.8 118.577 126.294 118.577 126.904V218.704C118.577 219.314 118.083 219.808 117.474 219.808H5.53807C4.92856 219.808 4.43445 219.314 4.43445 218.704V126.904Z" fill="white"/>
</mask>
<g mask="url(#mask4_1_8738)">
<g id="blue page_3">
<path id="Mask_5" fill-rule="evenodd" clip-rule="evenodd" d="M4.43445 125.8H118.577V185.965H4.43445V125.8Z" fill="#0E6FF9"/>
<mask id="mask5_1_8738" style="mask-type:alpha" maskUnits="userSpaceOnUse" x="4" y="125" width="115" height="61">
<path id="Mask_6" fill-rule="evenodd" clip-rule="evenodd" d="M4.43445 125.8H118.577V185.965H4.43445V125.8Z" fill="white"/>
</mask>
<g mask="url(#mask5_1_8738)">
<path id="Rectangle_13" opacity="0.1" fill-rule="evenodd" clip-rule="evenodd" d="M51.0138 186.582L118.577 156.454L118.577 186.536L51.0138 186.582Z" fill="white"/>
<path id="Rectangle_14" opacity="0.06" fill-rule="evenodd" clip-rule="evenodd" d="M44.8937 189.428L4.43445 103.809V189.428H44.8937Z" fill="white"/>
<path id="Rectangle_15" opacity="0.06" fill-rule="evenodd" clip-rule="evenodd" d="M55.0084 126.137L4.43439 201.563V126.137H55.0084Z" fill="white"/>
</g>
</g>
</g>
</g>
<path id="Rectangle 7_3" fill-rule="evenodd" clip-rule="evenodd" d="M18.7023 199.453C18.7023 198.234 19.6905 197.246 20.9095 197.246H102.102C103.321 197.246 104.309 198.234 104.309 199.453V200.679C104.309 201.898 103.321 202.887 102.102 202.887H20.9095C19.6905 202.887 18.7023 201.898 18.7023 200.679V199.453Z" fill="#D8D8D8"/>
</g>
</g>
<defs>
<filter id="filter0_d_1_8738" x="0.434448" y="0.199997" width="122.143" height="102.008" filterUnits="userSpaceOnUse" color-interpolation-filters="sRGB">
<feFlood flood-opacity="0" result="BackgroundImageFix"/>
<feColorMatrix in="SourceAlpha" type="matrix" values="0 0 0 0 0 0 0 0 0 0 0 0 0 0 0 0 0 0 127 0" result="hardAlpha"/>
<feOffset dy="2"/>
<feGaussianBlur stdDeviation="2"/>
<feColorMatrix type="matrix" values="0 0 0 0 0 0 0 0 0 0 0 0 0 0 0 0 0 0 0.12 0"/>
<feBlend mode="normal" in2="BackgroundImageFix" result="effect1_dropShadow_1_8738"/>
<feBlend mode="normal" in="SourceGraphic" in2="effect1_dropShadow_1_8738" result="shape"/>
</filter>
<filter id="filter1_d_1_8738" x="152.708" y="0.199997" width="122.143" height="102.008" filterUnits="userSpaceOnUse" color-interpolation-filters="sRGB">
<feFlood flood-opacity="0" result="BackgroundImageFix"/>
<feColorMatrix in="SourceAlpha" type="matrix" values="0 0 0 0 0 0 0 0 0 0 0 0 0 0 0 0 0 0 127 0" result="hardAlpha"/>
<feOffset dy="2"/>
<feGaussianBlur stdDeviation="2"/>
<feColorMatrix type="matrix" values="0 0 0 0 0 0 0 0 0 0 0 0 0 0 0 0 0 0 0.12 0"/>
<feBlend mode="normal" in2="BackgroundImageFix" result="effect1_dropShadow_1_8738"/>
<feBlend mode="normal" in="SourceGraphic" in2="effect1_dropShadow_1_8738" result="shape"/>
</filter>
<filter id="filter2_d_1_8738" x="0.434448" y="123.8" width="122.143" height="102.008" filterUnits="userSpaceOnUse" color-interpolation-filters="sRGB">
<feFlood flood-opacity="0" result="BackgroundImageFix"/>
<feColorMatrix in="SourceAlpha" type="matrix" values="0 0 0 0 0 0 0 0 0 0 0 0 0 0 0 0 0 0 127 0" result="hardAlpha"/>
<feOffset dy="2"/>
<feGaussianBlur stdDeviation="2"/>
<feColorMatrix type="matrix" values="0 0 0 0 0 0 0 0 0 0 0 0 0 0 0 0 0 0 0.12 0"/>
<feBlend mode="normal" in2="BackgroundImageFix" result="effect1_dropShadow_1_8738"/>
<feBlend mode="normal" in="SourceGraphic" in2="effect1_dropShadow_1_8738" result="shape"/>
</filter>
<filter id="filter3_d_1_8738" x="152.708" y="123.8" width="122.143" height="102.008" filterUnits="userSpaceOnUse" color-interpolation-filters="sRGB">
<feFlood flood-opacity="0" result="BackgroundImageFix"/>
<feColorMatrix in="SourceAlpha" type="matrix" values="0 0 0 0 0 0 0 0 0 0 0 0 0 0 0 0 0 0 127 0" result="hardAlpha"/>
<feOffset dy="2"/>
<feGaussianBlur stdDeviation="2"/>
<feColorMatrix type="matrix" values="0 0 0 0 0 0 0 0 0 0 0 0 0 0 0 0 0 0 0.12 0"/>
<feBlend mode="normal" in2="BackgroundImageFix" result="effect1_dropShadow_1_8738"/>
<feBlend mode="normal" in="SourceGraphic" in2="effect1_dropShadow_1_8738" result="shape"/>
</filter>
</defs>
</svg>
