<?xml version="1.0" encoding="UTF-8" standalone="no" ?>
<!DOCTYPE svg PUBLIC "-//W3C//DTD SVG 1.1//EN" "http://www.w3.org/Graphics/SVG/1.1/DTD/svg11.dtd">
<svg xmlns="http://www.w3.org/2000/svg" xmlns:xlink="http://www.w3.org/1999/xlink" version="1.1" width="464" height="262" viewBox="0 0 1080 1080" xml:space="preserve">
<desc>Created with Fabric.js 4.2.0</desc>
<defs>
</defs>
<g transform="matrix(1 0 0 1 540 540)" id="30fdd5d6-27ef-41ff-a0a1-495735391c88"  >
</g>
<g transform="matrix(1 0 0 1 540 540)" id="fe6ba381-c754-49b5-a51f-d70b22967df1"  >
<rect style="stroke: none; stroke-width: 1; stroke-dasharray: none; stroke-linecap: butt; stroke-dashoffset: 0; stroke-linejoin: miter; stroke-miterlimit: 4; fill: rgb(255,255,255); fill-rule: nonzero; opacity: 1;" vector-effect="non-scaling-stroke"  x="-540" y="-540" rx="0" ry="0" width="1080" height="1080" />
</g>
<g transform="matrix(3.64 0 0 3.64 110.09 88.98)"  >
<path style="stroke: none; stroke-width: 1; stroke-dasharray: none; stroke-linecap: butt; stroke-dashoffset: 0; stroke-linejoin: miter; stroke-miterlimit: 4; fill: rgb(0,0,0); fill-rule: evenodd; opacity: 1;" vector-effect="non-scaling-stroke"  transform=" translate(-28.56, -23.5)" d="M 0 0.560621669 C 0 0.250998871 0.254659799 0 0.547007567 0 L 56.5717418 0 C 56.8738458 0 57.1187494 0.252894189 57.1187494 0.560621669 L 57.1187494 46.4433492 C 57.1187494 46.752972 56.8640896 47.0039709 56.5717418 47.0039709 L 0.547007567 47.0039709 C 0.24490363 47.0039709 0 46.7510767 0 46.4433492 L 0 0.560621669 Z" stroke-linecap="round" />
</g>
<g transform="matrix(3.64 0 0 3.64 110.09 88.98)"  >
<path style="stroke: none; stroke-width: 1; stroke-dasharray: none; stroke-linecap: butt; stroke-dashoffset: 0; stroke-linejoin: miter; stroke-miterlimit: 4; fill: rgb(255,255,255); fill-rule: evenodd; opacity: 1;" vector-effect="non-scaling-stroke"  transform=" translate(-28.56, -23.5)" d="M 0 0.560621669 C 0 0.250998871 0.254659799 0 0.547007567 0 L 56.5717418 0 C 56.8738458 0 57.1187494 0.252894189 57.1187494 0.560621669 L 57.1187494 46.4433492 C 57.1187494 46.752972 56.8640896 47.0039709 56.5717418 47.0039709 L 0.547007567 47.0039709 C 0.24490363 47.0039709 0 46.7510767 0 46.4433492 L 0 0.560621669 Z" stroke-linecap="round" />
</g>
<g transform="matrix(3.64 0 0 3.64 110.09 58.18)"  >
<polygon style="stroke: none; stroke-width: 1; stroke-dasharray: none; stroke-linecap: butt; stroke-dashoffset: 0; stroke-linejoin: miter; stroke-miterlimit: 4; fill: rgb(14,111,249); fill-rule: evenodd; opacity: 1;" vector-effect="non-scaling-stroke"  points="-28.56,-15.04 28.56,-15.04 28.56,15.04 -28.56,15.04 " />
</g>
<g transform="matrix(3.42 1.24 -1.24 3.42 161.41 89.86)" id="Rectangle"  >
<polygon style="stroke: none; stroke-width: 1; stroke-dasharray: none; stroke-linecap: butt; stroke-dashoffset: 0; stroke-linejoin: miter; stroke-miterlimit: 4; fill: rgb(255,255,255); fill-rule: evenodd; opacity: 0.1;" vector-effect="non-scaling-stroke"  points="-15.88,12.86 10.74,-12.86 15.88,1.27 " />
</g>
<g transform="matrix(-3.64 0 0 3.64 43.04 41.41)" id="Rectangle"  >
<polygon style="stroke: none; stroke-width: 1; stroke-dasharray: none; stroke-linecap: butt; stroke-dashoffset: 0; stroke-linejoin: miter; stroke-miterlimit: 4; fill: rgb(255,255,255); fill-rule: evenodd; opacity: 0.06;" vector-effect="non-scaling-stroke"  points="-10.12,21.4 10.12,-21.4 10.12,21.4 " />
</g>
<g transform="matrix(-3.64 0 0 -3.64 52.27 72.79)" id="Rectangle"  >
<polygon style="stroke: none; stroke-width: 1; stroke-dasharray: none; stroke-linecap: butt; stroke-dashoffset: 0; stroke-linejoin: miter; stroke-miterlimit: 4; fill: rgb(255,255,255); fill-rule: evenodd; opacity: 0.06;" vector-effect="non-scaling-stroke"  points="-12.65,18.86 12.65,-18.86 12.65,18.86 " />
</g>
<g transform="matrix(3.64 0 0 3.64 110.11 138.7)"  >
<path style="stroke: none; stroke-width: 1; stroke-dasharray: none; stroke-linecap: butt; stroke-dashoffset: 0; stroke-linejoin: miter; stroke-miterlimit: 4; fill: rgb(216,216,216); fill-rule: evenodd; opacity: 1;" vector-effect="non-scaling-stroke"  transform=" translate(-28.56, -37.13)" d="M 8.24346336 35.7230179 L 48.875286 35.7230179 C 49.4847984 35.7230179 49.9789057 36.2171252 49.9789057 36.8266375 L 49.9789057 37.4396364 C 49.9789057 38.0491487 49.4847984 38.5432561 48.875286 38.5432561 L 8.24346336 38.5432561 C 7.63395104 38.5432561 7.13984368 38.0491487 7.13984368 37.4396364 L 7.13984368 36.8266375 C 7.13984368 36.2171252 7.63395104 35.7230179 8.24346336 35.7230179 Z" stroke-linecap="round" />
</g>
<g transform="matrix(3.64 0 0 3.64 387.68 88.98)"  >
<path style="stroke: none; stroke-width: 1; stroke-dasharray: none; stroke-linecap: butt; stroke-dashoffset: 0; stroke-linejoin: miter; stroke-miterlimit: 4; fill: rgb(0,0,0); fill-rule: evenodd; opacity: 1;" vector-effect="non-scaling-stroke"  transform=" translate(-28.56, -23.5)" d="M 0 0.560621669 C 0 0.250998871 0.254659799 0 0.547007567 0 L 56.5717418 0 C 56.8738458 0 57.1187494 0.252894189 57.1187494 0.560621669 L 57.1187494 46.4433492 C 57.1187494 46.752972 56.8640896 47.0039709 56.5717418 47.0039709 L 0.547007567 47.0039709 C 0.24490363 47.0039709 0 46.7510767 0 46.4433492 L 0 0.560621669 Z" stroke-linecap="round" />
</g>
<g transform="matrix(3.64 0 0 3.64 387.68 88.98)"  >
<path style="stroke: none; stroke-width: 1; stroke-dasharray: none; stroke-linecap: butt; stroke-dashoffset: 0; stroke-linejoin: miter; stroke-miterlimit: 4; fill: rgb(255,255,255); fill-rule: evenodd; opacity: 1;" vector-effect="non-scaling-stroke"  transform=" translate(-28.56, -23.5)" d="M 0 0.560621669 C 0 0.250998871 0.254659799 0 0.547007567 0 L 56.5717418 0 C 56.8738458 0 57.1187494 0.252894189 57.1187494 0.560621669 L 57.1187494 46.4433492 C 57.1187494 46.752972 56.8640896 47.0039709 56.5717418 47.0039709 L 0.547007567 47.0039709 C 0.24490363 47.0039709 0 46.7510767 0 46.4433492 L 0 0.560621669 Z" stroke-linecap="round" />
</g>
<g transform="matrix(3.64 0 0 3.64 387.68 58.18)"  >
<polygon style="stroke: none; stroke-width: 1; stroke-dasharray: none; stroke-linecap: butt; stroke-dashoffset: 0; stroke-linejoin: miter; stroke-miterlimit: 4; fill: rgb(14,111,249); fill-rule: evenodd; opacity: 1;" vector-effect="non-scaling-stroke"  points="-28.56,-15.04 28.56,-15.04 28.56,15.04 -28.56,15.04 " />
</g>
<g transform="matrix(3.42 1.24 -1.24 3.42 439.01 89.86)" id="Rectangle"  >
<polygon style="stroke: none; stroke-width: 1; stroke-dasharray: none; stroke-linecap: butt; stroke-dashoffset: 0; stroke-linejoin: miter; stroke-miterlimit: 4; fill: rgb(255,255,255); fill-rule: evenodd; opacity: 0.1;" vector-effect="non-scaling-stroke"  points="-15.88,12.86 10.74,-12.86 15.88,1.27 " />
</g>
<g transform="matrix(-3.64 0 0 3.64 320.64 41.41)" id="Rectangle"  >
<polygon style="stroke: none; stroke-width: 1; stroke-dasharray: none; stroke-linecap: butt; stroke-dashoffset: 0; stroke-linejoin: miter; stroke-miterlimit: 4; fill: rgb(255,255,255); fill-rule: evenodd; opacity: 0.06;" vector-effect="non-scaling-stroke"  points="-10.12,21.4 10.12,-21.4 10.12,21.4 " />
</g>
<g transform="matrix(-3.64 0 0 -3.64 329.87 72.79)" id="Rectangle"  >
<polygon style="stroke: none; stroke-width: 1; stroke-dasharray: none; stroke-linecap: butt; stroke-dashoffset: 0; stroke-linejoin: miter; stroke-miterlimit: 4; fill: rgb(255,255,255); fill-rule: evenodd; opacity: 0.06;" vector-effect="non-scaling-stroke"  points="-12.65,18.86 12.65,-18.86 12.65,18.86 " />
</g>
<g transform="matrix(3.64 0 0 3.64 387.7 138.7)"  >
<path style="stroke: none; stroke-width: 1; stroke-dasharray: none; stroke-linecap: butt; stroke-dashoffset: 0; stroke-linejoin: miter; stroke-miterlimit: 4; fill: rgb(216,216,216); fill-rule: evenodd; opacity: 1;" vector-effect="non-scaling-stroke"  transform=" translate(-28.56, -37.13)" d="M 8.24346336 35.7230179 L 48.875286 35.7230179 C 49.4847984 35.7230179 49.9789057 36.2171252 49.9789057 36.8266375 L 49.9789057 37.4396364 C 49.9789057 38.0491487 49.4847984 38.5432561 48.875286 38.5432561 L 8.24346336 38.5432561 C 7.63395104 38.5432561 7.13984368 38.0491487 7.13984368 37.4396364 L 7.13984368 36.8266375 C 7.13984368 36.2171252 7.63395104 35.7230179 8.24346336 35.7230179 Z" stroke-linecap="round" />
</g>
<g transform="matrix(3.64 0 0 3.64 110.09 314.11)"  >
<path style="stroke: none; stroke-width: 1; stroke-dasharray: none; stroke-linecap: butt; stroke-dashoffset: 0; stroke-linejoin: miter; stroke-miterlimit: 4; fill: rgb(0,0,0); fill-rule: evenodd; opacity: 1;" vector-effect="non-scaling-stroke"  transform=" translate(-28.56, -23.5)" d="M 0 0.560621669 C 0 0.250998871 0.254659799 0 0.547007567 0 L 56.5717418 0 C 56.8738458 0 57.1187494 0.252894189 57.1187494 0.560621669 L 57.1187494 46.4433492 C 57.1187494 46.752972 56.8640896 47.0039709 56.5717418 47.0039709 L 0.547007567 47.0039709 C 0.24490363 47.0039709 0 46.7510767 0 46.4433492 L 0 0.560621669 Z" stroke-linecap="round" />
</g>
<g transform="matrix(3.64 0 0 3.64 110.09 314.11)"  >
<path style="stroke: none; stroke-width: 1; stroke-dasharray: none; stroke-linecap: butt; stroke-dashoffset: 0; stroke-linejoin: miter; stroke-miterlimit: 4; fill: rgb(255,255,255); fill-rule: evenodd; opacity: 1;" vector-effect="non-scaling-stroke"  transform=" translate(-28.56, -23.5)" d="M 0 0.560621669 C 0 0.250998871 0.254659799 0 0.547007567 0 L 56.5717418 0 C 56.8738458 0 57.1187494 0.252894189 57.1187494 0.560621669 L 57.1187494 46.4433492 C 57.1187494 46.752972 56.8640896 47.0039709 56.5717418 47.0039709 L 0.547007567 47.0039709 C 0.24490363 47.0039709 0 46.7510767 0 46.4433492 L 0 0.560621669 Z" stroke-linecap="round" />
</g>
<g transform="matrix(3.64 0 0 3.64 110.09 283.31)"  >
<polygon style="stroke: none; stroke-width: 1; stroke-dasharray: none; stroke-linecap: butt; stroke-dashoffset: 0; stroke-linejoin: miter; stroke-miterlimit: 4; fill: rgb(14,111,249); fill-rule: evenodd; opacity: 1;" vector-effect="non-scaling-stroke"  points="-28.56,-15.04 28.56,-15.04 28.56,15.04 -28.56,15.04 " />
</g>
<g transform="matrix(3.42 1.24 -1.24 3.42 161.41 314.99)" id="Rectangle"  >
<polygon style="stroke: none; stroke-width: 1; stroke-dasharray: none; stroke-linecap: butt; stroke-dashoffset: 0; stroke-linejoin: miter; stroke-miterlimit: 4; fill: rgb(255,255,255); fill-rule: evenodd; opacity: 0.1;" vector-effect="non-scaling-stroke"  points="-15.88,12.86 10.74,-12.86 15.88,1.27 " />
</g>
<g transform="matrix(-3.64 0 0 3.64 43.04 266.55)" id="Rectangle"  >
<polygon style="stroke: none; stroke-width: 1; stroke-dasharray: none; stroke-linecap: butt; stroke-dashoffset: 0; stroke-linejoin: miter; stroke-miterlimit: 4; fill: rgb(255,255,255); fill-rule: evenodd; opacity: 0.06;" vector-effect="non-scaling-stroke"  points="-10.12,21.4 10.12,-21.4 10.12,21.4 " />
</g>
<g transform="matrix(-3.64 0 0 -3.64 52.27 297.93)" id="Rectangle"  >
<polygon style="stroke: none; stroke-width: 1; stroke-dasharray: none; stroke-linecap: butt; stroke-dashoffset: 0; stroke-linejoin: miter; stroke-miterlimit: 4; fill: rgb(255,255,255); fill-rule: evenodd; opacity: 0.06;" vector-effect="non-scaling-stroke"  points="-12.65,18.86 12.65,-18.86 12.65,18.86 " />
</g>
<g transform="matrix(3.64 0 0 3.64 110.11 363.83)"  >
<path style="stroke: none; stroke-width: 1; stroke-dasharray: none; stroke-linecap: butt; stroke-dashoffset: 0; stroke-linejoin: miter; stroke-miterlimit: 4; fill: rgb(216,216,216); fill-rule: evenodd; opacity: 1;" vector-effect="non-scaling-stroke"  transform=" translate(-28.56, -37.13)" d="M 8.24346336 35.7230179 L 48.875286 35.7230179 C 49.4847984 35.7230179 49.9789057 36.2171252 49.9789057 36.8266375 L 49.9789057 37.4396364 C 49.9789057 38.0491487 49.4847984 38.5432561 48.875286 38.5432561 L 8.24346336 38.5432561 C 7.63395104 38.5432561 7.13984368 38.0491487 7.13984368 37.4396364 L 7.13984368 36.8266375 C 7.13984368 36.2171252 7.63395104 35.7230179 8.24346336 35.7230179 Z" stroke-linecap="round" />
</g>
<g transform="matrix(3.64 0 0 3.64 387.68 314.11)"  >
<path style="stroke: none; stroke-width: 1; stroke-dasharray: none; stroke-linecap: butt; stroke-dashoffset: 0; stroke-linejoin: miter; stroke-miterlimit: 4; fill: rgb(0,0,0); fill-rule: evenodd; opacity: 1;" vector-effect="non-scaling-stroke"  transform=" translate(-28.56, -23.5)" d="M 0 0.560621669 C 0 0.250998871 0.254659799 0 0.547007567 0 L 56.5717418 0 C 56.8738458 0 57.1187494 0.252894189 57.1187494 0.560621669 L 57.1187494 46.4433492 C 57.1187494 46.752972 56.8640896 47.0039709 56.5717418 47.0039709 L 0.547007567 47.0039709 C 0.24490363 47.0039709 0 46.7510767 0 46.4433492 L 0 0.560621669 Z" stroke-linecap="round" />
</g>
<g transform="matrix(3.64 0 0 3.64 387.68 314.11)"  >
<path style="stroke: none; stroke-width: 1; stroke-dasharray: none; stroke-linecap: butt; stroke-dashoffset: 0; stroke-linejoin: miter; stroke-miterlimit: 4; fill: rgb(255,255,255); fill-rule: evenodd; opacity: 1;" vector-effect="non-scaling-stroke"  transform=" translate(-28.56, -23.5)" d="M 0 0.560621669 C 0 0.250998871 0.254659799 0 0.547007567 0 L 56.5717418 0 C 56.8738458 0 57.1187494 0.252894189 57.1187494 0.560621669 L 57.1187494 46.4433492 C 57.1187494 46.752972 56.8640896 47.0039709 56.5717418 47.0039709 L 0.547007567 47.0039709 C 0.24490363 47.0039709 0 46.7510767 0 46.4433492 L 0 0.560621669 Z" stroke-linecap="round" />
</g>
<g transform="matrix(3.64 0 0 3.64 387.68 283.31)"  >
<polygon style="stroke: none; stroke-width: 1; stroke-dasharray: none; stroke-linecap: butt; stroke-dashoffset: 0; stroke-linejoin: miter; stroke-miterlimit: 4; fill: rgb(14,111,249); fill-rule: evenodd; opacity: 1;" vector-effect="non-scaling-stroke"  points="-28.56,-15.04 28.56,-15.04 28.56,15.04 -28.56,15.04 " />
</g>
<g transform="matrix(3.42 1.24 -1.24 3.42 439.01 314.99)" id="Rectangle"  >
<polygon style="stroke: none; stroke-width: 1; stroke-dasharray: none; stroke-linecap: butt; stroke-dashoffset: 0; stroke-linejoin: miter; stroke-miterlimit: 4; fill: rgb(255,255,255); fill-rule: evenodd; opacity: 0.1;" vector-effect="non-scaling-stroke"  points="-15.88,12.86 10.74,-12.86 15.88,1.27 " />
</g>
<g transform="matrix(-3.64 0 0 3.64 320.64 266.55)" id="Rectangle"  >
<polygon style="stroke: none; stroke-width: 1; stroke-dasharray: none; stroke-linecap: butt; stroke-dashoffset: 0; stroke-linejoin: miter; stroke-miterlimit: 4; fill: rgb(255,255,255); fill-rule: evenodd; opacity: 0.06;" vector-effect="non-scaling-stroke"  points="-10.12,21.4 10.12,-21.4 10.12,21.4 " />
</g>
<g transform="matrix(-3.64 0 0 -3.64 329.87 297.93)" id="Rectangle"  >
<polygon style="stroke: none; stroke-width: 1; stroke-dasharray: none; stroke-linecap: butt; stroke-dashoffset: 0; stroke-linejoin: miter; stroke-miterlimit: 4; fill: rgb(255,255,255); fill-rule: evenodd; opacity: 0.06;" vector-effect="non-scaling-stroke"  points="-12.65,18.86 12.65,-18.86 12.65,18.86 " />
</g>
<g transform="matrix(3.64 0 0 3.64 387.7 363.83)"  >
<path style="stroke: none; stroke-width: 1; stroke-dasharray: none; stroke-linecap: butt; stroke-dashoffset: 0; stroke-linejoin: miter; stroke-miterlimit: 4; fill: rgb(216,216,216); fill-rule: evenodd; opacity: 1;" vector-effect="non-scaling-stroke"  transform=" translate(-28.56, -37.13)" d="M 8.24346336 35.7230179 L 48.875286 35.7230179 C 49.4847984 35.7230179 49.9789057 36.2171252 49.9789057 36.8266375 L 49.9789057 37.4396364 C 49.9789057 38.0491487 49.4847984 38.5432561 48.875286 38.5432561 L 8.24346336 38.5432561 C 7.63395104 38.5432561 7.13984368 38.0491487 7.13984368 37.4396364 L 7.13984368 36.8266375 C 7.13984368 36.2171252 7.63395104 35.7230179 8.24346336 35.7230179 Z" stroke-linecap="round" />
</g>
<g transform="matrix(3.64 0 0 3.64 661.46 89.36)"  >
<path style="stroke: none; stroke-width: 1; stroke-dasharray: none; stroke-linecap: butt; stroke-dashoffset: 0; stroke-linejoin: miter; stroke-miterlimit: 4; fill: rgb(0,0,0); fill-rule: evenodd; opacity: 1;" vector-effect="non-scaling-stroke"  transform=" translate(-28.56, -23.5)" d="M 0 0.560621669 C 0 0.250998871 0.254659799 0 0.547007567 0 L 56.5717418 0 C 56.8738458 0 57.1187494 0.252894189 57.1187494 0.560621669 L 57.1187494 46.4433492 C 57.1187494 46.752972 56.8640896 47.0039709 56.5717418 47.0039709 L 0.547007567 47.0039709 C 0.24490363 47.0039709 0 46.7510767 0 46.4433492 L 0 0.560621669 Z" stroke-linecap="round" />
</g>
<g transform="matrix(3.64 0 0 3.64 661.46 89.36)"  >
<path style="stroke: none; stroke-width: 1; stroke-dasharray: none; stroke-linecap: butt; stroke-dashoffset: 0; stroke-linejoin: miter; stroke-miterlimit: 4; fill: rgb(255,255,255); fill-rule: evenodd; opacity: 1;" vector-effect="non-scaling-stroke"  transform=" translate(-28.56, -23.5)" d="M 0 0.560621669 C 0 0.250998871 0.254659799 0 0.547007567 0 L 56.5717418 0 C 56.8738458 0 57.1187494 0.252894189 57.1187494 0.560621669 L 57.1187494 46.4433492 C 57.1187494 46.752972 56.8640896 47.0039709 56.5717418 47.0039709 L 0.547007567 47.0039709 C 0.24490363 47.0039709 0 46.7510767 0 46.4433492 L 0 0.560621669 Z" stroke-linecap="round" />
</g>
<g transform="matrix(3.64 0 0 3.64 661.46 58.56)"  >
<polygon style="stroke: none; stroke-width: 1; stroke-dasharray: none; stroke-linecap: butt; stroke-dashoffset: 0; stroke-linejoin: miter; stroke-miterlimit: 4; fill: rgb(14,111,249); fill-rule: evenodd; opacity: 1;" vector-effect="non-scaling-stroke"  points="-28.56,-15.04 28.56,-15.04 28.56,15.04 -28.56,15.04 " />
</g>
<g transform="matrix(3.42 1.24 -1.24 3.42 712.78 90.24)"  >
<polygon style="stroke: none; stroke-width: 1; stroke-dasharray: none; stroke-linecap: butt; stroke-dashoffset: 0; stroke-linejoin: miter; stroke-miterlimit: 4; fill: rgb(255,255,255); fill-rule: evenodd; opacity: 0.1;" vector-effect="non-scaling-stroke"  points="-15.88,12.86 10.74,-12.86 15.88,1.27 " />
</g>
<g transform="matrix(-3.64 0 0 3.64 594.41 41.79)"  >
<polygon style="stroke: none; stroke-width: 1; stroke-dasharray: none; stroke-linecap: butt; stroke-dashoffset: 0; stroke-linejoin: miter; stroke-miterlimit: 4; fill: rgb(255,255,255); fill-rule: evenodd; opacity: 0.06;" vector-effect="non-scaling-stroke"  points="-10.12,21.4 10.12,-21.4 10.12,21.4 " />
</g>
<g transform="matrix(-3.64 0 0 -3.64 603.64 73.17)"  >
<polygon style="stroke: none; stroke-width: 1; stroke-dasharray: none; stroke-linecap: butt; stroke-dashoffset: 0; stroke-linejoin: miter; stroke-miterlimit: 4; fill: rgb(255,255,255); fill-rule: evenodd; opacity: 0.06;" vector-effect="non-scaling-stroke"  points="-12.65,18.86 12.65,-18.86 12.65,18.86 " />
</g>
<g transform="matrix(3.64 0 0 3.64 661.48 139.08)"  >
<path style="stroke: none; stroke-width: 1; stroke-dasharray: none; stroke-linecap: butt; stroke-dashoffset: 0; stroke-linejoin: miter; stroke-miterlimit: 4; fill: rgb(216,216,216); fill-rule: evenodd; opacity: 1;" vector-effect="non-scaling-stroke"  transform=" translate(-28.56, -37.13)" d="M 8.24346336 35.7230179 L 48.875286 35.7230179 C 49.4847984 35.7230179 49.9789057 36.2171252 49.9789057 36.8266375 L 49.9789057 37.4396364 C 49.9789057 38.0491487 49.4847984 38.5432561 48.875286 38.5432561 L 8.24346336 38.5432561 C 7.63395104 38.5432561 7.13984368 38.0491487 7.13984368 37.4396364 L 7.13984368 36.8266375 C 7.13984368 36.2171252 7.63395104 35.7230179 8.24346336 35.7230179 Z" stroke-linecap="round" />
</g>
<g transform="matrix(-3.64 0 0 3.64 594.41 266.93)"  >
<polygon style="stroke: none; stroke-width: 1; stroke-dasharray: none; stroke-linecap: butt; stroke-dashoffset: 0; stroke-linejoin: miter; stroke-miterlimit: 4; fill: rgb(255,255,255); fill-rule: evenodd; opacity: 0.06;" vector-effect="non-scaling-stroke"  points="-10.12,21.4 10.12,-21.4 10.12,21.4 " />
</g>
<g transform="matrix(3.64 0 0 3.64 661.46 317.45)"  >
<path style="stroke: none; stroke-width: 1; stroke-dasharray: none; stroke-linecap: butt; stroke-dashoffset: 0; stroke-linejoin: miter; stroke-miterlimit: 4; fill: rgb(0,0,0); fill-rule: evenodd; opacity: 1;" vector-effect="non-scaling-stroke"  transform=" translate(-28.56, -23.5)" d="M 0 0.560621669 C 0 0.250998871 0.254659799 0 0.547007567 0 L 56.5717418 0 C 56.8738458 0 57.1187494 0.252894189 57.1187494 0.560621669 L 57.1187494 46.4433492 C 57.1187494 46.752972 56.8640896 47.0039709 56.5717418 47.0039709 L 0.547007567 47.0039709 C 0.24490363 47.0039709 0 46.7510767 0 46.4433492 L 0 0.560621669 Z" stroke-linecap="round" />
</g>
<g transform="matrix(3.64 0 0 3.64 661.46 317.45)"  >
<path style="stroke: none; stroke-width: 1; stroke-dasharray: none; stroke-linecap: butt; stroke-dashoffset: 0; stroke-linejoin: miter; stroke-miterlimit: 4; fill: rgb(255,255,255); fill-rule: evenodd; opacity: 1;" vector-effect="non-scaling-stroke"  transform=" translate(-28.56, -23.5)" d="M 0 0.560621669 C 0 0.250998871 0.254659799 0 0.547007567 0 L 56.5717418 0 C 56.8738458 0 57.1187494 0.252894189 57.1187494 0.560621669 L 57.1187494 46.4433492 C 57.1187494 46.752972 56.8640896 47.0039709 56.5717418 47.0039709 L 0.547007567 47.0039709 C 0.24490363 47.0039709 0 46.7510767 0 46.4433492 L 0 0.560621669 Z" stroke-linecap="round" />
</g>
<g transform="matrix(3.64 0 0 3.64 661.46 286.65)"  >
<polygon style="stroke: none; stroke-width: 1; stroke-dasharray: none; stroke-linecap: butt; stroke-dashoffset: 0; stroke-linejoin: miter; stroke-miterlimit: 4; fill: rgb(14,111,249); fill-rule: evenodd; opacity: 1;" vector-effect="non-scaling-stroke"  points="-28.56,-15.04 28.56,-15.04 28.56,15.04 -28.56,15.04 " />
</g>
<g transform="matrix(3.42 1.24 -1.24 3.42 712.78 318.33)"  >
<polygon style="stroke: none; stroke-width: 1; stroke-dasharray: none; stroke-linecap: butt; stroke-dashoffset: 0; stroke-linejoin: miter; stroke-miterlimit: 4; fill: rgb(255,255,255); fill-rule: evenodd; opacity: 0.1;" vector-effect="non-scaling-stroke"  points="-15.88,12.86 10.74,-12.86 15.88,1.27 " />
</g>
<g transform="matrix(-3.64 0 0 3.64 580.67 268.51)"  >
<polygon style="stroke: none; stroke-width: 1; stroke-dasharray: none; stroke-linecap: butt; stroke-dashoffset: 0; stroke-linejoin: miter; stroke-miterlimit: 4; fill: rgb(255,255,255); fill-rule: evenodd; opacity: 0.06;" vector-effect="non-scaling-stroke"  points="-10.12,21.4 10.12,-21.4 10.12,21.4 " />
</g>
<g transform="matrix(-3.64 0 0 -3.64 603.64 301.26)"  >
<polygon style="stroke: none; stroke-width: 1; stroke-dasharray: none; stroke-linecap: butt; stroke-dashoffset: 0; stroke-linejoin: miter; stroke-miterlimit: 4; fill: rgb(255,255,255); fill-rule: evenodd; opacity: 0.06;" vector-effect="non-scaling-stroke"  points="-12.65,18.86 12.65,-18.86 12.65,18.86 " />
</g>
<g transform="matrix(3.64 0 0 3.64 661.48 367.17)"  >
<path style="stroke: none; stroke-width: 1; stroke-dasharray: none; stroke-linecap: butt; stroke-dashoffset: 0; stroke-linejoin: miter; stroke-miterlimit: 4; fill: rgb(216,216,216); fill-rule: evenodd; opacity: 1;" vector-effect="non-scaling-stroke"  transform=" translate(-28.56, -37.13)" d="M 8.24346336 35.7230179 L 48.875286 35.7230179 C 49.4847984 35.7230179 49.9789057 36.2171252 49.9789057 36.8266375 L 49.9789057 37.4396364 C 49.9789057 38.0491487 49.4847984 38.5432561 48.875286 38.5432561 L 8.24346336 38.5432561 C 7.63395104 38.5432561 7.13984368 38.0491487 7.13984368 37.4396364 L 7.13984368 36.8266375 C 7.13984368 36.2171252 7.63395104 35.7230179 8.24346336 35.7230179 Z" stroke-linecap="round" />
</g>
<g transform="matrix(-3.64 0 0 3.64 594.41 495.02)"  >
<polygon style="stroke: none; stroke-width: 1; stroke-dasharray: none; stroke-linecap: butt; stroke-dashoffset: 0; stroke-linejoin: miter; stroke-miterlimit: 4; fill: rgb(255,255,255); fill-rule: evenodd; opacity: 0.06;" vector-effect="non-scaling-stroke"  points="-10.12,21.4 10.12,-21.4 10.12,21.4 " />
</g>
</svg>