<svg width="24" height="22" viewBox="0 0 24 22" fill="none" xmlns="http://www.w3.org/2000/svg">
<path fill-rule="evenodd" clip-rule="evenodd" d="M7.2 4.88889H3.2V4.07407H7.2V4.88889ZM3.2 6.51852H7.2V5.7037H3.2V6.51852ZM20.8 10.5926H16.8V9.77778H20.8V10.5926ZM20.8 12.2222H16.8V11.4074H20.8V12.2222ZM0 22H24V21.1852H0V22ZM2.4 0.407407C2.4 0.183333 2.58 0 2.8 0H7.5752C7.7952 0 7.9752 0.183333 7.9752 0.407407V19.9377C7.9752 20.1618 7.7952 20.3451 7.5752 20.3451H2.8C2.58 20.3451 2.4 20.1618 2.4 19.9377V0.407407ZM9.5752 17.9259H14.3752V19.9377C14.3752 20.1618 14.1952 20.3451 13.9752 20.3451H9.9752C9.7544 20.3451 9.5752 20.1618 9.5752 19.9377V17.9259ZM9.6 17.1111H14.4V9.77778H9.6V17.1111ZM9.6 6.92593C9.6 6.70185 9.78 6.51852 10 6.51852H14C14.22 6.51852 14.4 6.70185 14.4 6.92593V8.96296H9.6V6.92593ZM16 2.98793C16 2.68889 16.24 2.44444 16.5336 2.44444H21.0664C21.36 2.44444 21.6 2.68889 21.6 2.98793V19.9377C21.6 20.1618 21.42 20.3451 21.2 20.3451H16.4C16.18 20.3451 16 20.1618 16 19.9377V2.98793Z" fill="#0E6FF9"/>
</svg>
