<svg width="56" height="10" viewBox="0 0 56 10" fill="none" xmlns="http://www.w3.org/2000/svg">
<path fill-rule="evenodd" clip-rule="evenodd" d="M8.90538 1.80655C9.09122 1.80655 9.24121 1.65659 9.24121 1.47141C9.24121 1.28722 9.09122 1.13712 8.90538 1.13712C8.72008 1.13712 8.57013 1.28722 8.57013 1.47141C8.57013 1.65659 8.72008 1.80655 8.90538 1.80655ZM10.3267 1.53016L9.5175 1.68607L9.90562 2.18874L9.35988 1.99848L9.40206 2.5011L9.02247 2.09786L8.86561 2.90407L8.72521 2.09786L8.22939 2.59868L8.43607 1.99181L7.99016 2.02335L8.27883 1.70255L7.5602 1.54699L8.27117 1.40641L7.84972 0.955064L8.34486 1.04452L8.17181 0.501543L8.69992 0.904895L8.87385 0L9.07161 0.79005L9.50142 0.509783L9.38586 1.119L10.0046 0.955064L9.64951 1.38186L10.3267 1.53016ZM55.0604 3.47449C55.0604 3.2159 55.2708 3.00713 55.5294 3.00713C55.7888 3.00713 56 3.2159 56 3.47449C56 3.73331 55.7888 3.94284 55.5294 3.94284C55.2708 3.94284 55.0604 3.73331 55.0604 3.47449ZM55.5295 3.86424C55.7458 3.86424 55.9202 3.68974 55.9202 3.47449C55.9202 3.2598 55.7458 3.08539 55.5295 3.08539C55.3143 3.08539 55.1396 3.2598 55.1396 3.47449C55.1396 3.68974 55.3143 3.86424 55.5295 3.86424ZM4.79366 1.32236L4.13489 3.60548C4.07074 3.83347 4.03304 4.08093 3.99694 4.31789L3.98794 4.37691H3.93373L3.12815 1.32236H0.945134L0 7.13819H2.05272L2.30015 4.65462C2.32336 4.42324 2.33915 4.18424 2.35409 3.95255H2.42386C2.43962 4.19933 2.49357 4.43088 2.55582 4.67774L3.31432 7.13819H4.55372L5.39739 4.53142C5.45486 4.35876 5.49252 4.17264 5.52907 3.99202L5.53707 3.95255H5.57531L5.86192 7.13819H7.91353L6.95419 1.32236H4.79366ZM9.91918 3.04248V4.46888C10.1725 3.58021 10.9492 2.95003 11.9523 2.95003C12.3711 2.95003 12.8047 3.02699 13.2066 3.15796V4.81649C12.9983 4.63926 12.758 4.47721 12.4715 4.47721C12.1075 4.47721 11.8444 4.71618 11.8444 5.08643C11.8444 5.41048 12.1075 5.67253 12.4325 5.67253C12.7422 5.67253 12.9748 5.5186 13.2066 5.35628L13.1218 7.0377C12.8121 7.13816 12.464 7.23063 12.1152 7.23063C11.0203 7.23063 10.1828 6.72366 9.91918 5.78029V7.13816H7.9216V3.04248H9.91918ZM47.4744 5.02539C47.4255 5.33404 47.2205 5.59623 46.8797 5.59623C46.5322 5.59623 46.3541 5.34953 46.4067 5.01791C46.4585 4.69394 46.7249 4.43158 47.0495 4.43158C47.3825 4.43158 47.5232 4.71675 47.4744 5.02539ZM42.6645 4.56981L42.6607 4.59413H42.6599V4.59427H42.6356H41.6983H41.6645L41.6698 4.56108C41.717 4.26529 41.8924 4.06081 42.1283 4.01453C42.1621 4.00795 42.1973 4.00426 42.2332 4.00426C42.3633 4.00426 42.4785 4.05594 42.5587 4.14931C42.6513 4.25725 42.69 4.4106 42.6645 4.56981ZM34.9306 5.06158C34.8804 5.37792 34.6775 5.67852 34.2981 5.67852C33.9341 5.67852 33.8231 5.40104 33.8752 5.07716C33.9228 4.77624 34.1661 4.51419 34.4832 4.51419C34.8009 4.51419 34.9809 4.74534 34.9306 5.06158ZM19.0648 5.69216C18.7551 5.69216 18.5075 5.45295 18.5075 5.12899C18.5075 4.79742 18.7317 4.52742 19.0648 4.52742C19.3979 4.52742 19.6223 4.79742 19.6223 5.12899C19.6223 5.45295 19.3745 5.69216 19.0648 5.69216ZM52.9014 2.97075L52.1887 4.57502L51.9893 5.19983H51.9348L51.918 4.57502L51.7159 2.97075H49.6678H49.5637H47.7326L47.6936 3.55688H47.6388C47.4368 3.12494 47.0732 2.87834 46.5465 2.87834C45.5514 2.87834 44.8054 3.73332 44.5254 4.62899C44.42 3.5717 43.5348 2.95001 42.3446 2.95001C41.4444 2.95001 40.6016 3.35159 40.0921 4.04461L40.2477 3.06555L39.5773 3.09642L39.7956 1.72344H37.7823L37.5638 3.09642L37.145 3.06973L37.148 3.0484H35.1884L35.1738 3.53442H35.1269C34.8969 3.13321 34.514 2.95598 34.0192 2.95598C33.0489 2.95598 32.3286 3.74119 32.0205 4.60175L32.2773 2.98587C31.6071 2.97038 31.2243 3.08618 30.7823 3.62594H30.7358L30.8693 3.07832H28.8718L28.8714 3.07994L28.1906 3.10838L28.4087 1.73539H26.3956L26.1769 3.10838L25.6941 3.07776L25.4962 4.32296C25.2929 3.91467 24.8637 3.67486 24.3145 3.54788L23.852 3.43994C23.835 3.43575 23.8167 3.43164 23.7978 3.42738C23.6425 3.39243 23.4407 3.34702 23.4706 3.15469C23.509 2.91545 23.7908 2.84622 23.9771 2.84622C24.434 2.84622 24.8139 3.03911 25.1385 3.28575L25.9475 1.79714C25.4302 1.45005 24.8442 1.28776 24.178 1.28776C22.908 1.28776 21.5231 2.05936 21.3041 3.43994C21.1593 4.35023 21.7791 4.83605 22.5841 4.98247L22.9981 5.05979C23.0164 5.06358 23.0356 5.06721 23.0552 5.07093C23.2358 5.1052 23.4561 5.14702 23.4183 5.38376C23.3771 5.64589 23.0305 5.7307 22.8212 5.7307C22.3336 5.7307 21.9149 5.49167 21.5818 5.19849C21.5818 5.19849 21.5383 5.15758 21.465 5.08144C21.4336 3.68611 20.31 2.95001 18.9742 2.95001C18.0912 2.95001 17.3019 3.27339 16.8579 3.8946V2.95001C16.1844 2.93457 15.8205 3.05005 15.464 3.59004H15.4178L15.464 3.04242H13.4663V7.13813H15.464V5.56462C15.464 5.05544 15.7276 4.74723 16.2457 4.74723C16.3473 4.74723 16.4296 4.76604 16.5076 4.79267C16.4918 4.90464 16.4808 5.01926 16.4808 5.14043C16.4808 6.49806 17.6892 7.23054 18.9742 7.23054C19.5705 7.23054 20.148 7.07133 20.5979 6.76716C21.2013 7.09188 22.009 7.28884 22.7363 7.28884C23.9981 7.28884 25.3777 6.60255 25.5985 5.21398C25.6333 4.99442 25.6266 4.80355 25.594 4.63184L25.9393 4.60476L25.5344 7.15008H27.5472L27.9517 4.60476L28.6224 4.64449L28.2206 7.17399H30.218L30.4681 5.60048C30.549 5.09148 30.861 4.7831 31.3803 4.7831C31.6153 4.7831 31.7462 4.86893 31.9133 4.97878L31.9086 5.00036C31.9004 5.03875 31.892 5.0774 31.8863 5.11556C31.7284 6.11044 32.169 7.23652 33.284 7.23652C33.8493 7.23652 34.2133 6.98988 34.6389 6.60432H34.6854L34.5372 7.14431H36.4969L36.8969 4.62624L37.3261 4.59281L36.9209 7.13813H38.9345L39.3389 4.59281L39.7787 4.61837C39.7127 4.78759 39.6624 4.96601 39.6321 5.15592C39.4083 6.56738 40.4873 7.23054 41.7803 7.23054C42.725 7.23054 43.9048 6.77551 44.3255 5.78836H42.3812C42.3116 5.98117 42.1342 6.12758 41.9246 6.12758C41.5069 6.12758 41.5112 5.75751 41.564 5.42592H44.4039C44.4084 6.31378 44.8855 7.15887 45.8588 7.15887C46.3305 7.15887 46.9022 6.92776 47.1743 6.48036H47.2287L47.1234 6.89674C46.9959 7.40592 46.6083 7.79903 46.0666 7.79903C45.5783 7.79903 45.0338 7.62177 44.7056 7.29798L44.0443 8.67827L44.2355 8.74811C44.7896 8.96391 45.3138 9.07199 45.9492 9.07199C47.3814 9.07199 48.8007 8.42406 49.0553 6.82722L49.6329 3.18953L50.7349 6.65777L49.3409 8.75569H51.4467L54.9996 2.97075H52.9014ZM55.5265 3.50216C55.5226 3.50195 55.5187 3.50175 55.5148 3.50148H55.4094V3.74443H55.3344V3.20554H55.5275C55.6186 3.20554 55.7119 3.23392 55.7119 3.34093C55.7119 3.40567 55.6725 3.45572 55.6095 3.47104V3.47214C55.6751 3.48836 55.6839 3.52219 55.6924 3.58269C55.6934 3.5894 55.6944 3.59615 55.6953 3.60294C55.7021 3.65062 55.7091 3.69993 55.7261 3.74443H55.6459L55.6433 3.73257C55.6369 3.70405 55.63 3.67357 55.6268 3.64522C55.6258 3.6371 55.625 3.62911 55.6242 3.62131C55.6201 3.58263 55.6166 3.54869 55.5953 3.52611C55.5771 3.50477 55.5519 3.50346 55.5265 3.50216ZM55.5315 3.27011H55.408V3.43706H55.5315C55.6152 3.43326 55.6329 3.39598 55.6329 3.35358C55.6329 3.31105 55.6152 3.27364 55.5315 3.27011Z" fill="#D9232E"/>
</svg>
