<svg width="18" height="18" viewBox="0 0 18 18" fill="none" xmlns="http://www.w3.org/2000/svg">
<rect x="2.5" y="2.5" width="13" height="13" rx="6.5" stroke="#3492ED"/>
<path fill-rule="evenodd" clip-rule="evenodd" d="M6 9.5C5.72386 9.5 5.5 9.27614 5.5 9C5.5 8.72386 5.72386 8.5 6 8.5H8.5V6C8.5 5.72386 8.72386 5.5 9 5.5C9.27614 5.5 9.5 5.72386 9.5 6V8.5H12C12.2761 8.5 12.5 8.72386 12.5 9C12.5 9.27614 12.2761 9.5 12 9.5H9.5V12C9.5 12.2761 9.27614 12.5 9 12.5C8.72386 12.5 8.5 12.2761 8.5 12V9.5H6Z" fill="#3492ED"/>
</svg>
