<svg width="66" height="66" viewBox="0 0 66 66" fill="none" xmlns="http://www.w3.org/2000/svg">
<path fill-rule="evenodd" clip-rule="evenodd" d="M3.4999 38.5C4.8811 38.5 5.99981 37.3812 5.99981 36V8.5C5.99981 7.11875 7.11851 6 8.49971 6H31.4551C32.8238 6 33.9737 4.91875 33.9987 3.55625C34.03 2.15 32.8988 1 31.4988 1H3.4999C2.11871 1 1 2.11875 1 3.5V36C1 37.3812 2.11871 38.5 3.4999 38.5ZM62.4414 32C61.0727 32.0312 59.9977 33.175 59.9977 34.5438V57.5C59.9977 58.8812 58.879 60 57.4978 60H39.3735C37.9923 60 36.8736 61.1188 36.8736 62.5C36.8736 63.8812 37.9923 65 39.3735 65H62.4976C63.8788 65 64.9975 63.8812 64.9975 62.5V34.5C64.9975 33.1 63.8476 31.9688 62.4414 32ZM31.8176 38.5063C26.9615 33.6562 27.6427 32.6063 28.6552 31.2563C36.8986 22.7375 55.8729 4.29375 58.5353 2.51875C58.587 2.48885 58.6428 2.45596 58.7023 2.42082L58.7025 2.42073C59.6637 1.85356 61.6128 0.703362 63.7726 2.16875C66.2225 3.8375 64.3976 7.4875 63.5038 8.775C58.0665 16.6 43.3546 37.1125 39.8985 40.5688C37.8236 42.3375 35.9174 42.6063 31.8176 38.5063ZM25.9803 36.5062C24.7053 35.2687 22.9554 34.9938 22.0742 35.9C21.193 36.8063 21.518 38.5438 22.7992 39.7812L31.2551 47.85C32.53 49.0875 34.28 49.3625 35.1612 48.4562C36.0424 47.55 35.7174 45.8125 34.4362 44.575L25.9803 36.5062ZM10.4121 51.3438C10.7309 44.2875 19.0243 39.7812 19.0243 39.7812L31.3738 51.1875C33.9362 66.2688 -1.13742 64.8187 1.10625 64.175C3.35616 63.5375 10.0934 58.4 10.4121 51.3438Z" fill="#E5EEF7"/>
<path d="M33.9987 3.55625L33.4988 3.54514L33.4988 3.54708L33.9987 3.55625ZM62.4414 32L62.4303 31.5001L62.43 31.5001L62.4414 32ZM28.6552 31.2563L28.2959 30.9086L28.274 30.9311L28.2552 30.9563L28.6552 31.2563ZM31.8176 38.5063L32.1711 38.1527L32.1709 38.1525L31.8176 38.5063ZM58.5353 2.51875L58.2852 2.08577L58.2713 2.09381L58.2579 2.10273L58.5353 2.51875ZM58.7023 2.42082L58.9565 2.85145L58.9599 2.84939L58.7023 2.42082ZM58.7025 2.42073L58.4484 1.9901L58.4449 1.99217L58.7025 2.42073ZM63.7726 2.16875L64.0541 1.75551L64.0533 1.755L63.7726 2.16875ZM63.5038 8.775L63.9144 9.06031L63.9146 9.06012L63.5038 8.775ZM39.8985 40.5688L40.2229 40.9493L40.238 40.9364L40.2521 40.9223L39.8985 40.5688ZM25.9803 36.5062L25.632 36.865L25.6351 36.868L25.9803 36.5062ZM22.7992 39.7812L22.4518 40.1409L22.454 40.143L22.7992 39.7812ZM31.2551 47.85L31.6033 47.4912L31.6003 47.4883L31.2551 47.85ZM35.1612 48.4562L34.8027 48.1077L35.1612 48.4562ZM34.4362 44.575L34.7836 44.2154L34.7814 44.2133L34.4362 44.575ZM19.0243 39.7812L19.3636 39.4139L19.1004 39.1709L18.7856 39.3419L19.0243 39.7812ZM10.4121 51.3438L10.9116 51.3663L10.4121 51.3438ZM31.3738 51.1875L31.8668 51.1037L31.8382 50.9358L31.7131 50.8202L31.3738 51.1875ZM1.10625 64.175L0.969939 63.6939L0.96835 63.6944L1.10625 64.175ZM5.49981 36C5.49981 37.1051 4.60494 38 3.4999 38V39C5.15726 39 6.49981 37.6574 6.49981 36H5.49981ZM5.49981 8.5V36H6.49981V8.5H5.49981ZM8.49971 5.5C6.84235 5.5 5.49981 6.84263 5.49981 8.5H6.49981C6.49981 7.39487 7.39467 6.5 8.49971 6.5V5.5ZM31.4551 5.5H8.49971V6.5H31.4551V5.5ZM33.4988 3.54708C33.4791 4.62391 32.5645 5.5 31.4551 5.5V6.5C33.083 6.5 34.4684 5.21359 34.4986 3.56542L33.4988 3.54708ZM31.4988 1.5C32.6191 1.5 33.5238 2.42014 33.4988 3.54514L34.4986 3.56736C34.5361 1.87986 33.1784 0.5 31.4988 0.5V1.5ZM3.4999 1.5H31.4988V0.5H3.4999V1.5ZM1.5 3.5C1.5 2.39487 2.39487 1.5 3.4999 1.5V0.5C1.84255 0.5 0.5 1.84263 0.5 3.5H1.5ZM1.5 36V3.5H0.5V36H1.5ZM3.4999 38C2.39487 38 1.5 37.1051 1.5 36H0.5C0.5 37.6574 1.84255 39 3.4999 39V38ZM60.4977 34.5438C60.4977 33.4354 61.3669 32.5247 62.4528 32.4999L62.43 31.5001C60.7785 31.5378 59.4977 32.9146 59.4977 34.5438H60.4977ZM60.4977 57.5V34.5438H59.4977V57.5H60.4977ZM57.4978 60.5C59.1552 60.5 60.4977 59.1574 60.4977 57.5H59.4977C59.4977 58.6051 58.6029 59.5 57.4978 59.5V60.5ZM39.3735 60.5H57.4978V59.5H39.3735V60.5ZM37.3736 62.5C37.3736 61.3949 38.2685 60.5 39.3735 60.5V59.5C37.7162 59.5 36.3736 60.8426 36.3736 62.5H37.3736ZM39.3735 64.5C38.2685 64.5 37.3736 63.6051 37.3736 62.5H36.3736C36.3736 64.1574 37.7162 65.5 39.3735 65.5V64.5ZM62.4976 64.5H39.3735V65.5H62.4976V64.5ZM64.4975 62.5C64.4975 63.6051 63.6027 64.5 62.4976 64.5V65.5C64.155 65.5 65.4975 64.1574 65.4975 62.5H64.4975ZM64.4975 34.5V62.5H65.4975V34.5H64.4975ZM62.4525 32.4999C63.5774 32.4749 64.4975 33.3796 64.4975 34.5H65.4975C65.4975 32.8204 64.1178 31.4626 62.4303 31.5001L62.4525 32.4999ZM28.2552 30.9563C28.0075 31.2865 27.7281 31.6624 27.5686 32.108C27.4004 32.5776 27.3726 33.0964 27.5566 33.712C27.9071 34.8844 29.0403 36.4392 31.4642 38.86L32.1709 38.1525C29.7387 35.7234 28.7845 34.3281 28.5147 33.4255C28.3886 33.0036 28.4174 32.7036 28.51 32.4451C28.6112 32.1626 28.7966 31.901 29.0552 31.5562L28.2552 30.9563ZM58.2579 2.10273C57.551 2.57405 55.8311 4.09395 53.5629 6.19289C51.2773 8.30806 48.3955 11.0488 45.3408 13.9989C39.2319 19.8986 32.423 26.6435 28.2959 30.9086L29.0145 31.604C33.1308 27.3502 39.9308 20.6139 46.0355 14.7183C49.0876 11.7707 51.9637 9.0353 54.2421 6.92684C56.5381 4.80214 58.1884 3.35095 58.8126 2.93477L58.2579 2.10273ZM58.4482 1.99021C58.3882 2.02562 58.3346 2.05726 58.2852 2.08577L58.7853 2.95173C58.8395 2.92044 58.8974 2.88629 58.9564 2.85144L58.4482 1.99021ZM58.4449 1.99217L58.4448 1.99226L58.9599 2.84939L58.96 2.8493L58.4449 1.99217ZM64.0533 1.755C61.6123 0.0988046 59.3941 1.43207 58.4484 1.99011L58.9566 2.85135C59.9332 2.27504 61.6133 1.30792 63.4918 2.5825L64.0533 1.755ZM63.9146 9.06012C64.385 8.38238 65.1022 7.08507 65.382 5.71485C65.6622 4.34211 65.5202 2.75414 64.0541 1.75551L63.4911 2.58199C64.4749 3.25211 64.6454 4.32352 64.4022 5.51484C64.1585 6.70868 63.5164 7.88012 63.0931 8.48988L63.9146 9.06012ZM40.2521 40.9223C41.1431 40.0312 42.7306 38.074 44.6763 35.5484C46.6301 33.0125 48.9656 29.8763 51.3616 26.6056C56.1535 20.0642 61.1933 12.9765 63.9144 9.06031L63.0932 8.48969C60.3771 12.3985 55.3422 19.4795 50.5549 26.0147C48.1612 29.2823 45.8309 32.4113 43.8842 34.9381C41.9295 37.4753 40.3819 39.3782 39.5449 40.2152L40.2521 40.9223ZM31.464 38.8598C33.5255 40.9214 35.12 41.9774 36.529 42.2304C37.9951 42.4937 39.1403 41.8721 40.2229 40.9493L39.5741 40.1882C38.5818 41.0341 37.7364 41.4313 36.7058 41.2462C35.6179 41.0508 34.2095 40.1911 32.1711 38.1527L31.464 38.8598ZM22.4327 36.2486C22.7302 35.9426 23.2078 35.8006 23.8026 35.8933C24.396 35.9857 25.0601 36.3099 25.632 36.865L26.3285 36.1475C25.6255 35.4651 24.7772 35.033 23.9566 34.9052C23.1374 34.7775 22.2994 34.9512 21.7157 35.5514L22.4327 36.2486ZM23.1465 39.4216C22.5716 38.8664 22.2273 38.2133 22.1173 37.6246C22.007 37.0347 22.1351 36.5546 22.4327 36.2486L21.7157 35.5514C21.1321 36.1517 20.982 36.9934 21.1343 37.8083C21.2868 38.6242 21.7455 39.4586 22.4518 40.1409L23.1465 39.4216ZM31.6003 47.4883L23.1443 39.4195L22.454 40.143L30.9099 48.2117L31.6003 47.4883ZM34.8027 48.1077C34.5052 48.4137 34.0276 48.5557 33.4328 48.463C32.8393 48.3705 32.1752 48.0463 31.6033 47.4912L30.9068 48.2088C31.6099 48.8912 32.4582 49.3232 33.2788 49.4511C34.098 49.5787 34.936 49.4051 35.5196 48.8048L34.8027 48.1077ZM34.0888 44.9346C34.6637 45.4899 35.0081 46.143 35.1181 46.7317C35.2283 47.3216 35.1003 47.8017 34.8027 48.1077L35.5196 48.8048C36.1033 48.2046 36.2534 47.3628 36.1011 46.548C35.9486 45.732 35.4899 44.8976 34.7836 44.2154L34.0888 44.9346ZM25.6351 36.868L34.091 44.9367L34.7814 44.2133L26.3255 36.1445L25.6351 36.868ZM19.0243 39.7812C18.7856 39.3419 18.7854 39.342 18.7852 39.3421C18.7851 39.3422 18.7849 39.3423 18.7847 39.3424C18.7842 39.3427 18.7837 39.343 18.783 39.3433C18.7816 39.3441 18.7797 39.3451 18.7774 39.3464C18.7726 39.349 18.7659 39.3527 18.7573 39.3575C18.7401 39.3671 18.7152 39.3811 18.6832 39.3994C18.6191 39.4359 18.5265 39.4898 18.4093 39.5604C18.1749 39.7016 17.8418 39.9102 17.4421 40.1823C16.6435 40.726 15.5743 41.5265 14.4933 42.554C12.344 44.5969 10.0806 47.602 9.91265 51.3212L10.9116 51.3663C11.0624 48.0292 13.1051 45.2531 15.1822 43.2788C16.2144 42.2977 17.2385 41.5306 18.0049 41.0089C18.3876 40.7483 18.7049 40.5497 18.9253 40.4169C19.0355 40.3506 19.1214 40.3007 19.179 40.2678C19.2078 40.2513 19.2295 40.2391 19.2437 40.2313C19.2508 40.2273 19.256 40.2244 19.2592 40.2227C19.2608 40.2218 19.262 40.2212 19.2626 40.2208C19.2629 40.2206 19.2631 40.2205 19.2632 40.2205C19.2632 40.2205 19.2632 40.2205 19.2632 40.2205C19.2631 40.2205 19.263 40.2206 19.0243 39.7812ZM31.7131 50.8202L19.3636 39.4139L18.6851 40.1486L31.0346 51.5548L31.7131 50.8202ZM0.96835 63.6944C0.918212 63.7088 0.842364 63.7336 0.7688 63.7782C0.727881 63.803 0.496191 63.9473 0.503074 64.2486C0.509612 64.5348 0.729127 64.6713 0.764027 64.6931C0.833443 64.7365 0.90494 64.7621 0.953042 64.7774C1.14286 64.8378 1.45271 64.8824 1.8194 64.918C2.58124 64.992 3.77524 65.0427 5.25091 65.0381C8.20441 65.0288 12.3278 64.7978 16.4465 64.0705C20.554 63.3452 24.7113 62.1175 27.6919 60.0827C29.1873 59.0618 30.4057 57.8249 31.1631 56.3276C31.9238 54.8238 32.2038 53.0877 31.8668 51.1037L30.8809 51.2713C31.1844 53.0576 30.9289 54.5752 30.2708 55.8762C29.6093 57.1838 28.5255 58.3028 27.1281 59.2568C24.3232 61.1716 20.3328 62.3688 16.2726 63.0857C12.2237 63.8007 8.15949 64.029 5.24778 64.0381C3.79085 64.0426 2.63285 63.9923 1.91606 63.9227C1.54343 63.8865 1.33231 63.8487 1.2561 63.8244C1.2377 63.8186 1.25862 63.8229 1.29397 63.845C1.2948 63.8456 1.49676 63.9607 1.50281 64.2258C1.50921 64.5059 1.29412 64.6291 1.28744 64.6332C1.24812 64.657 1.22417 64.6613 1.24414 64.6556L0.96835 63.6944ZM9.91265 51.3212C9.76023 54.6954 8.06989 57.6387 6.11041 59.8334C5.1331 60.928 4.09779 61.826 3.1738 62.4868C2.23964 63.1548 1.45146 63.5575 0.96994 63.6939L1.24255 64.6561C1.88598 64.4737 2.78368 63.9952 3.75551 63.3002C4.73749 62.5979 5.82827 61.6509 6.85636 60.4994C8.90765 58.2019 10.7453 55.0483 10.9116 51.3663L9.91265 51.3212Z" fill="#D2E4F5"/>
</svg>
