<?xml version="1.0" encoding="UTF-8"?>
<svg width="239px" height="120px" viewBox="0 0 239 120" version="1.1" xmlns="http://www.w3.org/2000/svg" xmlns:xlink="http://www.w3.org/1999/xlink">
    <title>Artboard</title>
    <g id="Artboard" stroke="none" stroke-width="1" fill="none" fill-rule="evenodd">
        <g id="Group">
            <g id="Group-7" transform="translate(182.848136, 0.000000)">
                <rect id="Rectangle" fill="#EDF4FA" x="0" y="0" width="31.5255406" height="98.5173144"></rect>
                <rect id="Rectangle" fill="#DFEBFA" x="2.36441555" y="3.15255406" width="26.7967095" height="11.8220777"></rect>
                <g id="Group-6" transform="translate(4.728831, 25.220432)" fill="#FFFFFF">
                    <circle id="Oval" cx="1.57627703" cy="1.57627703" r="1.57627703"></circle>
                    <circle id="Oval" cx="7.88138515" cy="1.57627703" r="1.57627703"></circle>
                    <circle id="Oval" cx="20.4916014" cy="1.57627703" r="1.57627703"></circle>
                    <circle id="Oval" cx="14.1864933" cy="1.57627703" r="1.57627703"></circle>
                    <circle id="Oval" cx="1.57627703" cy="9.45766218" r="1.57627703"></circle>
                    <circle id="Oval" cx="7.88138515" cy="9.45766218" r="1.57627703"></circle>
                    <circle id="Oval" cx="20.4916014" cy="9.45766218" r="1.57627703"></circle>
                    <circle id="Oval" cx="14.1864933" cy="9.45766218" r="1.57627703"></circle>
                </g>
                <rect id="Rectangle" fill="#DFEBFA" x="2.36441555" y="45.7120339" width="26.7967095" height="3.15255406" rx="1.57627703"></rect>
                <circle id="Oval" fill="#BDDAF6" cx="22.8560169" cy="47.2883109" r="1.57627703"></circle>
                <rect id="Rectangle" fill="#DFEBFA" x="2.36441555" y="53.593419" width="26.7967095" height="3.15255406" rx="1.57627703"></rect>
                <circle id="Oval" fill="#BDDAF6" cx="7.88138515" cy="55.1696961" r="1.57627703"></circle>
                <rect id="Rectangle" fill="#BEDAF6" x="3.15255406" y="83.5426826" width="1.57627703" height="5.51696961"></rect>
                <rect id="Rectangle" fill="#BEDAF6" x="7.09324664" y="81.1782671" width="1.57627703" height="7.88138515"></rect>
                <rect id="Rectangle" fill="#BEDAF6" x="11.0339392" y="83.5426826" width="1.57627703" height="5.51696961"></rect>
                <rect id="Rectangle" fill="#BEDAF6" x="14.9746318" y="82.7545441" width="1.57627703" height="6.30510812"></rect>
                <rect id="Rectangle" fill="#BEDAF6" x="18.9153244" y="78.8138515" width="1.57627703" height="10.2458007"></rect>
                <rect id="Rectangle" fill="#BEDAF6" x="22.8560169" y="81.1782671" width="1.57627703" height="7.88138515"></rect>
                <rect id="Rectangle" fill="#BEDAF6" x="26.7967095" y="83.5426826" width="1.57627703" height="5.51696961"></rect>
                <rect id="Rectangle" fill="#DFEBFA" x="0" y="95.3647604" width="31.5255406" height="3.15255406"></rect>
                <rect id="Rectangle" fill="#BDDAF6" x="11.0339392" y="95.3647604" width="9.45766218" height="3.15255406"></rect>
            </g>
            <g id="Group-7" transform="translate(145.805625, 0.000000)">
                <rect id="Rectangle" fill="#EDF4FA" x="0" y="0" width="31.5255406" height="98.5173144"></rect>
                <rect id="Rectangle" fill="#DFEBFA" x="2.36441555" y="3.15255406" width="26.7967095" height="11.8220777"></rect>
                <g id="Group-6" transform="translate(4.728831, 25.220432)" fill="#FFFFFF">
                    <circle id="Oval" cx="1.57627703" cy="1.57627703" r="1.57627703"></circle>
                    <circle id="Oval" cx="7.88138515" cy="1.57627703" r="1.57627703"></circle>
                    <circle id="Oval" cx="20.4916014" cy="1.57627703" r="1.57627703"></circle>
                    <circle id="Oval" cx="14.1864933" cy="1.57627703" r="1.57627703"></circle>
                    <circle id="Oval" cx="1.57627703" cy="9.45766218" r="1.57627703"></circle>
                    <circle id="Oval" cx="7.88138515" cy="9.45766218" r="1.57627703"></circle>
                    <circle id="Oval" cx="20.4916014" cy="9.45766218" r="1.57627703"></circle>
                    <circle id="Oval" cx="14.1864933" cy="9.45766218" r="1.57627703"></circle>
                </g>
                <rect id="Rectangle" fill="#DFEBFA" x="2.36441555" y="45.7120339" width="26.7967095" height="3.15255406" rx="1.57627703"></rect>
                <circle id="Oval" fill="#BDDAF6" cx="22.8560169" cy="47.2883109" r="1.57627703"></circle>
                <rect id="Rectangle" fill="#DFEBFA" x="2.36441555" y="53.593419" width="26.7967095" height="3.15255406" rx="1.57627703"></rect>
                <circle id="Oval" fill="#BDDAF6" cx="7.88138515" cy="55.1696961" r="1.57627703"></circle>
                <rect id="Rectangle" fill="#BEDAF6" x="3.15255406" y="83.5426826" width="1.57627703" height="5.51696961"></rect>
                <rect id="Rectangle" fill="#BEDAF6" x="7.09324664" y="81.1782671" width="1.57627703" height="7.88138515"></rect>
                <rect id="Rectangle" fill="#BEDAF6" x="11.0339392" y="83.5426826" width="1.57627703" height="5.51696961"></rect>
                <rect id="Rectangle" fill="#BEDAF6" x="14.9746318" y="82.7545441" width="1.57627703" height="6.30510812"></rect>
                <rect id="Rectangle" fill="#BEDAF6" x="18.9153244" y="78.8138515" width="1.57627703" height="10.2458007"></rect>
                <rect id="Rectangle" fill="#BEDAF6" x="22.8560169" y="81.1782671" width="1.57627703" height="7.88138515"></rect>
                <rect id="Rectangle" fill="#BEDAF6" x="26.7967095" y="83.5426826" width="1.57627703" height="5.51696961"></rect>
                <rect id="Rectangle" fill="#DFEBFA" x="0" y="95.3647604" width="31.5255406" height="3.15255406"></rect>
                <rect id="Rectangle" fill="#BDDAF6" x="11.0339392" y="95.3647604" width="9.45766218" height="3.15255406"></rect>
            </g>
            <g id="Group-7" transform="translate(108.763115, 0.000000)">
                <rect id="Rectangle" fill="#EDF4FA" x="0" y="0" width="31.5255406" height="98.5173144"></rect>
                <rect id="Rectangle" fill="#DFEBFA" x="2.36441555" y="3.15255406" width="26.7967095" height="11.8220777"></rect>
                <g id="Group-6" transform="translate(4.728831, 25.220432)" fill="#FFFFFF">
                    <circle id="Oval" cx="1.57627703" cy="1.57627703" r="1.57627703"></circle>
                    <circle id="Oval" cx="7.88138515" cy="1.57627703" r="1.57627703"></circle>
                    <circle id="Oval" cx="20.4916014" cy="1.57627703" r="1.57627703"></circle>
                    <circle id="Oval" cx="14.1864933" cy="1.57627703" r="1.57627703"></circle>
                    <circle id="Oval" cx="1.57627703" cy="9.45766218" r="1.57627703"></circle>
                    <circle id="Oval" cx="7.88138515" cy="9.45766218" r="1.57627703"></circle>
                    <circle id="Oval" cx="20.4916014" cy="9.45766218" r="1.57627703"></circle>
                    <circle id="Oval" cx="14.1864933" cy="9.45766218" r="1.57627703"></circle>
                </g>
                <rect id="Rectangle" fill="#DFEBFA" x="2.36441555" y="45.7120339" width="26.7967095" height="3.15255406" rx="1.57627703"></rect>
                <circle id="Oval" fill="#BDDAF6" cx="22.8560169" cy="47.2883109" r="1.57627703"></circle>
                <rect id="Rectangle" fill="#DFEBFA" x="2.36441555" y="53.593419" width="26.7967095" height="3.15255406" rx="1.57627703"></rect>
                <circle id="Oval" fill="#BDDAF6" cx="7.88138515" cy="55.1696961" r="1.57627703"></circle>
                <rect id="Rectangle" fill="#BEDAF6" x="3.15255406" y="83.5426826" width="1.57627703" height="5.51696961"></rect>
                <rect id="Rectangle" fill="#BEDAF6" x="7.09324664" y="81.1782671" width="1.57627703" height="7.88138515"></rect>
                <rect id="Rectangle" fill="#BEDAF6" x="11.0339392" y="83.5426826" width="1.57627703" height="5.51696961"></rect>
                <rect id="Rectangle" fill="#BEDAF6" x="14.9746318" y="82.7545441" width="1.57627703" height="6.30510812"></rect>
                <rect id="Rectangle" fill="#BEDAF6" x="18.9153244" y="78.8138515" width="1.57627703" height="10.2458007"></rect>
                <rect id="Rectangle" fill="#BEDAF6" x="22.8560169" y="81.1782671" width="1.57627703" height="7.88138515"></rect>
                <rect id="Rectangle" fill="#BEDAF6" x="26.7967095" y="83.5426826" width="1.57627703" height="5.51696961"></rect>
                <rect id="Rectangle" fill="#DFEBFA" x="0" y="95.3647604" width="31.5255406" height="3.15255406"></rect>
                <rect id="Rectangle" fill="#BDDAF6" x="11.0339392" y="95.3647604" width="9.45766218" height="3.15255406"></rect>
            </g>
            <path d="M104.439469,30.8200584 L74.1475119,30.8200584 C71.5358506,30.8200584 69.4186808,32.9372282 69.4186808,35.5488895 L69.4186808,53.7990881 L69.4186808,53.7990881" id="Path-3" stroke="#8BBCF0" stroke-width="0.788138515" stroke-dasharray="2.364415541939113"></path>
            <path d="M161.911089,103.246146 L141.076794,103.246146 C138.465133,103.246146 136.347963,105.363315 136.347963,107.974977 L136.347963,116.767513 L136.347963,116.767513" id="Path-3" stroke="#8BBCF0" stroke-width="0.788138515" stroke-dasharray="2.364415541939113" transform="translate(149.129526, 110.006829) scale(-1, -1) translate(-149.129526, -110.006829) "></path>
            <g id="Group-9" transform="translate(26.796710, 61.474804)">
                <path d="M95.3647604,0.394069258 C95.9088565,0.394069258 96.401443,0.614607778 96.7580056,0.971170324 C97.1145681,1.32773287 97.3351066,1.82031944 97.3351066,2.36441555 L97.3351066,2.36441555 L97.3351066,52.4112113 L8.27545441,52.4112113 L8.27545441,2.36441555 C8.27545441,1.82031944 8.49599293,1.32773287 8.85255548,0.971170324 C9.20911802,0.614607778 9.7017046,0.394069258 10.2458007,0.394069258 L10.2458007,0.394069258 Z" id="Rectangle" stroke="#D1E2F7" stroke-width="0.788138515" fill="#FFFFFF"></path>
                <path d="M103.246146,52.4112113 C103.790242,52.4112113 104.282828,52.6317498 104.639391,52.9883123 C104.995953,53.3448749 105.216492,53.8374615 105.216492,54.3815576 L105.216492,54.3815576 L105.216492,57.1400424 L0.394069258,57.1400424 L0.394069258,54.3815576 C0.394069258,53.8374615 0.614607778,53.3448749 0.971170324,52.9883123 C1.32773287,52.6317498 1.82031944,52.4112113 2.36441555,52.4112113 L2.36441555,52.4112113 Z" id="Rectangle" stroke="#D1E2F7" stroke-width="0.788138515" fill="#D1E2F7" transform="translate(52.805281, 54.775627) scale(1, -1) translate(-52.805281, -54.775627) "></path>
                <g id="Group-8" transform="translate(17.339047, 8.669524)">
                    <path d="M7.09324664,0 C11.0107386,0 14.1864933,3.17575469 14.1864933,7.09324664 C14.1864933,11.0107386 11.0107386,14.1864933 7.09324664,14.1864933 C3.17575469,14.1864933 0,11.0107386 0,7.09324664 C0,3.17575469 3.17575469,0 7.09324664,0 Z M7.09324664,2.36441555 C4.48158534,2.36441555 2.36441555,4.48158534 2.36441555,7.09324664 C2.36441555,9.70490793 4.48158534,11.8220777 7.09324664,11.8220777 C9.70490793,11.8220777 11.8220777,9.70490793 11.8220777,7.09324664 C11.8220777,4.48158534 9.70490793,2.36441555 7.09324664,2.36441555 Z" id="Combined-Shape" fill="#E5EFF7"></path>
                    <path d="M7.09324664,0 C8.97155028,0 10.6793378,0.730066343 11.948324,1.9219138 L10.3301557,3.64587067 C9.48414531,2.85119964 8.34554323,2.36441555 7.09324664,2.36441555 L7.09324664,0 L7.09324664,0 Z" id="Combined-Shape" fill="#9BCC4F"></path>
                </g>
                <g id="Group-8" transform="translate(45.712034, 8.669524)">
                    <path d="M7.09324664,0 C11.0107386,0 14.1864933,3.17575469 14.1864933,7.09324664 C14.1864933,11.0107386 11.0107386,14.1864933 7.09324664,14.1864933 C3.17575469,14.1864933 0,11.0107386 0,7.09324664 C0,3.17575469 3.17575469,0 7.09324664,0 Z M7.09324664,2.36441555 C4.48158534,2.36441555 2.36441555,4.48158534 2.36441555,7.09324664 C2.36441555,9.70490793 4.48158534,11.8220777 7.09324664,11.8220777 C9.70490793,11.8220777 11.8220777,9.70490793 11.8220777,7.09324664 C11.8220777,4.48158534 9.70490793,2.36441555 7.09324664,2.36441555 Z" id="Combined-Shape" fill="#E5EFF7"></path>
                    <path d="M7.09324664,0 C10.3808716,0 13.1461022,2.23663571 13.9503185,5.27128695 L11.6646847,5.87882133 C11.128614,3.85561141 9.28507404,2.36441555 7.09324664,2.36441555 L7.09324664,0 L7.09324664,0 Z" id="Combined-Shape" fill="#F8C673"></path>
                </g>
                <g id="Group-8" transform="translate(74.085020, 8.669524)">
                    <path d="M7.09324664,0 C11.0107386,0 14.1864933,3.17575469 14.1864933,7.09324664 C14.1864933,11.0107386 11.0107386,14.1864933 7.09324664,14.1864933 C3.17575469,14.1864933 0,11.0107386 0,7.09324664 C0,3.17575469 3.17575469,0 7.09324664,0 Z M7.09324664,2.36441555 C4.48158534,2.36441555 2.36441555,4.48158534 2.36441555,7.09324664 C2.36441555,9.70490793 4.48158534,11.8220777 7.09324664,11.8220777 C9.70490793,11.8220777 11.8220777,9.70490793 11.8220777,7.09324664 C11.8220777,4.48158534 9.70490793,2.36441555 7.09324664,2.36441555 Z" id="Combined-Shape" fill="#E5EFF7"></path>
                    <path d="M7.09324664,0 C11.0107386,0 14.1864933,3.17575469 14.1864933,7.09324664 C14.1864933,8.09936579 13.9770196,9.05655972 13.5993054,9.9235952 L11.4301654,8.98118684 C11.6822608,8.40288835 11.8220777,7.76439549 11.8220777,7.09324664 C11.8220777,4.48158534 9.70490793,2.36441555 7.09324664,2.36441555 L7.09324664,0 L7.09324664,0 Z" id="Combined-Shape" fill="#DA7D83"></path>
                </g>
                <rect id="Rectangle" fill="#E5EFF7" x="17.3390473" y="32.3136791" width="14.1864933" height="2.36441555"></rect>
                <rect id="Rectangle" fill="#E5EFF7" x="17.3390473" y="36.2543717" width="14.1864933" height="2.36441555"></rect>
                <rect id="Rectangle" fill="#E5EFF7" x="17.3390473" y="40.1950643" width="14.1864933" height="2.36441555"></rect>
                <rect id="Rectangle" fill="#E5EFF7" x="45.7120339" y="32.3136791" width="14.1864933" height="2.36441555"></rect>
                <rect id="Rectangle" fill="#E5EFF7" x="45.7120339" y="36.2543717" width="14.1864933" height="2.36441555"></rect>
                <rect id="Rectangle" fill="#E5EFF7" x="45.7120339" y="40.1950643" width="14.1864933" height="2.36441555"></rect>
                <rect id="Rectangle" fill="#E5EFF7" x="74.0850204" y="32.3136791" width="14.1864933" height="2.36441555"></rect>
                <rect id="Rectangle" fill="#E5EFF7" x="74.0850204" y="36.2543717" width="14.1864933" height="2.36441555"></rect>
                <rect id="Rectangle" fill="#E5EFF7" x="74.0850204" y="40.1950643" width="14.1864933" height="2.36441555"></rect>
            </g>
            <g id="Group-10" transform="translate(226.983892, 103.246146)" fill="#E5EEF7">
                <rect id="Rectangle" x="0" y="4.72883109" width="11.8220777" height="3.15255406" rx="1.57627703"></rect>
                <rect id="Rectangle" transform="translate(5.911039, 6.305108) rotate(90.000000) translate(-5.911039, -6.305108) " x="0" y="4.72883109" width="11.8220777" height="3.15255406" rx="1.57627703"></rect>
            </g>
            <g id="Group-10" transform="translate(34.678095, 8.669524)" fill="#E5EEF7">
                <rect id="Rectangle" x="0" y="4.72883109" width="11.8220777" height="3.15255406" rx="1.57627703"></rect>
                <rect id="Rectangle" transform="translate(5.911039, 6.305108) rotate(90.000000) translate(-5.911039, -6.305108) " x="0" y="4.72883109" width="11.8220777" height="3.15255406" rx="1.57627703"></rect>
            </g>
            <circle id="Oval" fill="#E5EEF7" cx="4.72883109" cy="26.008571" r="4.72883109"></circle>
            <polygon id="Path-6" fill="#E5EEF7" points="4.08185075 59.7274525 7.45971641 70.1443279 16.5554624 64.2732037"></polygon>
        </g>
    </g>
</svg>