<svg width="30" height="30" viewBox="0 0 30 30" fill="none" xmlns="http://www.w3.org/2000/svg">
<circle cx="15" cy="15" r="15" fill="#8ABFD9"/>
<path d="M10.5771 20.2461C12.8535 20.2461 14.4873 18.9268 14.7471 16.9512V16.9033H13.0176L13.0107 16.9375C12.7578 18.0244 11.8281 18.7217 10.5771 18.7217C8.89551 18.7217 7.84961 17.3203 7.84961 15.0713V15.0576C7.84961 12.8154 8.89551 11.4141 10.5703 11.4141C11.8145 11.4141 12.7578 12.1865 13.0107 13.3555L13.0176 13.3828H14.7471V13.3281C14.5146 11.3115 12.8125 9.88965 10.5703 9.88965C7.77441 9.88965 6.04492 11.8652 6.04492 15.0645V15.0781C6.04492 18.2637 7.78125 20.2461 10.5771 20.2461ZM20.1406 20.2461C22.5059 20.2461 23.9893 19.043 23.9893 17.1221V17.1152C23.9893 15.625 23.1211 14.791 21.043 14.3535L19.9834 14.1279C18.7529 13.8682 18.2539 13.4307 18.2539 12.7334V12.7266C18.2539 11.8857 19.0332 11.373 20.127 11.373C21.2549 11.3662 21.9863 11.9131 22.1094 12.6787L22.123 12.7607H23.8115L23.8047 12.6719C23.6816 11.0859 22.3213 9.88965 20.1338 9.88965C18.001 9.88965 16.4834 11.0791 16.4834 12.8428V12.8496C16.4834 14.3193 17.3584 15.2627 19.375 15.6865L20.4346 15.9053C21.7061 16.1787 22.2188 16.6094 22.2188 17.3203V17.3271C22.2188 18.1748 21.3848 18.7627 20.1953 18.7627C18.9443 18.7627 18.0625 18.2158 17.9805 17.3887L17.9736 17.3203H16.2646L16.2715 17.416C16.3945 19.1182 17.8506 20.2461 20.1406 20.2461Z" fill="white"/>
</svg>
