<svg width="12" height="16" viewBox="0 0 12 16" fill="none" xmlns="http://www.w3.org/2000/svg">
<path fill-rule="evenodd" clip-rule="evenodd" d="M10 0C11.1046 0 12 0.89543 12 2V3V4V11V12V14C12 15.1046 11.1046 16 10 16H2C0.89543 16 0 15.1046 0 14V12V11V4V3V2C0 0.89543 0.89543 0 2 0H10ZM11 4V11H1V4H11ZM1 14V12H11V14L10.9933 14.1166C10.9355 14.614 10.5128 15 10 15H2L1.88338 14.9933C1.38604 14.9355 1 14.5128 1 14ZM11 3H1V2L1.00673 1.88338C1.06449 1.38604 1.48716 1 2 1H10L10.1166 1.00673C10.614 1.06449 11 1.48716 11 2V3ZM5 13.4C5 12.9582 5.35817 12.6 5.8 12.6C6.24183 12.6 6.6 12.9582 6.6 13.4C6.6 13.8418 6.24183 14.2 5.8 14.2C5.35817 14.2 5 13.8418 5 13.4Z" fill="white"/>
</svg>
