<?xml version="1.0" encoding="UTF-8"?>
<svg width="10px" height="10px" viewBox="0 0 10 10" version="1.1" xmlns="http://www.w3.org/2000/svg" xmlns:xlink="http://www.w3.org/1999/xlink">
    <title>Shape</title>
    <g id="Specs" stroke="none" stroke-width="1" fill="none" fill-rule="evenodd">
        <g id="Flow-1-12" transform="translate(-309.000000, -254.000000)" fill="#000000" fill-rule="nonzero">
            <g id="Group" transform="translate(293.000000, 168.000000)">
                <path d="M22.25,86.5 C22.6642136,86.5 23,86.8357864 23,87.25 L23,89.75 C23,90.1642136 22.6642136,90.5 22.25,90.5 C21.8357864,90.5 21.5,90.1642136 21.5,89.75 L21.5,87.25 C21.5,86.8357864 21.8357864,86.5 22.25,86.5 Z M17.25,91.5 L18,91.5 L18,92.25 C18,92.6642136 17.6642136,93 17.25,93 C16.8357864,93 16.5,92.6642136 16.5,92.25 C16.5,91.8357864 16.8357864,91.5 17.25,91.5 L17.25,91.5 Z M21.5,94 L22.25,94 C22.6642136,94 23,94.3357864 23,94.75 C23,95.1642136 22.6642136,95.5 22.25,95.5 C21.8357864,95.5 21.5,95.1642136 21.5,94.75 L21.5,94 Z M22.25,91.5 L24.75,91.5 C25.1642136,91.5 25.5,91.8357864 25.5,92.25 C25.5,92.6642136 25.1642136,93 24.75,93 L22.25,93 C21.8357864,93 21.5,92.6642136 21.5,92.25 C21.5,91.8357864 21.8357864,91.5 22.25,91.5 Z M24.75,89 C25.1642136,89 25.5,89.3357864 25.5,89.75 C25.5,90.1642136 25.1642136,90.5 24.75,90.5 L24,90.5 L24,89.75 C24,89.3357864 24.3357864,89 24.75,89 L24.75,89 Z M17.25,89 L19.75,89 C20.1642136,89 20.5,89.3357864 20.5,89.75 C20.5,90.1642136 20.1642136,90.5 19.75,90.5 L17.25,90.5 C16.8357864,90.5 16.5,90.1642136 16.5,89.75 C16.5,89.3357864 16.8357864,89 17.25,89 Z M19.75,86.5 C19.9489124,86.5 20.1396778,86.5790176 20.2803301,86.7196699 C20.4209824,86.8603222 20.5,87.0510876 20.5,87.25 L20.5,88 L19.75,88 C19.3357864,88 19,87.6642136 19,87.25 C19,86.8357864 19.3357864,86.5 19.75,86.5 L19.75,86.5 Z M19.75,91.5 C20.1642136,91.5 20.5,91.8357864 20.5,92.25 L20.5,94.75 C20.5,95.1642136 20.1642136,95.5 19.75,95.5 C19.3357864,95.5 19,95.1642136 19,94.75 L19,92.25 C19,91.8357864 19.3357864,91.5 19.75,91.5 L19.75,91.5 Z" id="Shape"></path>
            </g>
        </g>
    </g>
</svg>