<svg width="13" height="14" viewBox="0 0 13 14" fill="none" xmlns="http://www.w3.org/2000/svg">
<path fill-rule="evenodd" clip-rule="evenodd" d="M6 3.1598C6 1.48776 7.62667 0 9.51204 0C11.347 0 13 1.57781 13 3.1598C13 4.11585 12.5279 5.02703 11.6024 5.88671L11.0925 8.28411C11.0099 8.67237 10.6614 8.9595 10.2433 8.99606L10.1527 9H8.84687C8.38479 9 7.98858 8.69431 7.90489 8.27322L7.43227 5.89563L7.37275 5.8469C6.51095 5.12406 6.04998 4.27776 6.00385 3.32039L6 3.1598ZM12 3.29982C12 2.17228 10.8018 1 9.51052 1C8.1698 1 7 2.09665 7 3.29982C7 4.10178 7.37111 4.7995 8.1301 5.40819L8.20639 5.46937L8.30929 6H10.7147L10.8229 5.4785L10.8851 5.42094C11.6342 4.7271 12 4.02218 12 3.29982ZM8.65504 7.78305L8.5032 7H10.5072L10.344 7.7863C10.3182 7.91048 10.2035 8 10.0703 8H8.92937C8.7948 8 8.67942 7.90875 8.65504 7.78305ZM0 2.5C0 2.22386 0.223858 2 0.5 2C0.776142 2 1 2.22386 1 2.5V13.5C1 13.7761 0.776142 14 0.5 14C0.223858 14 0 13.7761 0 13.5V2.5ZM4.5 6C4.22386 6 4 6.22386 4 6.5V13.5C4 13.7761 4.22386 14 4.5 14C4.77614 14 5 13.7761 5 13.5V6.5C5 6.22386 4.77614 6 4.5 6ZM8 11.5C8 11.2239 8.22386 11 8.5 11C8.77614 11 9 11.2239 9 11.5V13.5C9 13.7761 8.77614 14 8.5 14C8.22386 14 8 13.7761 8 13.5V11.5ZM12 12.5C12 12.2239 12.2239 12 12.5 12C12.7761 12 13 12.2239 13 12.5V13.5C13 13.7761 12.7761 14 12.5 14C12.2239 14 12 13.7761 12 13.5V12.5Z" fill="#29313B"/>
</svg>
