<svg width="36" height="36" viewBox="0 0 36 36" fill="none" xmlns="http://www.w3.org/2000/svg">
<path fill-rule="evenodd" clip-rule="evenodd" d="M3.12317 19.9505C1.88659 10.1385 10.1376 1.88658 19.9496 3.12315C26.6349 3.96597 32.034 9.36508 32.8759 16.0495C34.1134 25.8624 25.8615 34.1134 16.0495 32.8768C9.36415 32.035 3.96505 26.6358 3.12317 19.9505ZM11.437 10.0317C11.437 9.77384 11.648 9.56289 11.9058 9.56289H14.7183C14.9761 9.56289 15.1871 9.77384 15.1871 10.0317V24.0943C15.1871 24.3521 14.9761 24.563 14.7183 24.563H11.9058C11.648 24.563 11.437 24.3521 11.437 24.0943V10.0317ZM12.3746 13.3129H14.2496V12.3754H12.3746V13.3129ZM14.2496 15.1879H12.3746V14.2504H14.2496V15.1879ZM22.2493 12.3754C21.9746 12.3754 21.7496 12.6004 21.7496 12.8751V24.0943C21.7496 24.369 21.9746 24.594 22.2493 24.594L25 24.563C25.2747 24.563 25.4997 24.338 25.4997 24.0633V12.8751C25.4997 12.6004 25.2747 12.3754 25 12.3754H22.2493ZM24.5622 18.0005H22.6872V17.063H24.5622V18.0005ZM22.6872 19.8755H24.5622V18.938H22.6872V19.8755ZM17.0621 15.6567C17.0621 15.3979 17.2721 15.1879 17.5308 15.1879H19.4059C19.6637 15.1879 19.8746 15.3989 19.8746 15.6567V17.063H17.0621V15.6567ZM19.8746 21.7505H17.0621V18.0005H19.8746V21.7505ZM17.0621 22.688H19.8746V24.0943C19.8746 24.3521 19.6637 24.563 19.4059 24.563H17.5308C17.273 24.563 17.0621 24.3521 17.0621 24.0943V22.688ZM8.62452 26.438H28.3122V25.5005H8.62452V26.438Z" fill="#0E6FF9"/>
</svg>
