<svg width="30" height="30" viewBox="0 0 30 30" fill="none" xmlns="http://www.w3.org/2000/svg">
<circle cx="15" cy="15" r="15" fill="#8ABFD9"/>
<path d="M10.7148 20.2461C11.3643 20.2461 11.9521 20.1436 12.4854 19.9521L13.2852 21.0254H15.0078L13.6953 19.2617C14.7686 18.373 15.377 16.917 15.377 15.0713V15.0576C15.377 11.8789 13.5859 9.88965 10.7148 9.88965C7.85059 9.88965 6.0459 11.8789 6.0459 15.0576V15.0713C6.0459 18.2432 7.82324 20.2461 10.7148 20.2461ZM10.7148 18.7217C8.9375 18.7217 7.84375 17.2861 7.84375 15.0713V15.0576C7.84375 12.8291 8.96484 11.4141 10.7148 11.4141C12.4648 11.4141 13.5791 12.8291 13.5791 15.0576V15.0713C13.5791 16.2744 13.251 17.2451 12.6699 17.8877L11.9453 16.9102H10.2227L11.4941 18.6191C11.248 18.6875 10.9883 18.7217 10.7148 18.7217ZM16.4023 20H18.3301L20.6611 16.3701H20.7227L23.0537 20H25.0908L21.8438 15.0781V15.0576L25.1455 10.1357H23.1631L20.8799 13.8477H20.8047L18.5146 10.1357H16.4297L19.6221 15.0098V15.0303L16.4023 20Z" fill="white"/>
</svg>
