<svg width="30" height="30" viewBox="0 0 30 30" fill="none" xmlns="http://www.w3.org/2000/svg">
<circle cx="15" cy="15" r="15" fill="#4A5566"/>
<path fill-rule="evenodd" clip-rule="evenodd" d="M16.9246 16.6157V17.8168C17.14 17.9103 17.3871 18.0189 17.6639 18.1405L17.6651 18.1411L17.6745 18.1452L18.1116 18.3369L18.5413 18.5254C18.7734 18.627 19.0082 18.7277 19.245 18.8293L19.2451 18.8293L19.4451 18.9152C19.6937 19.0218 19.9332 19.1221 20.1623 19.2179L20.3119 19.2805L21.0508 19.5823C21.2705 19.6718 21.4472 19.7391 21.5848 19.7872C21.8718 19.89 22.1048 20.0453 22.283 20.2553C22.4605 20.4639 22.601 20.6754 22.7038 20.8966C22.8259 21.1495 22.9154 21.4165 22.9708 21.6968V23H7.0094V21.6968C7.07153 21.4165 7.16324 21.1495 7.28601 20.8966C7.38808 20.6754 7.5286 20.4639 7.70685 20.2553C7.88435 20.0453 8.11363 19.89 8.39468 19.7872C8.53816 19.7391 8.72676 19.6703 8.959 19.5764C9.17027 19.4932 9.40343 19.3973 9.6596 19.2919L9.73928 19.2591C10.0263 19.1393 10.3302 19.0106 10.6483 18.8737L10.8597 18.7827L10.8597 18.7826C11.1066 18.6764 11.3531 18.5703 11.5964 18.4633L11.851 18.3525L11.8514 18.3523C12.0736 18.2557 12.2862 18.1632 12.4899 18.0735C12.7709 17.95 13.018 17.8405 13.2287 17.7444V16.5743C13.2205 16.539 13.2078 16.4909 13.1918 16.43L13.1918 16.43L13.1637 16.3228C13.1319 16.2097 13.0993 16.095 13.0646 15.9782C13.0239 15.8428 12.9758 15.6949 12.9218 15.5374C12.7221 15.1683 12.5653 14.7497 12.4492 14.2808C12.3331 13.8119 12.2747 13.3141 12.2747 12.7875C12.2747 12.0953 12.3486 11.5102 12.4951 11.0324C12.6422 10.5524 12.8427 10.1627 13.0964 9.86164C13.3486 9.56062 13.6444 9.3417 13.9839 9.20413C14.3226 9.06656 14.6865 9 15.077 9C15.4609 9 15.8211 9.06582 16.1598 9.19969C16.4985 9.33282 16.7959 9.54805 17.0532 9.84537C17.3099 10.1442 17.5111 10.5339 17.6582 11.0169C17.8054 11.4976 17.8794 12.0893 17.8794 12.7875C17.8794 13.3008 17.8224 13.7875 17.71 14.2497C17.5969 14.712 17.4415 15.1269 17.2433 15.4982L17.2101 15.6007L17.2101 15.6009C17.1674 15.7327 17.1266 15.8587 17.0895 15.9782C17.0481 16.1091 17.0104 16.2341 16.9756 16.3532C16.9416 16.4737 16.9246 16.5617 16.9246 16.6157ZM25.4751 18.4481C25.4152 18.3194 25.3339 18.1951 25.2303 18.0739C25.126 17.9518 24.99 17.8608 24.8221 17.8002C24.7422 17.7728 24.6394 17.7329 24.51 17.6811C24.4346 17.6498 24.3533 17.6165 24.266 17.5807L24.0802 17.5044C23.9205 17.4385 23.7511 17.3683 23.5744 17.2928L23.3731 17.2059C23.2636 17.1586 23.1546 17.1116 23.0463 17.0643C22.9484 17.0212 22.852 16.9791 22.7571 16.9377L22.7568 16.9375L22.5411 16.8431C22.3777 16.7707 22.232 16.7063 22.1048 16.6516V15.9504C22.1048 15.9194 22.1144 15.8683 22.1343 15.7973C22.1473 15.7526 22.1613 15.7063 22.1757 15.6582L22.1994 15.5792L22.2219 15.509L22.2219 15.5089C22.2435 15.4416 22.266 15.3713 22.2889 15.2981C22.4058 15.0821 22.4953 14.8403 22.5618 14.5711C22.6277 14.3011 22.6602 14.0171 22.6602 13.7176C22.6602 13.3108 22.618 12.9647 22.5322 12.6843C22.4465 12.4033 22.3281 12.1755 22.1787 12.0009C22.0286 11.8279 21.8548 11.7029 21.658 11.6245C21.4598 11.5461 21.2505 11.5076 21.0257 11.5076C20.7979 11.5076 20.5863 11.5476 20.3896 11.6274C20.1907 11.7073 20.0183 11.8345 19.8704 12.0106C19.7225 12.1858 19.6056 12.4136 19.5206 12.6932C19.434 12.972 19.3911 13.3145 19.3911 13.7176C19.3911 14.0245 19.4252 14.3152 19.4939 14.5881C19.562 14.8617 19.6522 15.1058 19.7683 15.3218C19.8001 15.4127 19.829 15.5 19.8527 15.5792C19.8726 15.6472 19.8919 15.7138 19.9096 15.7796L19.9268 15.8438C19.9362 15.8784 19.9436 15.9058 19.9488 15.9268V16.6094C19.8572 16.6506 19.7542 16.6962 19.6404 16.7466L19.64 16.7468L19.5176 16.801L19.35 16.8741L19.3498 16.8742C19.2362 16.9237 19.1183 16.9751 18.9962 17.0288C18.8765 17.0811 18.7556 17.1331 18.6344 17.1852L18.6342 17.1853L18.443 17.2677C18.2573 17.3476 18.0798 17.423 17.9119 17.4925L17.896 17.4992L17.8801 17.5058L18.812 17.9141C19.0162 18.0036 19.2218 18.0923 19.4296 18.1811L19.7121 18.3031C19.9006 18.384 20.0851 18.4612 20.2637 18.536L20.2641 18.5362L20.451 18.6145L21.3067 18.9651C21.5116 19.0487 21.678 19.1123 21.8074 19.1574C22.2105 19.3016 22.5419 19.5257 22.7941 19.8238C23.0137 20.0804 23.1831 20.3393 23.3111 20.6144C23.3717 20.7401 23.4227 20.8718 23.4701 21.0056H25.6305V19.6751C25.5987 18.7513 25.5476 18.5953 25.4751 18.4481ZM7.20227 19.8227C6.97965 20.0845 6.81028 20.3419 6.68824 20.6059C6.62612 20.7346 6.57286 20.8692 6.52331 21.0053H4.34961V18.9144C4.38511 18.7517 4.43836 18.5949 4.51084 18.4485C4.57001 18.3198 4.65211 18.1955 4.75565 18.0735C4.85994 17.9515 4.99307 17.8605 5.15726 17.8006C5.24083 17.7732 5.35104 17.7318 5.48638 17.6778C5.62247 17.6238 5.77409 17.5624 5.94124 17.4929C6.10913 17.4226 6.28664 17.3472 6.47228 17.2681C6.56797 17.2263 6.66367 17.185 6.75916 17.1438C6.84817 17.1053 6.93701 17.067 7.0255 17.0284C7.08871 17.0009 7.15077 16.9739 7.21168 16.9474C7.32756 16.897 7.43931 16.8484 7.54693 16.8014C7.61566 16.7706 7.681 16.7416 7.74282 16.7142C7.82802 16.6765 7.90654 16.6417 7.97812 16.6091V15.9264C7.97281 15.9057 7.9653 15.8777 7.95579 15.8422C7.95072 15.8234 7.94509 15.8024 7.93892 15.7792C7.92117 15.7134 7.90194 15.6476 7.88123 15.5795C7.8583 15.5004 7.82945 15.4131 7.79765 15.3214C7.68153 15.1062 7.59056 14.8621 7.52252 14.5885C7.45447 14.3156 7.42119 14.0249 7.42119 13.7172C7.42119 13.3141 7.46335 12.9724 7.54914 12.6929C7.63494 12.414 7.7518 12.1862 7.89972 12.011C8.0469 11.8349 8.21997 11.7077 8.41818 11.6278C8.61492 11.5472 8.82718 11.5073 9.05572 11.5073C9.27908 11.5073 9.48913 11.5465 9.68734 11.6241C9.88482 11.7025 10.0579 11.8275 10.2088 12.0013C10.3574 12.1751 10.4758 12.4037 10.5608 12.6847C10.6474 12.965 10.6903 13.3104 10.6903 13.7172C10.6903 14.0175 10.657 14.3015 10.5911 14.5707C10.5246 14.8399 10.4343 15.0825 10.3182 15.2985C10.2872 15.3976 10.2576 15.4915 10.2287 15.5795C10.214 15.6269 10.2002 15.673 10.1869 15.7175C10.1787 15.7447 10.1708 15.7712 10.1629 15.797C10.1429 15.868 10.1333 15.9198 10.1333 15.9508V16.6512C10.2106 16.6847 10.2943 16.7214 10.3846 16.7611C10.4439 16.7871 10.5061 16.8144 10.5712 16.8428C10.6668 16.8849 10.7644 16.9279 10.8638 16.9716C10.9336 17.0022 11.0042 17.0333 11.0756 17.0647C11.0991 17.0748 11.1226 17.085 11.1462 17.0952C11.2976 17.1606 11.4501 17.2266 11.6037 17.2925C11.758 17.3583 11.9066 17.4202 12.0482 17.4792C12.0688 17.4878 12.0892 17.4963 12.1096 17.5047C12.1108 17.5051 12.112 17.5055 12.1132 17.506C12.1147 17.5066 12.1163 17.5073 12.1184 17.5077L11.3315 17.8524C11.1346 17.9387 10.9364 18.0243 10.7373 18.1102C10.6687 18.1398 10.6 18.1695 10.5312 18.1992L10.3863 18.2614C10.0719 18.3974 9.77092 18.5247 9.48765 18.6423C9.44428 18.6601 9.40157 18.6776 9.35952 18.6949C9.12546 18.791 8.9114 18.879 8.71328 18.9573C8.49584 19.0453 8.31981 19.1097 8.16819 19.1607C7.77768 19.3042 7.45226 19.5276 7.20227 19.8227Z" fill="white"/>
</svg>
